<?xml version="1.0" encoding="utf-8"?>
<svg xmlns="http://www.w3.org/2000/svg" width="768" height="1023">
  <path fill="#F5F5F5" d="M0 0L1024 0L1024 1363.83C1023.55 1364.09 1023.05 1364.42 1022.54 1364.59C1017.87 1366.16 977.573 1365 969.913 1365L810.316 1365.01L16.2249 1365C11.8007 1365 3.79054 1366 0 1363.83L0 0Z" transform="scale(0.75 0.75)"/>
  <path d="M 184.073 925.988 C 189.537 928.32 195.406 930.037 201.021 931.995 L 232.637 943.103 L 337.994 979.8 C 343.492 981.698 370.465 990.098 373.049 992.198 C 373.663 992.692 373.512 992.768 373.601 993.503 L 372.752 994.095 C 372.307 994.245 372.229 994.305 371.686 994.305 C 368.674 994.283 184.004 929.317 183.062 928.507 C 183.002 927.248 183.378 927 184.073 925.988 Z"/>
  <path d="M 253.066 915.795 C 258.283 917.228 288.927 916.23 296.709 916.245 L 405.035 916.695 C 426.797 916.695 448.642 916.14 470.394 916.515 C 472.07 916.545 474.144 916.365 475.649 917.145 L 475.757 918.06 C 475.501 918.36 475.336 918.585 475.013 918.833 C 472.844 920.535 289.405 919.23 268.655 919.058 C 264.532 919.027 260.343 919.553 256.254 919.373 C 254.737 919.305 253.946 919.103 252.952 918.007 L 253.066 915.795 Z"/>
  <path d="M 586.936 914.94 C 592.831 916.463 601.36 916.185 607.589 916.8 C 627.098 918.72 660.619 923.13 677.075 933.743 C 680.274 935.805 684.567 939.45 685.281 943.38 C 685.855 946.545 684.52 949.665 682.757 952.23 C 674.566 964.118 657.195 969.578 643.531 972.053 C 614.509 977.31 584.165 977.678 554.755 977.295 C 528.968 977.085 503.238 975.77 477.564 973.35 C 472.861 972.878 459.757 972.51 456.247 970.073 L 454.912 970.328 L 454.012 969.698 L 454.087 968.723 C 455.782 967.253 458.346 967.928 460.369 968.213 C 503.859 974.333 623.083 980.115 661.247 964.035 C 668.11 961.148 678.952 955.358 681.747 947.887 C 681.835 947.658 681.912 947.423 681.977 947.183 C 682.042 946.948 682.095 946.708 682.135 946.463 C 682.175 946.218 682.202 945.973 682.218 945.728 C 682.233 945.483 682.235 945.238 682.225 944.993 C 682.215 944.743 682.193 944.498 682.158 944.257 C 682.123 944.013 682.075 943.77 682.015 943.53 C 681.955 943.29 681.883 943.055 681.799 942.825 C 681.715 942.59 681.62 942.363 681.513 942.143 C 674.693 927.705 622.098 921.128 606.974 919.673 C 601.088 919.103 591.564 919.703 586.312 918.015 C 586.027 916.53 586.314 916.275 586.936 914.94 Z"/>
  <path d="M 262.315 154.978 C 260.245 145.004 256.726 135.102 255.436 125 C 254.267 115.849 257.767 95.203 263.86 87.773 C 266.065 85.084 269.167 83.411 272.658 83.241 C 276.004 83.078 279.138 84.393 281.616 86.601 C 286.099 90.596 295.792 101.386 295.768 107.303 C 295.762 108.419 285.421 126.741 283.987 128.903 C 282.79 130.708 281.217 132.346 279.774 133.959 C 280.901 136.996 282.361 144.092 284.679 146.065 C 285.546 145.79 286.513 145.403 287.428 145.398 C 288.33 145.393 288.685 145.563 289.189 146.345 C 291.313 149.634 293.667 157.464 295.037 161.399 C 296.453 165.466 297.591 169.679 299.251 173.651 C 302.829 182.211 307.411 190.529 311.474 198.878 C 317.392 211.039 323.269 226.269 331.603 236.816 C 337.516 244.297 345.46 250.325 352.434 256.796 C 352.174 248.115 353.384 240.263 359.582 233.717 C 366.275 226.649 374.554 225.273 383.812 225.086 C 384.148 215.823 388.264 205.77 393.85 198.448 C 399.76 190.7 408.46 185.141 418.2 183.888 C 432.397 182.062 446.671 188.188 457.273 197.332 C 460.764 200.342 463.792 204.051 467.368 206.912 C 469.663 208.748 472.957 209.058 475.285 210.95 C 480.502 215.19 484.005 221.425 484.511 228.171 C 484.98 234.418 482.693 240.572 478.594 245.27 C 474.421 250.053 468.888 252.594 462.625 253.087 C 460.254 256.21 458.03 259.331 455.947 262.66 C 457.396 265.245 459.605 267.977 460.594 270.747 C 461.005 271.9 461.096 271.964 460.565 273.06 C 457.567 274.589 454.167 276.052 451.635 278.294 C 447.021 282.38 440.92 294.244 434.627 295.171 C 429.15 295.977 420.472 289.555 416.265 286.311 C 414.137 289.486 412.172 292.469 410.657 295.996 C 411.667 298.575 413.872 304.552 416.032 306.182 C 417.022 306.93 418.266 306.097 419.519 306.88 C 420.734 307.638 421.202 308.999 421.544 310.308 L 421.133 310.745 L 419.056 310.434 L 418.765 310.801 C 423.612 319.971 428.135 330.366 434.053 338.84 C 433.342 335.436 432.404 332.143 431.094 328.917 C 428.169 321.712 414.64 296.387 415.387 289.422 L 415.885 289.237 C 417.748 291.52 434.459 329.177 435.631 333.279 C 436.656 336.866 435.781 340.832 436.986 344.318 C 440.257 353.777 445.604 361.781 445.762 372.2 C 445.875 379.548 443.128 386.058 441.652 393.137 C 440.474 398.794 440.23 404.553 440.071 410.31 C 444.151 412.793 448.208 415.381 452.502 417.479 C 458.64 420.478 466.065 423.249 471.685 427.039 C 472.677 427.708 473.011 428.853 473.38 429.934 C 473.437 430.097 473.488 430.262 473.541 430.425 C 478.959 435.161 493.948 438.004 501.025 439.475 C 509.079 427.531 515.415 413.848 524.369 402.602 C 532.153 402.848 540.002 404.02 547.746 404.882 C 561.378 406.398 574.997 408.029 588.601 409.776 C 589.933 410.003 591.254 410.151 592.598 410.282 C 594.679 410.581 597.196 410.803 598.733 412.399 C 600.421 414.151 600.221 416.648 600.283 418.907 C 596.095 426.099 591.218 432.899 586.72 439.898 C 573.278 460.811 559.281 481.472 546.622 502.871 C 535.247 503.169 523.85 503.887 512.476 504.338 C 496.627 504.967 478.047 504.759 462.844 508.708 C 459.073 505.714 455.635 501.835 452.179 498.455 C 456.094 514.316 457.366 531.769 457.531 548.103 C 457.604 555.373 456.313 564.293 457.779 571.334 C 458.944 576.93 461.941 582.35 464.228 587.58 C 466.733 593.298 469.118 599.066 471.382 604.882 C 479.724 626.031 486.885 647.572 492.865 669.504 C 504.277 712.301 512.085 756.218 521.858 799.418 C 524.008 808.92 528.815 835.005 532.88 842.925 C 532.629 843.555 532.354 844.095 531.982 844.665 C 530.861 846.368 529.134 848.527 527.043 848.94 C 529.53 859.882 535.027 873.637 539.937 883.8 L 540.158 884.078 C 542.198 884.588 543.682 885.277 545.457 886.365 C 550.849 889.665 564.295 912.27 570.641 919.418 C 577.167 926.768 585.912 931.305 592.021 939.105 C 595.451 943.485 597.324 948.09 598.816 953.415 C 598.386 956.04 597.495 958.958 595.672 960.975 C 591.67 965.4 585.549 965.993 579.935 966.24 C 568.945 966.72 556.45 964.275 547.496 957.54 C 543.619 954.615 540.198 950.925 536.217 948.188 C 533.081 946.027 528.827 945.382 526.021 942.825 C 525.457 945.608 525.163 949.853 522.758 951.578 C 516.973 952.785 505.245 947.775 500.025 945.09 C 494.476 942.24 489.284 938.393 487.296 932.265 C 487.678 927.315 488.164 921.248 490.764 916.912 L 492.397 914.183 C 493.414 905.7 497.785 887.49 504.303 881.468 C 501.759 872.865 498.868 864.382 496.255 855.803 C 495.352 855.803 494.408 855.833 493.512 855.705 C 491.947 855.488 490.004 855.015 489.428 853.38 C 479.734 825.863 468.772 798.945 457.847 771.908 C 451.143 755.318 443.851 738.625 438.541 721.525 C 437.046 716.709 435.781 711.718 435.159 706.712 C 434.411 700.693 434.665 694.676 432.445 688.919 C 429.621 681.596 424.683 674.945 420.075 668.662 C 413.62 681.571 409.075 698.629 397.255 707.97 C 392.579 711.665 386.923 713.129 381.029 712.322 C 376.904 711.757 372.958 710.213 369.273 708.323 C 354.996 701.004 341.748 691.219 328.81 681.765 C 310.799 668.603 292.993 654.997 276.305 640.18 C 272.121 636.465 267.139 632.662 263.796 628.175 C 264.976 624.248 266.69 620.495 268.291 616.725 C 260.857 609.908 252.629 603.66 244.828 597.242 C 243.409 599.329 241.882 601.201 240.205 603.088 C 219.038 585.193 189.084 603.901 174.482 598.145 C 169.977 596.369 164.8 589.743 163.273 585.268 C 162.425 582.785 163.481 579.676 164.607 577.425 C 170.773 565.097 185.447 554.273 198.397 550.187 C 204.304 548.323 210.499 547.568 216.39 545.612 L 217.106 545.37 C 216.081 544.034 214.744 542.731 214.718 540.978 C 215.108 539.984 215.56 539.457 216.356 538.738 C 223.911 531.92 237.58 527.736 247.65 528.248 C 252.248 528.482 256.207 529.99 259.294 533.511 C 264.124 539.022 262.676 545.385 264.471 551.891 C 266.534 559.369 271.429 565.772 273.72 573.041 C 274.212 574.601 273.916 576.797 273.799 578.421 C 276.574 581.591 281.442 585.803 285.13 587.818 C 286.497 588.566 286.916 588.023 288.27 587.636 C 290.268 587.065 291.347 587.693 293.086 588.683 C 297.352 591.113 301.252 594.293 305.268 597.118 C 309.958 600.417 314.842 603.496 319.626 606.659 C 334.244 616.325 349.202 625.274 364.258 634.232 C 361.668 619.347 359.699 604.226 358.078 589.207 C 357.43 583.195 357.735 576.834 356.631 570.914 C 355.843 566.689 352.758 562.796 351.242 558.763 C 347.384 548.498 345.974 537.23 345.051 526.38 C 344.291 526.088 343.537 525.784 342.787 525.468 C 333.987 521.781 269.785 482.371 267.429 475.964 C 262.794 463.361 287.221 392.513 294.611 377.684 C 298.338 370.206 303.956 368.084 311.489 365.58 C 319.924 347.456 328.801 329.552 338.122 311.867 C 324.476 292.002 307.701 274.019 295.531 253.127 C 289.569 242.895 285.156 231.469 280.747 220.495 C 278.948 216.018 267.595 185.872 266.506 185.195 C 266.213 185.014 265.926 184.823 265.627 184.652 C 265.022 184.305 264.369 184.022 263.862 183.527 C 262.096 181.803 254.829 164.501 255.374 162.38 C 256.057 159.722 260.281 156.772 262.315 154.978 Z"/>
  <path fill="#F5F5F5" d="M 278.772 102.958 C 278.278 101.447 277.676 100.559 278.284 99.017 C 280.018 97.426 281.119 97.254 283.413 97.356 C 285.268 97.439 287.014 97.584 288.652 98.526 L 289.246 99.964 C 287.881 101.75 282.732 102.189 280.567 102.482 L 279.487 102.005 C 279.367 102.212 279.27 102.435 279.126 102.627 C 279.029 102.756 278.89 102.848 278.772 102.958 Z"/>
  <path fill="#F5F5F5" d="M 440.052 413.78 C 443.698 415.496 447.307 417.979 450.787 420.038 C 448.706 422.24 446.841 424.57 444.973 426.953 C 443.533 428.975 442.316 431.232 441.034 433.361 C 440.153 426.987 440.118 420.222 440.052 413.78 Z"/>
  <path d="M 240.243 531.497 C 244.187 531.046 249.67 530.689 253.325 532.293 C 256.785 533.811 257.872 536.244 259.23 539.509 C 251.281 535.858 243.009 536.417 234.645 538.147 C 229.7 539.978 224.905 542.053 220.096 544.211 L 217.897 540.764 C 224.755 536.087 232.051 532.937 240.243 531.497 Z" style="fill: rgb(40, 75, 99);"/>
  <path d="M 490.543 927 C 492.235 928.328 493.662 929.933 495.361 931.245 C 500.812 935.46 516.01 943.32 523.201 942.375 C 522.904 944.287 522.564 946.088 521.992 947.948 L 520.93 948.885 C 520.531 948.863 520.131 948.855 519.735 948.803 C 511.038 947.67 497.555 942.743 492.248 935.618 C 490.012 932.61 490.048 930.51 490.543 927 Z" style="fill: rgb(40, 75, 99);"/>
  <path d="M 443.182 463.756 C 443.259 463.818 443.342 463.872 443.413 463.94 C 445.093 465.559 458.576 490.604 461.324 495.13 C 462.667 497.341 466.75 502.631 466.791 504.963 C 465.886 505.091 464.709 505.335 463.814 505.106 C 462.578 504.788 460.975 503.328 459.975 502.553 C 449.863 494.723 448.102 482.648 442.897 471.686 C 443.197 469.026 443.216 466.432 443.182 463.756 Z" style="fill: rgb(217, 217, 217);"/>
  <path d="M 528.943 405.761 C 541.126 406.689 553.314 408.382 565.461 409.747 C 575.593 410.885 586.156 411.539 596.103 413.747 C 597.351 414.917 597.503 416.061 598.004 417.643 C 583.318 415.352 568.457 413.775 553.688 412.091 C 546.743 411.299 539.213 411.001 532.425 409.489 C 530.695 409.104 529.822 407.164 528.943 405.761 Z" style="fill: rgb(217, 217, 217);"/>
  <path d="M 360.746 635.231 L 364.708 637.528 C 365.766 643.482 366.669 649.457 367.882 655.383 C 369.212 661.875 371.175 668.726 371.522 675.343 C 371.595 676.722 371.407 677.838 370.884 679.111 C 369.721 678.476 368.91 677.626 368.162 676.535 C 361.006 666.095 358.253 647.672 360.746 635.231 Z" style="fill: rgb(60, 110, 113);"/>
  <path fill="#F5F5F5" d="M 340.069 346.706 C 340.828 348.46 340.637 350.9 340.679 352.817 C 340.964 365.732 338.116 378.04 334.59 390.368 C 332.428 389.469 330.318 388.043 328.28 386.875 C 326.941 386.121 325.66 385.219 324.367 384.386 C 328.782 371.484 334.016 358.924 340.069 346.706 Z"/>
  <path d="M 466.005 210.378 C 471.229 211.484 475.439 214.131 478.384 218.674 C 478.564 218.955 478.736 219.241 478.902 219.53 C 479.068 219.82 479.226 220.113 479.377 220.41 C 479.529 220.708 479.673 221.009 479.809 221.313 C 479.945 221.618 480.074 221.925 480.195 222.236 C 480.316 222.546 480.429 222.86 480.535 223.177 C 480.64 223.493 480.737 223.812 480.827 224.133 C 480.917 224.454 480.998 224.777 481.072 225.103 C 481.145 225.428 481.211 225.755 481.268 226.084 C 481.326 226.412 481.375 226.742 481.416 227.073 C 481.457 227.404 481.49 227.736 481.514 228.068 C 481.539 228.401 481.556 228.734 481.564 229.067 C 481.572 229.401 481.571 229.734 481.563 230.068 C 481.554 230.401 481.538 230.734 481.513 231.067 C 481.488 231.399 481.454 231.731 481.413 232.062 C 481.371 232.393 481.322 232.723 481.264 233.051 C 481.206 233.38 481.14 233.706 481.066 234.032 C 479.727 239.781 475.798 244.832 470.757 247.841 C 468.661 249.092 466.348 249.84 464.002 250.464 C 468.403 241.811 471.969 231.615 468.896 221.915 C 468.13 219.5 467.225 217.206 465.262 215.512 C 465.509 215.175 465.753 214.835 465.956 214.469 C 466.712 213.104 466.45 211.79 466.005 210.378 Z" style="fill: rgb(40, 75, 99);"/>
  <path fill="#F5F5F5" d="M 439.54 462.889 L 440.091 463.443 C 440.732 465.807 440.521 468.327 440.497 470.76 C 421.909 476.957 403.172 477.478 384.138 473.01 C 384.969 470.066 386.42 467.237 387.662 464.445 C 404.989 468.979 422.786 470.618 439.54 462.889 Z"/>
  <path fill="#F5F5F5" d="M 213.052 580.065 C 225.639 580.581 233.685 586.99 242.358 595.456 L 240.064 598.955 C 236.804 596.941 233.458 595.392 229.839 594.146 C 225.664 592.895 221.232 592.485 216.889 592.372 C 212.693 592.262 201.962 594.34 198.714 592.208 C 197.536 591.434 196.267 590.483 196.063 588.982 C 195.939 588.068 196.31 587.132 196.886 586.419 C 200.389 582.086 207.836 580.58 213.052 580.065 Z"/>
  <path fill="#F5F5F5" d="M 454.219 421.354 C 459.562 423.648 464.757 426.698 469.927 429.377 C 465.171 435.955 459.932 442.283 454.959 448.704 C 454.626 449.057 454.388 449.339 453.984 449.63 C 452.206 450.912 444.325 447.524 442.063 446.914 C 441.883 444.735 441.504 442.286 441.802 440.115 C 442.776 433.032 448.821 425.645 454.219 421.354 Z"/>
  <path fill="#F5F5F5" d="M 470.048 433.153 C 480.083 435.791 489.093 440.05 499.487 441.688 C 496.513 446.384 493.675 451.33 490.351 455.78 C 480.052 453.566 470.065 450.022 460.07 446.741 C 463.57 442.324 466.822 437.771 470.048 433.153 Z"/>
  <path fill="#F5F5F5" d="M 458.16 449.528 C 468.416 452.532 478.334 456.35 488.85 458.446 L 483.858 467.027 C 479.812 466.949 475.914 466.749 471.897 466.202 C 462.613 465.218 451.641 463.205 443.122 459.307 C 442.724 456.166 442.545 453.049 442.408 449.887 C 445.741 450.794 449.272 453.06 452.788 452.889 C 455.311 452.766 456.539 451.23 458.16 449.528 Z"/>
  <path d="M 446.058 463.584 C 449.409 464.341 452.691 465.587 456.049 466.402 C 464.54 468.462 473.075 469.551 481.797 469.931 L 472.122 486.149 C 469.826 489.615 467.695 493.182 465.541 496.737 C 458.846 485.821 452.737 474.526 446.058 463.584 Z" style="fill: rgb(217, 217, 217);"/>
  <path d="M 241.183 540.003 C 245.561 539.37 251.401 539.678 255.62 541.177 C 257.398 541.809 260.35 543.151 261.043 544.997 C 261.349 545.81 261.034 546.034 260.719 546.791 C 260.471 546.926 260.257 547.18 259.976 547.195 C 259.825 547.203 250.426 543.678 245.767 543.68 C 242.438 543.681 239.205 544.324 236.04 545.324 C 230.435 547.097 225.274 550.201 219.79 552.332 C 210.741 555.851 201.159 557.813 192.622 562.596 C 186.712 565.907 181.85 570.185 177.134 574.982 C 174.017 578.596 171.553 583.527 167.944 586.553 L 167.034 586.045 C 166.335 584.863 165.982 583.916 165.755 582.556 C 165.417 580.533 168.396 576.306 169.544 574.725 C 177.217 564.161 188.061 556.094 200.708 552.57 C 206.231 551.032 211.867 550.109 217.284 548.173 C 225.36 545.285 232.579 541.352 241.183 540.003 Z" style="fill: rgb(40, 75, 99);"/>
  <path d="M 492.541 918.848 C 496.663 920.468 499.264 926.205 503.466 928.455 C 512.672 933.375 523.031 933.893 532.385 938.063 C 545.956 944.123 552.893 953.543 569.17 956.287 C 573.655 957.037 579.001 957.608 583.558 957.293 C 586.303 957.098 593.349 954.623 595.481 955.583 C 595.502 955.942 595.535 956.048 595.403 956.438 C 595.021 957.563 594.147 958.448 593.1 958.942 C 592.605 959.783 591.948 960.442 591.085 960.908 C 587.544 962.82 582.373 962.918 578.406 963.135 C 565.484 963.825 555.634 960.233 545.743 952.088 C 542.018 949.02 538.434 945.855 534.109 943.628 C 527.965 940.463 520.665 939.27 514.078 937.215 C 507.221 935.078 495.22 930.398 492.059 923.295 C 491.315 921.623 492.009 920.438 492.541 918.848 Z" style="fill: rgb(40, 75, 99);"/>
  <path fill="#F5F5F5" d="M 377.457 269.101 C 382.803 273.084 397.342 296.567 401.683 303.062 C 399.343 307.65 396.766 312.143 394.3 316.666 C 384.751 309.496 374.756 282.131 369.898 270.908 C 372.405 270.104 374.866 269.562 377.457 269.101 Z"/>
  <path d="M 524.932 406.276 C 526.406 407.48 527.38 408.917 528.475 410.451 C 521.67 422.936 513.845 434.973 506.329 447.043 L 471.039 503.471 C 469.582 502.301 468.36 500.886 467.095 499.516 C 474.501 485.474 484.081 472.106 492.463 458.597 L 511.421 428.229 C 515.897 420.916 520.085 413.347 524.932 406.276 Z" style="fill: rgb(217, 217, 217);"/>
  <path fill="#F5F5F5" d="M 286.093 148.199 C 288.741 150.059 292.792 163.702 294.168 167.537 C 285.085 173.675 276.721 178.325 266.522 182.35 C 265.411 180.555 264.542 178.573 263.608 176.68 C 261.797 172.2 259.663 167.801 257.696 163.382 C 259.185 161.672 260.579 159.764 262.573 158.632 L 263.48 158.971 C 263.71 160.438 263.445 160.881 262.666 162.092 C 262.576 162.231 262.482 162.367 262.39 162.504 L 262.779 163.361 L 263.965 163.559 C 270.608 160.891 279.031 156.5 284.305 151.623 C 284.629 150.305 284.941 149.477 285.857 148.452 C 285.934 148.367 286.014 148.283 286.093 148.199 Z"/>
  <path d="M 339.663 315.242 C 340.492 318.095 340.048 321.831 340.039 324.803 C 340.027 329.246 340.561 334.62 339.704 338.963 C 338.581 344.648 334.879 350.791 332.489 356.121 C 328.487 365.048 324.709 373.738 321.782 383.09 C 319.743 381.891 317.727 380.65 315.703 379.429 L 310.132 375.818 C 315.49 363.485 321.501 351.337 327.449 339.275 C 331.408 331.248 335.209 323.003 339.663 315.242 Z" style="fill: rgb(217, 217, 217);"/>
  <path fill="#F5F5F5" d="M 402.746 306.784 C 403.081 307.123 403.183 307.181 403.417 307.676 C 405.006 311.037 405.89 319.904 406.532 323.77 C 411.273 352.326 413.33 392.28 401.312 419.336 C 400.889 417.982 401.352 416.337 401.545 414.934 C 405.117 384.921 398.697 357.899 389.41 329.645 C 394.769 322.634 398.852 314.668 402.746 306.784 Z"/>
  <path d="M 381.922 227.66 L 383.222 227.638 C 383.447 227.89 383.746 228.092 383.898 228.393 C 384.241 229.076 384.077 231.794 384.168 232.693 C 384.317 234.193 384.549 235.68 384.865 237.155 C 385.18 238.629 385.577 240.08 386.055 241.511 C 387.807 246.713 390.662 250.869 393.977 255.159 C 390.546 260.396 387.093 265.346 382.697 269.831 C 381.85 268.577 380.863 267.05 379.414 266.432 C 376.528 265.199 372.193 267.302 369.382 268.268 L 367.893 268.676 C 363.751 267.645 358.778 261.962 355.64 259.113 C 355.57 258.518 355.507 257.922 355.45 257.326 C 354.741 249.848 355.965 242.255 360.949 236.355 C 366.262 230.066 374.093 228.389 381.922 227.66 Z" style="fill: rgb(40, 75, 99);"/>
  <path fill="#F5F5F5" d="M 250.146 568.407 C 250.444 568.375 250.742 568.349 251.041 568.328 C 252.919 568.205 254.615 568.416 256.342 569.201 C 263.77 572.577 277.55 585.337 284.194 591.199 C 278.963 597.641 274.652 604.924 270.589 612.136 L 269.707 613.379 C 269.218 613.319 269.063 613.33 268.555 613.093 C 266.56 612.161 245.447 594.494 243.038 592.018 C 241.672 590.614 240.462 588.923 239.743 587.097 C 238.478 583.879 238.911 580.529 240.322 577.445 C 242.413 572.876 245.482 570.149 250.146 568.407 Z"/>
  <path fill="#F5F5F5" d="M 260.963 137.053 C 257.275 122.359 257.218 112.177 261.984 97.721 C 263.536 93.016 265.459 89.745 270.016 87.485 C 272.225 86.39 275.39 85.186 277.81 85.977 C 278.668 86.874 278.638 87.147 278.859 88.329 C 276.441 90.602 270.975 88.381 267.969 92.442 C 268.009 93.355 267.973 93.652 268.463 94.417 C 269.509 96.047 270.852 96.924 272.714 97.349 C 272.74 95.691 271.56 95.086 271.531 93.505 C 271.832 93.3 272.102 93.097 272.427 92.936 C 275.158 91.581 278.867 91.221 281.736 92.219 C 282.884 92.618 283.844 93.116 284.415 94.229 C 282.652 95.733 278.232 95.693 275.901 95.976 C 275.602 96.431 275.3 96.889 275.03 97.361 C 274.261 98.708 274.276 99.49 274.648 100.967 C 275.859 102.367 277.008 102.586 278.772 102.958 C 278.585 104.702 279.53 106.51 280.527 107.877 C 282.607 108.569 283.7 104.676 286.611 103.562 C 288.031 103.018 289.473 103.033 290.816 103.772 C 291.764 104.294 292.629 105.19 292.906 106.255 C 293.223 107.473 292.982 107.611 292.365 108.623 C 290.043 109.496 286.713 109.027 284.218 108.965 C 284.579 111.204 285.195 113.636 285.232 115.897 C 285.352 123.032 281.465 126.83 277.07 131.767 C 276.124 132.83 275.835 133.294 275.899 134.709 C 279.463 137.457 280.996 145.886 282.413 150.239 L 266.212 159.64 C 264.472 152.103 263.104 144.492 260.963 137.053 Z"/>
  <path fill="#F5F5F5" d="M 243.751 546.496 C 250.22 545.885 255.801 548.204 261.419 551.117 C 263.081 555.488 264.533 560.022 266.422 564.296 C 267.69 567.165 269.481 569.93 270.559 572.852 C 270.99 574.02 271.198 574.664 270.906 575.855 C 266.494 575.052 262.028 565.565 252.226 565.507 C 248.49 565.485 245.122 567.017 242.46 569.57 C 237.927 573.917 236.079 579.466 235.99 585.6 C 232.177 582.906 228.154 580.484 223.721 578.955 C 215.22 576.023 206.873 576.971 198.876 580.831 C 196.751 582.305 194.639 583.919 193.986 586.576 C 193.222 589.681 194.809 592.072 196.434 594.53 C 191.016 595.294 185.039 596.765 179.575 596.26 C 174.932 595.832 172.582 593.918 169.693 590.507 C 170.8 588.23 172.265 586.09 173.734 584.033 C 188.638 563.159 199.052 563.655 220.585 555.056 C 228.418 551.928 235.283 547.905 243.751 546.496 Z"/>
  <path d="M 395.645 253.15 C 389.386 244.954 386.702 236.518 386.916 226.185 C 387.151 214.893 392.089 203.361 400.324 195.581 C 400.718 195.201 401.121 194.832 401.534 194.472 C 401.947 194.113 402.368 193.764 402.799 193.426 C 403.229 193.088 403.667 192.761 404.114 192.445 C 404.561 192.129 405.016 191.824 405.478 191.531 C 405.94 191.238 406.409 190.957 406.885 190.688 C 407.362 190.419 407.845 190.162 408.334 189.917 C 408.824 189.671 409.319 189.439 409.82 189.219 C 410.321 188.999 410.828 188.792 411.34 188.597 C 411.851 188.403 412.367 188.222 412.888 188.054 C 413.409 187.885 413.933 187.73 414.462 187.589 C 414.99 187.447 415.522 187.318 416.057 187.203 C 416.592 187.088 417.13 186.987 417.67 186.899 C 418.21 186.811 418.752 186.736 419.296 186.676 C 419.84 186.615 420.386 186.569 420.932 186.536 C 421.478 186.503 422.025 186.483 422.572 186.478 C 423.119 186.473 423.666 186.481 424.213 186.503 C 442.877 187.205 454.09 197.562 466.005 210.378 C 466.45 211.79 466.712 213.104 465.956 214.469 C 465.753 214.835 465.509 215.175 465.262 215.512 C 463.574 217.719 461.877 219.896 459.914 221.869 C 447.715 234.132 434.141 237.599 417.388 237.548 C 416.023 235.425 414.817 233.494 412.568 232.19 C 410.308 230.879 407.656 230.447 405.136 231.209 C 402.617 231.97 400.555 233.806 399.351 236.129 C 397.33 240.026 397.942 243.496 399.095 247.478 L 395.645 253.15 Z" style="fill: rgb(40, 75, 99);"/>
  <path fill="#F5F5F5" d="M 522.736 851.378 C 523.16 851.505 524.052 851.632 524.391 851.865 C 526.742 853.44 533.885 881.07 538.071 886.53 C 537.034 890.603 533.443 896.708 530.542 899.745 C 520.309 910.44 508.513 891.968 502.728 892.118 L 502.583 892.755 C 504.694 897.585 510.309 900.69 514.796 902.97 C 518.691 904.958 523.229 906.63 527.571 905.048 C 533.706 902.798 536.64 895.643 539.375 890.265 C 540.079 888.885 540.511 887.97 542.022 887.475 C 544.13 888.338 544.937 889.973 546.783 891.015 C 546.941 891.105 547.104 891.188 547.264 891.277 C 544.264 895.507 538.546 896.933 535.404 901.26 L 535.909 901.718 C 540.519 900.795 545.573 897.262 548.711 893.858 C 551.833 900.525 568.605 923.603 574.345 927.893 C 573.803 928.223 573.274 928.515 572.686 928.762 C 570.692 929.588 568.784 929.91 566.761 929.04 C 559.569 930.18 544.671 909.84 540.552 908.483 C 540.081 909.323 540.116 908.933 540.33 909.885 C 540.697 911.52 541.831 913.215 543.25 914.108 C 544.345 916.192 546.274 917.97 547.92 919.65 C 553.265 925.125 562.306 933.135 570.525 932.97 C 570.891 932.965 571.256 932.94 571.619 932.895 C 571.983 932.855 572.343 932.795 572.701 932.715 C 573.058 932.635 573.411 932.54 573.76 932.43 C 574.108 932.32 574.45 932.19 574.786 932.04 C 575.121 931.895 575.449 931.733 575.768 931.553 C 576.088 931.377 576.398 931.185 576.699 930.975 C 576.999 930.765 577.289 930.543 577.568 930.308 C 577.847 930.073 578.113 929.823 578.368 929.558 C 579.39 931.238 581.248 932.498 582.677 933.833 C 587.432 938.28 594.658 944.527 594.883 951.458 C 594.299 952.305 593.655 952.575 592.71 952.89 C 588.118 954.435 582.23 954.63 577.422 954.338 C 554.594 952.958 549.728 942.075 531.819 934.673 C 523.643 931.298 514.708 930.975 506.636 927.007 C 501.356 924.412 497.261 920.738 495.363 915.075 C 495.943 903.27 500.734 893.512 505.495 882.975 C 506.843 884.753 508.982 886.268 511.008 887.205 C 512.293 887.805 513.259 888.315 514.624 887.805 C 514.621 887.632 514.639 887.468 514.614 887.303 C 514.231 884.813 509.56 883.635 507.93 882.023 C 507.772 881.865 507.619 881.708 507.464 881.543 C 505.364 877.688 500.422 860.04 499.576 855.248 C 500.977 856.065 502.095 856.208 503.715 856.215 C 509.095 856.253 518.74 855.353 522.736 851.378 Z"/>
  <path d="M 308.535 369.977 L 308.738 370.161 C 309.47 373.154 306.066 373.322 305.134 375.671 C 306.121 378.536 329.942 391.275 333.821 393.508 C 328.773 410.44 320.228 429.812 309.397 443.906 C 306.093 448.205 302.221 452.002 298.384 455.818 C 301.411 460.678 303.567 466.492 306.148 471.64 C 315.557 490.404 326.624 504.447 345.486 514.522 C 345.172 517.089 345.109 519.7 344.982 522.283 L 344.771 522.53 C 343.47 522.812 342.772 522.362 341.587 521.833 C 332.585 517.808 323.867 511.308 315.462 506.066 C 301.952 497.64 287.239 489.559 274.743 479.693 C 273.062 478.366 271.024 476.762 270.32 474.672 C 266.134 462.25 289.347 395.705 296.379 381.017 C 299.514 374.468 301.702 372.394 308.535 369.977 Z" style="fill: rgb(217, 217, 217);"/>
  <path d="M 530.905 412.163 C 539.383 413.602 548.155 414.216 556.707 415.218 L 595.831 420.076 C 593.019 425.725 589.105 431.127 585.696 436.454 C 578.881 447.186 571.937 457.833 564.862 468.395 C 557.959 478.842 551.907 489.949 544.426 500.001 C 541.786 500.354 539.062 500.347 536.399 500.449 C 525.535 501.242 514.629 501.409 503.752 501.954 C 493.827 502.452 483.888 503.32 473.951 503.442 C 486.169 484.944 498.022 466.216 509.512 447.258 C 516.673 435.591 524.118 424.052 530.905 412.163 Z" style="fill: rgb(217, 217, 217);"/>
  <path d="M 544.783 447.755 C 545.261 447.746 545.558 447.728 546.01 447.76 C 547.598 447.875 548.484 448.661 549.484 449.817 C 550.258 451.784 550.09 453.41 549.429 455.387 C 547.713 460.52 544.241 465.041 539.364 467.429 C 538.687 467.446 538.005 467.471 537.331 467.375 C 536.179 467.21 534.958 466.573 534.311 465.577 C 533.616 464.507 533.68 463.127 533.949 461.937 C 535.257 456.14 539.998 450.976 544.783 447.755 Z"/>
  <path fill="#F5F5F5" d="M 545.119 450.687 L 546.331 451.094 C 546.877 452.015 547.141 452.296 547.014 453.403 C 546.503 457.828 542.205 462.271 538.864 464.869 L 537.633 464.564 C 536.906 463.544 536.641 463.094 536.91 461.816 C 537.799 457.597 541.752 453.146 545.119 450.687 Z"/>
  <path fill="#F5F5F5" d="M 465.104 220.304 C 466.524 222.004 467.016 225.332 467.203 227.489 C 468.25 239.604 460.129 253.252 452.5 262.154 C 453.868 265.445 455.762 268.571 457.471 271.699 C 457.089 271.835 456.711 271.982 456.328 272.114 C 448.364 274.862 440.599 286.463 434.938 292.757 C 433.28 292.307 431.656 291.757 430.066 291.105 C 428.476 290.453 426.932 289.706 425.434 288.863 C 422.742 287.321 417.388 282.698 414.776 282.224 C 414.164 282.112 413.965 282.421 413.487 282.736 C 413.973 285.344 408.619 293.245 407.446 296.636 C 410.116 302.528 413.62 308.086 416.761 313.739 L 430.053 338.165 C 433.909 345.191 437.914 352.309 440.538 359.912 C 442.167 364.633 443.203 369.847 442.922 374.857 C 442.439 383.482 438.679 391.853 437.8 400.621 C 435.865 419.928 438.876 439.739 440.586 458.966 C 427.185 466.831 411.929 466.364 397.118 463.634 L 388.998 461.714 C 390.763 454.995 394.361 448.294 396.916 441.799 C 402.281 428.154 407.269 413.533 410.077 399.123 C 415.121 373.236 413.833 346.128 408.931 320.324 C 407.834 314.546 406.931 308.276 404.509 302.881 C 400.439 293.82 390.323 281.488 384.456 272.762 C 390.347 265.721 395.712 258.101 400.929 250.553 C 401.988 251.623 403.174 252.666 404.492 253.407 C 405.538 253.995 407.176 254.57 408.372 254.124 C 409.576 253.676 409.978 253.286 410.481 252.154 L 409.858 251.212 C 409.244 251.268 408.628 251.315 408.01 251.302 C 406.139 251.263 404.686 250.531 403.48 249.1 C 401.595 246.865 400.717 243.485 400.999 240.59 C 401.214 238.392 402.086 236.201 403.934 234.884 C 405.68 233.64 407.957 233.483 410.002 233.97 C 412.458 234.556 413.746 237.519 414.9 239.518 C 419.877 240.375 424.852 240.575 429.875 239.975 C 443.321 238.37 456.721 230.943 465.104 220.304 Z"/>
  <path d="M 450.862 239.368 C 453.426 239.632 455.603 240.214 457.645 241.87 C 458.86 242.856 459.234 243.64 459.388 245.14 C 458.822 245.859 458.57 245.686 457.699 245.818 C 454.336 242.055 451.366 243.887 448.531 241.588 C 449.028 240.232 449.659 240.112 450.862 239.368 Z"/>
  <path d="M 449.224 250.18 C 450.564 250.418 450.736 250.612 451.724 251.471 C 452.02 252.223 452.284 252.884 452.285 253.706 C 452.287 256.133 451.351 258.17 449.599 259.803 C 448.956 259.543 448.33 259.265 447.769 258.851 C 447.667 258.775 447.569 258.695 447.475 258.609 C 447.381 258.524 447.292 258.434 447.208 258.339 C 447.124 258.244 447.045 258.145 446.971 258.042 C 446.897 257.939 446.828 257.832 446.765 257.722 C 446.702 257.611 446.645 257.498 446.594 257.382 C 446.543 257.265 446.498 257.147 446.46 257.027 C 446.421 256.905 446.389 256.783 446.364 256.658 C 446.338 256.534 446.319 256.409 446.306 256.282 C 446.055 253.938 447.865 251.882 449.224 250.18 Z"/>
  <path d="M 430.715 268.066 C 431.374 268.181 432.027 268.385 432.675 268.556 C 434.275 270.419 433.831 273.266 435.056 275.363 C 437.14 278.933 439.202 276.466 441.879 277.505 C 442.488 277.742 442.659 278.582 442.909 279.148 C 441.312 279.867 439.778 280.605 437.974 280.425 C 435.999 280.228 434.302 279.218 433.059 277.69 C 430.929 275.072 430.286 271.337 430.715 268.066 Z"/>
  <path d="M 433.383 375.032 L 434.724 375.666 C 435.148 376.478 435.367 377.055 435.292 377.987 C 434.741 384.758 428.338 392.81 423.352 397.004 C 422.681 396.617 422.208 396.123 421.664 395.577 C 422.159 393.393 426.172 390.488 427.666 388.439 C 430.602 384.41 432.082 379.776 433.383 375.032 Z"/>
  <path d="M 359.991 577.717 C 362.072 580.192 363.638 583.964 365.23 586.813 C 368.482 592.631 371.763 598.411 375.403 603.998 C 381.125 612.782 386.737 621.725 392.74 630.315 C 400.993 642.125 409.774 653.571 418.088 665.342 C 413.5 677.608 408.307 691.483 399.748 701.621 C 396.278 705.732 391.693 709.393 386.146 709.803 C 381.723 710.13 377.433 708.905 373.411 707.159 C 358.115 700.52 343.975 689.372 330.616 679.51 C 315.009 667.988 299.715 656.367 284.873 643.86 C 278.72 638.537 272.323 633.329 266.752 627.39 C 272.914 613.729 279.179 600.767 289.556 589.744 C 296.359 593.422 302.183 598.568 308.637 602.793 C 324.992 613.501 341.311 623.987 358.211 633.833 C 355.799 647.538 357.652 664.583 365.026 676.651 C 366.417 678.926 368.037 680.972 370.739 681.619 C 371.602 681.377 371.866 681.437 372.491 680.735 C 374.133 678.896 374.134 675.668 373.963 673.32 C 373.386 665.405 370.953 657.329 369.566 649.5 C 366.874 634.073 364.588 618.585 362.71 603.037 C 361.662 594.916 360.169 586.552 360.001 578.37 L 359.991 577.717 Z" style="fill: rgb(60, 110, 113);"/>
  <path fill="#F5F5F5" d="M 294.377 170.517 C 296.981 173.74 299.461 180.787 301.344 184.687 L 315.033 212.515 C 318.22 219.097 321.122 226.11 324.97 232.318 C 332.25 244.064 345.685 254.984 356.233 263.674 C 359.697 266.528 364.516 269.528 367.255 273.066 C 370.189 276.859 371.803 282.127 373.613 286.534 C 377.644 296.346 384.433 312.833 392.86 319.578 C 390.759 322.922 388.42 326.16 386.168 329.405 C 397.987 357.338 401.845 389.654 398.273 419.639 C 398.083 421.241 398.13 421.907 398.86 423.389 C 399.071 423.818 399.538 424.637 399.604 425.108 C 400.239 429.577 374.455 488.217 371.375 495.933 C 368.8 502.389 366.452 508.927 364.332 515.547 C 350.352 514.85 339.505 508.943 329.329 499.76 C 316.639 488.22 309.271 471.737 301.981 456.571 C 323.803 435.825 341.045 391.914 343.232 362.109 C 344.305 347.492 342.464 332.627 343.006 317.916 C 346.344 322.527 349.753 328.449 353.816 332.36 C 354.718 333.228 354.811 333.054 356.081 333.029 C 355.902 331.11 354.596 328.657 353.511 327.08 C 349.599 321.389 344.832 316.022 340.614 310.527 C 326.415 292.031 311.218 273.236 298.998 253.371 C 294.752 246.469 291.626 238.724 288.413 231.296 C 281.819 215.773 275.618 200.094 269.812 184.259 C 278.663 180.317 286.682 176.507 294.377 170.517 Z"/>
  <path d="M 346.356 306.232 C 349.356 305.969 350.98 308.458 353.679 309.155 C 355.666 309.668 358.441 309.362 360.541 309.46 C 361.638 310.444 361.435 310.867 361.576 312.293 C 357.415 312.633 352.435 313.054 348.892 310.338 C 347.395 309.191 346.629 308.097 346.356 306.232 Z"/>
  <path d="M 340.497 405.667 C 340.942 405.823 367.127 425.09 371.128 427.668 C 369.726 430.971 368.179 434.225 366.699 437.495 C 358.627 433.411 343.214 421.928 335.895 415.763 C 337.019 412.199 338.517 408.834 340.497 405.667 Z"/>
  <path fill="#F5F5F5" d="M 341.436 409.886 C 349.315 416.402 359.47 422.033 366.661 428.943 C 366.795 430.573 366.124 431.528 365.454 432.971 C 356.188 427.886 347.85 420.994 339.247 414.874 C 339.946 413.199 340.702 411.546 341.436 409.886 Z"/>
  <path d="M 439.996 473.937 L 440.533 473.918 C 440.962 474.179 441.054 474.199 441.429 474.641 C 443.181 476.706 444.294 480.992 445.211 483.563 C 454.651 510.026 454.84 539.214 454.859 566.981 C 451.54 560.237 448.066 553.575 444.821 546.795 C 446.292 536.257 447.052 525.717 446.2 515.089 C 445.614 507.774 441.688 481.018 436.718 476.778 L 435.971 476.928 C 435.861 477.218 435.664 477.488 435.64 477.798 C 435.571 478.694 440.781 497.084 441.435 500.521 C 444.201 515.057 444.433 529.003 442.546 543.664 C 439.81 539.769 436.786 535.689 432.766 533.03 C 431.193 531.988 429.224 530.784 427.294 531.158 L 426.71 532.096 C 428.179 534.7 433.394 536.746 435.638 539.357 C 441.715 546.43 445.759 554.894 450.008 563.132 C 456.439 575.597 461.929 588.824 467.117 601.856 C 471.825 613.432 476.157 625.147 480.112 637.001 C 484.067 648.855 487.637 660.824 490.822 672.908 C 501.849 714.59 509.092 757.32 518.96 799.298 C 522.391 813.893 525.356 828.465 529.544 842.887 C 529.096 843.75 528.582 844.53 527.886 845.22 C 526.2 846.878 523.466 849.06 521.016 849.03 C 518.157 843.893 514.781 825.338 513.034 818.603 C 505.714 790.387 499.167 761.978 491.94 733.74 C 486.825 713.752 481.888 693.7 473.981 674.582 C 462.22 646.147 441.491 612.398 424.443 586.589 C 412.018 567.777 396.147 550.653 389.106 528.824 C 394.036 526.91 397.001 524.486 400.162 520.266 C 401.909 517.073 403.204 513.758 404.212 510.264 C 405.877 504.491 409.383 485.885 406.684 480.982 C 405.645 481.256 405.321 481.536 404.992 482.61 C 404.246 485.045 404.587 488.948 404.436 491.538 C 403.971 499.547 402.598 511.225 398.228 518.077 C 394.948 523.22 391.774 525.35 385.81 526.679 C 391.286 550.532 412.212 572.36 425.203 592.703 C 440.154 616.115 454.814 639.914 466.746 665.042 C 476.59 685.772 482.353 707.717 488.033 729.852 L 509.966 817.838 C 512.759 828.683 515.011 839.835 518.427 850.5 C 516.36 851.895 513.736 852.375 511.306 852.765 C 506.586 853.523 496.105 854.887 492.265 852.098 C 489.568 846.188 487.663 839.828 485.434 833.715 C 481.863 824.135 478.194 814.59 474.429 805.08 C 463.148 776.835 450.65 748.964 440.893 720.138 C 437.31 709.551 438.733 696.585 434.755 687.375 C 428.906 673.828 418.522 661.3 409.891 649.405 C 390.319 622.428 358.48 578.375 350.63 546.462 C 348.08 536.093 347.737 525.758 348.22 515.143 C 353.257 516.598 360.763 519.544 365.897 517.566 C 368.516 512.51 370.171 506.869 372.229 501.557 C 375.534 492.992 379.002 484.493 382.633 476.061 C 402.209 479.213 420.907 480.303 439.996 473.937 Z" style="fill: rgb(60, 110, 113);"/>
  <path d="M 398.783 480.565 L 400.38 481.544 C 401.914 487.377 390.535 517.697 387.403 524.192 L 385.978 523.608 C 385.29 521.484 391.618 506.144 392.647 502.771 C 394.887 495.425 396.552 487.915 398.783 480.565 Z"/>
</svg>