<?xml version="1.0" encoding="utf-8"?>
<svg version="1.1" xmlns="http://www.w3.org/2000/svg" style="display: block;" viewBox="0 0 2048 1152" width="1820" height="1024">
  <defs>
    <linearGradient id="Gradient1" gradientUnits="userSpaceOnUse" x1="1503.62" y1="513.803" x2="1544.42" y2="578.003">
      <stop class="stop0" offset="0" stop-opacity="1" stop-color="rgb(41,102,128)"/>
      <stop class="stop1" offset="1" stop-opacity="1" stop-color="rgb(51,131,157)"/>
    </linearGradient>
  </defs>
  <path transform="translate(0,0)" d="M 0 0 L 2046.25 0 C 2048.65 3.7775 2047.99 9.25049 2047.99 13.5932 L 2048 835.128 L 2048.01 1061.94 L 2048 1122.09 C 2047.99 1130.36 2049.11 1140.48 2047.72 1148.51 C 2047.5 1149.77 2046.93 1150.93 2046.25 1152 L 1748.36 1152 L 1738.48 1152 L 1368.53 1152 L 1359.59 1152 L 1171.68 1152 L 1164.46 1152 L 0 1152 L 0 0 z" style="fill: rgb(255, 255, 255);"/>
  <path transform="translate(0,0)" fill="rgb(53,120,142)" d="M 1741.21 84.001 C 1734.91 79.7377 1715.13 71.2435 1712.44 65.665 L 1713.15 63.7954 L 1715.07 63.4961 C 1722.54 66.8238 1739.98 75.3582 1744.98 81.0639 C 1744.26 83.0309 1743.05 83.1062 1741.21 84.001 z"/>
  <path transform="translate(0,0)" fill="rgb(53,120,142)" d="M 1764.17 70.0127 C 1755.3 64.5689 1746.03 59.9501 1737.05 54.7537 C 1734.49 53.2765 1732.7 51.2472 1731.98 48.4213 L 1732.72 48.0773 C 1740.03 48.758 1766.11 63.6832 1771.94 69.1447 L 1771.41 70.2506 L 1766.76 68.7034 L 1764.17 70.0127 z"/>
  <path transform="translate(0,0)" fill="rgb(53,120,142)" d="M 1530.35 267.778 L 1531.56 266.891 L 1536.92 268.427 L 1537.79 266.984 C 1545.83 269.364 1587.44 291.236 1591.16 297.036 L 1590.43 298.503 C 1589.6 298.546 1588.33 298.793 1587.54 298.654 C 1583.24 297.892 1538.15 271.834 1530.35 267.778 z"/>
  <path transform="translate(0,0)" fill="rgb(53,120,142)" d="M 1744.98 81.0639 C 1753.49 84.0555 1809.78 115.344 1813.44 119.774 L 1812.04 120.283 C 1810.06 119.254 1807.59 117.361 1805.38 117.598 L 1805.62 117.109 C 1806.55 119.292 1807.94 119.572 1807.84 121.879 C 1800.73 115.184 1753.13 90.7296 1741.21 84.001 C 1743.05 83.1062 1744.26 83.0309 1744.98 81.0639 z"/>
  <path transform="translate(0,0)" fill="rgb(53,120,142)" d="M 1530.35 267.778 A 1267.28 1267.28 0 0 0 1478.39 239.025 C 1470.29 234.702 1460.05 230.565 1452.74 225.144 C 1450.94 223.816 1449.97 222.6 1449.18 220.513 L 1450.39 219.777 C 1460.19 222.372 1534.09 262.011 1537.79 266.984 L 1536.92 268.427 L 1531.56 266.891 L 1530.35 267.778 z"/>
  <path transform="translate(0,0)" fill="rgb(53,120,142)" d="M 1807.84 121.879 C 1807.94 119.572 1806.55 119.292 1805.62 117.109 L 1805.38 117.598 C 1807.59 117.361 1810.06 119.254 1812.04 120.283 L 1813.44 119.774 C 1822.48 123.012 1890.48 161.274 1893.12 166.018 L 1892.44 167.691 C 1885.29 168.81 1821.01 127.609 1807.84 121.879 z"/>
  <path transform="translate(0,0)" fill="rgb(53,120,142)" d="M 1764.17 70.0127 L 1766.76 68.7034 L 1771.41 70.2506 L 1771.94 69.1447 C 1781.97 72.2553 1862.71 117.827 1872.26 125.118 C 1873.5 126.068 1874.32 127.471 1875.09 128.812 C 1871.17 129.191 1866.32 127.285 1862.81 125.63 C 1854.74 121.817 1847.06 116.255 1839.24 111.826 C 1814.44 97.7847 1789.61 82.839 1764.17 70.0127 z"/>
  <path transform="translate(0,0)" fill="url(#Gradient1)" d="M 1481.61 523.665 L 1547.08 523.948 C 1549.92 528.781 1549.77 575.065 1548.05 582.299 C 1548.01 582.489 1547.96 582.677 1547.91 582.866 C 1546.33 580.315 1543.94 578.834 1541.56 577.108 L 1543.38 574.407 C 1544.2 565.254 1545.3 535.964 1541.67 528.932 L 1486.22 528.759 C 1486.32 528.955 1486.44 529.145 1486.54 529.346 C 1488.65 533.78 1488.46 538.272 1486.7 542.747 C 1485.19 541.112 1482.74 540.217 1480.76 539.24 C 1483.27 535.917 1483.86 533.165 1483.32 528.975 C 1483.06 526.988 1482.65 525.401 1481.61 523.665 z"/>
  <path transform="translate(0,0)" fill="rgb(53,120,142)" d="M 1595.58 436.498 C 1598.22 436.053 1601.18 435.766 1603.66 436.874 L 1603.62 439.384 L 1603.13 437.974 C 1596.01 444.572 1578.84 448.598 1569.45 451.007 C 1569.84 451.619 1569.97 451.767 1570.22 452.395 C 1572.25 457.571 1571.19 551.451 1569.42 555.504 L 1568.79 557.002 L 1567.08 556.945 C 1561.41 547.207 1570.97 461.336 1564.46 447.568 C 1573.83 445.106 1587.49 441.811 1595.58 436.498 z"/>
  <path transform="translate(0,0)" fill="rgb(53,120,142)" d="M 1152 233.128 C 1152.1 233.003 1152.21 232.883 1152.3 232.753 C 1157.04 226.151 1149.45 33.3259 1156.1 23.707 C 1157.49 24.4579 1157.42 24.4389 1157.9 25.9963 C 1161.08 36.338 1158.87 91.9444 1158.87 107.352 C 1158.86 146.823 1160.13 186.636 1158.84 226.066 C 1158.75 228.612 1158.62 230.583 1157.46 232.889 L 1152 233.128 z"/>
  <path transform="translate(0,0)" fill="rgb(53,120,142)" d="M 1367.85 33.4875 L 1368.97 33.4371 C 1370.12 33.3803 1371.14 33.3961 1372.24 33.791 C 1383.32 37.745 1405.52 51.9054 1417.4 58.4417 L 1523.38 116.408 C 1531.22 120.704 1581.26 146.209 1583.37 150.272 L 1581.61 152.507 C 1578.62 152.683 1394 51.956 1373.1 40.0653 C 1369.71 38.1362 1368.89 37.2396 1367.85 33.4875 z"/>
  <path transform="translate(0,0)" fill="rgb(53,120,142)" d="M 1331.21 208.81 C 1331.33 208.653 1331.46 208.502 1331.57 208.339 C 1332.61 206.823 1332.98 205.542 1333.11 203.729 C 1334.33 186.573 1333.18 168.615 1333.11 151.392 L 1333.1 56.0478 C 1333.11 46.1978 1331.31 33.2334 1333.33 23.793 C 1333.91 21.0723 1334.37 20.3517 1336.92 19.5497 C 1339.34 21.7949 1339.64 24.0264 1339.77 27.2577 C 1340.43 43.7638 1340.43 204.389 1338.79 209.784 C 1336.51 209.029 1333.61 209.056 1331.21 208.81 z"/>
  <path transform="translate(0,0)" fill="rgb(53,120,142)" d="M 1382.32 161.998 C 1377.18 158.954 1370.98 156.084 1366.74 151.865 L 1367.07 150.805 C 1369.13 150.295 1370.92 150.313 1372.96 150.943 C 1375.64 151.773 1381.89 155.388 1383.06 157.849 C 1387.67 158.896 1540.71 242.639 1541.96 244.45 C 1542.05 244.575 1542.08 244.729 1542.14 244.868 C 1548.49 246.418 1578.52 261.813 1582.3 266.774 L 1581.89 268.164 C 1572.53 269.877 1550.39 252.114 1539.8 248.771 C 1531.95 241.722 1496.04 224.782 1484.27 218.451 C 1450.06 200.06 1416.27 180.862 1382.32 161.998 z"/>
  <path transform="translate(0,0)" fill="rgb(53,120,142)" d="M 1290.67 207.778 C 1291.06 207.211 1292.14 206.038 1292.3 205.438 C 1294.22 198.407 1292.63 174.94 1292.63 166.641 L 1292.54 55.5158 C 1292.5 46.1246 1291.24 35.1511 1292.28 25.9101 C 1292.53 23.6059 1293.04 21.8671 1294.78 20.2571 C 1297.37 19.8557 1297.33 19.7882 1299.47 21.2855 C 1300.61 23.5852 1300.95 25.5387 1301.04 28.0656 C 1301.64 43.8997 1300.79 60.1754 1300.82 76.0706 C 1300.87 94.8335 1302.89 196.248 1299.92 205.591 C 1299.76 206.082 1299.58 206.563 1299.38 207.04 C 1302.91 207.086 1308.59 206.475 1311.75 207.827 C 1305.36 208.893 1297.25 207.798 1290.67 207.778 z"/>
  <path transform="translate(0,0)" fill="rgb(53,120,142)" d="M 1695.99 875.845 L 1906.98 875.68 C 1942.21 875.559 1978.06 873.972 2013.23 875.203 C 2016.62 875.322 2020.02 875.494 2022.99 877.267 L 2023.15 878.813 C 2020.34 880.57 2016.88 880.662 2013.64 880.771 C 1982.96 881.796 1951.74 880.532 1921 880.479 A 14473 14473 0 0 0 1762.74 880.987 C 1749.61 881.01 1708.13 878.877 1697.72 881.929 C 1697.93 878.847 1697.61 878.517 1695.99 875.845 z"/>
  <path transform="translate(0,0)" fill="rgb(245,245,245)" d="M 1486.22 528.759 L 1541.67 528.932 C 1545.3 535.964 1544.2 565.254 1543.38 574.407 L 1541.56 577.108 C 1535.03 567.364 1497.86 546.909 1486.7 542.747 C 1488.46 538.272 1488.65 533.78 1486.54 529.346 C 1486.44 529.145 1486.32 528.955 1486.22 528.759 z"/>
  <path transform="translate(0,0)" fill="rgb(53,120,142)" d="M 1602.74 656.007 C 1603.31 655.285 1604.39 654.254 1604.75 653.455 C 1606.68 649.202 1604.98 135.474 1605.1 84.5276 C 1605.12 77.9212 1604.47 23.7079 1605.57 22.071 C 1605.93 21.5422 1606.68 21.4505 1607.24 21.1402 L 1609.18 22.147 C 1612.43 33.6581 1609.95 96.7173 1610.04 113.995 L 1610.19 485.653 C 1610.19 503.812 1611.85 660.355 1609.4 665.092 C 1609.24 665.408 1609.05 665.707 1608.87 666.014 C 1608.31 662.367 1605.41 658.441 1602.74 656.007 z"/>
  <path transform="translate(0,0)" fill="rgb(53,120,142)" d="M 1666.19 787.944 C 1666.98 787.651 1668.11 786.926 1668.37 786.077 C 1669.52 782.433 1668.71 715.185 1668.8 705.859 L 1668.99 221.29 L 1669.05 90.8476 C 1669.05 71.1273 1668.19 51.1318 1668.88 31.4509 C 1669.01 27.8032 1668.86 23.7422 1671.28 20.79 L 1672.07 20.9521 L 1672.87 23.8357 C 1676.18 32.078 1674.14 194.861 1674.15 220.752 L 1673.75 759.97 C 1673.7 768.914 1675.2 792.548 1672.47 799.455 C 1672.17 800.216 1672.01 800.392 1671.55 801.139 C 1671.58 796.369 1668.87 791.731 1666.19 787.944 z"/>
  <path transform="translate(0,0)" d="M 30.8728 169.245 C 46.147 167.75 62.1329 168.758 77.5054 168.772 L 162.083 168.73 L 382.03 168.821 C 424.209 168.879 466.561 169.689 508.72 168.528 C 508.885 177.063 508.827 185.502 508.404 194.028 L 34.75 194.055 C 33.524 193.91 32.9857 193.563 31.9275 192.968 L 31.7042 190.959 C 33.9976 189.199 36.7582 189.325 39.546 189.215 C 53.7291 188.654 68.1591 189.316 82.3751 189.287 L 178.025 189.116 L 503.805 188.914 L 503.751 173.935 C 451.632 173.997 36.4995 175.474 32.5142 172.919 C 31.2247 172.093 31.2483 170.67 30.8728 169.245 z" style=""/>
  <path transform="translate(0,0)" fill="rgb(53,120,142)" d="M 1022.1 811.333 L 1021.8 268.349 L 1021.92 106.631 C 1021.96 81.6928 1021.15 56.4322 1021.92 31.5329 C 1022.02 28.0421 1022.02 24.3181 1023.98 21.2963 L 1025.77 21.2085 C 1029.49 24.9441 1028.37 29.2377 1028.26 34.175 C 1026.57 115.153 1028.22 196.486 1028.2 277.506 L 1028.34 811.871 C 1069.43 810.124 1110.87 811.075 1152 811.169 C 1152.86 809.047 1153.1 807.208 1153.18 804.934 C 1153.84 786.35 1153.24 767.542 1153.18 748.936 L 1153.08 650.819 C 1153.09 634.519 1155.24 558.011 1152 546.64 C 1154.15 547.049 1159.03 547.45 1160.6 548.74 C 1158.76 550.356 1159.02 550.899 1158.87 553.217 C 1156.59 588.38 1162.03 801.027 1157.47 811.151 C 1157.39 811.325 1157.32 811.501 1157.24 811.676 C 1175.18 811.518 1194.84 813.031 1212.54 810.888 C 1213.62 814.154 1213.1 817.953 1211.48 820.994 C 1211.05 821.82 1210.52 822.396 1209.85 823.037 L 1209.21 821.107 C 1202.58 819.921 1195.27 820.841 1188.54 820.862 L 1144.1 820.911 L 975.02 820.989 L 975.046 873.343 A 12532.8 12532.8 0 0 0 1122.24 873.651 L 1175.67 873.571 C 1183.51 873.615 1191.94 873.024 1199.68 873.891 C 1200.29 875.903 1201.3 877.601 1200.06 879.578 C 1199.67 880.198 1199.35 880.518 1198.87 881.037 L 1198.56 879.662 C 1192.99 877.327 993.123 879.166 964.709 879.201 L 965.04 811.499 C 984.034 810.938 1003.1 811.289 1022.1 811.333 z"/>
  <path transform="translate(0,0)" d="M 975.02 820.989 L 1144.1 820.911 L 1188.54 820.862 C 1195.27 820.841 1202.58 819.921 1209.21 821.107 L 1209.85 823.037 C 1210.97 827.294 1203.51 868.782 1201.15 872.323 C 1200.75 872.928 1200.23 873.423 1199.68 873.891 C 1191.94 873.024 1183.51 873.615 1175.67 873.571 L 1122.24 873.651 A 12532.8 12532.8 0 0 1 975.046 873.343 L 975.02 820.989 z" style="fill: rgb(255, 255, 255);"/>
  <path transform="translate(0,0)" d="M 186.175 521.087 C 186.226 521.113 186.283 521.13 186.328 521.165 C 192.142 525.582 223.937 675.012 227.692 691.66 C 241.7 691.546 255.733 691.81 269.743 691.903 C 269.851 698.651 271.049 708.528 268.323 714.691 C 260.065 716.07 250.818 715.178 242.426 715.156 L 191.135 715.037 C 141.449 714.935 91.4306 716.287 41.7899 715.204 C 38.1581 715.125 34.6227 715.011 31.1023 714.023 L 30.672 712.858 C 30.7749 712.712 30.8595 712.551 30.9806 712.419 C 32.1086 711.194 34.5709 710.276 36.1931 710.11 C 51.5881 708.533 77.8532 710.126 94.4024 710.127 L 225.5 710.093 L 264.828 710.13 L 264.839 696.949 L 97.8721 696.528 L 55.3836 696.4 C 49.0004 696.394 41.5632 697.088 35.2951 696.238 C 33.0489 695.934 32.4317 695.345 30.9031 693.842 L 31.7246 692.541 C 48.9179 689.66 69.1118 691.611 86.6842 691.675 C 78.3995 640.345 67.4276 589.223 57.6008 538.155 C 69.1893 533.888 82.0495 530.685 94.1071 528.02 C 95.8453 535.788 96.872 543.824 98.1693 551.683 C 105.313 549.478 112.584 547.476 119.422 544.426 L 120.655 540.823 C 133.852 534.345 169.414 526.195 186.175 521.087 z" style=""/>
  <path transform="translate(0,0)" d="M 151.659 537.157 L 153.441 537.715 C 156.419 544.199 157.337 552.865 158.794 559.9 C 150.176 561.863 141.636 564.477 133.111 566.823 C 131.732 566.867 131.537 566.651 130.339 565.919 C 127.665 559.171 126.606 551.598 125.16 544.495 A 800.027 800.027 0 0 1 151.659 537.157 z" style="fill: rgb(40, 75, 99);"/>
  <path transform="translate(0,0)" d="M 120.066 550.184 C 123.75 553.852 146.267 674.946 150.68 691.289 L 129.75 691.273 L 127.921 691.223 C 127.338 690.817 126.643 690.539 126.173 690.007 C 124.827 688.482 102.953 571.852 99.3588 556.934 A 519.934 519.934 0 0 1 120.066 550.184 z" style="fill: rgb(40, 75, 99);"/>
  <path transform="translate(0,0)" d="M 159.056 565.24 C 161.324 567.025 184.662 677.427 187.841 691.546 L 159.75 691.552 C 158.506 691.545 158.001 691.273 156.89 690.769 C 149.949 678.383 135.12 592.627 131.357 572.71 C 140.656 570.555 149.855 567.785 159.056 565.24 z" style="fill: rgb(40, 75, 99);"/>
  <path transform="translate(0,0)" d="M 86.9272 535.101 C 88.0679 535.032 88.5944 535.29 89.644 535.689 C 91.9898 539.75 91.779 545.921 92.824 550.588 C 103.264 597.208 109.904 644.807 121.266 691.194 L 96.75 691.273 L 93.485 691.175 C 93.0141 690.756 92.4545 690.42 92.0723 689.919 C 89.9326 687.115 66.4212 557.108 63.1965 541.447 C 71.265 539.737 79.0522 537.544 86.9272 535.101 z" style="fill: rgb(40, 75, 99);"/>
  <path transform="translate(0,0)" d="M 182.532 528.199 L 183.862 528.629 C 189.006 537.381 198.187 584.897 201.324 598.677 L 222.794 691.702 L 198.75 691.74 L 194.004 691.668 C 193.522 691.194 192.926 690.814 192.558 690.247 C 191.512 688.635 161.344 546.181 158.782 534.559 C 166.584 532.147 174.632 530.283 182.532 528.199 z" style="fill: rgb(40, 75, 99);"/>
  <path transform="translate(0,0)" fill="rgb(53,120,142)" d="M 1681.84 23.0295 C 1683.93 21.8563 1684.98 20.9708 1687.48 21.0118 C 1689.49 23.5349 1689.11 27.1177 1689.14 30.3199 C 1690.08 134.623 1689.22 239.11 1688.69 343.421 L 1688.78 432.233 C 1688.82 446.029 1690.06 461.07 1688.68 474.731 C 1688.53 476.246 1687.99 477.537 1687.18 478.824 L 1719.29 478.978 C 1720.49 480.885 1720.83 482.354 1720.95 484.578 C 1722.7 517.776 1721.18 551.875 1721.2 585.163 C 1721.2 596.013 1722.89 623.66 1720.78 632.923 C 1720.54 633.96 1720.06 634.907 1719.49 635.794 L 1743.51 635.69 C 1744.71 633.149 1744.92 631.119 1744.99 628.368 C 1745.62 602.652 1746.29 323.498 1744.69 319.469 C 1744.56 319.16 1744.42 318.858 1744.29 318.553 C 1754.94 318.213 1824.28 316.914 1829.04 319.705 C 1830.63 329.506 1829.85 340.109 1829.86 350.049 L 1829.9 401.377 L 1829.95 588.594 C 1829.95 601.263 1831.82 678.54 1829.02 685.009 L 1827.16 686.832 L 1825.75 686.439 C 1822.89 675.992 1824.84 630.251 1824.85 615.906 L 1824.98 418.997 L 1824.98 357.229 C 1824.97 347.566 1825.77 337.066 1824.79 327.503 C 1824.63 325.98 1824 324.66 1823.31 323.316 C 1798.28 322.522 1773.14 322.959 1748.09 322.965 C 1749.48 325.208 1749.68 327.012 1749.73 329.592 C 1751.28 404.172 1749.71 479.091 1749.74 553.704 C 1749.74 568.313 1751.49 629.017 1749.4 637.608 C 1749.18 638.52 1748.72 639.388 1748.25 640.193 L 1719.55 640.079 C 1719.64 640.295 1719.74 640.507 1719.83 640.726 C 1722.48 647.57 1722.11 725.805 1719.49 732.022 C 1716.5 729.132 1715.78 722.56 1715.73 718.482 C 1715.31 689.46 1718.73 492.561 1714.53 484.36 C 1714.44 484.187 1714.36 484.011 1714.27 483.837 C 1705.17 483.836 1696.05 483.757 1686.95 483.858 C 1688.4 486.175 1688.64 488.069 1688.73 490.742 C 1689.52 516.291 1688.88 542.075 1688.88 567.652 L 1688.77 712.405 L 1688.47 779.274 C 1688.38 787.289 1689.42 797.902 1687.75 805.665 C 1687.48 806.892 1686.99 807.872 1686.36 808.946 L 1893.22 806.999 C 1894.75 804.547 1894.83 802.453 1894.89 799.649 C 1895.54 767.326 1894.53 734.833 1894.52 702.489 L 1894.85 523.074 L 1894.57 441.272 C 1894.48 428.778 1896.01 414.126 1893.32 402.057 C 1885.09 407.338 1858.37 422.887 1850.19 426.182 C 1851.58 429.069 1851.57 431.595 1851.63 434.724 C 1852.14 461.478 1851.41 488.343 1851.27 515.11 L 1851.33 623.569 L 1851.36 687.223 C 1851.38 697.695 1852.44 709.115 1851.14 719.429 L 1849.63 720.688 L 1847.92 720.178 C 1844.75 710.924 1847.16 685.058 1847.07 673.817 C 1846.88 649.668 1848.94 429.209 1845.77 422.732 C 1853.13 418.909 1889.96 398.989 1893.04 395.044 C 1893.13 394.847 1893.23 394.653 1893.31 394.453 C 1896.8 386.097 1894.76 327.162 1894.74 314.915 L 1894.79 112.399 L 1894.83 49.6973 C 1894.82 42.0254 1894.04 33.9411 1894.38 26.3411 C 1894.49 23.9596 1894.96 23.4309 1896.59 21.9274 L 1898.87 22.1855 C 1901.13 25.4972 1900.07 32.4461 1900.06 36.42 L 1900.36 627.131 L 1900.71 758.075 C 1900.75 768.096 1902.53 796.42 1900.59 803.973 C 1900.3 805.083 1899.87 806.01 1899.24 806.955 L 1969.96 806.736 C 1970.07 806.507 1970.18 806.281 1970.28 806.047 C 1973.69 797.799 1971.82 687.175 1971.82 670.741 L 1971.63 225.31 C 1971.57 161.189 1969.93 96.9019 1970.9 32.8028 C 1970.95 29.809 1970.7 24.2408 1972.13 21.6855 L 1973.47 21.4309 C 1976.17 24.4106 1976.12 26.118 1976.13 30.06 L 1976 549.663 L 1976.21 714.48 C 1976.32 742.957 1977.73 771.899 1976.56 800.309 C 1976.47 802.565 1976.03 804.218 1974.85 806.146 L 1993.26 806.124 C 1993.36 805.95 1993.48 805.782 1993.58 805.603 C 1996.63 800.047 1995.12 684.715 1995.12 666.138 L 1995.1 220.178 L 1995.03 88.0661 C 1995.01 69.0289 1993.44 47.5234 1994.78 28.7744 C 1994.99 25.8862 1995.95 23.4981 1997.71 21.2017 L 1999.31 20.7528 C 2001.4 23.3425 2001.07 27.8076 2001.15 31.0104 C 2002.33 79.937 2001.1 129.161 2001.33 178.119 L 2001.48 563.763 L 2001.42 732.291 L 2001.42 777.448 C 2001.46 785.357 2002.24 794.065 2001.36 801.906 C 2001.17 803.625 2000.57 804.973 1999.7 806.449 C 2006.21 806.347 2017.25 804.655 2023.12 807.334 C 2024.29 809.211 2024.21 809.128 2023.81 811.317 C 2019.81 815.166 2011.29 814.335 2006.03 814.241 C 1982.43 813.817 1958.88 814.627 1935.28 814.84 L 1791.23 816.021 L 1710.45 816.487 C 1700.73 816.612 1689.12 815.438 1679.7 817.427 C 1678.95 818.257 1678.13 819.067 1677.5 819.992 C 1677.53 819.828 1677.56 819.664 1677.58 819.5 C 1678.13 815.44 1676.27 811.997 1673.86 808.92 C 1675.54 809.032 1677.21 809.16 1678.89 808.986 C 1680.95 808.775 1681.22 808.914 1682.5 807.307 C 1684.7 786.293 1683.04 763.771 1683.01 742.601 L 1683.11 621.194 L 1683.13 226.533 C 1683.11 204.567 1684.86 29.9569 1681.84 23.0295 z"/>
  <path transform="translate(0,0)" fill="rgb(53,120,142)" d="M 632.608 39.3315 C 660.89 35.3475 692.378 44.4627 715.238 61.1887 C 738.206 77.9929 754.757 103.927 759.125 132.121 A 105.535 105.535 0 0 1 740.296 210.509 C 720.58 237.276 691.078 251.625 658.783 256.5 C 630.129 260.526 598.036 250.188 575.131 233.16 C 552.113 216.05 535.8 190.746 531.757 162.161 C 527.712 133.552 535.398 106.172 552.768 83.2087 C 572.159 57.5736 601.259 43.684 632.608 39.3315 z"/>
  <path transform="translate(0,0)" d="M 633.521 44.3532 C 661.35 41.6207 690.724 49.2415 713.162 66.0898 C 735.038 82.5151 750.546 107.792 754.304 134.978 A 97.3415 97.3415 0 0 1 735.543 208.113 C 716.603 233.054 688.188 247.552 657.44 251.685 A 117.149 117.149 0 0 1 576.138 227.575 C 554.876 211.089 539.919 186.744 536.617 159.872 C 533.318 133.031 540.678 107.275 557.289 86.0164 C 576.268 61.7287 603.222 48.1029 633.521 44.3532 z" style="fill: rgb(255, 255, 255);"/>
  <path transform="translate(0,0)" fill="rgb(53,120,142)" d="M 644.652 57.4371 C 667.762 57.0747 689.39 63.7419 707.46 78.4173 A 91.1702 91.1702 0 0 1 740.751 140.311 C 743.045 163.584 735.123 187.041 720.274 204.977 C 702.438 226.522 676.1 236.448 648.953 238.934 C 622.67 238.051 599.396 230.714 579.616 212.774 C 562.444 197.201 551.097 174.496 550.051 151.228 A 87.6661 87.6661 0 0 1 573.106 88.7834 C 592.275 67.8179 616.781 58.7175 644.652 57.4371 z"/>
  <path transform="translate(0,0)" d="M 640.5 62.3889 C 640.673 62.3698 640.845 62.3486 641.018 62.3315 C 663.465 60.1049 687.599 68.8801 704.912 82.937 C 722.358 97.1023 733.303 118.572 735.58 140.868 C 737.792 162.536 730.808 183.55 717.101 200.282 C 700.536 220.502 676.923 231.127 651.245 233.639 C 628.783 235.407 604.135 226.477 586.822 212.385 A 86.4166 86.4166 0 0 1 555.41 154.537 C 553.269 133.439 560.656 112.005 574.046 95.712 C 590.848 75.2669 614.569 64.9505 640.5 62.3889 z" style="fill: rgb(255, 255, 255);"/>
  <path transform="translate(0,0)" fill="rgb(53,120,142)" d="M 704.958 144.374 C 710.344 143.343 719.012 142.538 724.223 144.145 C 726.054 144.71 726.15 145.943 726.957 147.589 C 721.969 148.548 714.149 149.296 709.232 148.095 C 706.458 147.417 706.452 146.726 704.958 144.374 z"/>
  <path transform="translate(0,0)" fill="rgb(53,120,142)" d="M 646.52 203.215 L 648.641 204.173 C 652.466 209.296 650.292 218.867 649.746 225.002 C 647.522 224.637 647.577 224.665 646.13 222.936 C 644.991 216.568 645.42 209.57 646.52 203.215 z"/>
  <path transform="translate(0,0)" fill="rgb(53,120,142)" d="M 647.118 67.6792 C 648.32 68.2701 648.831 69.0379 649.638 70.0699 C 650.433 75.6415 651.405 85.5442 648.276 90.5039 C 647.094 89.7296 646.272 88.8266 645.867 87.4574 C 644.443 82.6438 644.668 72.0299 647.118 67.6792 z"/>
  <path transform="translate(0,0)" fill="rgb(53,120,142)" d="M 565.683 143.136 C 570.399 142.964 579.646 141.659 583.681 144.077 C 585.067 144.908 585.144 146.344 585.634 147.815 C 579.838 148.336 573.753 149.354 568.04 147.93 C 565.829 146.232 566.093 145.945 565.683 143.136 z"/>
  <path transform="translate(0,0)" fill="rgb(53,120,142)" d="M 665.587 115.555 L 667.575 117.311 C 668.861 124.889 656.9 131.698 654.866 138.439 C 654.244 140.5 657.48 144.04 658.441 146.084 C 659.594 148.537 658.253 151.076 657.287 153.391 C 654.739 159.493 681.863 179.533 684.809 187.541 L 683.609 188.638 C 680.637 188.456 680.483 188.242 678.208 186.279 C 673.252 180.978 656.46 161.261 651.546 159.323 C 647.666 157.793 643.875 159.22 640.07 156.27 C 637.095 153.964 635.766 151.696 635.216 148.072 C 637.888 140.796 645.104 141.126 649.881 136.329 C 655.646 130.538 660.552 122.138 665.587 115.555 z"/>
  <path transform="translate(0,0)" fill="rgb(245,245,245)" d="M 645.021 142.615 C 646.145 142.699 647.437 142.75 648.504 143.124 C 651.01 144.002 651.785 145.275 653.037 147.405 C 653.228 150.509 652.572 151.949 650.87 154.515 C 649.629 154.309 648.366 154.109 647.148 153.786 C 644.323 153.038 643.421 151.983 642.068 149.626 C 641.987 146.625 643.38 144.943 645.021 142.615 z"/>
  <path transform="translate(0,0)" d="M 199.044 248.052 C 213.148 247.846 227.292 248.113 241.4 248.155 C 242.922 272.732 241.935 297.83 241.956 322.466 L 277.679 322.486 C 277.731 315.809 277.443 309.13 277.557 302.453 C 277.64 297.605 277.594 292.647 281.221 289.136 C 283.548 289.155 285.036 289.288 286.967 287.884 C 288.689 283.977 287.752 279.135 287.395 274.977 C 306.506 274.019 326.002 274.818 345.155 274.833 A 726.893 726.893 0 0 1 345.471 254.463 C 362.691 253.428 380.329 253.941 397.566 254.626 C 398.323 266.38 397.683 278.663 397.707 290.466 C 410.558 286.012 423.764 282.928 437.002 279.904 C 443.798 294.512 448.234 311.901 453.206 327.324 C 464.868 363.502 475.524 400.035 487.579 436.078 L 514.884 436.138 L 514.911 462.291 C 496.536 464.508 476.271 462.985 457.735 462.953 L 351.42 462.951 L 138.351 462.863 C 106.273 462.848 73.8942 463.904 41.8664 463.144 C 38.402 463.062 35.5928 462.461 32.493 460.905 L 32.0759 459.563 C 39.0552 456.102 178.325 457.915 197.5 457.9 C 301.588 458.069 405.764 458.81 509.842 457.661 L 509.831 441.28 C 466.25 440.16 422.339 441.377 378.737 441.485 L 154.447 441.296 L 82.1357 441.199 C 68.6765 441.229 55.0134 441.881 41.574 441.225 C 38.5186 441.076 33.6277 441.218 31.2938 439.226 C 39.3946 433.548 68.6437 436.109 79.0247 436.166 C 78.9653 379.919 79.61 323.639 78.8856 267.398 C 70.4132 267.13 37.7504 269.15 32.5295 266.236 L 32.1195 264.134 C 36.0038 260.605 75.9284 262.362 84.0547 262.441 L 84.1625 298.79 L 106.12 298.792 L 106.16 262.774 L 198.132 261.944 C 198.09 257.307 197.787 252.557 199.044 248.052 z" style=""/>
  <path transform="translate(0,0)" fill="rgb(245,245,245)" d="M 398.196 346.752 C 402.663 351.157 424.717 424.539 427.976 436.163 L 398.141 436.168 C 398.214 406.383 397.432 376.524 398.196 346.752 z"/>
  <path transform="translate(0,0)" d="M 399.754 293.335 C 401.114 293.634 402.318 294.169 403.589 294.718 C 409.995 309.967 414.097 327.175 419.227 342.958 L 439.285 404.404 C 442.472 414.185 447.805 426.018 448.624 436.217 L 433.848 436.175 L 411.842 368.538 C 407.037 354.168 400.048 339.191 398.153 324.148 C 397.293 317.325 395.669 298.555 399.754 293.335 z" style="fill: rgb(60, 110, 113);"/>
  <path transform="translate(0,0)" d="M 241.918 328.084 L 277.877 327.957 L 277.788 436.308 L 242.084 436.431 L 241.918 328.084 z" style="fill: rgb(217, 217, 217);"/>
  <path transform="translate(0,0)" d="M 431.921 286.19 L 433.493 286.342 C 438.251 290.718 476.475 418.728 481.619 436.121 L 457.75 436.2 L 455.556 435.959 C 452.119 432.478 414.144 309.246 408.159 292.639 L 431.921 286.19 z" style="fill: rgb(60, 110, 113);"/>
  <path transform="translate(0,0)" d="M 174.174 267.819 C 183.725 267.387 193.4 267.615 202.966 267.533 L 202.924 436.331 L 174.092 436.492 L 174.174 267.819 z" style="fill: rgb(255, 255, 255);"/>
  <path transform="translate(0,0)" d="M 283.077 295.354 C 294.598 294.722 306.177 294.922 317.712 294.921 A 11163.9 11163.9 0 0 1 317.712 436.088 L 282.852 436.152 A 11214.8 11214.8 0 0 1 283.077 295.354 z" style="fill: rgb(217, 217, 217);"/>
  <path transform="translate(0,0)" d="M 203.216 253.151 L 236.117 253.562 L 236.969 436.279 L 208.002 436.262 C 208.151 382.505 209.178 328.577 208.267 274.837 C 208.227 272.505 208.649 266.761 207.678 264.777 C 204.31 257.895 203.175 262.581 203.216 253.151 z" style="fill: rgb(217, 217, 217);"/>
  <path transform="translate(0,0)" d="M 350.701 259.798 L 392.149 259.625 L 392.635 436.215 C 383.088 436.553 373.437 436.276 363.879 436.291 C 363.961 382.755 365.745 328.437 363.034 274.993 L 350.679 274.844 L 350.701 259.798 z" style="fill: rgb(60, 110, 113);"/>
  <path transform="translate(0,0)" d="M 292.875 279.922 L 358.109 280.616 C 360.853 332.002 358.517 384.397 358.175 435.872 C 346.56 436.746 334.646 436.176 322.995 436.132 L 322.87 289.759 C 313.824 289.504 302.5 292.174 294.285 288.404 C 292.398 285.449 292.885 283.383 292.875 279.922 z" style="fill: rgb(60, 110, 113);"/>
  <path transform="translate(0,0)" d="M 84.0906 304.023 L 129.95 303.995 L 130.01 436.246 L 84.0413 436.494 L 84.0906 304.023 z" style="fill: rgb(255, 255, 255);"/>
  <path transform="translate(0,0)" d="M 111.859 268.099 L 168.959 268.004 L 168.929 436.247 L 135.379 436.168 A 13587.5 13587.5 0 0 1 135.187 298.971 L 111.811 298.996 L 111.859 268.099 z" style="fill: rgb(255, 255, 255);"/>
  <path transform="translate(0,0)" fill="rgb(24,24,41)" d="M 1290.67 207.778 C 1297.25 207.798 1305.36 208.893 1311.75 207.827 C 1318.24 208.05 1324.73 208.226 1331.21 208.81 C 1333.61 209.056 1336.51 209.029 1338.79 209.784 C 1377.14 214.899 1411.72 229.616 1435.84 261.034 C 1453.19 283.632 1466.14 322.772 1462.7 351.033 C 1462.37 353.753 1461.79 356.118 1460.28 358.445 C 1475.37 359.089 1487.67 362.905 1498.2 374.43 C 1510.5 387.893 1515.73 407.644 1514.67 425.623 C 1513.64 443.038 1506.76 460.709 1493.48 472.395 C 1478.5 485.581 1456.1 492.134 1436.32 490.862 C 1425.94 490.195 1416.65 487.257 1407.32 482.769 C 1406.5 479.911 1405.01 477.064 1402.47 475.363 C 1396.93 482.736 1386.32 489.249 1378.16 493.374 L 1379.11 493.358 C 1383.77 493.235 1389.5 489.831 1393.54 490.424 C 1412.06 493.145 1445.44 517.609 1462.42 528.057 C 1467.99 531.482 1474.68 534.424 1479.86 538.309 C 1480.3 538.642 1480.44 538.849 1480.76 539.24 C 1482.74 540.217 1485.19 541.112 1486.7 542.747 C 1497.86 546.909 1535.03 567.364 1541.56 577.108 C 1543.94 578.834 1546.33 580.315 1547.91 582.866 C 1557.62 589.323 1600.08 642.801 1602.5 654.198 C 1602.72 655.227 1602.69 655.116 1602.74 656.007 C 1605.41 658.441 1608.31 662.367 1608.87 666.014 C 1617.85 677.171 1666.64 776.639 1666.19 787.944 C 1668.87 791.731 1671.58 796.369 1671.55 801.139 C 1673.44 803.925 1674.13 805.387 1673.86 808.92 C 1676.27 811.997 1678.13 815.44 1677.58 819.5 C 1677.56 819.664 1677.53 819.828 1677.5 819.992 C 1681.7 824.694 1696.07 867.57 1696.17 874.353 C 1696.17 874.798 1696.05 875.437 1695.99 875.845 C 1697.61 878.517 1697.93 878.847 1697.72 881.929 C 1708.93 896.341 1752.75 1125.92 1749.77 1148.48 C 1749.6 1149.75 1749.05 1150.93 1748.36 1152 L 1738.48 1152 L 1368.53 1152 L 1359.59 1152 L 1171.68 1152 L 1164.46 1152 C 1164.88 1151.15 1165.28 1150.35 1165.6 1149.46 C 1167 1145.57 1166.18 1142.53 1164.46 1139.02 C 1141.76 1141.07 1114.88 1139.54 1091.68 1139.66 A 11416.1 11416.1 0 0 1 918.621 1139.29 L 408.204 1139.23 L 133.266 1139.97 L 62.6883 1140.11 C 54.6235 1140.11 44.0706 1141.43 36.3922 1139.85 C 34.2728 1139.41 33.9834 1138.2 32.8774 1136.52 C 33.6301 1134.06 34.2294 1133.62 36.8463 1133 C 44.3139 1131.24 54.1557 1132.49 61.8879 1132.46 L 123.148 1132.24 L 1103.95 1131.71 C 1116.48 1131.75 1193.98 1134.7 1199.99 1128.56 C 1203.12 1125.36 1204.7 1121.25 1204.71 1116.82 C 1204.72 1112.52 1203.32 1108.81 1200.16 1105.79 C 1196.63 1102.44 1191.4 1101.17 1186.69 1100.77 C 1172.88 1099.57 1158.01 1100.79 1144.11 1100.94 L 1073.38 1101.09 L 766.151 1104.18 L 312.099 1104.79 L 128.767 1105.03 C 100.283 1105.04 71.4204 1106.32 42.9937 1105.23 C 39.41 1105.09 34.495 1105.37 31.8746 1102.78 C 33.1998 1101.01 34.4823 1100.26 36.5522 1099.48 L 37.1022 1099.28 C 44.64 1096.42 95.249 1098.06 107.084 1098 C 107.113 1083.01 105.035 965.091 108.586 959.937 C 110.448 958.881 111.937 958.713 114.035 958.564 C 128.591 957.534 143.529 958.178 158.123 958.191 L 235.231 958.268 L 326.872 958.237 C 343.852 958.166 361.086 957.439 378.044 958.071 C 379.973 958.143 381.276 958.415 382.777 959.719 C 385.942 969.479 384.067 1077.56 384.087 1097.99 L 572.581 1098.1 C 588.45 1062.68 602.972 1026.62 619.495 991.506 C 585.383 992.325 551.118 994.599 517.032 996.344 C 501.722 997.127 485.629 998.971 470.333 998.332 C 466.005 998.151 462.164 997.471 458.154 995.838 C 449.55 986.454 334.165 675.491 324.967 642.905 C 323.63 638.169 323.353 634.05 326.106 629.709 C 329.314 624.651 336.537 622.043 342.049 620.603 C 358.902 616.2 420.533 619.174 442.613 619.404 L 652.039 621.678 L 766.177 622.43 C 784.22 622.505 802.591 621.842 820.603 622.687 C 822.77 622.789 827.134 622.623 828.865 623.805 C 829.856 624.481 829.621 625.182 829.796 626.303 L 829.075 623.582 C 837.404 636.346 842.667 651.049 848.49 665.077 L 872.104 722.209 L 929.602 862.418 C 940.592 889.391 952.453 916.314 962.467 943.657 C 965.701 952.486 970.098 962.673 965.82 971.852 C 961.739 974.467 954.838 974.9 950.017 975.374 C 923.358 977.995 895.941 978.032 869.165 979.259 C 830.536 981.029 791.915 983.571 753.282 985.094 C 748.986 996.734 743.521 1008.02 738.644 1019.43 A 3740.7 3740.7 0 0 1 707.907 1090.48 A 558.751 558.751 0 0 1 755.054 1082.06 C 765.827 1080.52 777.318 1079.76 787.747 1076.73 C 792.785 1075.27 799.659 1073.69 802.283 1068.86 C 801.32 1066.4 800.658 1064.72 800.939 1062.03 C 802.495 1059.1 804.828 1057.38 807.626 1055.72 C 817.258 1050.01 827.971 1045.39 838.013 1040.39 C 870.46 1024.23 906.388 1011.64 943.262 1015.61 C 955.415 1016.92 967.597 1020.11 979.486 1022.94 C 1004.18 1028.81 1028.61 1035.85 1053.13 1042.39 C 1063.35 1035.6 1073.6 1032.99 1085 1029.21 C 1090 1027.56 1094.05 1023.25 1099.35 1021.64 C 1111.4 1017.99 1125.89 1017.01 1138.39 1014.95 A 1078.16 1078.16 0 0 0 1210.06 1001.32 C 1212.02 994.69 1197.99 932.789 1197.14 917.028 C 1196.6 907.051 1201.74 889.448 1198.87 881.037 C 1199.35 880.518 1199.67 880.198 1200.06 879.578 C 1201.3 877.601 1200.29 875.903 1199.68 873.891 C 1200.23 873.423 1200.75 872.928 1201.15 872.323 C 1203.51 868.782 1210.97 827.294 1209.85 823.037 C 1210.52 822.396 1211.05 821.82 1211.48 820.994 C 1213.1 817.953 1213.62 814.154 1212.54 810.888 C 1194.84 813.031 1175.18 811.518 1157.24 811.676 C 1157.32 811.501 1157.39 811.325 1157.47 811.151 C 1162.03 801.027 1156.59 588.38 1158.87 553.217 C 1159.02 550.899 1158.76 550.356 1160.6 548.74 C 1159.03 547.45 1154.15 547.049 1152 546.64 C 1146.4 543.741 1141.1 541.004 1136.51 536.584 C 1117.55 518.34 1111.18 484.992 1110.78 459.721 C 1106.39 455.466 1101.98 451.099 1097.98 446.478 C 1092.65 440.336 1084.51 430.251 1085.1 421.891 C 1087.72 415.072 1099.8 412.147 1105.89 408.471 C 1131.04 393.295 1125.02 379.214 1127.12 355.001 C 1127.53 350.214 1128.95 345.302 1130.08 340.634 C 1112.25 321.995 1093.14 294.589 1090.07 268.286 C 1089.36 262.217 1090.18 255.982 1094.18 251.145 C 1105.52 237.435 1135.45 234.614 1152 233.128 L 1157.46 232.889 C 1182.57 233.956 1199.77 224.762 1223.44 218.509 A 343.339 343.339 0 0 1 1290.67 207.778 z"/>
  <path transform="translate(0,0)" d="M 1143.04 279.802 C 1146.76 284.177 1151.15 292.026 1152.93 297.387 C 1153.73 299.801 1153.19 300.115 1152.11 302.33 C 1151.01 302.59 1150.4 303.094 1149.41 302.409 C 1145.58 299.778 1143.88 284.803 1143.04 279.802 z" style="fill: rgb(40, 75, 99);"/>
  <path transform="translate(0,0)" d="M 1408.44 457.496 L 1410.43 457.993 C 1405.63 465.443 1391.7 478.788 1383.29 482.213 L 1380.29 480.506 C 1379.42 477.298 1377.4 475.697 1374.91 473.749 C 1385.87 470.512 1399.38 464.541 1408.44 457.496 z" style="fill: rgb(40, 75, 99);"/>
  <path transform="translate(0,0)" d="M 1262 596.484 C 1263.03 596.567 1264.54 596.41 1265.32 597.09 C 1268.12 599.532 1270.76 603.435 1271.1 607.186 C 1271.05 607.362 1271.03 607.546 1270.95 607.713 C 1269.29 611.599 1246.92 630.101 1242.23 632.503 C 1241.57 634.172 1240.19 635.354 1238.97 636.628 C 1237.42 628.138 1261.01 607.108 1262 596.484 z" style="fill: rgb(255, 255, 255);"/>
  <path transform="translate(0,0)" d="M 1347.67 442.498 C 1350.5 443.937 1353.91 451.172 1355.86 454.03 C 1363.47 465.201 1371.72 475.616 1380.19 486.133 L 1379.96 487.651 L 1376.27 488.844 C 1374.32 486.229 1370.94 483.964 1368.56 481.618 C 1360.37 473.546 1349.2 461.738 1345.49 450.816 C 1344.3 447.305 1346.06 445.499 1347.67 442.498 z" style="fill: rgb(40, 75, 99);"/>
  <path transform="translate(0,0)" d="M 1130.49 265.39 C 1132.79 266.429 1136.89 268.825 1138.14 271.073 C 1140.26 274.879 1138.91 285.326 1139.82 290.135 C 1141.09 296.762 1143.99 302.795 1147.08 308.723 L 1142.47 315.494 L 1141.87 316.753 L 1140.51 317.106 C 1138.95 316.165 1138.38 315.237 1137.68 313.585 C 1132.94 302.412 1125.76 276.902 1130.49 265.39 z" style="fill: rgb(40, 75, 99);"/>
  <path transform="translate(0,0)" fill="rgb(245,245,245)" d="M 875.466 1051.95 C 878.483 1052.66 884.941 1059.67 887.843 1061.95 C 883.597 1061.95 878.555 1061.5 874.452 1062.46 C 869.114 1063.72 866.853 1067.49 864.203 1071.83 C 851.563 1071.93 838.853 1071.76 826.247 1072.78 C 821.612 1073.08 816.945 1073.5 812.3 1073.55 C 812.865 1072.46 814.657 1071.94 815.836 1071.69 C 838.826 1066.69 854.001 1062.51 875.466 1051.95 z"/>
  <path transform="translate(0,0)" d="M 779.274 1084.3 C 779.732 1084.32 780.291 1084.78 780.687 1085.02 C 780.015 1089.24 779.555 1093.45 779.15 1097.7 C 756.795 1097.97 734.21 1096.48 711.905 1097.78 L 708.676 1097.35 C 716.741 1092.76 766.195 1086.65 779.274 1084.3 z" style="fill: rgb(217, 217, 217);"/>
  <path transform="translate(0,0)" d="M 1472.92 379.026 C 1473.2 379.149 1473.48 379.268 1473.75 379.395 C 1478.66 381.655 1483.64 384.834 1485.61 390.086 C 1492.91 398.156 1495.41 410.324 1494.87 420.93 C 1494.07 436.812 1486.26 456.606 1474.26 467.28 C 1473.93 467.581 1473.59 467.877 1473.23 468.16 C 1472.24 469.946 1471.06 471.179 1469.62 472.614 C 1459.28 482.894 1447.89 482.471 1434.18 482.361 C 1447.92 477.801 1460.41 470.195 1469.59 458.84 C 1481.11 444.593 1488.99 424.052 1486.89 405.664 C 1485.71 395.367 1481.04 385.575 1472.92 379.026 z" style="fill: rgb(40, 75, 99);"/>
  <path transform="translate(0,0)" d="M 1458.64 376.487 C 1463.12 376.356 1467.55 379.765 1470.69 382.665 C 1477.98 389.389 1480.76 400.472 1481.06 410.067 C 1481.61 427.687 1473.35 447.401 1461.19 459.998 C 1451.86 469.673 1436.44 479.806 1422.75 480.094 C 1420.33 480.132 1418.63 480.098 1416.38 479.156 C 1419.9 474.84 1431.52 472.663 1436.78 469.739 C 1443.37 466.084 1450.12 459.97 1454.98 454.317 C 1466.37 441.077 1473.64 421.936 1472.23 404.473 C 1471.34 393.347 1467.17 383.758 1458.64 376.487 z" style="fill: rgb(40, 75, 99);"/>
  <path transform="translate(0,0)" d="M 1489.85 388.851 C 1489.07 384.582 1485.77 381.31 1482.2 378.914 C 1475.93 374.714 1465.64 374.174 1460.58 369.033 C 1460.23 366.655 1460.48 366.765 1461.84 364.934 C 1465.78 363.376 1470.54 365.473 1474.2 367.072 C 1487.95 373.088 1497.7 382.385 1502.98 396.474 A 70.1283 70.1283 0 0 1 1501.16 450.034 A 49.7164 49.7164 0 0 1 1472.35 476.315 A 82.5736 82.5736 0 0 1 1468.61 477.526 C 1471.15 475.81 1475.23 473.61 1475.9 470.372 C 1475.93 470.222 1475.92 470.067 1475.93 469.914 C 1480.46 467.938 1485.04 460.35 1487.7 456.067 C 1496.99 441.069 1502.53 421.351 1498.25 403.936 C 1497.03 398.977 1494.43 391.576 1489.85 388.851 z" style="fill: rgb(40, 75, 99);"/>
  <path transform="translate(0,0)" d="M 1456.29 383.491 C 1457.84 383.582 1458.91 384.124 1460.27 384.79 C 1463.06 388.247 1464.85 391.421 1465.92 395.765 C 1469.72 411.197 1464.51 429.767 1456.42 442.947 C 1447.59 457.321 1430.85 470.226 1414.17 474.128 L 1412.47 475.054 C 1410.19 474.98 1409.61 475.013 1407.57 473.802 C 1408.34 470.709 1422.53 462.401 1425.81 459.404 C 1431.64 454.092 1436.19 445.861 1439.65 438.812 C 1443.41 431.154 1444.82 422.707 1447.53 414.677 C 1450.22 406.715 1454.11 398.872 1456.02 390.696 C 1456.6 388.217 1457.13 385.983 1456.29 383.491 z" style="fill: rgb(40, 75, 99);"/>
  <path transform="translate(0,0)" d="M 1353.31 421.492 A 40.7725 40.7725 0 0 1 1356 421.331 C 1358.71 421.256 1361.25 421.701 1363.19 423.568 C 1363.54 425.829 1363.75 429.122 1365.59 430.701 C 1373.99 437.938 1413.33 436.08 1425.54 435.976 C 1425.36 437.049 1425.09 438.028 1424.64 439.024 C 1419.41 450.507 1388.63 464.877 1376.85 468.507 L 1374.51 470.305 C 1374.21 470.147 1373.89 470 1373.59 469.833 C 1368.06 466.735 1352.49 441.7 1350.67 435.324 C 1358.74 440.079 1361.08 450.812 1367.94 456.043 C 1369.76 457.432 1369.93 457.649 1372.18 457.352 C 1372.64 448.804 1357.76 436.85 1354.54 428.29 C 1353.8 426.331 1353.78 423.612 1353.31 421.492 z" style="fill: rgb(40, 75, 99);"/>
  <path transform="translate(0,0)" d="M 1111.12 1027.27 L 1112.62 1027.32 C 1113.94 1028.92 1125.04 1086.65 1126.77 1093.85 L 1109.07 1093.87 C 1107.71 1093.92 1106.3 1094.03 1104.94 1093.94 C 1102.21 1093.75 1101 1092.68 1099.37 1090.51 C 1088.54 1075.98 1092.18 1048.19 1094.43 1031.59 C 1099.96 1029.68 1105.4 1028.42 1111.12 1027.27 z" style="fill: rgb(255, 255, 255);"/>
  <path transform="translate(0,0)" d="M 635.632 990.386 L 648.9 989.916 C 636.155 1015.57 625.616 1042.77 614.109 1069.04 C 610.449 1077.4 606.897 1089.4 601.385 1096.41 C 600.15 1097.98 599.165 1097.66 597.25 1097.87 L 581.757 1097.88 C 591.959 1072.49 603.259 1047.43 614.203 1022.34 C 618.237 1013.1 622.045 1000.38 627.723 992.33 C 629.106 990.37 633.421 990.621 635.632 990.386 z" style="fill: rgb(255, 255, 255);"/>
  <path transform="translate(0,0)" d="M 852.765 1078.46 C 885.149 1077.67 920.384 1076.23 952.315 1081.74 L 952.756 1094.22 L 885.25 1095.52 C 865.865 1095.9 846.47 1095.65 827.097 1096.05 C 816.979 1096.26 806.472 1097.56 796.392 1097.02 C 793.606 1096.87 791.257 1096.46 788.704 1095.31 C 788.09 1094.59 786.905 1093.61 786.844 1092.68 C 786.67 1089.99 787.836 1087.89 789.698 1086 C 798.301 1077.25 840.172 1078.7 852.765 1078.46 z" style="fill: rgb(217, 217, 217);"/>
  <path transform="translate(0,0)" d="M 1252.48 715.478 C 1254.12 715.827 1254.02 716.022 1254.99 717.418 C 1255.97 725.697 1247.12 764.093 1245.08 775.441 C 1238.51 811.875 1232.02 848.138 1227.25 884.872 C 1224.85 903.326 1222.15 922.552 1222.25 941.174 C 1222.37 964.637 1233.25 1008 1239.34 1031.58 C 1241.72 1040.81 1245 1050.26 1246.6 1059.64 C 1246.91 1061.45 1246.78 1063.17 1246.39 1064.95 C 1246.49 1066.94 1244.57 1070.45 1243.49 1072.11 C 1242.25 1074.04 1240.86 1074.6 1238.7 1075.11 L 1235.83 1071.53 C 1236.88 1068.27 1212.2 962.567 1209.63 949.101 C 1207.68 938.88 1206.09 928.462 1205.53 918.061 C 1203.42 879.042 1223.39 801.175 1235.65 763.482 C 1240.72 747.896 1248.63 731.961 1252.33 716.158 C 1252.39 715.932 1252.43 715.705 1252.48 715.478 z" style="fill: rgb(60, 110, 113);"/>
  <path transform="translate(0,0)" d="M 342.629 628.025 C 348.49 636.146 377.568 720.428 383.972 737.591 L 436.677 878.236 C 450.971 915.529 465.993 952.618 479.62 990.161 L 466.758 991.122 L 466.109 991.229 L 466.323 991.565 C 464.331 990.841 463.294 989.46 462.344 987.633 C 455.562 974.589 450.859 959.75 445.559 946.008 L 413.378 861.282 A 6996.61 6996.61 0 0 1 351.832 697.933 C 345.505 680.213 336.684 659.674 331.73 642.014 C 331.133 639.888 330.769 637.259 331.62 635.161 C 333.31 630.993 338.827 629.507 342.629 628.025 z" style="fill: rgb(217, 217, 217);"/>
  <path transform="translate(0,0)" d="M 1206.4 1010.49 C 1209.32 1010.27 1210.97 1009.77 1213.6 1011.19 C 1216.87 1020.03 1232.89 1081.57 1231.72 1087.04 C 1231.09 1093.01 1215.99 1111.55 1210.95 1115.8 C 1211.48 1114 1211.51 1111.97 1211.39 1110.09 C 1211.08 1105.38 1209.76 1101.32 1206.1 1098.13 C 1196.7 1089.92 1180.27 1092.12 1168.75 1092.71 L 1135.69 1093.31 C 1129.2 1071.01 1125.71 1048.26 1121.72 1025.43 C 1149.9 1022.09 1178.61 1016.17 1206.4 1010.49 z" style="fill: rgb(60, 110, 113);"/>
  <path transform="translate(0,0)" d="M 1390.97 497.496 C 1392.02 497.244 1393.12 497.068 1394.2 497.192 C 1399.67 497.817 1415 505.166 1418.4 509.221 C 1417.15 512.741 1395.08 532.952 1390.61 538.136 C 1370.89 560.989 1351.59 585.502 1335.46 611.02 A 485.563 485.563 0 0 0 1312.1 652.543 C 1307.11 662.665 1294.82 696.418 1288.54 702.784 C 1288.56 702.405 1288.6 702.027 1288.61 701.647 C 1288.68 698.133 1286.41 694.46 1284.15 691.957 C 1285.38 687.8 1280.66 678.334 1278.71 674.316 C 1271.88 660.251 1260.38 644.696 1245.24 639.431 C 1253.23 635.553 1261.56 627.009 1268.38 621.065 C 1294.27 598.503 1317.13 573.373 1340.4 548.208 C 1354.03 533.466 1374.3 508.049 1390.97 497.496 z" style="fill: rgb(255, 255, 255);"/>
  <path transform="translate(0,0)" d="M 742.327 985.49 L 743.744 985.911 C 743.664 993.208 702.098 1081.64 696.12 1097.43 C 668.492 1096.92 640.766 1097.33 613.135 1097.64 L 611.553 1097.11 C 611.006 1092.69 652.787 1000.53 657.576 989.979 C 685.751 987.758 714.092 986.685 742.327 985.49 z" style="fill: rgb(255, 255, 255);"/>
  <path transform="translate(0,0)" d="M 916.773 1023.41 C 944.97 1019.31 976.73 1030.35 1003.92 1037.18 C 1015.6 1040.11 1027.54 1042.59 1039.12 1045.79 C 1042.37 1046.69 1050.65 1051.14 1053.4 1050.67 C 1057.33 1050 1067.56 1042.8 1071.97 1040.8 C 1076.21 1038.89 1080.93 1037.97 1085.46 1036.99 C 1083.32 1057.78 1084.07 1074.33 1091.56 1093.99 A 10256.9 10256.9 0 0 0 960.574 1094.33 C 960.408 1090.55 960.894 1084.69 959.259 1081.34 C 955.193 1073 942.861 1073.09 935.191 1071.35 C 931.133 1070.43 927.104 1068.98 923.15 1067.69 C 908.312 1063.28 895.516 1059.55 883.075 1049.83 C 899.294 1046.56 917.72 1047.3 934.234 1047.9 C 939.963 1048.11 946.23 1049.15 951.878 1048.68 C 954.256 1048.48 956.316 1047.45 958.168 1046 L 958.212 1044.7 C 952.511 1040.55 940.903 1041.28 934.092 1040.87 C 918.836 1039.95 900.995 1037.67 885.974 1041.05 C 864.149 1045.97 832.406 1070.07 808.619 1063.99 L 807.91 1062.63 C 808.014 1062.49 808.112 1062.35 808.221 1062.21 C 814.346 1054.67 870.18 1032.57 882.079 1029.31 C 893.378 1026.21 905.155 1024.71 916.773 1023.41 z" style="fill: rgb(255, 255, 255);"/>
  <path transform="translate(0,0)" d="M 114.833 966.062 L 194.769 966.091 C 193.564 1009.9 194.386 1053.92 194.392 1097.75 C 168.09 1099.07 141.151 1097.94 114.783 1097.95 L 114.833 966.062 z" style="fill: rgb(255, 255, 255);"/>
  <path transform="translate(0,0)" d="M 1423.72 514.497 C 1424.46 514.458 1424.7 514.402 1425.39 514.501 C 1430.68 515.261 1462.72 535.283 1466.49 540.041 C 1463.39 544.771 1443.13 556.564 1437.25 561.176 C 1429.1 567.571 1421.28 574.742 1414.52 582.603 C 1401.06 598.254 1390.92 615.954 1383.11 635.014 C 1380.01 642.593 1377.76 651.617 1373.45 658.502 C 1373.32 658.716 1373.18 658.924 1373.04 659.136 C 1372.82 659.432 1323.99 689.034 1319.28 691.334 C 1320.02 692.033 1320.75 692.767 1321.37 693.566 C 1324.94 698.097 1341.9 733.024 1341.46 736.87 C 1341.52 737.25 1341.66 737.889 1341.64 738.312 C 1341.37 744.618 1328.14 770.38 1325.11 777.855 C 1316.26 799.712 1308.6 822.719 1301.68 845.263 C 1298.32 856.204 1295.82 868.331 1291.62 878.884 C 1291.21 879.89 1290.51 880.738 1289.78 881.522 C 1289.92 881.981 1290.17 882.737 1290.22 883.257 C 1290.69 888.222 1282.61 921.506 1280.46 927.449 C 1279.62 929.752 1278.16 931.823 1276.68 933.754 C 1276.95 933.137 1277.21 932.522 1277.45 931.89 L 1277.74 931.086 C 1280.52 923.643 1277.45 908.487 1277.04 900.277 A 525.743 525.743 0 0 1 1277.98 834.696 C 1280.43 799.76 1283.83 753.24 1292.65 719.491 C 1304.4 674.56 1342.93 610.206 1371.74 573.534 C 1379.89 563.157 1388.03 552.397 1397 542.709 C 1403.49 535.694 1418.83 522.132 1423.14 515.437 C 1423.34 515.127 1423.53 514.81 1423.72 514.497 z" style="fill: rgb(60, 110, 113);"/>
  <path transform="translate(0,0)" d="M 202.019 966.077 L 376.099 965.987 L 376.263 1097.85 L 202.476 1097.86 C 201.722 1083.62 202.266 1069.16 202.191 1054.89 L 202.019 966.077 z" style="fill: rgb(255, 255, 255);"/>
  <path transform="translate(0,0)" fill="rgb(31,31,50)" d="M 246.592 992.343 C 263.1 990.86 280.381 991.83 296.98 991.844 C 310.378 991.855 324.902 990.767 338.114 992.492 C 339.446 996.303 339.183 1000.18 339.132 1004.15 L 336.086 1003.34 C 336.112 1001.01 335.912 998.876 335.517 996.576 C 330.669 993.334 260.441 995.028 248.97 995.037 L 246.592 992.343 z"/>
  <path transform="translate(0,0)" fill="rgb(31,31,50)" d="M 246.159 1009.65 C 245.66 1004.54 244.026 996.826 246.592 992.343 L 248.97 995.037 C 248.967 1001.2 248.63 1007.75 253.253 1012.5 C 255.495 1014.8 258.27 1016.37 261.076 1017.88 C 276.271 1018.09 321.026 1022.04 331.094 1012.02 C 333.516 1009.61 334.943 1006.52 336.086 1003.34 L 339.132 1004.15 C 337.085 1012.64 332.904 1016.35 325.616 1020.84 C 312.036 1022.32 277.767 1023.38 264.862 1021.35 C 255.972 1019.96 251.388 1016.86 246.159 1009.65 z"/>
  <path transform="translate(0,0)" d="M 248.97 995.037 C 260.441 995.028 330.669 993.334 335.517 996.576 C 335.912 998.876 336.112 1001.01 336.086 1003.34 C 334.943 1006.52 333.516 1009.61 331.094 1012.02 C 321.026 1022.04 276.271 1018.09 261.076 1017.88 C 258.27 1016.37 255.495 1014.8 253.253 1012.5 C 248.63 1007.75 248.967 1001.2 248.97 995.037 z" style="fill: rgb(255, 255, 255);"/>
  <path transform="translate(0,0)" d="M 1216.58 547.187 C 1225.52 551.709 1254.33 576.244 1257.58 585.522 C 1257.73 585.951 1257.78 586.592 1257.84 587.011 C 1258.02 591.33 1223.89 646.619 1219.29 651.326 A 22.1588 22.1588 0 0 1 1217.4 653.07 C 1217.49 653.261 1217.58 653.45 1217.67 653.644 C 1224.44 669.07 1220.6 735.765 1228.8 741.396 C 1231.88 738.292 1231.97 731.506 1231.94 727.266 C 1231.85 713.592 1230.31 667.555 1225.11 656.695 C 1225.21 656.565 1225.31 656.436 1225.41 656.305 C 1229.21 651.26 1231.83 645.195 1235.52 639.96 C 1235.71 640.238 1235.9 640.52 1236.09 640.795 C 1240.28 646.715 1249.75 649.301 1255.45 654.33 C 1271.51 668.482 1277.81 693.127 1285.69 712.36 C 1286.13 715.855 1277.91 759.942 1276.83 768.067 C 1272.56 800.248 1269.07 832.458 1268.13 864.925 A 501.503 501.503 0 0 0 1272.85 949.649 C 1273.97 957.21 1280.65 985.888 1279.73 990.602 C 1279.71 996.77 1258.48 1047.11 1253.2 1052.16 C 1252.72 1052.62 1252.22 1053.01 1251.69 1053.42 C 1252.13 1052.15 1252.52 1050.74 1252.33 1049.39 C 1251.09 1040.65 1247.98 1031.55 1245.9 1022.94 C 1240.31 999.792 1233.74 974.969 1230.91 951.408 C 1229.04 935.869 1231.67 919.514 1233.34 904.05 C 1238.34 857.872 1246.84 812.365 1254.92 766.66 C 1256.2 759.379 1258.01 737.322 1261.83 732.161 L 1265.07 731.408 C 1267.68 726.079 1257.86 692.656 1255.44 685.574 C 1251.48 674.022 1245.32 661.839 1233.76 656.34 C 1232.07 655.537 1231.25 655.178 1229.38 655.368 C 1229.21 661.833 1255.12 684.279 1250.06 700.965 C 1250.04 707.946 1240.69 724.624 1237.98 732.039 C 1232.79 746.191 1227.86 760.571 1223.6 775.035 C 1221.09 783.544 1217.73 802.428 1213.99 809.18 C 1213.81 809.501 1213.45 809.989 1213.19 810.261 C 1212.98 810.48 1212.76 810.679 1212.54 810.888 C 1194.84 813.031 1175.18 811.518 1157.24 811.676 C 1157.32 811.501 1157.39 811.325 1157.47 811.151 C 1162.03 801.027 1156.59 588.38 1158.87 553.217 C 1159.02 550.899 1158.76 550.356 1160.6 548.74 C 1179.48 551.337 1198.02 552.37 1216.58 547.187 z" style="fill: rgb(255, 255, 255);"/>
  <path transform="translate(0,0)" d="M 1154.81 306.068 C 1156.08 306.289 1157.48 306.667 1158.37 307.651 C 1162.74 312.486 1166.41 320.337 1170.11 325.86 C 1180.21 340.98 1192.03 355.851 1205.72 367.898 C 1231.19 390.318 1261.41 404.189 1295.58 402.064 C 1293.51 407.204 1285.21 409.95 1284.09 414.607 C 1283.8 415.84 1284.48 416.278 1285.11 417.295 C 1285.43 417.456 1287.25 418.481 1287.45 418.45 C 1292.67 417.648 1307.16 399.902 1320.14 397.255 C 1327.19 395.818 1335.91 397.336 1341.87 401.448 C 1345.65 404.051 1347.96 407.783 1348.64 412.313 C 1350.44 424.217 1343.9 436.988 1336.93 446.187 C 1326.3 460.204 1310.98 469.916 1293.51 472.359 C 1291.59 474.104 1291.38 474.256 1290.87 476.78 L 1292.15 478.001 C 1300.7 480.496 1311.18 476.064 1318.78 472.148 C 1325.33 468.771 1335.49 462.39 1337.85 454.967 C 1345.09 460.023 1352.27 474.18 1358.71 481.228 C 1363.96 486.983 1373.36 491.447 1377.37 497.829 C 1376.83 499.406 1326.29 553.015 1321.42 556.394 C 1321.36 556.651 1321.3 556.912 1321.23 557.167 C 1319.71 562.383 1283.25 598.078 1277.16 601.08 C 1277.1 600.251 1277 599.358 1276.72 598.573 C 1272.01 585.668 1247.19 558.407 1234.91 552.784 C 1235.78 552.407 1236.63 551.984 1237.42 551.46 C 1245.86 545.909 1265.84 521.825 1267.31 511.769 C 1267.59 509.868 1267.38 509.643 1266.2 508.191 C 1260.45 506.899 1239.29 522.529 1231.86 525.67 C 1212.57 533.835 1192.26 541.179 1171 540.997 C 1159.62 540.899 1148.87 537.798 1140.77 529.456 C 1124.35 512.537 1118.87 479.2 1119.04 456.474 C 1108.56 446.404 1099.91 437.357 1093.2 424.302 C 1097.36 422.431 1101.4 420.173 1105.3 417.809 C 1146.62 392.782 1126.52 377.789 1138.16 341.842 C 1142.01 329.956 1152.31 316.272 1154.81 306.068 z" style="fill: rgb(255, 255, 255);"/>
  <path transform="translate(0,0)" fill="rgb(24,24,41)" d="M 1157 389.26 C 1159.53 389.013 1160.34 388.843 1162.63 389.839 C 1164.78 392.409 1165.85 394.747 1165.69 398.157 C 1165.47 402.599 1164.61 405.179 1161.28 408.178 C 1159.01 407.753 1158.54 407.124 1156.83 405.645 C 1154.1 400.13 1155.59 394.959 1157 389.26 z"/>
  <path transform="translate(0,0)" fill="rgb(24,24,41)" d="M 1157.43 348.438 C 1160.34 348.228 1163.37 347.837 1166.28 348.104 C 1170.63 348.505 1176.7 351.34 1179.42 354.723 L 1178.9 356.323 C 1177.01 356.785 1175.58 357.067 1173.67 356.598 L 1167.2 355.038 C 1161.06 354.53 1151.28 358.359 1146.17 355.594 L 1146.7 353.524 C 1149.77 350.761 1153.6 349.741 1157.43 348.438 z"/>
  <path transform="translate(0,0)" fill="rgb(31,31,50)" d="M 1128.6 489.137 C 1141.04 487.677 1155.71 492.94 1165.91 500.188 C 1168.44 501.981 1168.92 502.83 1169.39 505.733 L 1167.36 507.974 L 1165.97 508.546 C 1160 504.651 1154.79 500.455 1147.97 498.034 C 1143.01 496.276 1134.02 495.713 1130.02 493.269 C 1128.57 492.387 1128.81 490.663 1128.6 489.137 z"/>
  <path transform="translate(0,0)" fill="rgb(24,24,41)" d="M 1321.88 408.497 C 1327.04 407.548 1331.94 407.212 1336.69 410.017 C 1339 411.382 1339.3 412.111 1339.8 414.542 C 1338.94 416.924 1338.48 418.19 1336.37 419.653 C 1333.78 419.075 1331.75 415.82 1329.91 413.871 C 1323.41 413.035 1315.54 418.852 1310.03 421.915 C 1310.81 422.234 1311.58 422.562 1312.34 422.932 C 1316.79 425.103 1320.73 428.478 1322.14 433.419 C 1322.93 436.201 1322.73 438.852 1321.26 441.38 C 1319.3 444.747 1315.59 445.482 1312.11 446.511 C 1309.51 449.349 1299.55 453.194 1295.75 453.371 C 1293.26 453.487 1293.12 453.263 1291.34 451.72 C 1291.92 448.046 1296.29 447.106 1296.58 443.837 C 1296.95 439.767 1293.55 435.673 1294.52 431.472 C 1296.98 420.833 1313.16 413.477 1321.88 408.497 z"/>
  <path transform="translate(0,0)" d="M 1306.47 425.497 C 1306.65 425.527 1306.83 425.537 1307 425.586 C 1309.96 426.435 1313.12 429.822 1314.82 432.26 C 1315.63 434.93 1315.17 436.332 1314.13 438.869 C 1311.98 441.579 1308.51 442.341 1305.35 443.391 C 1304.62 444.299 1303.46 444.867 1302.48 445.498 L 1301.3 444.7 C 1301.02 443.19 1300.75 441.65 1300.68 440.112 C 1300.4 433.471 1301.97 430.199 1306.47 425.497 z" style="fill: rgb(255, 255, 255);"/>
  <path transform="translate(0,0)" d="M 1285.5 216.492 C 1293.99 215.826 1302.69 215.656 1311.21 215.879 C 1350.9 216.921 1392.39 228.372 1420.42 257.998 C 1443.95 282.872 1454.94 317.2 1453.84 351.137 C 1453.39 365.053 1447.5 404.503 1437.11 414.242 C 1441.27 403.766 1433.67 381.295 1429.75 371.219 C 1423.22 354.434 1398.8 309.807 1382.25 302.505 L 1380.63 303.229 C 1380.08 308.598 1386.66 314.141 1389.99 318.087 C 1415.05 347.77 1428.69 380.815 1437.02 418.407 C 1436.23 418.921 1435.54 419.36 1434.91 420.063 C 1434.77 420.213 1434.65 420.375 1434.52 420.531 L 1433.95 419.747 L 1435.82 420.346 L 1434.79 420.7 C 1422.23 387.47 1410.32 360.074 1389.21 331.184 C 1384.78 325.107 1365 301.167 1359.21 300.262 L 1357.87 301.511 C 1357.79 302.213 1357.48 302.923 1357.62 303.617 C 1357.93 305.183 1366.86 312.996 1368.46 314.748 C 1378.39 325.595 1387.35 336.681 1395.54 348.921 C 1402.15 358.787 1429.14 402.997 1426.52 414.458 C 1426.47 414.665 1426.4 414.868 1426.35 415.073 C 1426.27 414.42 1426.28 414.302 1426.11 413.724 C 1424.03 406.655 1332.06 335.12 1321.5 329.178 C 1319.37 327.977 1318.69 327.845 1316.38 328.456 L 1315.98 330.339 C 1318.67 335.019 1324.22 336.799 1327.38 341.084 C 1327.48 341.218 1327.57 341.357 1327.66 341.494 C 1328.83 342.122 1329.93 342.814 1331.04 343.549 C 1343.91 352.133 1428.65 420.535 1430.24 428.327 C 1427.35 426.029 1424.25 424.682 1420.82 423.402 C 1414.69 421.118 1360.45 404.238 1358.78 404.411 L 1358.38 405.943 C 1370.85 419.484 1403.51 421.873 1420.64 428.916 L 1421.44 429.25 C 1409.04 429.182 1377.93 430.824 1367.81 424.951 L 1367.17 421.898 C 1364.01 418.18 1358.82 417.618 1354.2 416.291 C 1354.36 415.741 1354.4 415.683 1354.44 415.018 C 1354.67 409.93 1352.69 404.21 1349.21 400.495 C 1342.92 393.785 1333.43 391.087 1324.51 390.713 C 1317.33 390.413 1310.84 397.271 1304.45 396.562 C 1291.97 395.179 1279.6 395.643 1267.25 392.749 C 1216.46 380.852 1184.13 337.091 1160.1 294.122 C 1154.03 283.263 1147.21 268.254 1136.69 261.095 C 1133.7 259.057 1131.45 258.597 1127.94 259.266 C 1126.25 260.598 1125.33 261.94 1124.7 264.007 C 1119.02 282.487 1129.57 308.777 1137.92 325.101 C 1136.84 328.099 1135.4 331.011 1134.1 333.922 A 158.952 158.952 0 0 1 1101.15 280.726 C 1098.65 274.035 1095.85 265.231 1099.33 258.382 C 1107.68 241.939 1157.74 239.654 1174.25 240.887 C 1183.09 241.548 1198.96 247.419 1206.8 244.745 L 1206.65 243.423 C 1200.64 238.872 1195.78 238.085 1188.5 236.97 C 1203.36 233.956 1217.76 228.287 1232.49 224.58 C 1249.79 220.229 1267.8 218.397 1285.5 216.492 z" style="fill: rgb(40, 75, 99);"/>
  <path transform="translate(0,0)" fill="rgb(24,24,41)" d="M 1264.34 312.432 C 1265.38 312.481 1266.84 312.329 1267.76 312.79 C 1272.09 314.946 1275.76 323.405 1279.28 327.219 C 1284.34 332.696 1290.05 337.305 1295.95 341.825 C 1298.76 343.976 1305.14 347.587 1306.21 350.926 L 1304.15 353.578 C 1303.61 353.496 1303.34 353.485 1302.79 353.224 C 1289.43 346.806 1268.26 327.159 1264.34 312.432 z"/>
  <path transform="translate(0,0)" fill="rgb(24,24,41)" d="M 1235.07 281.461 C 1235.34 281.452 1235.61 281.425 1235.87 281.433 C 1236.75 281.458 1238.45 281.822 1239.14 282.416 C 1240.68 283.742 1251.24 311.878 1253.84 316.64 C 1261.82 331.244 1271.6 342.139 1284.86 352.095 C 1289.29 355.421 1295.03 358.79 1298.61 362.943 L 1296.77 365.517 C 1296.37 365.559 1295.76 365.651 1295.34 365.61 C 1285.67 364.69 1273.04 352.906 1266.44 345.89 C 1252.58 331.138 1234.4 302.289 1235.07 281.461 z"/>
  <path transform="translate(0,0)" fill="rgb(24,24,41)" d="M 1192.62 299.371 C 1194.3 299.648 1195.25 299.626 1196.58 300.881 C 1204.15 308.019 1211.43 323.248 1219.21 332.175 C 1235.75 351.142 1257.38 368.719 1280.76 378.466 C 1288.23 381.575 1296.9 382.222 1303.99 386.012 L 1304.37 387.506 L 1302.03 389.392 A 36.6592 36.6592 0 0 1 1299.79 389.165 C 1265.65 384.734 1233.57 360.199 1212.91 333.828 C 1207.99 327.554 1191.66 307.291 1192.62 299.371 z"/>
  <path transform="translate(0,0)" d="M 350.901 626.701 C 383.633 626.173 416.428 626.905 449.165 627.082 L 662.503 628.555 A 9203.79 9203.79 0 0 1 768.264 629.356 C 786.6 629.534 806.766 627.999 824.752 631.161 C 830.753 641.706 834.807 654.328 839.447 665.563 L 868.606 736.477 A 14567.9 14567.9 0 0 1 925.367 874.634 C 934.274 896.291 957.554 946.557 959.898 966.67 C 952.196 967.598 944.497 967.8 936.75 968.041 A 39339.9 39339.9 0 0 0 488.615 990.117 C 481.686 974.917 476.042 958.95 470.023 943.368 A 5643.04 5643.04 0 0 1 437.377 857.355 L 350.901 626.701 z" style="fill: rgb(217, 217, 217);"/>
  <path transform="translate(0,0)" fill="rgb(24,24,41)" d="M 373.658 642.889 L 814.356 646.065 C 823.274 663.084 936.134 941.353 936.606 948.786 C 931.746 953.184 918.981 952.07 912.751 952.235 L 497.79 973.937 C 490.79 957.529 485.24 940.451 478.781 923.815 A 9698.29 9698.29 0 0 1 414.779 752.724 A 4748.99 4748.99 0 0 0 387.867 682.026 C 382.958 669.239 376.982 656.137 373.658 642.889 z"/>
  <path transform="translate(0,0)" d="M 379.129 647.807 L 809.72 650.237 C 827.345 689.951 842.984 730.947 859.353 771.223 L 930.166 945.107 C 922.92 945.915 915.528 946.143 908.247 946.599 L 650.866 960.054 C 600.959 962.716 550.97 966.527 501.028 968.008 C 492.668 947.697 485.262 926.92 477.386 906.407 L 416.135 743.764 C 404.165 711.747 392.583 679.236 379.129 647.807 z" style="fill: rgb(255, 255, 255);"/>
  <path transform="translate(0,0)" fill="rgb(31,31,50)" d="M 413.782 671.242 C 446.341 670.39 479.052 671.011 511.628 671 C 555.244 670.987 598.883 670.572 642.496 671.022 L 642.118 672.356 C 653.305 674.275 666.67 670.229 677.332 673.274 C 658.919 676.175 626.945 673.993 607.095 673.969 L 492.932 674.124 C 468.253 674.13 443.25 673.369 418.612 674.865 C 431.374 707.426 444.599 739.91 456.582 772.762 L 458.611 778.129 A 656.434 656.434 0 0 1 469.261 806.029 C 502.291 805.378 536.255 805.836 569.144 803.313 L 570.126 806.015 C 535.704 807.888 501.099 808.323 466.637 809.496 C 449.184 763.539 429.742 717.705 413.782 671.242 z"/>
  <path transform="translate(0,0)" fill="rgb(24,24,41)" d="M 642.496 671.022 L 745.82 670.651 C 763.72 670.545 782.174 671.297 800.015 669.972 A 2615.46 2615.46 0 0 0 830.546 747.774 C 837.27 764.349 844.843 781.018 850.354 798.02 C 783.322 797.907 715.944 801.921 648.932 804.028 L 601.426 805.507 C 591.167 805.857 580.36 806.778 570.126 806.015 L 569.144 803.313 C 577.137 802.923 585.188 802.909 593.191 802.714 A 2620.14 2620.14 0 0 1 578.206 760.751 L 580.546 759.872 L 582.3 760.999 C 586.217 775.056 591.604 788.968 596.98 802.526 C 639.82 801.596 683.331 801.192 726.029 797.995 C 716.202 768.679 703.324 739.863 692.341 710.899 C 693.525 711.178 695.437 711.35 696.373 712.089 C 706.083 741.094 718.642 769.59 729.853 798.084 C 768.36 797.709 807.015 795.96 845.505 794.593 C 832.125 757.214 815.962 720.232 801.149 683.369 L 800.566 679.971 C 799.644 678.151 798.569 674.562 796.394 674.097 C 786.594 672 773.05 673.69 762.986 673.732 L 681.916 674.022 C 685.852 685.015 689.578 696.797 694.477 707.373 L 690.594 706.575 C 686.372 695.445 682.468 684.017 677.332 673.274 C 666.67 670.229 653.305 674.275 642.118 672.356 L 642.496 671.022 z"/>
  <path transform="translate(0,0)" d="M 681.916 674.022 L 762.986 673.732 C 773.05 673.69 786.594 672 796.394 674.097 C 798.569 674.562 799.644 678.151 800.566 679.971 L 791.789 688.801 C 784.833 689.276 777.713 690.056 770.747 689.948 A 467.106 467.106 0 0 1 744.315 725.159 C 727.96 719.189 711.226 711.961 694.477 707.373 C 689.578 696.797 685.852 685.015 681.916 674.022 z" style="fill: rgb(255, 255, 255);"/>
  <path transform="translate(0,0)" d="M 524.707 746.705 C 540.601 750.222 556.83 753.247 572.555 757.406 C 575.215 758.109 576.813 758.288 578.206 760.751 A 2620.14 2620.14 0 0 0 593.191 802.714 C 585.188 802.909 577.137 802.923 569.144 803.313 C 536.255 805.836 502.291 805.378 469.261 806.029 A 656.434 656.434 0 0 0 458.611 778.129 C 476.336 782.511 493.952 788.231 511.578 793.093 C 517.234 778.201 520.34 762.045 524.707 746.705 z" style="fill: rgb(255, 255, 255);"/>
  <path transform="translate(0,0)" d="M 672.034 705.43 C 678.837 707.038 685.604 709.024 692.341 710.899 C 703.324 739.863 716.202 768.679 726.029 797.995 C 683.331 801.192 639.82 801.596 596.98 802.526 C 591.604 788.968 586.217 775.056 582.3 760.999 C 586.051 758.866 597.642 762.367 601.953 763.207 C 610.465 755.517 618.593 747.404 627.142 739.731 A 2422.73 2422.73 0 0 1 658.972 743.413 C 662.6 730.546 667.496 717.999 672.034 705.43 z" style="fill: rgb(255, 255, 255);"/>
  <path transform="translate(0,0)" fill="rgb(245,245,245)" d="M 801.149 683.369 C 815.962 720.232 832.125 757.214 845.505 794.593 C 807.015 795.96 768.36 797.709 729.853 798.084 C 718.642 769.59 706.083 741.094 696.373 712.089 C 712.137 715.765 730.429 722.68 745.005 729.747 C 754.973 718.586 763.607 705.586 772.399 693.479 C 779.72 693.201 786.923 692.769 794.199 691.894 L 801.149 683.369 z"/>
  <path transform="translate(0,0)" d="M 677.332 673.274 C 682.468 684.017 686.372 695.445 690.594 706.575 L 694.477 707.373 C 711.226 711.961 727.96 719.189 744.315 725.159 A 467.106 467.106 0 0 0 770.747 689.948 C 777.713 690.056 784.833 689.276 791.789 688.801 L 800.566 679.971 L 801.149 683.369 L 794.199 691.894 C 786.923 692.769 779.72 693.201 772.399 693.479 C 763.607 705.586 754.973 718.586 745.005 729.747 C 730.429 722.68 712.137 715.765 696.373 712.089 C 695.437 711.35 693.525 711.178 692.341 710.899 C 685.604 709.024 678.837 707.038 672.034 705.43 C 667.496 717.999 662.6 730.546 658.972 743.413 A 2422.73 2422.73 0 0 0 627.142 739.731 C 618.593 747.404 610.465 755.517 601.953 763.207 C 597.642 762.367 586.051 758.866 582.3 760.999 L 580.546 759.872 L 578.206 760.751 C 576.813 758.288 575.215 758.109 572.555 757.406 C 556.83 753.247 540.601 750.222 524.707 746.705 C 520.34 762.045 517.234 778.201 511.578 793.093 C 493.952 788.231 476.336 782.511 458.611 778.129 L 456.582 772.762 C 444.599 739.91 431.374 707.426 418.612 674.865 C 443.25 673.369 468.253 674.13 492.932 674.124 L 607.095 673.969 C 626.945 673.993 658.919 676.175 677.332 673.274 z" style="fill: rgb(255, 255, 255);"/>
  <path transform="translate(0,0)" d="M 576.062 754.866 C 571.607 743.238 547.52 684.046 547.723 676.501 L 548.918 676.068 C 553.81 680.34 575.919 744.142 580.562 755.356 C 587.303 757.129 594.135 758.132 601.014 759.194 C 609.14 751.179 617.183 743.108 625.903 735.731 C 636.004 737.201 646.151 737.921 656.322 738.691 C 661.462 726.591 665.572 713.77 670.088 701.408 L 690.594 706.575 L 694.477 707.373 C 711.226 711.961 727.96 719.189 744.315 725.159 A 467.106 467.106 0 0 0 770.747 689.948 C 777.713 690.056 784.833 689.276 791.789 688.801 L 800.566 679.971 L 801.149 683.369 L 794.199 691.894 C 786.923 692.769 779.72 693.201 772.399 693.479 C 763.607 705.586 754.973 718.586 745.005 729.747 C 730.429 722.68 712.137 715.765 696.373 712.089 C 695.437 711.35 693.525 711.178 692.341 710.899 C 685.604 709.024 678.837 707.038 672.034 705.43 C 667.496 717.999 662.6 730.546 658.972 743.413 A 2422.73 2422.73 0 0 0 627.142 739.731 C 618.593 747.404 610.465 755.517 601.953 763.207 C 597.642 762.367 586.051 758.866 582.3 760.999 L 580.546 759.872 L 578.206 760.751 C 576.813 758.288 575.215 758.109 572.555 757.406 C 556.83 753.247 540.601 750.222 524.707 746.705 C 520.34 762.045 517.234 778.201 511.578 793.093 C 493.952 788.231 476.336 782.511 458.611 778.129 L 456.582 772.762 C 473.121 779.786 492.273 783.782 509.638 788.573 C 514.266 773.225 517.901 757.534 522.355 742.116 C 540.121 746.87 558.24 750.285 576.062 754.866 z" style="fill: rgb(40, 75, 99);"/>
  <path transform="translate(0,0)" d="M 758.486 818.849 C 791.492 815.661 825.809 816.649 859.015 815.632 L 884.999 885.931 C 890.267 900.332 896.251 914.925 900.091 929.764 A 18519.1 18519.1 0 0 1 644.532 943.004 C 602.858 944.97 560.125 949.131 518.54 949.067 L 472.302 828.289 C 480.216 828.013 488.149 827.844 496.056 827.447 C 517.451 825.699 539.555 826.017 561.032 825.359 C 610.019 823.781 659.003 821.414 708.002 820.249 C 713.044 820.043 718.637 819.304 723.633 819.8 C 735.084 818.833 746.999 818.468 758.486 818.849 z" style="fill: rgb(255, 255, 255);"/>
  <path transform="translate(0,0)" fill="rgb(31,31,50)" d="M 522.809 861.418 C 518.417 862.655 511.361 863.081 507.292 860.881 L 507.656 859.512 C 511.623 857.659 516.614 858.128 520.929 858.104 C 521.454 859.591 521.501 860.49 522.809 861.418 z"/>
  <path transform="translate(0,0)" fill="rgb(31,31,50)" d="M 770.971 856.961 C 776.492 856.039 781.972 855.988 787.551 855.89 C 790.642 856.155 795.048 855.899 797.512 857.682 L 796.998 858.861 C 791.837 859.318 786.359 860.204 781.19 859.829 C 776.914 860.207 772.632 860.488 768.507 859.103 L 768.504 857.943 L 770.971 856.961 z"/>
  <path transform="translate(0,0)" fill="rgb(31,31,50)" d="M 567.62 871.878 C 578.537 870.704 594.462 868.43 605.085 870.846 L 605.861 871.901 C 602.268 874.976 585.496 874.784 580.127 874.731 L 580.802 873.818 L 580.028 872.61 A 320.374 320.374 0 0 1 567.62 871.878 z"/>
  <path transform="translate(0,0)" fill="rgb(24,24,41)" d="M 686.794 879.411 C 691.033 878.864 695.054 878.312 699.041 880.163 L 696.892 881.703 L 698.219 881.211 C 688.943 885.913 674.385 884.942 664.12 885.584 C 661.935 885.793 659.534 886.142 657.347 885.973 C 655.202 885.807 654.067 884.88 652.749 883.327 C 657.891 879.906 679.724 879.938 686.794 879.411 z"/>
  <path transform="translate(0,0)" fill="rgb(24,24,41)" d="M 580.127 874.731 C 569.825 875.025 517.764 879.061 512.524 876.875 L 512.075 875.519 C 518.472 872.101 558.362 871.823 567.62 871.878 A 320.374 320.374 0 0 0 580.028 872.61 L 580.802 873.818 L 580.127 874.731 z"/>
  <path transform="translate(0,0)" fill="rgb(24,24,41)" d="M 787.551 855.89 C 798.953 854.359 833.046 850.225 842.62 853.137 L 843.181 854.19 C 836.217 858.363 805.952 859.6 796.998 858.861 L 797.512 857.682 C 795.048 855.899 790.642 856.155 787.551 855.89 z"/>
  <path transform="translate(0,0)" fill="rgb(31,31,50)" d="M 585.503 902.472 C 586.839 902.538 587.033 902.915 588.093 903.667 L 587.425 905.158 C 581.913 908.045 535.864 908.887 526.244 909.627 L 524.431 909.457 L 522.995 907.659 L 523.643 906.467 C 539.552 903.519 568.291 903.531 585.503 902.472 z"/>
  <path transform="translate(0,0)" fill="rgb(31,31,50)" d="M 496.056 827.447 C 517.451 825.699 539.555 826.017 561.032 825.359 C 563.573 828.293 567.454 827.765 571.247 828.131 C 546.934 830.802 521.304 830.332 496.841 830.997 L 496.056 827.447 z"/>
  <path transform="translate(0,0)" fill="rgb(24,24,41)" d="M 692.704 862.441 C 694.667 862.204 696.559 861.841 698.451 862.584 C 699.813 863.118 699.727 863.554 700.314 864.888 C 695.412 869.835 662.903 869.194 654.247 869.744 C 652.877 869.857 651.491 869.971 650.115 869.941 C 647.815 869.89 645.437 869.183 643.806 867.531 C 647.334 863.621 684.906 862.952 692.704 862.441 z"/>
  <path transform="translate(0,0)" fill="rgb(24,24,41)" d="M 520.929 858.104 C 535.522 857.104 592.132 851.825 601.547 854.957 L 600.52 856.275 L 602.538 855.621 C 591.13 859.358 537.886 860.98 522.809 861.418 C 521.501 860.49 521.454 859.591 520.929 858.104 z"/>
  <path transform="translate(0,0)" fill="rgb(24,24,41)" d="M 720.621 892.62 C 725.265 892.01 731.122 890.521 735.319 893.167 L 735.138 894.63 C 729.101 898.09 680.441 898.726 669.345 899.298 C 664.749 899.806 660.801 900.178 656.261 899.139 L 656.022 898.301 C 668.483 893.417 704.861 893.774 720.621 892.62 z"/>
  <path transform="translate(0,0)" fill="rgb(24,24,41)" d="M 697.432 844.423 C 704.236 843.79 711.31 843.575 718.006 845.056 L 718.318 845.752 C 702.094 850.376 674.294 849.363 656.75 850.121 C 651.764 850.516 644.355 852.027 639.567 851.001 C 637.695 850.6 637.273 850.572 636.206 849.032 C 642.946 844.866 686.11 845.052 697.432 844.423 z"/>
  <path transform="translate(0,0)" fill="rgb(24,24,41)" d="M 663.462 911.039 C 671.043 911.032 713.076 909.265 716.731 912.602 L 716.725 916.315 C 708.125 916.374 671.017 919.236 665.417 916.005 C 663.623 914.97 663.802 912.901 663.462 911.039 z"/>
  <path transform="translate(0,0)" fill="rgb(24,24,41)" d="M 824.774 839.42 C 829.913 838.922 833.499 838.19 837.802 841.587 L 836.905 842.692 C 818.792 846.403 797.177 844.973 778.552 845.434 A 145.074 145.074 0 0 1 772.163 845.946 C 768.674 846.129 765.931 845.726 763.238 843.312 C 765.919 840.576 816.524 840.002 824.774 839.42 z"/>
  <path transform="translate(0,0)" fill="rgb(24,24,41)" d="M 850.785 887.429 C 850.996 887.39 851.205 887.336 851.419 887.312 C 854.542 886.953 855.277 886.862 857.723 888.632 L 857.433 890.319 C 851.193 894.16 799.24 895.708 787.604 897.076 C 784.939 897.241 782.891 896.777 780.342 896.026 L 780.131 895 C 785.325 890.828 840.661 888.396 850.785 887.429 z"/>
  <path transform="translate(0,0)" fill="rgb(24,24,41)" d="M 846.971 868.541 C 848.858 867.978 849.73 868.189 851.569 868.831 L 851.796 870.702 C 850.333 872.315 848.769 872.922 846.653 873.341 C 840.604 874.538 833.704 874.079 827.505 874.485 C 811.985 875.502 796.366 876.398 780.909 878.101 C 779.545 878.063 778.255 877.679 776.93 877.37 L 776.218 875.896 C 777.763 874.277 778.749 873.644 780.998 873.149 C 787.643 871.688 795.684 871.955 802.518 871.473 C 817.337 870.428 832.128 869.225 846.971 868.541 z"/>
  <path transform="translate(0,0)" fill="rgb(24,24,41)" d="M 857.556 898.462 C 858.354 898.356 859.224 898.198 860.037 898.291 C 861.927 898.508 862.974 899.756 864.074 901.152 C 856.685 906.946 802.854 903.23 787.751 908.487 L 788.294 911.024 L 789.171 908.641 L 789.381 911.363 C 815.124 915.103 842.261 907.037 867.984 909.538 L 868.765 909.62 C 868.268 911.423 867.863 912.25 866.639 913.662 C 856.606 914.179 794.13 918.09 789.705 915.656 C 787.291 914.328 785.213 911.046 784.689 908.386 C 784.204 905.926 784.796 905.005 786.102 903.106 C 791.594 900.469 848.062 899.078 857.556 898.462 z"/>
  <path transform="translate(0,0)" fill="rgb(24,24,41)" d="M 758.486 818.849 C 791.492 815.661 825.809 816.649 859.015 815.632 L 884.999 885.931 C 890.267 900.332 896.251 914.925 900.091 929.764 A 18519.1 18519.1 0 0 1 644.532 943.004 C 602.858 944.97 560.125 949.131 518.54 949.067 L 472.302 828.289 C 480.216 828.013 488.149 827.844 496.056 827.447 L 496.841 830.997 L 477.939 832.003 L 521.137 945.496 C 535.609 945.978 550.629 944.523 565.101 943.826 L 644.28 939.808 C 635.786 911.335 624.974 883.234 615.467 855.048 C 613.245 848.462 608.477 839.329 608.192 832.655 L 609.257 831.51 C 613.312 834.022 644.059 928.414 647.591 939.508 C 688.417 938.375 729.164 935.026 769.972 933.83 C 766.901 921.221 737.785 846.505 737.944 844.071 C 737.987 843.398 738.347 842.783 738.549 842.139 L 740.293 842.134 C 745.79 852.782 749.567 865.359 753.566 876.683 L 773.368 933.426 A 5821.85 5821.85 0 0 0 896.005 926.891 C 893.156 915.13 887.562 903.393 883.457 891.972 C 874.798 867.881 866.87 842.109 855.883 819.017 C 827.702 819.281 799.4 820.846 771.225 821.776 C 759.019 822.124 745.996 823.502 733.883 822.812 C 728.627 823.124 723.335 823.061 718.07 823.11 C 688.843 826.414 656.152 825.734 626.474 826.619 C 608.482 827.156 589.075 829.557 571.247 828.131 C 567.454 827.765 563.573 828.293 561.032 825.359 C 610.019 823.781 659.003 821.414 708.002 820.249 C 713.044 820.043 718.637 819.304 723.633 819.8 C 735.084 818.833 746.999 818.468 758.486 818.849 z"/>
  <path transform="translate(0,0)" d="M 1379.52 664.385 C 1379.64 664.246 1379.77 664.112 1379.89 663.97 C 1383.89 659.136 1389.99 637.695 1393.57 630.179 C 1406.06 603.964 1422.61 580.826 1445.97 563.218 C 1454.85 556.527 1464.22 551.094 1472.92 544.034 C 1479.14 544.778 1487 550.373 1492.5 553.464 C 1521.02 569.476 1544.16 585.423 1564.54 611.463 C 1655.41 727.577 1708.85 932.737 1729.83 1076.61 C 1732.06 1091.89 1740.48 1138 1739.17 1149.29 C 1739.06 1150.25 1738.87 1151.12 1738.48 1152 L 1368.53 1152 L 1359.59 1152 L 1171.68 1152 C 1183.32 1147.54 1194.29 1142.81 1204.17 1135.06 C 1228.32 1116.12 1258.21 1063.77 1270.87 1035.4 C 1297.46 975.825 1317.67 914.806 1335.97 852.284 C 1346.01 817.975 1355.93 783.241 1363.89 748.384 C 1365.54 741.162 1372 726.915 1369.44 719.899 C 1369.11 718.993 1368.56 718.343 1367.96 717.606 L 1366.12 717.187 C 1360.12 723.18 1350.92 769.308 1348.15 780.066 C 1333.92 835.216 1317.76 891.067 1298.64 944.713 C 1295.81 952.651 1292.21 967.94 1286.31 973.89 C 1286.14 974.06 1285.98 974.234 1285.81 974.404 C 1285.44 974.786 1285.05 975.151 1284.66 975.514 C 1285.64 972.641 1285.37 970.744 1284.95 967.823 C 1283.34 956.73 1285.64 943.982 1287.74 933.049 A 849.578 849.578 0 0 1 1327.43 794.29 C 1329.6 788.532 1350.2 738.702 1349.74 736.787 C 1349.65 731.546 1332.52 696.393 1328.45 692.401 C 1333.27 690.437 1378.92 665.3 1379.52 664.385 z" style="fill: rgb(60, 110, 113);"/>
  <path transform="translate(0,0)" fill="rgb(24,24,41)" d="M 1453.39 606.498 C 1461.68 605.245 1468.86 606.536 1476.11 610.807 C 1506.97 628.982 1521.22 684.02 1529.6 715.914 C 1530.9 720.871 1534.55 732.781 1531.48 737.123 C 1530.59 738.385 1530.02 738.138 1528.59 738.42 C 1526.7 737.035 1526.07 736.1 1525.36 733.882 C 1523.91 729.4 1523.77 724.279 1522.69 719.659 C 1519.92 707.701 1509.09 665.485 1501.55 657.918 C 1501.41 657.772 1501.25 657.637 1501.1 657.497 C 1501.16 657.086 1501.26 656.565 1501.23 656.132 C 1500.69 648.528 1485.41 627.531 1479.72 622.492 C 1473.71 617.167 1466.17 613.726 1458.02 614.249 C 1437.36 615.577 1417.42 639.22 1404.82 653.434 C 1401.94 656.68 1398.05 662.095 1393.46 662.376 L 1392.14 660.695 C 1392.16 659.865 1392.16 659.361 1392.49 658.586 C 1394.42 653.974 1399.69 649.084 1403.01 645.439 C 1417.56 629.493 1432.76 614.18 1453.39 606.498 z"/>
  <path transform="translate(0,0)" fill="rgb(24,24,41)" d="M 1359.59 1152 C 1359.77 1151.84 1359.96 1151.68 1360.14 1151.51 C 1369.5 1142.74 1379.63 1123.95 1386.98 1112.59 C 1442.69 1026.56 1499.34 909.999 1520.45 809.155 C 1521.63 803.493 1523.07 785.13 1528.12 782.733 C 1528.96 783.047 1529.96 783.094 1530.33 783.96 C 1533 790.256 1529.4 802.689 1528.08 809.237 C 1517.83 859.9 1500.11 909.074 1479.57 956.416 A 1168.54 1168.54 0 0 1 1388.91 1124.77 C 1383.36 1133.25 1376.54 1145.84 1368.53 1152 L 1359.59 1152 z"/>
</svg>