<?xml version="1.0" encoding="utf-8" ?>
<svg xmlns="http://www.w3.org/2000/svg" xmlns:xlink="http://www.w3.org/1999/xlink" width="1024" height="1024">
	<path fill="#6D0D2B" d="M0 0L0.73671 0L1.50788 0L204.552 0L205.485 0L214.468 0L252.422 0L253.733 0L277.144 0L277.62 0L393.059 0L393.998 0L404.394 0L404.788 0L461.106 0L461.637 0L1022.99 0L1024 0L1024 716L1024 838.012L1024 842.082L1024 1024L1022.97 1024L819.536 1024L723.437 1024L719.046 1024L630.051 1024L610.942 1024L609.142 1024L600.418 1024L371.576 1024L365.577 1024L284.418 1024L1.01396 1024L0 1024L0 743.167L0 189.082L0 165.918L0 60.2813L0 0Z"/>
	<path fill="#AF7079" d="M393.998 0L404.394 0C401.27 1.00735 397.161 0.822222 393.998 0Z"/>
	<path fill="#ECBFAD" d="M599.748 1022.97C602.692 1022.94 606.542 1022.39 609.142 1024L600.418 1024L599.748 1022.97Z"/>
	<path fill="#FDF0C1" d="M686.557 698.059L691.271 698.141C690.96 700.084 690.557 702.042 690.47 704.008C689.766 703.504 689.98 703.739 689.504 703.12C688.626 701.978 688.046 701.263 686.812 700.506L686.691 700.008C686.888 699.007 686.882 698.954 686.557 698.059Z"/>
	<path fill="#FDF0C1" d="M416.692 435.982L417.922 437.914C416.593 441.591 417.391 446.116 415.738 449.395C414.197 444.598 414.936 440.565 416.692 435.982Z"/>
	<path fill="#BE0236" d="M429.819 497.865L430.679 498.095C430.397 499.126 429.981 499.818 429.392 500.705C428.397 501.306 427.511 501.92 426.332 502.076C425.475 502.19 425.415 501.832 424.83 501.301C424.585 500.025 424.04 498.879 424.672 497.714C426.306 497.993 427.696 498.089 429.35 497.918L429.819 497.865Z"/>
	<path fill="#FDF8D0" d="M682.051 345.215L686.073 345.67L690.626 346.048L692.864 346.602C692.449 347.503 692.518 347.671 691.64 348.222L689.534 347.928C687.012 347.869 684.43 347.506 681.913 347.279L680.792 347.387L682.051 345.215Z"/>
	<path fill="#FDF8D0" d="M268.918 651.921C269.952 653.889 268.226 658.769 267.619 660.98L266.887 663.429L265.087 662.151C265.893 658.512 266.467 654.867 268.918 651.921Z"/>
	<path fill="#FDCC9A" d="M588.393 394.635C592.844 394.141 598.054 397.127 602.292 398.457C603.486 398.553 604.834 398.598 605.963 399.023L604.36 399.642C601.046 399.907 597.63 399.515 594.32 399.294C594.256 399.113 594.208 398.925 594.127 398.751C593.101 396.567 590.447 395.607 588.393 394.635Z"/>
	<path fill="#FDF8D0" d="M265.087 662.151L266.887 663.429C265.797 668.823 265.091 674.95 262.108 679.661C261.742 677.872 261.748 676.58 262 674.777Q263.576 668.472 265.087 662.151Z"/>
	<path fill="#F7F8E6" d="M0 165.918C1.11692 163.372 0.344542 159.624 0.896336 156.777C1.03912 171.862 1.32109 187.029 0.926494 202.106C-0.297256 197.96 1.55182 193.012 0 189.082L0 165.918Z"/>
	<path fill="#AF7079" d="M507.735 499.284C507.351 498.381 507.178 497.815 507.198 496.831C508.587 495.089 510.595 494.817 512.681 494.458C512.652 497.9 512.091 501.118 511.206 504.441C510.007 502.778 508.657 501.118 507.735 499.284Z"/>
	<path fill="#FDF8D0" d="M448.614 935.647C449.882 937.492 450.551 939.225 451.222 941.352C450.858 943.943 450.306 946.467 448.759 948.637L448.185 946.558C447.056 944.396 446.759 942.371 446.99 939.968C447.367 938.471 448.02 937.067 448.614 935.647Z"/>
	<path fill="#F0F9A3" d="M692.864 346.602C699.645 347.064 707.15 349.576 712.617 353.633L713.367 354.182C708.523 352.399 703.676 351.066 698.67 349.842C696.492 349.309 693.667 349.056 691.64 348.222C692.518 347.671 692.449 347.503 692.864 346.602Z"/>
	<path fill="#F7F8E6" d="M421.297 493.629C424.086 493.317 426.716 493.771 429.466 494.182C430.939 494.792 432.776 495.49 433.667 496.919C433.835 497.189 433.899 497.512 434.016 497.809L433.696 498.501L431.824 498.854L430.679 498.095L429.819 497.865C426.76 496.651 423.025 496.884 420.599 494.637L421.297 493.629Z"/>
	<path fill="#300" d="M755.761 482.887C756.058 483.918 756.304 484.726 756.396 485.797C754.995 488.64 754.088 491.053 750.785 492.076C746.963 493.26 743.265 491.28 740.026 489.404C739.215 488.935 738.577 488.453 737.89 487.824L737.949 485.389L738.628 485.607C739.495 487.945 740.719 489.048 742.958 490.168C744.264 490.821 745.737 491.14 747.15 491.479C747.445 491.146 747.784 490.826 748.008 490.44C748.707 489.562 748.667 489.608 749.78 489.434C750.924 489.965 750.321 489.894 751.592 489.607C753.504 487.786 754.559 485.21 755.761 482.887Z"/>
	<path fill="#FDF8D0" d="M469.13 634.326C469.905 634.223 470.671 634.097 471.441 633.957C471.298 637.063 471.12 652.47 469.603 654.121C467.276 651.07 468.938 638.463 469.13 634.326Z"/>
	<path fill="#F0F9A3" d="M726.821 338.654L727.276 339.742C729.395 348.873 730.982 359.935 738.918 366.037L738.539 366.339C729.805 361.009 727.817 348.063 724.306 338.993L726.821 338.654Z"/>
	<path fill="#C18B8B" d="M0 0L0.73671 0C0.247939 21.3083 0.431218 42.8564 1.07187 64.1605L0 60.2813L0 0Z"/>
	<path fill="#FDF8D0" d="M433.133 595.237C439.747 591.484 447.09 587.706 454.261 585.175C455.714 586.776 456.826 588.391 457.934 590.246L456.44 591.171C455.544 589.866 454.932 588.768 453.412 588.124C447.662 587.541 440.238 593.769 435.06 596.134L433.133 595.237Z"/>
	<path fill="#C18B8B" d="M284.287 1023.48C297.077 1022.92 309.962 1023.26 322.767 1023.28C337.062 1023.3 351.412 1023.07 365.701 1023.39L365.577 1024L284.418 1024L284.287 1023.48Z"/>
	<path fill="#FDF8D0" d="M696.144 382.867C697.421 379.672 698.515 376.931 701.498 374.916C703.108 373.829 704.964 373.275 706.885 373.784C710.306 374.691 712.239 378.084 713.863 380.935L712.737 381.462C711.051 380.475 709.897 378.968 708.63 377.513C706.824 376.739 705.761 376.513 703.829 377.289C702.456 377.84 700.968 379.45 700.224 380.699C699.476 382.12 698.73 383.479 698.255 385.022C697.498 384.421 696.818 383.568 696.144 382.867Z"/>
	<path fill="#FDF8D0" d="M776.121 688.778C777.423 692.392 778.595 695.969 779.561 699.687C774.721 697.545 769.209 695.606 764.774 692.733C768.732 691.731 772.538 690.801 776.121 688.778Z"/>
	<path fill="#F0F9A3" d="M441.969 406.655C441.834 406.919 441.705 407.187 441.563 407.448C440.724 408.987 438.581 411.352 436.95 412.047C438.689 410.608 440.887 409.351 443.07 408.754C432.524 417.384 423.903 425.466 417.922 437.914L416.692 435.982C422.015 424.578 431.548 413.675 441.969 406.655Z"/>
	<path fill="#FDF8D0" d="M932.198 632.737C932.272 632.989 932.356 633.237 932.421 633.491C933.53 637.821 928.357 645.007 930.7 649.024C931.803 648.54 931.703 648.354 932.101 647.27C933.147 644.415 933.854 637.68 935.859 635.793L936.007 635.813C935.441 640.659 933.412 645.572 932.077 650.278C930.81 654.717 929.76 660.947 927.235 664.731C926.596 665.689 925.076 666.122 924.183 666.936C925.524 656.477 929.834 643.506 932.198 632.737Z"/>
	<path fill="#D2B3C1" d="M0 60.2813L1.07187 64.1605Q0.841998 95.5219 0.965736 126.882C0.978961 136.808 1.36402 146.874 0.896336 156.777C0.344542 159.624 1.11692 163.372 0 165.918L0 60.2813Z"/>
	<path fill="#F0F9A3" d="M457.934 590.246C459.535 594.235 461.103 598.264 462.996 602.125C466.226 608.716 470.963 615.013 471.842 622.464C472.291 626.271 471.678 630.15 471.441 633.957C470.671 634.097 469.905 634.223 469.13 634.326C469.397 630.602 469.955 626.525 469.515 622.82C468.596 615.077 459.662 599.827 456.44 591.171L457.934 590.246Z"/>
	<path fill="#AF7079" d="M618.198 452.719C622.183 452.324 632.241 450.112 635.486 452.504C636.088 452.948 635.854 452.985 635.879 453.876L632.956 456.714C630.152 458.135 626.366 460.251 623.14 459.147C620.548 458.26 619.243 455.014 618.198 452.719Z"/>
	<path fill="#FDF0C1" d="M412.385 494.514C415.335 493.306 417.483 492.851 420.693 493.125L421.297 493.629L420.599 494.637L419.527 495.01C418.034 499.276 419.91 507.8 420.442 512.482C419.71 512.325 418.732 512.174 418.082 511.807C413.967 509.484 413.125 498.877 412.385 494.514Z"/>
	<path fill="#AF7079" d="M1.50788 0L204.552 0C200.464 1.03578 7.22438 1.54866 1.50788 0Z"/>
	<path fill="#FDF8D0" d="M424.149 601.301C428.333 589.761 432.075 581.01 434.179 568.676C434.523 566.66 435.026 560.362 436.612 559.207C439.464 567.78 431.72 588.798 428.795 597.34L433.133 595.237L435.06 596.134C431.552 598.071 427.794 599.634 424.149 601.301Z"/>
	<path fill="#FDF8D0" d="M778.951 461.961C783.995 459.957 789.28 458.342 794.419 456.578L795.958 457.195L796.046 457.692L795.316 458.069C794.164 458.675 793.198 459.172 792.301 460.129C786.214 462.721 779.721 464.726 773.809 467.667C770.33 469.397 765.889 473.585 762.273 474.325C762.294 473.256 762.358 472.343 762.615 471.305C763.049 469.844 763.27 468.92 764.52 467.924C769.287 465.751 774.019 463.742 778.951 461.961Z"/>
	<path fill="#F0F9A3" d="M614.74 315.221C619.361 316.989 623.741 319.939 627.982 322.497C649.758 335.632 654.234 342.359 682.051 345.215L680.792 347.387C674.488 345.372 667.436 345.38 660.98 343.404C647.117 339.163 626.245 324.64 614.74 315.221Z"/>
	<path fill="#FDF8D0" d="M433.696 498.501C435.57 500.05 436.499 502.082 436.653 504.519C436.806 506.94 436.303 508.451 435.218 510.583C431.293 513.798 427.016 511.592 422.655 512.581C421.977 507.058 421.229 501.534 420.797 495.984C422.318 499.548 423.45 502.643 426.547 505.147C427.312 505.303 427.821 505.596 428.561 505.232C430.784 504.139 431.214 501.029 431.824 498.854L433.696 498.501Z"/>
	<path fill="#AF7079" d="M0.977845 1023.47L271.242 1023.37C275.522 1023.4 280.039 1023.1 284.287 1023.48L284.418 1024L1.01396 1024L0.977845 1023.47Z"/>
	<path fill="#FDF8D0" d="M753.815 473.851C756.176 471.139 757.956 467.344 760.144 464.407C761.63 462.412 763.998 459.449 766.579 459.105C766.106 461.025 763.951 466.254 764.52 467.924C763.27 468.92 763.049 469.844 762.615 471.305C760.084 473.409 756.924 479.707 755.761 482.887C754.559 485.21 753.504 487.786 751.592 489.607C750.321 489.894 750.924 489.965 749.78 489.434L749.98 486.874C750.161 481.759 751.586 478.326 753.815 473.851Z"/>
	<path fill="#FDF8D0" d="M717.071 689.547L717.391 688.176L718.19 688.006C726.864 694.09 735.513 699.925 744.754 705.122C750.608 708.414 757.319 711.109 762.799 714.912C762.954 716.099 762.892 715.994 762.464 716.996C751.09 713.374 723.749 698.962 717.071 689.547Z"/>
	<path fill="#AF7079" d="M429.649 791.709C430.643 793.305 431.419 794.886 432.174 796.607C433.373 800.791 435.223 804.947 437.139 808.85C437.99 811.25 438.899 813.569 439.927 815.901Q435.911 815.196 431.919 814.362L423.61 812.843L422.899 812.219L423.104 811.499C423.748 811.372 424.317 811.139 424.93 810.91C428.039 806.326 428.514 797.289 429.649 791.709Z"/>
	<path fill="#FDF8D0" d="M897.856 485.338L897.685 484.943C895.211 479.362 885.872 465.435 885.87 460.784L886.193 460.301C887.909 460.622 888.9 462.271 889.838 463.646C892.711 467.857 912.563 499.913 912.537 502.922C908.819 500.428 906.214 497.234 902.129 494.948C900.84 491.65 899.535 488.459 897.856 485.338Z"/>
	<path fill="#AF7079" d="M526.066 446.172C527.302 446.216 528.563 446.327 529.796 446.216C530.15 453.522 530.425 461.27 529.282 468.518C528.602 472.828 526.155 478.246 526.299 482.473C523.889 484.369 520.959 485.213 518.718 487.314C519.599 485.072 520.316 482.765 521.074 480.48C524.13 469.244 526.569 457.881 526.066 446.172Z"/>
	<path fill="#FDF8D0" d="M214.659 636.187Q220.842 639.516 226.635 643.484Q232.427 647.452 237.765 652.015C244.795 658.454 251.39 664.636 256.524 672.764C258.952 677.077 260.658 680.852 261.704 685.693L261.608 687.796L261.069 688.779C259.493 688.004 258.718 687.494 257.738 686.023C254.979 671.303 238.342 654.745 226.982 645.741C223.291 642.815 218.566 640.252 215.323 636.892C215.099 636.66 214.88 636.422 214.659 636.187Z"/>
	<path fill="#FDF8D0" d="M646.762 687.864L647.298 687.008C651.248 687.675 655.731 690.849 659.542 692.369C668.163 695.808 677.383 697.17 686.557 698.059C686.882 698.954 686.888 699.007 686.691 700.008C680.765 700.231 674.389 701.027 668.494 700.48L667.558 700.387C664.276 700.084 661.464 698.973 658.403 697.817C654.5 696.145 649.65 694.613 646.252 692.079L646.762 687.864Z"/>
	<path fill="#FDF8D0" d="M390.482 557.675L391.623 558.343C392.369 565.56 389.07 583.275 388.217 591.397L384.532 629.303C383.981 634.579 383.904 640.591 382.449 645.664C381.93 645.17 381.453 644.921 381.289 644.188C380.277 639.659 387.962 568.887 389.376 560.838C389.584 559.654 389.923 558.739 390.482 557.675Z"/>
	<path fill="#C18B8B" d="M0 743.167C1.07423 736.979 0.0994454 730.501 0.918735 724.238C1.00754 731.958 1.40484 739.949 0.760138 747.644L0.798194 917.976Q0.531312 953.815 0.638515 989.655C0.679689 1000.83 0.196108 1012.35 0.977845 1023.47L1.01396 1024L0 1024L0 743.167Z"/>
	<path fill="#FDF8D0" d="M307.184 550.999L308.29 550.782C310.074 552.487 311.869 554.589 313.898 555.986C315.223 557.415 316.651 558.602 318.165 559.825C319.876 561.547 321.225 563.114 321.247 565.663C321.303 571.907 315.087 579.773 310.774 583.876C309.912 584.072 310.248 584.165 309.728 583.901C310.578 576.932 312.056 569.524 311.246 562.513C310.154 558.59 308.63 554.802 307.184 550.999Z"/>
	<path fill="#FDCC9A" d="M371.499 1023.05L515.367 1022.88C543.428 1022.75 571.711 1021.88 599.748 1022.97L600.418 1024L371.576 1024L371.499 1023.05Z"/>
	<path fill="#300" d="M737.432 523.636C742.017 522.058 746.774 521.028 751.331 519.402C749.691 526.001 745.907 531.973 743.464 538.311C740.033 547.213 737.722 556.397 734.915 565.491C740.823 578.381 746.979 591.316 750.583 605.088C751.391 608.174 752.195 611.354 752.644 614.514C752.908 616.368 752.833 618.288 753.305 620.101L754.034 620.323C755.705 618.816 755.674 615.448 755.796 613.315C756.048 608.899 755.958 604.442 756.004 600.018C755.813 592.269 753.783 582.074 755.125 574.639C755.494 572.591 756.388 572.084 757.986 570.985L759.313 572.48C758.195 573.155 756.553 573.728 756.161 575.078C754.723 580.028 757.724 595.741 757.555 602.43C757.584 602.545 757.626 602.659 757.642 602.777C758.14 606.451 757.639 618.41 755.117 621.211C754.572 621.816 753.46 621.568 752.697 621.587C752.397 621.35 751.959 621.222 751.796 620.875C750.868 618.904 750.148 610.619 749.451 607.505C746.033 592.242 739.192 579.661 733.366 565.407C737.374 550.168 742.183 536.313 748.87 522.01C744.178 523.545 738.967 525.69 734.012 525.986C734.965 524.273 736.456 525.067 737.432 523.636Z"/>
	<path fill="#FDF8D0" d="M632.009 287.057L632.569 287.723C629.86 289.044 626.834 290.118 624.28 291.685C610.677 298.552 597.128 310.245 589.822 323.768C586.72 329.511 585.867 336.579 580.221 340.579C579.274 334.3 586.194 321.028 589.657 315.504C599.591 299.655 614.093 291.253 632.009 287.057Z"/>
	<path fill="#AF7079" d="M461.637 0L1022.99 0L1022.98 0.545645Q952.484 1.13834 881.987 0.534146L609.786 0.727412L503.712 0.675492C494.35 0.667274 468.584 1.74004 461.637 0Z"/>
	<path fill="#FDF8D0" d="M570.191 592.824C570.243 592.995 570.309 593.163 570.346 593.338C570.548 594.284 561.832 622.995 560.74 627.125C556.426 643.446 552.293 659.887 548.304 676.29C547.071 681.359 540.45 713.28 539.005 715.401C538.568 716.042 537.191 716.074 536.445 716.225C536.396 715.979 536.313 715.738 536.296 715.487C536.05 711.75 540.556 696.369 541.795 691.306C547.085 669.677 552.224 648.063 558.2 626.61C560.266 619.195 562.148 611.62 564.601 604.326C565.988 600.202 567.405 596.229 570.191 592.824Z"/>
	<path fill="#FDF8D0" d="M721.646 669.328C730.49 674.555 738.909 680.656 747.412 686.422C751.386 688.944 755.533 691.933 759.985 693.509C765.059 696.027 774.758 702.087 780.007 702.413C779.755 704.474 779 706.063 777.705 707.664C774.811 708.781 770.001 705.375 767.284 703.973C759.749 700.085 752.156 696.202 745.066 691.535C737.367 686.468 730.046 680.645 722.223 675.801C720.814 674.928 719.871 674.465 718.21 674.353C719.178 672.411 720.183 670.931 721.646 669.328Z"/>
	<path fill="#FDF8D0" d="M581.014 341.619C583.93 338.921 589.481 334.207 593.466 333.694L593.389 336.863C593.299 337.086 593.216 337.311 593.119 337.53C591.85 340.41 586.652 344.109 584.306 346.419C575.55 355.038 571.089 368.384 575.16 380.274C576.994 385.627 580.232 389.536 584.189 393.467C587.058 395.543 590.29 397.502 592.375 400.421L592.495 400.801C593.317 403.098 594.102 405.286 594.481 407.71C594.435 412.631 594.571 417.035 595.594 421.872C595.452 421.722 595.291 421.587 595.166 421.422C593.988 419.87 593.954 417.501 593.932 415.629L593.564 415.775C593.381 419.029 594.57 422.452 594.171 425.575C591.535 418.067 593.224 410.141 590.597 402.436C586.719 398.487 581.453 396.117 577.546 392.192Q577.026 391.67 576.532 391.123Q576.038 390.576 575.573 390.005Q575.107 389.434 574.67 388.84Q574.234 388.246 573.828 387.632Q573.421 387.017 573.046 386.383Q572.671 385.748 572.328 385.096Q571.985 384.444 571.675 383.775Q571.365 383.107 571.089 382.424Q570.813 381.74 570.571 381.044Q570.33 380.348 570.123 379.641Q569.917 378.933 569.746 378.217Q569.575 377.5 569.44 376.775Q569.305 376.051 569.207 375.321Q569.108 374.59 569.046 373.856Q568.984 373.122 568.959 372.385Q568.934 371.649 568.946 370.912C569.036 359.267 572.737 349.819 581.014 341.619Z"/>
	<path fill="#FDF8D0" d="M509.441 606.784C509.27 607.614 509.041 608.179 508.561 608.882C500.329 620.941 491.784 632.369 484.178 644.88C487.671 632.576 481.761 617.865 476.506 606.771C484.095 608.247 491.596 609.669 499.348 608.61Q501.927 608.548 504.465 608.089Q507.004 607.63 509.441 606.784Z"/>
	<path fill="#FDF8D0" d="M898.423 523.25L899.109 522.25C901.444 522.738 903.788 524.993 905.665 526.436C914.855 559.061 904.824 586.622 899.529 618.477C898.85 622.565 898.81 634.64 897.576 637.353C897.296 637.192 896.956 637.089 896.757 636.834C895.044 632.662 894.504 627.523 894.736 623.029C895.06 616.789 896.696 610.513 897.959 604.408C900.762 590.858 904.014 577.153 904.512 563.271C905.003 549.597 902.189 536.324 898.423 523.25Z"/>
	<path fill="#D2B3C1" d="M0 189.082C1.55182 193.012 -0.297256 197.96 0.926494 202.106C1.30672 210.643 1.05091 219.271 1.03693 227.817L0.985877 272.549L1.00914 433.506L0.934892 488.382C0.941246 497.62 0.703177 506.946 1.0805 516.172L1.02549 666.571C1.0209 685.779 1.28992 705.038 0.918735 724.238C0.0994454 730.501 1.07423 736.979 0 743.167L0 189.082Z"/>
	<path fill="#D2B3C1" d="M1022.99 0L1024 0L1024 716L1023.49 715.999C1023.74 698.45 1023.49 680.856 1023.43 663.304C1023.38 651.008 1023.69 638.58 1023.1 626.302L1023.2 227.343L1023.27 92.7808C1023.37 62.1172 1024.16 31.1797 1022.98 0.545645L1022.99 0Z"/>
	<path fill="#FDF8D0" d="M469.203 492.859C471.262 493.013 473.338 493.116 475.388 493.357L474.307 495.189C477.492 495.743 482.668 495.916 484.665 498.83C485.616 500.219 485.746 502.072 485.962 503.692C485.997 506.577 486.066 509.254 485.32 512.067C480.388 514.139 472.796 512.596 467.395 512.971L460.496 512.555C459.264 512.353 457.768 512.21 456.657 511.622C454.121 510.28 453.082 506.1 452.13 503.588C451.966 501.322 452.049 498.435 453.606 496.626C456.261 493.543 462.152 494.348 465.771 494.377L464.552 493.507L464.746 493.183C466.24 493.135 467.715 493.002 469.203 492.859Z"/>
	<path fill="#300" d="M469.203 492.859C471.262 493.013 473.338 493.116 475.388 493.357L474.307 495.189C471.473 494.824 468.617 494.622 465.771 494.377L464.552 493.507L464.746 493.183C466.24 493.135 467.715 493.002 469.203 492.859Z"/>
	<path fill="#6D0D2B" d="M469.938 508.925C467.504 508.186 465.79 506.76 464.399 504.643C462.998 502.509 462.181 500.833 462.666 498.285C463.555 497.049 463.712 496.593 465.282 496.259C467.719 495.742 470.962 496.478 473.058 497.743C473.79 499.291 472.619 500.453 472.236 502.085C472.175 502.342 472.12 502.599 472.063 502.856L473.284 502.606L473.883 501.125L474.864 500.915L474.783 500.985C474.829 501.134 474.891 501.279 474.92 501.432C475.261 503.252 474.416 505.522 473.358 506.983C472.333 508.401 471.52 508.519 469.938 508.925Z"/>
	<path fill="#FDF8D0" d="M794.419 456.578C797.35 455.515 804.175 451.998 806.926 452.902C807.858 455.654 802.177 465.676 800.784 468.535L800.579 468.947Q803.515 467.737 806.524 466.721Q809.532 465.706 812.601 464.89Q815.67 464.075 818.786 463.462Q821.901 462.849 825.051 462.441Q828.2 462.034 831.369 461.834Q834.538 461.634 837.713 461.642Q840.889 461.65 844.057 461.866Q847.225 462.083 850.372 462.506C853.224 462.873 857.213 463.162 859.827 464.397C860.677 464.799 861.084 465.148 861.643 465.876L861.552 466.807C858.544 469.179 854.793 471.077 851.284 472.605C862.03 475.015 869.852 479.086 879.03 484.979C882.019 486.899 885.182 489.359 888.404 490.787C890.591 492.177 892.804 493.537 894.938 495.008L894.776 495.623C893.69 495.226 892.94 495.188 891.786 495.276C890.798 495.352 890.176 495.484 889.25 495.056C886.238 493.665 883.321 491.655 880.433 489.988C873.539 486.007 866.643 482.059 859.263 479.025C854.39 477.021 849.641 475.922 844.429 475.266C848.268 472.225 852.25 469.436 856.272 466.647C854.487 466.138 852.655 465.912 850.823 465.642C826.906 463.703 812.476 467.329 792.46 480.272C795.168 472.324 798.364 464.083 802.668 456.873Q797.452 458.397 792.301 460.129C793.198 459.172 794.164 458.675 795.316 458.069L796.046 457.692L795.958 457.195L794.419 456.578Z"/>
	<path fill="#FDF8D0" d="M894.938 495.008C896.947 496.339 898.955 496.9 901.161 497.757C905.693 499.516 909.085 502.304 912.32 505.864C914.786 510.01 916.518 514.29 917.945 518.888C916.106 521.385 913.837 523.28 911.419 525.175L909.446 524.766C900.551 522.954 894.675 513.997 888.259 508.35C883.178 503.879 876.68 499.067 870.468 496.296C878.875 493.663 888.603 498.538 894.994 496.327L894.776 495.623L894.938 495.008Z"/>
	<path fill="#6D0D2B" d="M882.031 500.045C887.011 499.744 892.784 501.105 897.605 502.251C902.611 503.441 908.308 505.154 911.029 509.922C912.653 512.767 912.454 515.545 911.538 518.571C910.999 518.906 910.696 519.16 910.098 519.323C907.95 519.908 905.323 518.483 903.58 517.37C896.735 513.001 889.783 505.248 882.031 500.045Z"/>
	<path fill="#FDF8D0" d="M346.002 818.963L347.447 819.307C369.197 823.466 391.303 825.258 413.036 829.309C400.691 834.061 388.065 838.024 375.62 842.501C367.438 845.444 358.659 849.488 350.246 851.5C349.091 851.776 348.441 851.674 347.301 851.463L346.244 850.643C346.33 849.911 346.177 849.49 346.811 849C348.697 847.541 361.426 843.849 364.649 842.723C366.633 842.237 368.626 841.217 370.523 840.44L360.49 839.66Q352.611 838.946 344.778 837.834L344.486 836.754C344.074 835.256 343.374 833.761 343.923 832.231C355.524 834.096 367.518 835.264 379 837.654C381.31 836.647 383.607 835.603 385.976 834.742C388.23 834.083 391.971 833.451 393.729 832.004L393.104 831.848C384.547 829.219 344.823 824.91 340.866 821.866C340.915 821.153 340.76 820.555 341.359 820.034C342.853 818.734 344.161 819.007 346.002 818.963Z"/>
	<path fill="#FDF8D0" d="M460.133 397.412C476.506 393.304 497.637 391.892 512.709 400.984C521.339 406.19 526.853 414.697 531.708 423.31C545.132 429.595 553.375 433.797 558.689 448.58C565.585 467.763 562.766 493.233 554.034 511.369C551.198 517.259 546.835 525.594 541.242 529.322C541.41 526.429 550.245 512.273 552.069 508.1C559.799 490.417 561.979 465.951 554.751 447.763C549.69 435.025 539.794 431.124 528.058 426.008Q526.44 422.629 524.634 419.348Q524.107 418.408 523.535 417.494Q522.963 416.581 522.346 415.697Q521.729 414.813 521.07 413.961Q520.41 413.108 519.709 412.289Q519.009 411.471 518.268 410.687Q517.528 409.904 516.75 409.158Q515.972 408.412 515.158 407.706Q514.344 406.999 513.496 406.334Q512.648 405.668 511.769 405.045Q510.889 404.422 509.98 403.844Q509.071 403.265 508.134 402.732Q507.197 402.199 506.235 401.712Q505.273 401.226 504.289 400.788Q503.304 400.35 502.299 399.96Q501.294 399.571 500.271 399.232Q499.248 398.893 498.209 398.605C485.492 395.113 468.432 396.91 456.252 401.741C451.666 403.56 447.352 406.315 443.07 408.754C440.887 409.351 438.689 410.608 436.95 412.047C438.581 411.352 440.724 408.987 441.563 407.448C441.705 407.187 441.834 406.919 441.969 406.655C446.255 402.115 454.395 399.375 460.133 397.412Z"/>
	<path fill="#FDF8D0" d="M990.903 614.005C995.389 624.781 993.433 656.022 991.574 667.896C990.491 674.81 988.349 681.487 987.272 688.398L987.128 689.262C984.906 688.501 982.661 687.786 980.499 686.864C986.962 668.187 990.038 648.262 987.002 628.543C986.2 629.404 986 630.092 985.617 631.177C979.714 647.905 959.598 663.209 944.115 670.392C942.239 671.262 940.227 672.009 938.455 673.067C937.343 672.517 936.448 671.938 935.462 671.201C935.663 669.717 944.535 665.659 946.269 664.711C950.308 662.504 953.852 659.569 957.432 656.703C973.714 643.667 980.704 631.494 990.903 614.005Z"/>
	<path fill="#FDF8D0" d="M642.74 938.105C646.231 937.586 649.647 936.824 653.088 936.048C651.605 939.311 650.212 942.454 648.133 945.391C639.649 946.777 631.417 948.494 623.059 950.495C617.718 951.376 603.501 953.15 599.666 956.123L599.787 957.27C603.683 956.399 607.838 954.831 611.794 954.564C616.884 954.22 632.922 957.642 637.362 960.083C635.879 961.933 634.442 963.832 632.772 965.517C630.889 965.126 628.981 964.635 627.08 964.357C618.655 960.945 608.729 961.924 600.399 958.584C590.63 957.799 581.147 954.436 571.2 953.724C587.264 949.885 603.602 946.562 619.766 943.118C627.297 941.514 635.434 940.47 642.74 938.105Z"/>
	<path fill="#FDF0C1" d="M912.483 526.003C914.929 524.311 916.79 522.535 918.525 520.125C923.04 529.546 926.105 540.529 929.059 550.584C935.95 574.046 941.956 595.88 938.891 620.676C938.277 625.643 937.567 631.039 936.007 635.813L935.859 635.793C933.854 637.68 933.147 644.415 932.101 647.27C931.703 648.354 931.803 648.54 930.7 649.024C928.357 645.007 933.53 637.821 932.421 633.491C932.356 633.237 932.272 632.989 932.198 632.737C933.299 624.672 934.809 616.301 934.442 608.146C933.597 589.411 921.289 543.213 912.483 526.003Z"/>
	<path fill="#FDF8D0" d="M305.495 643.708C307.491 643.127 308.765 643.23 310.802 643.575C315.107 645.172 342.872 646.259 349.488 646.755L421.113 652.535C439.105 653.923 457.583 654.76 475.444 657.219C473.512 667.301 471.101 677.277 469.202 687.368C466.952 699.327 465.191 711.493 462.538 723.359C462.283 724.501 462.174 725.66 461.278 726.493C459.918 726.942 458.86 727.107 457.429 727.187C457.35 720.665 459.724 713.232 461.03 706.785C464.18 691.235 468.054 675.145 470.223 659.497Q440.724 656.815 411.174 654.779C403.07 654.18 394.971 653.261 386.854 652.912C385.703 652.23 338.101 648.502 335.404 648.601C325.24 647.818 312.308 647.491 302.555 645.882C303.698 645.217 304.55 644.656 305.495 643.708Z"/>
	<path fill="#FDF8D0" d="M640.929 286.429C660.03 280.75 675.636 281.878 693.503 290.718C697.565 293.621 701.928 296.444 705.506 299.944C715.049 309.278 723.442 325.735 726.821 338.654L724.306 338.993C715.687 317.93 704.99 298.614 682.891 289.369C670.441 284.161 656.23 285.077 643.914 290.221C627.454 297.095 613.093 312.135 604.085 327.248C601.106 332.246 599.004 338.151 595.532 342.769C595.211 341.213 594.795 339.871 594.187 338.402C596.069 334.7 596.61 330.125 598.254 326.237C603.637 313.506 614.805 300.207 626.373 292.691C631.03 290.127 635.941 288.239 640.929 286.429Z"/>
	<path fill="#FDF8D0" d="M653.978 818.717L654.345 818.712C657.089 820.227 665.292 842.083 666.905 846.095C656.99 848.73 646.271 850.424 636.114 851.929C635.791 851.786 635.391 851.755 635.144 851.502C633.143 849.444 624.862 827.495 623.004 823.072C633.239 821.223 643.658 819.99 653.978 818.717Z"/>
	<path fill="#FDF0C1" d="M171.591 424.305C197.629 413.716 220.959 416.364 247.627 422.299C256.662 424.857 266.259 428.437 275.491 429.913C284.707 432.416 293.937 434.159 303.468 434.905C307.294 435.297 311.04 435.482 314.887 435.5C318.785 435.613 322.665 435.686 326.561 435.466C329.677 435.29 339.836 433.398 341.844 434.289C342.51 435.478 342.655 435.497 342.399 436.813C339.419 440.194 331.602 440.857 327.359 441.685C305.212 444.126 283.288 439.967 261.985 434.135C252.386 431.507 242.997 427.852 233.305 425.612C204.115 418.863 175.48 423.679 151.013 441.228C145.092 445.474 139.752 450.614 134.919 456.053C132.76 458.483 130.654 461.511 128.26 463.677C132.09 455.475 138.832 448.447 145.047 441.989C150.329 436.865 156.426 432.841 162.604 428.898C165.624 427.42 168.682 425.995 171.591 424.305Z"/>
	<path fill="#FDF0C1" d="M726.354 640.284C727.268 643.644 728.48 646.947 729.125 650.37C728.011 652.231 726.993 654.029 726.179 656.041C725.375 658.29 723.666 665.224 721.88 666.448C721.856 666.464 721.826 666.469 721.8 666.48C719.821 667.253 718.802 667.94 717.944 669.944C717.388 671.244 717.027 672.576 716.756 673.959C715.699 679.785 715.579 685.761 715.335 691.665C714.358 696.578 714.309 701.92 713.884 706.916L711.354 736.67C710.943 741.541 710.984 746.967 709.641 751.665C705.529 740.596 699.92 730.139 696.357 718.825Q698.147 712.847 699.851 706.844C701.885 696.471 704.827 686.256 706.702 675.873C709.228 669.532 710.677 656.739 712.957 649.062Q713.217 648.432 713.5 647.812C715.756 642.933 721.705 641.949 726.354 640.284Z"/>
	<path fill="#FDF8D0" d="M538.303 532.807L543.281 530.633C548.592 533.417 553.523 537.139 558.463 540.528C574.872 551.785 593.201 564.092 606.104 579.345C611.456 585.672 616.057 593.256 618.486 601.213C626.421 627.203 616.155 661.681 609.343 687.329C607.779 693.217 604.276 702.529 604.123 708.167L599.407 708.881C598.166 707.742 599.851 702.651 600.37 701.059C607.199 680.079 616.508 644.105 616.462 622.262Q616.467 619.632 616.249 617.01Q616.032 614.389 615.593 611.795Q615.155 609.201 614.498 606.654Q613.842 604.107 612.973 601.624C604.293 577.258 578.773 561.227 558.616 546.871C552.287 542.363 545.604 536.669 538.645 533.32C538.252 537.876 542.247 547.298 543.366 552.368C544.333 556.749 544.87 561.214 545.565 565.643L545.591 567.333C547.23 578.367 546.437 589.441 546.193 600.536C546.068 606.207 546.34 611.96 546.057 617.611C540.815 610.973 534.192 602.959 527.515 597.845C525.877 596.591 522.195 594.667 522.181 592.389C528.976 593.812 538.662 605.469 544.033 610.369C543.757 598.101 544.586 585.858 544.503 573.587C544.029 570.635 543.694 567.664 543.334 564.696C542.811 556.708 536.482 538.647 536.688 533.744L538.303 532.807Z"/>
	<path fill="#FDF8D0" d="M643.412 501.885C646.94 505.591 649.822 510.233 652.79 514.412C657.839 521.518 662.847 528.639 667.442 536.05C672.246 543.797 676.607 551.817 681.437 559.545C689.013 571.667 697.801 583.375 706.624 594.608C711.265 600.518 715.823 607.001 721.423 612.018C720.415 615.703 719.758 619.467 719.05 623.219C720.071 626.225 721.589 628.984 723.238 631.689C723.916 633.615 724.494 635.683 725.34 637.535C721.872 638.679 718.139 639.656 715.078 641.693C714.184 643.43 713.204 645.163 712.497 646.985C709.391 656.22 707.101 665.691 704.887 675.173C701.951 684.009 700.03 693.523 698.191 702.648C697.247 706.479 696.535 711.738 694.609 715.155C693.703 712.229 692.827 709.314 691.654 706.482C692.081 702.825 693.559 699.116 694.684 695.607C700.747 680.677 708.929 652.738 709.466 636.988C709.759 628.417 708.579 620.199 707.612 611.729C708.243 610.792 708.745 610.033 709.116 608.954C706.316 602.979 699.01 594.521 695.102 588.748C686.71 576.352 678.99 563.533 670.612 551.13C657.037 546.789 643.652 540.52 634.072 529.617L632.773 522.666C636.098 525.183 639.102 528.181 642.354 530.806C649.626 536.675 657.895 541.028 666.652 544.241C664.219 539.211 660.925 534.62 657.823 529.991C651.743 520.915 646.726 512.376 643.412 501.885Z"/>
	<path fill="#827172" d="M660.488 703.21C668.813 702.14 678.131 701.099 686.503 701.676L689.008 706.332C685.354 706.731 681.578 706.964 677.971 707.654C669.108 708.414 660.31 709.881 651.469 710.611L423.7 739.8C425.145 739.046 426.349 738.533 427.257 737.109C425.945 736.737 424.718 736.809 423.364 736.802C422.683 735.928 422.702 735.811 422.635 734.694C424.889 734.021 427.262 733.645 429.566 733.158C430.864 733.194 432.113 732.974 433.392 732.782L459.043 729.313C465.32 728.961 471.757 727.82 477.99 726.947L510.039 722.441L601.542 710.624L605.088 710.316Q618.606 708.428 632.2 707.194C641.649 706.249 651.092 704.584 660.488 703.21Z"/>
	<path fill="#FDF0C1" d="M814.414 703.872C814.175 704.07 813.942 704.274 813.698 704.464C809.168 707.989 800.717 709.801 795.307 712.021C778.598 718.877 760.437 726.175 745.854 736.979C738.346 742.542 733.112 750.028 728.967 758.32C725.674 764.907 723.388 772.148 720.905 779.073Q714.533 796.753 708.391 814.514Q691.574 863.572 671.323 911.315C668.978 916.794 659.042 940.545 653.622 941.341C654.849 938.206 656.811 935.398 657.828 932.179C660.405 927.966 662.068 922.725 663.925 918.131C669.095 905.342 674.131 892.287 678.174 879.091C683.508 868.427 688.574 848.548 692.202 836.552C695.614 825.267 699.588 814.202 703.336 803.027C707.346 793.341 709.701 782.785 713.553 772.935C716.474 765.42 720.102 758.292 723.722 751.098C736.326 732.903 742.59 727.598 762.633 718.288Q771.316 715.22 780.031 712.246C784.433 711.463 788.847 709.878 793.082 708.468C800.2 706.897 807.237 705.181 814.414 703.872Z"/>
	<path fill="#C18B8B" d="M706.122 416.586C712.873 417.545 723.395 414.226 728.803 410.242L729.1 414.193C731.069 429.573 728.23 450.84 718.518 463.454C713.288 470.247 705.536 475.236 696.952 476.33C689.932 477.225 681.485 475.278 675.85 470.923C673.573 469.164 671.402 466.804 669.651 464.517C681.949 452.805 692.693 441.901 697.987 425.306C698.406 423.991 700.023 417.316 700.877 416.71C701.251 416.444 703.341 416.459 703.818 416.473Q704.971 416.515 706.122 416.586Z"/>
	<path fill="#FDF8D0" d="M186.447 663.327C191.834 664.529 197.02 666.53 202.395 667.816C212.078 671.053 221.71 674.341 231.182 678.165C235.824 680.038 243.984 684.396 248.285 685.36Q254.579 688.433 260.941 691.361L261.943 691.833C266.021 694.462 270.432 696.579 274.639 698.997C282.863 703.724 290.827 708.658 298.428 714.338C300.77 716.56 303.337 718.481 305.895 720.444C308.272 722.671 310.994 724.993 312.982 727.573C323.153 740.776 326.328 758.779 329.386 774.775C330.306 779.587 330.609 784.976 332.33 789.548C332.929 792.493 333.363 795.626 334.221 798.497L334.727 801.895C336.992 812.629 339.279 823.426 340.848 834.284C341.619 837.712 342.25 841.226 343.176 844.611C344.88 852.202 345.959 859.882 347.877 867.428Q351.136 882.156 354.608 896.836C355.685 901.451 356.459 907.269 358.353 911.582C359.048 915.52 359.857 919.905 361.33 923.609C361.572 925.11 361.744 926.677 362.139 928.141L362.722 930.471C364.765 940.52 367.01 950.583 368.801 960.679C369.56 964.958 369.892 969.315 370.693 973.581C370.371 981.39 371.653 989.481 371.876 997.321C372.117 1005.83 371.441 1014.4 371.109 1022.9L371.499 1023.05L371.576 1024L365.577 1024L365.701 1023.39L365.892 1023.21C369.675 980.775 358.224 940.781 348.11 900.039C344.31 884.733 341.067 869.024 338.117 853.53Q333.213 827.376 328.911 801.116C326.632 786.664 324.918 771.372 321.052 757.271Q320.203 754.113 319.035 751.058Q317.867 748.003 316.393 745.084Q314.918 742.165 313.153 739.412Q311.388 736.658 309.351 734.1C290.501 710.674 245.37 688.919 217.713 676.9C207.708 672.552 196.532 669.214 187.139 663.736L186.447 663.327Z"/>
	<path fill="#FDF0C1" d="M594.171 425.575C594.57 422.452 593.381 419.029 593.564 415.775L593.932 415.629C593.954 417.501 593.988 419.87 595.166 421.422C595.291 421.587 595.452 421.722 595.594 421.872C599.291 431.545 605.855 443.066 613.627 450.034L613.912 451.615C615.132 452.052 614.529 451.971 615.709 451.923C617.353 461.078 624.897 462.651 626.378 472.388C626.66 474.243 626.918 475.672 626.392 477.503C624.991 481.1 625.938 486.046 626.316 489.844C628.318 509.969 632.118 529.842 634.657 549.903Q637.298 570.491 639.658 591.113C640.819 602.055 641.646 612.968 643.192 623.872C644.352 632.051 647.483 640.366 648.013 648.535C648.635 658.112 646.22 675.493 644.663 685.41L644.262 691.599C643.664 695.669 643.756 699.935 643.627 704.048C638.846 704.59 632.303 704.543 627.86 706.187C626.427 702.847 632.296 628.468 632.53 616.371C633.128 585.372 629.08 556.2 624.86 525.626C622.594 509.216 619.543 492.571 619.545 475.968L622.448 471.115C614.267 456.554 597.691 442.335 594.171 425.575Z"/>
	<path fill="#FDF8D0" d="M433.259 440.817C433.493 441.045 433.751 441.252 433.961 441.502C434.767 442.463 435.367 444.513 435.939 445.682C438.744 451.41 441.829 456.682 448.307 458.601C449.978 459.096 451.527 459.042 453.238 458.864L454.704 458.586C460.645 460.795 464.558 461.858 470.93 460.918L471.936 459.891L479.354 462.506C481.814 461.326 484.28 459.76 486.243 457.864C490.474 457.239 494.059 462.851 499.65 461.07C497.054 464.948 497.591 473.302 498.474 477.815C499.462 482.872 501.854 487.647 503.444 492.54C503.424 493.785 503.652 494.341 502.593 495.167C502.294 495.4 501.656 495.723 501.306 495.91C497.148 496.252 492.234 498.503 488.071 499.591C487.29 498.354 486.428 497.167 485.59 495.968C482.281 494.783 478.812 494.12 475.388 493.357C473.338 493.116 471.262 493.013 469.203 492.859C465.097 492.502 456.484 491.61 453.093 494.22C451.936 495.11 451.525 495.925 451.408 497.385C447.192 497.141 443.248 497.391 439.127 498.359L437.57 498.935C437.347 498.112 436.994 497.596 436.502 496.914C436.014 496.238 435.816 495.941 435.534 495.129C436.499 495.166 436.935 495.178 437.867 494.852L437.619 493.782C435.032 491.664 431.031 491.735 427.831 491.424C426.171 491.395 424.667 491.481 423.135 490.743C421.986 489.493 422.031 487.836 421.84 486.225C421.78 483.379 421.353 479.882 420.559 477.142C420.34 471.002 419.874 464.891 420.432 458.758L420.547 457.585C421.188 455.168 422.191 453.261 423.417 451.116L429.154 444.626L430.689 444.929L430.635 443.983C431.336 442.598 432.128 441.826 433.259 440.817Z"/>
	<path fill="#6D0D2B" d="M466.56 483.022C468.115 482.978 469.648 482.985 471.197 483.133C475.069 483.505 478.65 484.135 481.255 487.301C481.581 488.573 481.682 488.82 481.309 490.06C478.278 490.748 473.266 489.242 469.95 489.054C465.865 488.984 460.273 490.215 456.42 489.05C455.264 488.701 454.61 488.125 454.09 487.084C454.21 486.084 454.44 486.141 455.156 485.494C457.251 484.925 459.163 485.637 461.21 486.15C463.085 485.254 464.805 484.128 466.56 483.022Z"/>
	<path fill="#FDF8D0" d="M740.996 363.235C750.882 361.811 770.234 360.641 780.118 362.328C800.942 363.482 819.655 370.575 837.355 381.333C843.166 384.987 848.577 389.028 854.11 393.077C867.898 405.44 881.892 419.179 893.29 433.79C906.337 451.003 919.366 468.975 929.759 487.934C941.711 509.202 953.568 530.444 964.595 552.215Q970.731 564.261 976.61 576.435C978.184 579.694 979.545 583.764 981.539 586.747C983.815 590.152 987.882 592.303 990.895 594.975C993.371 597.172 994.115 599.918 993.122 603.091C992.134 606.248 990.317 609.173 989.134 612.272C976.445 633.641 955.097 647.999 932.938 658.134C933.379 656.283 933.744 654.361 934.379 652.566C936.685 650.796 940.105 649.739 942.745 648.452C955.866 642.053 980.394 618.572 984.806 604.845C987.003 598.008 982.378 597.426 978.445 593.635C976.363 591.627 974.647 588.775 973.238 586.25C968.535 577.82 965.02 568.587 960.646 559.947C954.881 548.557 948.534 537.48 942.469 526.25C938.764 519.389 935.37 512.365 931.676 505.499C908.14 461.75 868.036 402 822.057 380.345C812.565 375.874 802.914 374.927 793.086 371.924L792.366 371.701C791.252 372.911 790.303 374.154 789.395 375.521C785.08 382.02 782.17 389.271 780.284 396.82C776.928 410.25 774.654 445.732 777.434 459.238C776.158 460.065 775.004 461.044 773.427 461.07C772.408 459.69 772.51 458.423 772.304 456.739C771.891 451.766 772.057 446.625 772.01 441.629C771.837 423.3 771.719 403.48 778.113 386.057C780.13 380.562 783.194 375.831 786.431 371.003C781.064 370.337 775.517 369.726 770.11 369.725C761.966 369.723 752.336 371.381 744.404 369.401C742.317 368.881 740.347 367.472 738.539 366.339L738.918 366.037C739.932 365.892 740.089 366.007 740.895 365.306L740.996 363.235Z"/>
	<defs>
		<linearGradient id="gradient_0" gradientUnits="userSpaceOnUse" x1="464.43842" y1="880.31616" x2="565.25543" y2="841.39087">
			<stop offset="0" stop-color="#9B7A7C"/>
			<stop offset="1" stop-color="#857E82"/>
		</linearGradient>
	</defs>
	<path fill="url(#gradient_0)" d="M422.635 734.694C422.702 735.811 422.683 735.928 423.364 736.802C424.718 736.809 425.945 736.737 427.257 737.109C426.349 738.533 425.145 739.046 423.7 739.8C431.153 755.429 437.662 771.415 444.377 787.365C460.122 824.762 474.839 862.532 490.159 900.097C494.465 910.655 498.534 921.31 502.749 931.905C505.188 938.037 507.569 945.434 511.213 950.94L511.308 951.322C513.546 952.5 515.816 952.833 518.272 953.257C527.346 954.927 536.269 957.409 545.249 959.517L598.522 972.11C605.33 973.739 615.856 974.521 621.931 977.189C620.26 978.719 618.613 980.118 618.178 982.46L614.712 981.573C612.25 980.832 609.626 980.342 607.12 979.743L598.744 977.729L546.387 965.565C530.31 961.827 514.174 958.292 498.24 953.973C489.603 934.14 483.098 913.39 474.12 893.693C471.121 884.517 467.02 874.579 462.847 865.871C462.285 862.378 459.741 857.954 458.201 854.681C455.313 846.335 451.918 837.969 448.299 829.914C446.113 822.213 441.741 812.294 438.173 805.108C436.961 801.571 435.616 798.005 434.041 794.613C432.848 790.933 431.214 787.302 429.798 783.696Q426.382 775.436 422.865 767.218C419.547 759.302 416.134 751.657 411.073 744.674C414.283 741.431 417.535 738.397 421.062 735.5L422.635 734.694Z"/>
	<path fill="#FDF8D0" d="M906.133 657.021C911.055 661.021 917.175 664.625 922.915 667.368C927.825 670.082 933.248 673.602 938.581 675.327C943.558 678.567 950.278 679.987 954.661 683.834C906.348 689.973 857.15 692.209 809.395 702.161C802.888 703.517 794.536 704.695 788.534 707.505L783.486 708.469L782.176 708.351L781.705 707.739C781.818 703.505 785.8 699.327 788.377 696.17C799.613 684.597 813.611 678.069 828.203 671.827C833.236 671.192 841.946 667.333 847.251 665.801C858.61 662.521 869.992 660.484 881.695 658.943C884.711 658.717 887.687 658.463 890.679 658.011C892.643 658.03 894.67 657.728 896.629 657.555C899.794 657.48 902.972 657.216 906.133 657.021Z"/>
	<path fill="#FDCC9A" d="M928.764 12.8772L929.664 13.2118C929.976 16.7856 929.505 20.3083 929.621 23.8755Q930.316 44.628 930.173 65.3917C930.177 70.005 929.638 74.9551 930.007 79.4905L930.049 79.9567C927.148 82.8748 871.343 95.7297 862.703 98.0189C861.312 98.3144 860.057 98.6711 858.631 98.3972C857.997 91.6518 858.389 84.5869 858.349 77.7871Q858.17 59.6932 858.263 41.5993C883.708 35.0475 906.524 27.2078 928.764 12.8772Z"/>
	<path fill="#FDF8D0" d="M377.512 903.728C389.263 899.707 401.209 889.034 413.499 887.671C423.375 886.577 431.598 892.126 438.971 897.907C441.018 900.687 443.72 902.913 445.855 905.64L446.789 908.158C446.515 910.13 446.319 911.745 445.346 913.502C443.412 911.303 439.959 906.669 437.082 905.902C438.693 914.252 450.226 916.102 449.208 931.484L447.949 931.337C445.471 927.89 443.153 924.909 439.758 922.287C441.309 926.273 443.436 929.484 445.846 932.996C445.529 935.016 445.305 937.1 444.684 939.052C443.598 942.378 444.161 943.749 445.698 946.842C447.458 951.556 446.807 954.103 444.785 958.546Q444.481 959.214 444.169 959.879C442.729 961.872 441.359 963.482 439.208 964.733C430.382 969.864 413.977 971.017 403.839 972.759C400.786 973.283 396.875 973.712 394.082 974.998L392.624 974.634C392.694 973.834 392.575 974.003 392.925 973.436C396.234 968.07 397.076 965.105 396.721 958.741C396.597 956.929 396.236 955.233 395.809 953.473C391.715 936.604 381.374 917.775 366.165 908.556C369.928 906.949 373.963 905.769 377.512 903.728Z"/>
	<path fill="#FDF0C1" d="M749.156 389.111C753.612 406.297 753.243 434.022 753.103 452.064C753.061 457.539 752.704 463.072 752.932 468.529C752.989 469.912 752.412 470.826 751.76 471.997C749.19 476.065 747.609 480.264 747.114 485.082L746.907 485.838L746.394 486.032C745.186 484.318 744.816 481.9 744.287 479.885C743.886 476.539 743.851 469.521 741.696 467.027L741.067 467.21C740.217 471.519 740.921 482.552 738.628 485.607L737.949 485.389C736.77 481.645 736.037 478.135 735.853 474.204C735.813 473.348 736.042 471.609 735.364 471.164C734.511 472.822 733.557 474.481 732.922 476.235L733.59 475.493C731.53 477.556 730.712 489.149 730.724 492.281C730.739 496.203 730.983 500.407 732.134 504.164C732.604 505.696 733.494 507.845 733.191 509.406C732.324 510.21 732.111 510.395 730.828 510.286C728.354 510.076 724.758 507.082 723.438 505.068C721.594 502.254 720.861 498.376 720.034 495.122C717.412 503.006 716.803 510.772 720.107 518.584C720.587 519.719 721.806 521.345 720.9 522.306C718.014 521.904 715.887 520.639 714.191 518.246C712.37 515.676 711.422 512.269 710.217 509.366L709.691 509.474C709.027 510.818 708.894 511.958 708.744 513.418C708.648 515.935 708.205 518.927 708.665 521.391C710.029 528.435 711.987 534.827 718.366 538.979C720.681 540.485 723.283 541.197 725.922 541.91C723.883 550.449 718.167 565.924 718.87 573.869C719.312 578.866 721.249 584.031 722.634 588.852C722.426 588.788 722.202 588.763 722.011 588.659C717.079 585.955 710.928 577.502 707.285 573.188C701.038 565.793 694.704 558.361 689.715 550.032C681.699 536.651 676.753 518.92 672.577 503.869C670.519 496.454 669.059 488.551 666.325 481.364L666.153 480.924C665.846 479.203 665.257 477.507 664.78 475.823C663.858 472.564 662.914 470.535 664.632 467.457C665.896 467.218 666.871 466.494 667.968 465.845C670.415 468.948 673.377 471.812 676.671 474.008C683.257 478.398 692.035 480.137 699.773 478.484C709.015 476.51 717.261 470.219 722.415 462.423C730.92 449.557 734.166 428.262 731.078 413.3C730.965 412.586 730.729 411.636 730.808 410.924C731.005 409.141 732.569 408.229 733.797 407.083C740.586 402.204 745.114 396.358 749.156 389.111Z"/>
	<path fill="#FDCC9A" d="M839.956 45.76C841.425 48.835 840.521 95.9082 840.495 102.623C827.908 108.542 807.766 111.844 793.974 115.256C777.622 119.302 761.37 124.151 744.862 127.494C743.082 127.855 740.648 128.856 739.121 127.844C739.293 101.193 738.757 74.5069 739.488 47.8654C773.205 51.0452 806.44 50.8256 839.956 45.76Z"/>
	<path fill="#AF7079" d="M443.07 408.754C447.352 406.315 451.666 403.56 456.252 401.741C468.432 396.91 485.492 395.113 498.209 398.605Q499.248 398.893 500.271 399.232Q501.294 399.571 502.299 399.96Q503.304 400.35 504.289 400.788Q505.273 401.226 506.235 401.712Q507.197 402.199 508.134 402.732Q509.071 403.265 509.98 403.844Q510.889 404.422 511.769 405.045Q512.648 405.668 513.496 406.334Q514.344 406.999 515.158 407.706Q515.972 408.412 516.75 409.158Q517.528 409.904 518.268 410.687Q519.009 411.47 519.709 412.289Q520.41 413.108 521.07 413.961Q521.729 414.813 522.346 415.697Q522.963 416.581 523.535 417.494Q524.107 418.408 524.634 419.348Q526.44 422.629 528.058 426.008C539.794 431.124 549.69 435.025 554.751 447.763C561.979 465.951 559.799 490.417 552.069 508.1C550.245 512.273 541.41 526.429 541.242 529.322C541.172 529.414 541.118 529.521 541.031 529.598C539.77 530.727 538 531.963 536.306 532.114C534.722 531.54 534.571 530.754 533.707 529.347C532.706 526.259 531.359 523.319 530.051 520.352C534.466 514.425 538.233 507.468 539.246 500.063C539.77 496.229 539.311 491.991 536.924 488.836C536.605 488.376 536.282 487.93 535.928 487.495C533.588 484.623 530.999 483.666 527.395 483.334C528.483 481.883 529.027 480.343 529.54 478.61C531.92 470.565 533.978 449.752 529.864 442.175L529.47 442.417L529.796 446.216C528.563 446.327 527.302 446.216 526.066 446.172L525.409 443.55L524.959 443.33C523.894 446.051 524.516 451.087 524.127 454.196C523.145 462.04 521.239 471.375 518.285 478.769L516.318 484.945C515.576 487.149 515.04 489.596 513.392 491.297C512.795 491.453 512.183 491.654 511.572 491.741C508.205 488.629 504.745 486.076 502.399 481.999C499.243 476.514 499.326 469.038 501.022 463.057C501.549 462.169 501.874 461.554 502.023 460.527C499.977 458.934 496.715 458.253 494.257 457.447C485.953 454.727 478.758 449.824 473.368 442.869C469.402 437.752 467.542 427.849 465.948 426.018L465.194 426.297C464.987 426.957 464.906 427.496 465.021 428.187C467.106 440.808 475.696 449.284 485.612 456.403L485.651 457.373C483.126 458.455 481.446 457.831 479.047 459.6C477.084 459.762 475.338 458.847 473.548 458.134C465.205 452.696 457.787 446.132 455.845 435.812C455.453 433.727 455.403 431.545 455.371 429.428L459.628 421.509C456.986 423.625 455.133 425.499 453.517 428.536C453.4 437.863 456.131 445.919 462.724 452.655C465.157 455.14 467.993 456.887 470.828 458.857C464.546 459.012 459.593 458.066 453.567 456.318C444.86 450.927 440.85 442.444 437.303 433.265C437.602 435.852 438.228 438.292 438.884 440.804C440.686 445.122 442.957 450.438 446.61 453.515C447.807 454.524 452.291 456.261 452.56 457.41L452.17 457.661C451.37 457.394 450.583 457.128 449.806 456.798C443.381 454.066 439.785 450.1 437.227 443.678C436.289 441.086 435.493 438.45 434.675 435.819L434.32 435.97C433.618 437.019 432.962 437.921 431.974 438.725C431.715 438.935 431.452 439.139 431.191 439.346C431.353 438.415 431.486 437.59 431.434 436.644C429.789 438.07 429.111 440.329 427.518 441.921C425.613 443.421 424.118 445.277 423.1 447.492L421.799 449.593L418.986 453.452C417.93 453.158 417.33 452.559 416.49 451.885L415.738 449.395C417.391 446.116 416.593 441.591 417.922 437.914C423.903 425.466 432.524 417.384 443.07 408.754Z"/>
	<path fill="#C18B8B" d="M594.241 348.823C600.942 365.401 613.766 375.827 630.055 382.668C645.28 389.061 661.827 389.748 678.095 389.678C680.296 392.804 682.823 396.026 684.408 399.51C685.19 401.228 685.326 405.479 686.44 406.53C688.202 405.762 689.345 403.296 690.031 401.558C690.18 401.179 690.305 400.791 690.427 400.402C692.78 394.899 694.187 388.575 696.144 382.867C696.818 383.568 697.498 384.421 698.255 385.022C698.73 383.479 699.476 382.12 700.224 380.699C700.968 379.45 702.456 377.84 703.829 377.289C705.761 376.513 706.824 376.739 708.63 377.513C709.897 378.968 711.051 380.475 712.737 381.462L713.863 380.935C716.26 384.502 716.336 389.419 715.568 393.511C714.563 398.869 712.214 404.314 707.658 407.529L707.312 407.797C704.338 410.056 698.665 409.986 698.144 414.053C698.065 414.665 698.021 415.285 697.973 415.9C694.539 432.885 685.107 446.148 672.825 458.057C670.32 460.486 665.764 463.336 663.926 466.106C661.523 467.889 659.197 469.664 656.976 471.676C648.602 475.193 640.714 477.278 631.652 475.179Q629.91 473.344 628.254 471.432C627.505 468.779 624.942 464.631 625.952 462.039L627.892 461.419C628.437 461.584 628.908 461.585 629.481 461.494C632.123 461.07 635.48 458.976 637.062 456.821C638.145 455.346 639.024 453.515 638.471 451.65C638.089 450.362 637.222 449.619 636.07 449.017C632.178 446.984 623.45 448.953 619.423 450.348C618.917 449.006 618.883 448.555 617.704 447.681C616.159 447.732 614.814 449.131 613.627 450.034C605.855 443.066 599.291 431.545 595.594 421.872C594.571 417.035 594.435 412.631 594.481 407.71C597.277 409.239 599.365 409.562 602.496 409.719C602.629 409.845 602.758 409.974 602.895 410.095C604.042 411.11 604.502 411.17 605.975 411.099C607.309 410.161 607.653 409.266 608.246 407.822L606.481 406.757L604.618 407.46C604.457 407.483 604.296 407.509 604.135 407.531L603.328 407.635C601.645 407.86 600.176 408.191 598.589 407.398C596.632 406.42 595.99 403.713 595.434 401.769C599.046 402.042 603.47 402.615 606.96 401.545L607.86 401.803C608.202 402.755 608.563 403.696 608.831 404.673C609.18 410.948 608.901 416.853 607.825 423.05C607.263 425.77 606.616 428.504 606.159 431.241C608.222 435.45 611.222 438.343 615.739 439.895C618.131 440.718 620.88 440.945 623.162 439.675C625.076 438.609 626.622 436.617 627.392 434.588C625.474 434.033 623.622 434.363 621.872 435.281C619.796 436.37 618.375 437.529 615.846 436.811C613.396 436.116 610.502 433.642 609.467 431.305C608.629 429.411 609.145 427.413 609.422 425.436Q610.582 419.76 611.292 414.01C611.704 410.374 612.524 402.751 609.621 400.017C608.352 398.822 607.57 399.052 605.963 399.023C604.834 398.598 603.486 398.553 602.292 398.457C603.365 398.268 604.323 398.059 605.344 397.676C605.649 396.59 605.794 396.303 605.3 395.219C604.055 392.486 599.187 389.423 596.49 388.284C593.22 388.351 590.601 388.11 587.878 390.218L586.53 390.334C586.409 390.227 586.273 390.136 586.167 390.014C584.138 387.685 584.594 381.975 584.668 378.96C585.535 376.669 585.6 373.401 586.229 370.922C588.185 363.211 590.751 355.968 594.241 348.823Z"/>
	<path fill="#6D0D2B" d="M626.447 427.479C626.958 427.439 627.412 427.379 627.93 427.453C629.091 427.619 629.983 428.383 630.724 429.233C631.668 430.318 632.319 432.051 631.995 433.518C631.645 435.1 630.942 435.367 629.743 436.272C629.04 435.573 628.353 435.273 628.284 434.254L629.742 433.421C630.45 430.748 626.944 429.903 626.447 427.479Z"/>
	<path fill="#6D0D2B" d="M705.446 391.811C706.411 391.846 707.25 391.93 708.109 392.421C710.576 393.829 712.164 397.32 713.085 399.867C712.265 399.74 711.595 399.704 710.859 399.285C708.411 397.891 706.349 394.389 705.446 391.811Z"/>
	<path fill="#6D0D2B" d="M700.224 380.699C700.968 379.45 702.456 377.84 703.829 377.289C705.761 376.513 706.824 376.739 708.63 377.513C706.584 379.044 703.952 381.595 701.66 382.566C700.764 384.528 700.211 386.267 700.962 388.392C701.846 390.895 704.176 392.63 705.23 394.958C704.74 396.92 703.749 399.462 703.749 401.448C702.68 403.133 701.705 405.091 700.029 406.232L699.321 405.846C699.213 405.056 699.069 404.3 699.1 403.501C701.214 399.13 701.247 397.058 699.691 392.494C698.728 389.96 698.469 387.687 698.255 385.022C698.73 383.479 699.476 382.12 700.224 380.699Z"/>
	<path fill="#827172" d="M696.144 382.867C696.818 383.568 697.498 384.421 698.255 385.022C698.469 387.687 698.728 389.96 699.691 392.494C701.247 397.058 701.214 399.13 699.1 403.501C698.472 402.674 698.681 402.782 697.934 402.303C695.499 400.743 693.309 399.825 690.427 400.402C692.78 394.899 694.187 388.575 696.144 382.867Z"/>
	<path fill="#6D0D2B" d="M634.072 387.159C639.071 386.844 643.625 387.913 648.301 389.552C643.942 391.547 639.662 393.625 634.986 394.768C632.76 395.286 630.417 395.969 628.144 396.197C626.289 396.382 624.082 395.991 622.67 394.745C622.36 393.584 622.266 393.356 622.964 392.261C625.07 388.957 630.474 387.701 634.072 387.159Z"/>
	<path fill="#6D0D2B" d="M639.507 399.897C636.76 399.905 633.173 400.303 630.929 398.697L630.788 397.889C633.118 396.68 652.158 397.271 654.994 398.315C655.864 398.635 655.994 398.963 656.387 399.787C656.422 399.859 656.421 399.944 656.438 400.023L658.945 400.68L659.241 401.351L658.959 401.632C659.29 402.4 659.584 402.585 659.27 403.435C658.086 406.651 653.728 408.654 650.72 409.822C647.609 411.028 644.078 411.966 640.727 411.549C639.87 410.807 639.774 410.704 639.448 409.623C639.717 406.424 639.533 403.11 639.507 399.897Z"/>
	<path fill="#FDF8D0" d="M656.438 400.023L658.945 400.68L659.241 401.351L658.959 401.632C657.699 402.418 656.54 403.246 655.368 404.161C652.57 406.344 649.983 407.505 646.478 408.093L645.59 408.028C644.859 407.101 644.995 407.491 644.752 406.415C644.154 403.778 644.136 401.795 641.968 399.909Q649.202 400.122 656.438 400.023Z"/>
	<path fill="#FDF8D0" d="M528.607 485.728C530.214 486.291 531.692 486.839 533.171 487.689C536.283 491.851 537.637 495.864 536.929 501.115C536.423 504.867 534.861 508.161 532.817 511.296C530.329 514.83 526.399 520.125 521.832 520.846C520.607 521.04 519.415 520.76 518.248 520.41C517.406 521.257 517.318 521.011 517.297 522.299C518.177 523.038 518.781 523.585 520.01 523.478C521.052 523.387 522.153 522.99 523.162 522.719L525.497 522.101C525.927 524.932 526.437 527.771 526.653 530.628C526.979 533.244 527.287 535.859 527.729 538.458C529.308 549.426 531.313 560.645 531.587 571.727C529.196 576.419 526.164 580.733 523.461 585.246C519.559 591.762 516.097 598.441 511.599 604.587C508.472 605.233 504.587 606.486 501.413 606.484C492.421 607.104 484.406 605.714 475.518 605.025C472.573 601.364 462.964 580.425 461.044 574.817C468.318 573.027 474.773 571.543 481.123 567.343C481.356 567.227 481.591 567.117 481.821 566.994C494.192 560.403 506.518 549.451 510.872 535.83C502.058 547.638 492.559 556.074 480.058 563.744C475.654 565.998 471.205 568.222 466.401 569.491C457.937 571.727 449.571 571.227 441.967 566.772C436.204 553.117 428.731 540.536 423.746 526.54C422.942 522.405 422.699 518.352 422.546 514.148C424.935 514.195 428.093 513.709 430.352 514.141C431.717 514.402 431.837 514.64 432.457 515.749C432.287 516.635 432.109 517.54 432.061 518.442C431.942 520.656 432.86 523.957 434.589 525.455C436.647 527.24 439.344 527.022 441.885 526.886L442.314 526.352C440.554 524.53 438.268 525.357 436.363 524.031C434.951 523.047 434.202 521.818 433.966 520.133C433.528 517.004 434.509 514.521 436.33 512.05C436.456 511.879 436.586 511.71 436.714 511.541C437.756 509.796 438.926 508.227 440.169 506.621C440.285 504.889 440.155 503.265 439.987 501.539C442.329 501.01 445.3 499.95 447.579 501.107C448.977 501.816 449.548 503.13 450.106 504.504C450.916 507.6 452.174 510.381 453.931 513.055C456.021 513.613 458.063 514.173 460.211 514.467C464.504 514.923 468.747 515.082 473.065 514.989C475.799 515.257 478.801 515.322 481.545 515.19C484.314 515.058 486.043 514.805 487.979 512.71C488.104 512.469 488.245 512.235 488.353 511.985C489.408 509.532 488.962 506.701 488.17 504.265C488.219 504.047 488.245 503.822 488.317 503.61C489.095 501.331 500.595 498.476 503.418 497.229L503.918 497.001C505.568 498.002 505.766 498.844 506.317 500.668C506.487 501.051 506.665 501.431 506.854 501.805C507.904 503.879 508.906 506.293 511.245 507.039C513.81 505.31 514.288 498.513 515.467 495.426L515.727 494.765C516.276 493.164 517.215 491.366 518.259 490.039C520.879 486.712 524.662 486.072 528.607 485.728Z"/>
	<path fill="#6D0D2B" d="M446.638 526.035C448.519 525.93 449.758 526.004 451.24 527.218L451.344 528.673C449.983 528.705 448.589 528.824 447.262 528.469C446.464 528.255 446.511 527.946 446.138 527.282L446.638 526.035Z"/>
	<path fill="#6D0D2B" d="M526.042 490.016C526.694 489.991 527.087 489.965 527.764 490C529.373 490.085 530.531 490.57 531.523 491.886C533.391 494.365 533.414 497.787 532.964 500.723C532.251 505.369 529.531 511.677 525.403 514.294C524.468 514.887 523.406 515.565 522.309 515.338C523.12 512.843 527.908 508.182 529.73 504.68C530.609 501.855 531.399 498.59 530.914 495.617C530.639 493.938 530.011 493.101 528.703 492.077C527.773 492.031 527.384 491.904 526.51 492.305C521.435 494.632 522.357 502.574 520.873 506.931C520.018 506.461 520.32 506.766 519.784 505.808C518.432 503.392 518.647 500.245 519.484 497.695C520.701 493.989 522.581 491.72 526.042 490.016Z"/>
	<path fill="#6D0D2B" d="M449.611 551.007C450.135 551.736 449.984 551.855 449.964 552.715L448.75 553.843C447.365 554.133 446.971 554.296 445.663 553.579C443.707 552.506 442.488 549.531 442.051 547.487L442.611 546.688C442.211 545.839 442.455 546.083 441.731 545.553C439.6 543.993 438.584 543.444 438.065 540.759C438.298 539.925 438.273 539.469 438.953 538.865C441.056 536.998 444.931 537.1 447.567 537.381C450.625 537.706 461.756 539.666 463.492 541.874C463.483 542.539 463.625 542.897 463.171 543.443C460.698 546.411 454.103 548.44 450.345 548.504C450.045 548.509 449.746 548.501 449.446 548.499L449.611 551.007Z"/>
	<path fill="#F7F8E6" d="M449.611 551.007C449.081 551.185 448.334 551.258 447.778 551.357C446.408 550.933 445.939 550.661 445.072 549.513L445.283 548.528C446.713 547.784 447.95 548.207 449.446 548.499L449.611 551.007Z"/>
	<path fill="#FDF8D0" d="M295.614 487.909C297.175 490.735 298.677 493.596 300.199 496.443C302.992 503.861 307.4 512.808 308.156 520.648C306.266 521.789 297.532 530.43 296.734 531.994L297.142 532.641C301.231 532.619 305.343 527.301 308.311 524.76C307.478 527.972 306.619 531.081 305.403 534.172C303.466 535.725 297.485 539.007 296.802 541.019L297.278 541.834C299.876 541.644 301.577 538.807 304.016 538.178C304.009 539.939 304.371 542.51 303.53 544.038L302.891 544.18C301.633 544.468 300.467 544.543 299.612 545.596C299.682 546.968 299.953 547.563 300.947 548.552C302.086 549.684 303.482 550.809 305.046 551.227C307.416 555.189 308.84 562.029 309.586 566.619Q308.144 576.21 306.923 585.832C306.483 588.612 305.602 591.915 305.599 594.697C304.745 599.692 304.001 604.728 302.645 609.618C302.106 611.818 301.841 613.618 302.133 615.873C304.342 622.104 309.504 633.035 306.608 639.478C305.959 640.922 304.785 641.842 303.523 642.723C300.662 643.853 297.944 644.973 294.884 645.438C288.355 645.481 278.194 643.969 272.434 646.433L267.059 650.66C261.885 655.76 262.065 665.814 259.794 672.478C255.649 665.413 250.23 658.625 243.839 653.469C233.628 642.934 220.027 635.475 206.925 629.218L205.699 628.478C208.01 626.432 212.566 625.098 215.454 623.766C230.634 616.767 233.167 604.021 234.369 588.772C234.587 586.012 234.388 581.641 235.422 579.138C235.512 578.92 235.613 578.706 235.709 578.489C237.234 581.758 238.826 584.897 240.67 587.997C244.532 593.799 248.999 598.936 255.481 601.85C257.412 602.053 259.223 602.074 261.053 601.32C262.171 600.859 262.245 600.936 262.753 599.782L262.352 598.837C261.451 598.677 261.757 598.629 260.959 598.827C259.468 599.197 258.158 599.5 256.617 599.613L256.152 599.643C250.388 594.883 246.392 592.637 242.222 586.086C240.153 582.537 238.494 578.876 236.839 575.12C235.587 568.152 236.514 563.556 238.481 556.911C240.719 553.592 242.991 550.304 247.214 549.488C249.532 549.04 251.917 549.648 253.837 550.997C256.664 552.984 258.488 556.2 259.017 559.583C259.178 560.609 259.235 561.657 259.29 562.693L258.895 563.098C258.43 567.951 257.674 571.931 255.658 576.375C255.255 577.263 255.418 576.864 255.095 577.964C255.99 577.964 256.787 578.225 257.488 577.588C260 575.306 260.875 570.692 261.154 567.458C261.487 567.248 261.258 567.345 261.9 567.404C263.509 572.679 265.61 578.007 268.901 582.481C270.083 584.088 271.316 585.839 273.398 586.188C273.751 586.015 274.247 586 274.458 585.668C275.276 584.379 274.219 578.062 274.091 576.434C273.514 569.088 273.376 561.846 274.01 554.496C276.147 529.732 284.383 509.783 295.614 487.909Z"/>
	<path fill="#6D0D2B" d="M244.376 559.571C245.542 557.996 246.715 556.262 248.737 555.752C250.262 555.366 251.569 555.94 252.758 556.847C254.772 558.382 255.798 560.832 256.516 563.193L258.895 563.098C258.43 567.951 257.674 571.931 255.658 576.375C255.255 577.263 255.418 576.864 255.095 577.964C255.108 578.756 255.163 579.093 254.797 579.815L255.214 580.421C256.477 582.227 258.51 583.364 258.307 585.846C258.249 586.553 258.057 587.006 257.708 587.598C255.892 587.662 254.446 587.488 252.766 586.731C248.058 584.61 244.659 580.644 243.03 575.761C241.194 570.257 241.87 564.712 244.376 559.571Z"/>
	<path fill="#F7F8E6" d="M256.516 563.193L258.895 563.098C258.43 567.951 257.674 571.931 255.658 576.375C255.255 577.263 255.418 576.864 255.095 577.964C255.108 578.756 255.163 579.093 254.797 579.815C253.738 577.634 253.517 575.625 253.279 573.258C254.541 569.802 256.493 567.027 256.516 563.193Z"/>
	<path fill="#FDF8D0" d="M245.792 561.647C246.564 560.221 247.07 559.125 248.509 558.252C249.695 558.074 250.884 558.244 251.899 558.941C253.032 559.72 253.499 560.786 253.624 562.119C254.078 566.958 250.527 571.208 250.622 576.097C251.97 579.77 253.501 582.714 255.974 585.796C251.804 584.244 248.11 581.221 246.119 577.198C243.634 572.178 244.101 566.798 245.792 561.647Z"/>
	<path fill="#FDF8D0" d="M734.012 525.986C738.967 525.69 744.178 523.545 748.87 522.01C742.183 536.313 737.374 550.168 733.366 565.407C739.192 579.661 746.033 592.242 749.451 607.505C750.148 610.619 750.868 618.904 751.796 620.875C751.959 621.222 752.397 621.35 752.697 621.587C753.46 621.568 754.572 621.816 755.117 621.211C757.639 618.41 758.14 606.451 757.642 602.777C757.626 602.659 757.584 602.545 757.555 602.43C757.724 595.741 754.723 580.028 756.161 575.078C756.553 573.728 758.195 573.155 759.313 572.48C764.132 573.354 766.487 575.541 769.818 578.976C772.01 581.949 773.794 584.961 775.199 588.39C776.24 592.711 776.724 596.98 777.333 601.369L777.396 610.164C777.271 611.81 777.128 613.455 777.029 615.103C776.786 619.155 775.341 625.208 772.157 627.939C770.493 629.366 767.12 629.568 766.632 631.923C767.726 632.601 768.54 632.561 769.779 632.327C772.769 631.761 775.174 628.855 776.602 626.368C778.859 622.44 780.81 615.009 780.145 610.393C780.395 606.837 780.185 603.452 779.87 599.905C779.77 597.098 778.948 594.232 779.381 591.445C785.603 598.228 791.431 605.236 793.964 614.272C797.61 627.275 789.566 657.617 808.063 658.484C810.635 658.605 814.351 657.081 816.776 656.281C832.917 650.954 848.487 646.598 865.131 643.107L872.176 641.953C879.605 641.002 887.67 639.47 895.157 640.041C897.274 643.661 902.561 651.312 903.305 655.152C900.762 654.973 898.329 655.289 895.807 655.569L888.087 656.235C884.919 656.462 881.677 656.575 878.537 657.055C866.966 658.038 839.24 663.672 829.113 669.198C815.851 673.53 794.358 683.358 786.046 694.816C784.745 695.982 783.549 697.339 782.323 698.589C780.736 691.648 777.8 685.001 775.036 678.459C774.665 677.095 774.475 676.038 773.378 675.052L772.669 675.246C771.859 677.337 772.16 678.544 772.849 680.56C773.747 682.596 774.859 684.699 775.387 686.862C770.24 688.414 764.875 690.634 759.413 689.531C750.919 687.816 745.229 679.627 740.822 672.839C738.9 667.972 736.709 663.207 734.764 658.345C731.913 648.195 729.084 636.389 723.365 627.478L721.514 623.781C724.456 612.365 727.88 600.731 725.391 588.915C724.147 583.006 722.189 577.221 720.808 571.329C722.674 564.79 731.399 529.364 732.864 527.085C733.151 526.639 733.629 526.352 734.012 525.986Z"/>
	<path fill="#6D0D2B" d="M761.532 583.012C762.656 582.251 763.54 581.822 764.947 581.971C766.802 582.167 768.171 583.576 769.098 585.083C771.681 589.276 772.095 594.58 772.603 599.359Q772.587 603.139 772.505 606.919C772.166 610.995 772.574 618.203 769.277 621.068C768.227 621.981 767.845 621.877 766.506 621.935L765.426 621.266C765.3 620.299 765.165 620.651 765.467 620.137C765.479 614.006 765.801 606.276 764.415 600.339C763.361 595.823 759.824 591.222 759.888 586.519C759.909 584.941 760.449 584.086 761.532 583.012Z"/>
	<path fill="#FDF8D0" d="M762.075 584.538C763.916 584.422 765.192 584.412 766.689 585.706C770.248 588.783 770.462 595.296 770.588 599.69Q770.606 600.332 770.608 600.974L770.499 607.433C770.234 611.062 770.536 616.03 768.202 618.958L767.059 619.34C766.625 612.887 767.361 606.302 766.363 599.904C765.533 594.587 761.969 590.062 762.075 584.538Z"/>
	<path fill="#FDCC9A" d="M404.788 0L461.106 0L460.526 0.682646C461.622 3.2188 461.016 151.782 461.029 166.569L404.42 166.429C405.093 152.122 404.555 137.57 404.559 123.238L404.728 47.1212Q404.623 30.2268 404.932 13.3354C405.035 9.2596 404.85 5.01121 405.415 0.979308L404.788 0Z"/>
	<path fill="#300" d="M404.788 0L461.106 0L460.526 0.682646C454.711 1.63341 447.937 1.04266 442.018 1.04994L405.415 0.979308L404.788 0Z"/>
	<path fill="#FDCC9A" d="M674.774 32.5101C679.742 33.354 690.62 38.4001 696.758 40.1219C707.37 43.0993 718.336 44.428 729.091 46.7344L729.265 101.542C729.314 111.729 729.704 122.054 729.074 132.222C724.128 133.037 719.085 134.645 714.218 135.897Q697.895 140.067 681.69 144.674C665.648 148.745 649.58 152.633 633.587 156.903C632.891 138.049 633.14 119.175 633.153 100.311C633.165 82.0749 632.94 63.8064 633.317 45.5746C646.933 40.8251 660.998 36.8282 674.774 32.5101Z"/>
	<path fill="#FDCC9A" d="M633.331 181.525C641.638 179.146 650.075 177.277 658.441 175.127C681.793 169.127 705.257 163.341 728.534 157.074Q728.988 229.202 728.719 301.33C728.719 306.78 729.937 333.192 728.99 336.706L728.216 337.035C727.141 332.598 725.354 328.264 723.562 324.078C717.681 310.337 708.433 294.143 693.751 288.242C693.372 288.004 692.997 287.757 692.605 287.542C676.483 278.713 656.603 279.924 639.456 284.687C637.585 284.914 635.864 285.144 633.985 284.917C632.712 280.988 633.116 191.911 633.331 181.525Z"/>
	<path fill="#FDCC9A" d="M404.521 187.768C411.533 187.1 418.83 187.45 425.871 187.447Q443.485 187.48 461.098 187.292C461.814 216.835 460.95 246.428 460.971 275.981Q461.229 309.768 461.139 343.555C461.179 351.891 462.534 389.803 460.502 395.29C456.735 396.499 452.931 397.665 449.39 399.454C435.945 406.247 422.464 419.803 415.663 433.235C413.202 438.097 411.523 444.044 413.26 449.405Q413.696 450.731 414.22 452.024L415.778 457.174C415.985 460.884 415.925 464.521 415.775 468.233C416.291 474.422 416.993 482.181 419.691 487.819L419.489 489.514C418.285 490.405 417.432 490.327 415.963 490.501C413.59 490.483 411.874 491.533 409.865 492.676C410.443 498.768 410.942 508.592 415.913 512.991C417.377 514.287 418.783 514.414 420.668 514.384C420.191 518.803 420.184 522.495 420.984 526.912C415.937 526.999 409.86 529.588 405.016 531.055C404.184 520.639 404.452 509.96 404.466 499.509L404.69 450.442L404.764 271.479L404.857 220.435C404.901 209.612 405.328 198.561 404.521 187.768Z"/>
	<path fill="#FDCC9A" d="M441.165 836.034C441.495 833.245 441.538 829.851 443.297 827.562L444.171 827.714C445.942 829.945 446.702 832.846 447.655 835.502C448.706 838.277 449.632 841.415 451.041 844.009C454.653 855.518 460.128 866.913 464.829 878.039C465.966 881.043 466.95 884.788 468.626 887.489C471.614 896.451 475.469 905.194 478.991 913.961Q487.437 934.916 495.585 955.988C507.155 959.422 518.962 961.953 530.722 964.634C551.824 969.443 573.126 973.965 594.082 979.34Q598.197 980.132 602.299 980.988Q608.695 982.718 615.122 984.33C616.448 984.802 617.56 985.077 618.457 986.24C619.37 991.912 626.643 1019.59 629.988 1023.28L630.051 1024L610.942 1024C604.49 1020.81 567.409 1014.63 557.591 1012.62L423.053 984.049C415.692 982.536 408.338 980.909 400.95 979.533C398.17 979.016 393.294 978.908 390.826 977.804C390.468 977.644 390.249 977.272 389.96 977.007C391.217 976.035 391.417 976.208 393.034 976.255C396.394 977.138 417.943 973.111 422.673 972.178C431.055 970.524 440.828 968.845 445.918 961.278C447.949 958.041 448.981 954.051 450.235 950.451C450.309 950.402 450.395 950.368 450.456 950.305C453.507 947.124 453.646 942.621 453.498 938.502C452.618 936.783 451.608 935.456 450.333 934.011L450.646 933.479C451.118 932.624 451.626 931.723 451.849 930.764C452.956 925.989 449.883 919.618 447.273 915.724C448.013 913.918 448.308 912.03 448.669 910.123C448.759 908.201 448.547 906.574 448.188 904.687C445.907 901.782 443.525 898.523 440.477 896.393C434.691 890.104 426.15 885.466 417.512 885.049C407.345 884.558 396.75 891.557 387.975 895.984C385.379 897.294 381.133 898.761 379.037 900.683C374.233 902.759 369.17 904.661 364.529 907.06L360.217 909.093C358.768 895.889 354.121 882.243 350.904 869.342C354.681 867.656 358.753 866.426 362.653 865.041C388.567 854.773 415.174 846.133 441.165 836.034Z"/>
	<path fill="#FDF8D0" d="M269.862 661.669C326.49 665.575 382.95 671.85 439.551 676.053C441.632 676.223 443.736 676.337 445.803 676.636C442.374 694.664 438.114 712.509 434.674 730.525L433.458 730.313L426.722 731.486C424.086 731.631 421.772 732.17 419.306 733.108C415.019 737.033 411.449 740.674 408.236 745.517C414.674 750.387 420.97 770.895 424.77 779.046C425.677 781.477 426.485 784.335 427.748 786.579C426.474 794.327 424.805 802.05 423.793 809.833C401.439 806.831 379.152 801.722 356.98 797.538C351.305 796.467 345.613 795.009 339.897 794.212C338.481 793.8 337.046 793.667 335.586 793.497C335.382 785.662 329.9 763.236 327.776 754.829C326.566 750.037 324.852 745.079 324.42 740.148C323.7 731.935 328.755 723.1 327.055 714.938C324.623 721.316 324.157 731.694 323.188 738.685C318.546 730.468 313.306 721.452 305.227 716.146C303.215 713.454 298.876 711.006 296.148 709.046C292.82 705.053 274.723 695.781 269.03 692.58C268.1 692.025 266.999 691.463 266.18 690.76C265.436 690.123 265.25 689.651 265.122 688.706C264.977 687.64 264.794 686.715 264.543 685.665C264.391 680.638 266.906 675.479 268.169 670.612C268.928 667.687 269.381 664.65 269.862 661.669Z"/>
	<path fill="#6D0D2B" d="M368.932 714.482C370.599 713.134 371.006 710.848 371.752 708.853C371.518 710.738 371.171 712.404 370.552 714.201C375.897 717.815 380.264 721.572 381.624 728.244C382.52 732.634 381.675 737.141 379.066 740.801C377.387 743.157 375.028 744.98 372.559 746.447C368.31 748.6 363.826 749.612 359.183 748.008Q358.087 747.619 357.017 747.162C354.395 745.571 352.129 743.52 350.637 740.811C348.266 736.506 347.8 731.241 349.202 726.548C350.631 721.764 354.35 717.109 358.888 714.938Q359.469 714.653 360.076 714.429Q360.683 714.205 361.31 714.045Q361.936 713.884 362.576 713.789Q363.216 713.694 363.863 713.664Q364.509 713.635 365.155 713.672Q365.801 713.709 366.439 713.812Q367.078 713.915 367.703 714.083Q368.328 714.251 368.932 714.482Z"/>
	<path fill="#FDF8D0" d="M359.364 746.025C357.348 744.865 355.555 743.661 354.087 741.824C351.382 738.442 350.254 733.99 350.784 729.715Q350.884 728.907 351.063 728.114Q351.242 727.32 351.5 726.548Q351.757 725.776 352.089 725.034Q352.422 724.291 352.826 723.585Q353.231 722.879 353.703 722.216Q354.176 721.554 354.712 720.942Q355.248 720.33 355.842 719.773Q356.436 719.217 357.082 718.723C360.218 716.349 363.848 715.427 367.711 715.859C372.327 717.452 375.937 719.806 378.177 724.301C380.07 728.099 380.267 732.761 378.771 736.726C377.213 740.856 374.349 743.216 370.589 745.289C366.758 746.654 363.348 747.026 359.364 746.025Z"/>
	<path fill="#FDCC9A" d="M277.62 0L393.059 0L393.315 0.933279C393.758 1.49647 393.873 1.96943 393.96 2.70082C394.495 7.15426 394.089 12.1309 394.08 16.6395L393.986 46.4002L393.893 119.459C393.881 135.127 393.604 150.926 394.288 166.575Q359.165 166.341 324.041 166.465C309.858 166.53 295.493 167.064 281.332 166.526C279.959 166.474 278.56 166.646 277.536 165.686C277.905 161.792 277.3 157.934 277.365 154.042Q277.924 100.093 277.739 46.1408L277.877 17.0033C277.886 13.6308 277.535 10.2733 277.649 6.90106C277.701 5.37906 277.65 2.80575 278.452 1.5245C278.877 0.8453 279.82 0.956096 280.549 0.834148C279.505 0.671256 278.612 0.34592 277.62 0Z"/>
	<path fill="#300" d="M277.62 0L393.059 0L393.315 0.933279C387.087 1.30865 380.735 1.10302 374.486 1.14293Q354.688 1.29454 334.889 1.12488C316.809 1.00967 298.601 1.56122 280.549 0.834148C279.505 0.671256 278.612 0.34592 277.62 0Z"/>
	<path fill="#FDCC9A" d="M739.334 154.679Q789.572 141.423 840.076 129.224Q840.897 223.903 840.393 318.584L840.488 360.078C840.51 366.146 841.302 373.268 840.206 379.175L839.485 379.77C836.885 377.429 833.37 375.635 830.299 373.982C815.535 366.033 800.2 361.838 783.572 360.21C775.056 359.518 746.454 358.213 739.441 361.294C740.235 292.44 738.457 223.532 739.334 154.679Z"/>
	<path fill="#FDCC9A" d="M857.915 124.836C867.201 121.64 877.253 119.759 886.777 117.265C901.105 113.512 915.488 109.217 929.943 106.036L930.379 376.531L930.368 453.655Q930.44 464.17 930.657 474.682C930.719 477.868 931.162 481.406 930.77 484.55C929.15 480.95 926.59 477.373 924.535 473.974Q911.054 451.699 894.776 431.378C883.896 417.542 870.967 405.603 858.751 393C858.38 386.23 858.706 379.319 858.706 372.533L858.508 338.94L858.412 186.08C858.302 165.717 858.842 145.166 857.915 124.836Z"/>
	<path fill="#FDCC9A" d="M205.485 0L214.468 0L214.087 1.2205C221.666 1.59519 241.721 2.52442 248.413 1.32787C249.587 1.37426 250.499 1.3309 251.565 1.88119C252.181 2.80634 252.485 3.67691 252.574 4.79368C252.841 8.13719 252.236 11.8488 252.285 15.2762Q252.532 34.181 252.513 53.0873L252.286 166.518C225.885 165.853 199.269 166.449 172.844 166.46L1.95245 166.51C2.20342 148.063 1.9554 129.587 1.93388 111.137C1.91456 94.5711 2.15577 77.9563 1.66958 61.3984C10.352 63.9962 19.0212 66.2444 27.9259 67.9556C77.0025 77.3867 157.1 74.5275 199.035 45.8429C206.138 40.9843 213.299 34.2749 214.739 25.3697C216.277 15.857 211.643 9.02496 206.466 1.73079L206.516 0.833829L205.485 0Z"/>
	<path fill="#300" d="M205.485 0L214.468 0L214.087 1.2205L206.516 0.833829L205.485 0Z"/>
	<path fill="#FDF8D0" d="M450.002 761.759C474.459 757.566 499.244 754.611 523.847 751.387Q565.496 745.601 607.234 740.496L647.906 735.405C656.811 734.334 665.897 733.664 674.705 731.979C675.953 734.938 677.21 737.848 678.704 740.693C681.222 747.459 684.414 754.052 687.286 760.68C690.562 768.24 693.587 775.897 696.82 783.473C698.25 786.825 702.539 794.319 702.783 797.719C702.816 798.19 702.617 799.042 702.443 799.482C701.977 800.662 701.305 801.824 700.713 802.949L697.825 810.897C694.782 811.03 691.891 811.031 689.137 812.497L689.139 813.08C691.874 813.709 694.625 812.829 697.304 812.223C694.945 819.483 692.207 826.684 690.01 833.982C687.775 827.485 685.49 819.325 681.815 813.591C678.926 812.197 629.234 821.315 620.782 821.655Q627.409 837.972 634.437 854.12L669.603 847.037L657.051 818.194C664.936 817.227 672.756 815.724 680.632 814.776C683.416 822.15 686.138 829.559 689.512 836.69Q685.399 850.619 680.814 864.4C679.248 869.093 677.293 873.745 675.904 878.482C675.452 879.435 674.949 880.328 674.412 881.235C667.864 883.703 660.004 884.727 653.138 886.283Q625.259 892.49 597.273 898.194L545.3 909.253C535.303 911.444 524.797 914.734 514.64 915.597Q491.366 857.635 466.702 800.251C461.116 787.423 456.09 774.367 450.002 761.759Z"/>
	<path fill="#6D0D2B" d="M637.308 793.199C638.855 793.01 640.05 793.094 641.581 793.361L641.139 794.141C638.511 795.208 635.675 795.359 632.881 795.675C631.043 795.981 629.656 795.981 627.825 795.628L629.139 795.697L628.049 795.224C630.081 793.508 634.743 793.425 637.308 793.199Z"/>
	<path fill="#6D0D2B" d="M520.824 807.182C525.338 806.759 529.87 805.93 534.36 805.277C537.405 809.989 539.374 816.136 541.511 821.359C530.695 823.676 519.665 824.84 508.836 827.127C507.145 823.547 501.371 813.474 501.612 809.869C502.272 809.593 502.564 809.455 503.295 809.465Q509.173 808.869 515.023 808.048C516.993 807.86 518.887 807.588 520.824 807.182Z"/>
	<path fill="#FDF0C1" d="M513.996 779.904C516.464 779.038 520.179 778.588 522.752 779.081C526.597 784.248 530.915 796.232 533.421 802.53L533.695 803.504L533.084 804.703L534.36 805.277C529.87 805.93 525.338 806.759 520.824 807.182C518.887 807.588 516.993 807.86 515.023 808.048Q509.173 808.869 503.295 809.465L504.818 808.499L504.801 807.746C503.098 807.367 501.409 807.19 500.074 805.98C498.808 802.112 490.346 784.725 491.151 782.638C491.867 782.335 512.616 779.791 513.996 779.904Z"/>
	<path fill="#FDF8D0" d="M514.567 781.329C516.632 780.737 519.371 779.795 521.398 780.748C524.663 784.155 528.691 795.485 530.23 800.337C530.313 800.6 530.407 800.859 530.495 801.121C526.808 803.626 510.527 804.457 505.255 804.996C504.362 805.237 503.684 805.192 502.768 805.165C501.785 804.422 500.961 803.731 500.347 802.641C499.736 801.555 499.662 800.113 499.184 798.927C497.747 795.359 496.045 791.894 494.622 788.317C494.148 787.125 493.179 785.246 493.671 784.079C498.736 782.553 509.328 781.295 514.567 781.329Z"/>
	<path fill="#6D0D2B" d="M547.344 845.184L548.587 845.19C551.546 848.695 560.663 874.006 562.571 879.736C553.211 881.278 543.705 882.553 534.453 884.642L532.278 884.722C528.515 881.93 521.723 856.691 518.1 850.45Q532.692 847.651 547.344 845.184Z"/>
	<path fill="#FDF8D0" d="M545.309 847.199L546.704 847.035C549.784 848.78 558.439 873.096 560.072 878.324C552.616 879.988 544.95 880.973 537.389 882.021C535.879 882.299 534.721 882.43 533.196 882.213C529.944 878.721 523.049 857.922 521.115 852.238C528.61 849.511 537.423 848.378 545.309 847.199Z"/>
	<path fill="#FDCC9A" d="M277.916 428.198C277.3 411.286 277.547 394.312 277.537 377.388L277.708 277.5L277.603 218.114C277.609 208.58 276.782 198.008 278.13 188.603C279.249 187.663 281.248 187.735 282.709 187.662C302.274 186.682 322.139 187.416 341.747 187.333Q358.927 187.188 376.106 187.365C381.814 187.404 387.698 187.147 393.37 187.651L393.817 187.695C393.758 188.708 393.694 189.715 393.616 190.727C392.969 199.058 393.804 208.099 393.843 216.494L393.996 274.377L394.067 448.083L394.02 501.821C394.037 512.145 394.876 523.282 393.635 533.525C386.049 535.806 379.195 538.979 372.827 543.732C357.074 555.491 341.044 579.55 331.702 596.954C327.08 605.564 323.126 614.484 319.202 623.426C316.61 629.335 314.146 637.455 310.251 642.502C309.403 639.295 310.38 635.444 309.873 632.105C308.695 624.336 304.39 617.981 305.516 609.846L307.989 596.226L309.333 587.798C316.008 582.132 321.678 575.165 324.092 566.612C323.326 563.241 322.577 560.987 320.201 558.431C316.197 554.67 312.19 551.255 308.677 546.989C308.248 544.832 306.521 542.832 306.279 540.596C306.076 538.726 306.802 537.707 307.805 536.203C308.218 535.921 308.525 535.363 308.823 534.96C308.797 534.746 308.768 534.533 308.744 534.318C308.714 534.041 308.692 533.763 308.663 533.485C308.221 529.272 311.518 525.629 310.715 520.996C310.323 513.863 305.606 502.991 302.919 496.344C307.414 495.621 312.099 492.788 315.726 490.116C331.822 478.261 340.725 458.073 343.732 438.811Q344.258 434.854 344.627 430.879C334.795 432.455 325.499 433.654 315.5 433.351C312.775 433.035 309.857 433.108 307.106 433.006C297.219 432.027 287.565 430.64 277.916 428.198Z"/>
	<path fill="#FDCC9A" d="M1.90963 187.326C62.5694 188.355 123.338 187.265 184.013 187.352C206.763 187.384 229.848 186.277 252.546 187.452C253.089 239.578 252.374 291.668 252.567 343.787Q252.763 371.35 252.667 398.913C252.667 404.17 253.671 415.73 252.297 420.329L251.214 420.839C246.892 419.288 242.066 418.474 237.56 417.593C216.779 413.534 192.443 411.919 172.83 421.349C172.385 421.563 171.815 421.802 171.406 422.094C168.234 423.407 165.252 424.911 162.238 426.554C155.925 430.204 148.724 434.497 143.891 440.037C133.308 449.748 128.618 459.307 121.07 470.921C111.538 480.05 107.382 499.501 107.1 512.195C106.641 532.835 112.406 551.397 120.451 570.128C122.32 574.479 124.075 578.994 126.266 583.188C128.845 588.121 132.935 592.332 135.004 597.49C136.005 599.983 140.158 614.323 139.429 616.079L138.965 616.324C135.813 616.773 133.698 617.7 131.731 620.297C127.059 626.465 123.815 641.598 122.15 649.318C107.649 650.994 92.0557 656.764 79.525 664.328C75.5986 666.272 59.9109 675.57 57.9314 678.621C54.2961 680.75 50.7015 684.197 47.5246 687.009Q44.1535 690.04 40.9034 693.2Q37.6532 696.359 34.529 699.644Q31.4047 702.928 28.4111 706.332Q25.4175 709.736 22.5591 713.254Q19.7007 716.773 16.9818 720.4Q14.263 724.027 11.6879 727.758Q9.11279 731.488 6.68533 735.317Q4.25787 739.145 1.98177 743.065C1.52682 716.005 2.03252 688.88 1.87026 661.809C2.48579 643.12 1.90211 624.259 1.89375 605.544L1.82064 494.778L1.90963 187.326Z"/>
	<path fill="#6D0D2B" d="M193.526 270.203C204.015 270.292 213.567 272.506 221.952 279.122C231.6 286.735 237.285 298.158 238.662 310.279Q238.77 311.302 238.828 312.328Q238.885 313.355 238.892 314.384Q238.9 315.412 238.856 316.439Q238.813 317.467 238.72 318.491Q238.626 319.515 238.483 320.533Q238.339 321.552 238.146 322.562Q237.952 323.572 237.71 324.571Q237.467 325.57 237.176 326.556Q236.884 327.543 236.545 328.514Q236.206 329.484 235.819 330.437Q235.433 331.39 235 332.323Q234.567 333.256 234.089 334.166Q233.611 335.077 233.089 335.963Q232.567 336.849 232.003 337.708Q231.438 338.568 230.832 339.398Q230.225 340.229 229.579 341.029C221.039 351.639 210.491 356.112 197.262 357.501C186.41 357.341 177.124 355.029 168.493 348.143C159.592 341.04 152.976 329.791 151.796 318.384C150.587 306.688 155.248 294.106 162.713 285.202C170.697 275.677 181.355 271.329 193.526 270.203Z"/>
	<path fill="#827172" d="M1023.1 626.302C1023.69 638.58 1023.38 651.008 1023.43 663.304C1023.49 680.856 1023.74 698.45 1023.49 715.999L1024 716L1024 838.012L1024 842.082L1024 1024L1022.97 1024L819.536 1024L723.437 1024L719.046 1024L630.051 1024L629.988 1023.28L632.348 1023.01C629.489 1011.17 621.103 993.492 620.083 981.749C620.686 980.33 621.818 979.963 623.091 979.153C624.82 978.701 626.4 977.172 627.599 975.901C637.135 967.43 644.773 955.866 651.657 945.169L653.622 941.341C659.042 940.545 668.978 916.794 671.323 911.315Q691.574 863.572 708.391 814.514Q714.533 796.753 720.905 779.073C723.388 772.148 725.674 764.907 728.967 758.32C733.112 750.028 738.346 742.542 745.854 736.979C760.437 726.175 778.598 718.877 795.307 712.021C800.717 709.801 809.168 707.989 813.698 704.464C813.942 704.274 814.175 704.07 814.414 703.872C820.422 701.448 837.035 699.705 844.133 698.706C883.895 693.112 923.889 689.95 963.751 685.327C974.447 688.011 984.739 691.568 994.996 695.602C1003.21 698.83 1013.6 703.777 1018.76 711.241C1020.51 713.764 1021.66 716.945 1022.88 719.755C1024.12 688.665 1021.94 657.391 1023.1 626.302Z"/>
	<path fill="#ECBFAD" d="M632.348 1023.01L689.518 1023.06C699.355 1023.07 709.511 1023.56 719.316 1022.94L722.667 1023.11L723.507 1023.1L723.437 1024L719.046 1024L630.051 1024L629.988 1023.28L632.348 1023.01Z"/>
	<path fill="#FDCC9A" d="M723.861 1022.95L792.715 1023.13C800.563 1023.14 812.361 1021.98 819.623 1023.37L819.536 1024L723.437 1024L723.507 1023.1L723.861 1022.95Z"/>
	<path fill="#D2B3C1" d="M1023.49 715.999L1024 716L1024 838.012L1023.12 837.993C1022.77 830.295 1023.11 822.474 1023.15 814.763L1023.31 772.647L1023.22 738.251C1023.19 730.848 1022.94 723.382 1023.49 715.999Z"/>
	<path fill="#6D0D2B" d="M719.316 1022.94C726.413 1012.14 732.927 998.699 739.267 987.255L781.51 909.51C793.479 887.02 807.476 865.137 818.114 841.997C819.562 838.848 820.415 835.45 820.976 832.039C826.454 798.729 807.102 763.246 777.39 748.158C774.832 746.859 772.168 745.538 769.447 744.615C766.107 743.482 756.874 742.218 754.904 739.489L755.22 738.933C755.835 738.862 756.332 738.801 756.952 738.887C759.068 739.181 761.247 739.968 763.326 740.485Q764.988 740.883 766.631 741.352Q768.274 741.822 769.896 742.363Q771.517 742.904 773.112 743.515Q774.708 744.127 776.276 744.807Q777.844 745.487 779.38 746.235Q780.917 746.984 782.419 747.798Q783.922 748.612 785.387 749.492Q786.853 750.371 788.278 751.313Q789.704 752.256 791.087 753.26Q792.47 754.263 793.808 755.327Q795.146 756.39 796.436 757.51Q797.727 758.631 798.967 759.807Q800.207 760.982 801.395 762.211Q802.582 763.44 803.715 764.72Q804.848 765.999 805.924 767.327Q807 768.655 808.017 770.028C824.019 791.587 826.606 813.607 822.678 839.438Q823.619 838.674 824.538 837.884C833.844 829.953 840.076 816.431 841.056 804.346C840.905 802.052 840.631 799.994 841.418 797.784L842.129 797.422C844.145 799.581 843.935 802.761 843.936 805.524C842.857 813.71 839.603 821.465 835.641 828.678C831.462 836.287 823.425 840.493 819.221 847.737C814.865 855.245 810.976 863.122 806.775 870.733L762.461 952.236L737.72 996.855C732.986 1005.43 727.883 1014.02 723.861 1022.95L723.507 1023.1L722.667 1023.11L719.316 1022.94Z"/>
	<path fill="#6D0D2B" d="M1023.12 837.993L1024 838.012L1024 842.082L1024 1024L1022.97 1024L819.536 1024L819.623 1023.37L819.898 1023.33C820.522 1013.45 825.86 999.776 828.662 990.053L846.352 927.985L856.537 891.988C858.743 884.318 860.535 876.288 864.136 869.137C868.614 867.217 874.248 866.518 879.029 865.559C889.92 863.375 900.862 861.486 911.766 859.373Q967.349 848.191 1023.12 837.993Z"/>
	<path fill="#C18B8B" d="M1023.12 837.993L1024 838.012L1024 842.082L1023.36 842.275L1023.12 837.993Z"/>
	<path fill="#AF7079" d="M819.898 1023.33L955.331 1023.46C977.774 1023.48 1000.5 1022.73 1022.91 1023.57L1022.97 1024L819.536 1024L819.623 1023.37L819.898 1023.33Z"/>
	<path fill="#D2B3C1" d="M1024 842.082L1024 1024L1022.97 1024L1022.91 1023.57C1023.35 1015.26 1023.05 1006.77 1023.08 998.425L1023.21 948.092C1023.28 912.854 1024.06 877.496 1023.36 842.275L1024 842.082Z"/>
</svg>
