<?xml version="1.0" encoding="utf-8"?>
<svg xmlns="http://www.w3.org/2000/svg" width="1024" height="1024">
  <path fill="#E7E6E5" d="M683.72 969.61C683.804 970.403 683.711 972.076 684.347 972.563C687.062 974.645 694.676 974.917 698.07 975.37C725.85 979.077 753.306 979.868 781.186 976.586C775.754 980.228 761.607 977.742 758.038 979.686C764.181 980.4 770.363 979.621 776.508 980.181C775.233 981.177 687.984 982.22 677.867 982.532C678.454 980.241 679.016 977.926 679.715 975.667C680.545 972.98 681.181 970.933 683.72 969.61Z"/>
  <path d="M782.144 144.97C779.885 143.332 777.352 141.66 776.213 139.005C775.011 136.203 775.648 132.974 776.75 130.252C780.716 120.464 791.198 111.3 800.791 107.251C805.796 105.139 811.566 104.081 816.714 106.338C823.362 109.252 825.879 115.541 828.231 121.872C832.821 119.051 839.424 115.794 844.852 115.225C847 115 849.196 115.393 850.84 116.88C854.588 120.271 854.481 126.811 854.864 131.433C856.726 134.175 857.557 135.691 860.999 136.394C866.448 134.638 872.123 132.926 877.63 135.621C882.018 137.768 884.276 142.076 885.652 146.556C886.446 149.141 887.031 151.887 887.335 154.572C893.38 154.682 899.217 153.875 905.222 153.491L905.112 153.746C907.779 159.239 905.825 168.225 903.94 173.758C902.268 178.67 899.861 183.567 895.687 186.793C894.48 187.711 894.183 188.768 893.601 190.105C893.207 191.012 893.4 190.646 892.765 191.5C894.243 195.309 900.319 206.079 899.084 209.69C898.355 211.823 895.75 212.776 893.9 213.698L889 215.305C883.028 228.087 872.612 238.161 859.252 242.988C854.302 244.776 849.321 245.546 844.113 246.142C845.935 251.084 851.705 261.159 849.444 266.156C848.658 267.893 846.748 269.147 845.29 270.27Q852.852 291.073 859.255 312.261C871.952 353.159 880.773 393.312 880.947 436.321C881.034 457.847 878.779 479.386 877.353 500.849L875.064 538.887C874.639 545.525 874.579 552.51 873.361 559.041C869.04 560.896 864.765 561.845 860.139 562.582C858.467 582.296 855.474 601.839 853.658 621.524C851.17 648.489 849.842 675.561 846.487 702.442C858.292 732.421 862.385 764.682 867.21 796.331C870.37 817.059 873.811 837.809 876.519 858.598C877.719 867.816 878.239 877.223 879.691 886.389C878.284 888.102 876.845 889.707 875.271 891.269C877.904 901.077 888.285 933.673 883.773 942.157C882.358 944.817 879.581 946.238 876.783 947.013C858.471 952.086 833.105 945.345 815.308 940.002C816.417 945.706 820.888 961.302 817.715 965.793C812.909 972.595 792.796 975.018 784.538 976.164Q782.865 976.396 781.186 976.586C753.306 979.868 725.85 979.077 698.07 975.37C694.676 974.917 687.062 974.645 684.347 972.563C683.711 972.076 683.804 970.403 683.72 969.61C683.333 963.656 681.984 956.159 684.991 950.713C686.594 947.812 689.642 945.989 692.55 944.59C700.762 940.641 710.388 938.422 719.094 935.781C731.655 931.971 744.191 927.918 756.885 924.579C752.905 907.957 747.223 891.677 741.956 875.426Q736.701 858.931 731.984 842.274C712.616 775.03 694.845 690.06 697.106 620.415Q697.388 611.859 698.089 603.328Q698.789 594.796 699.907 586.309Q701.024 577.822 702.556 569.4Q704.087 560.978 706.029 552.641C704.165 552.448 702.287 552.27 700.437 551.968C698.115 551.589 696.35 551.415 694.905 549.441C694.749 544.252 696.322 538.37 697.276 533.248C700.68 514.971 705.151 497.015 709.759 479.014C704.951 477.599 698.285 476.407 694.905 472.499C693.086 470.395 693.047 467.881 693.244 465.23C693.717 458.869 702.983 426.268 707.374 422.889C710.293 420.644 713.528 421.207 716.873 421.761C718.903 410.811 722.572 400.139 724.495 389.173C725.751 382.01 725.106 374.936 727.139 367.799C734.875 340.64 753.825 314.019 768.575 289.954C757.526 281.904 745.524 270.589 734.724 261.599C707.948 239.31 680.092 216.795 655.978 191.616C651.806 191.175 647.801 190.565 643.755 189.428C636.348 187.348 615.89 179.342 612.492 172.781C611.088 170.07 611.246 166.916 612.306 164.117C613.353 161.355 615.176 158.197 617.978 156.962L620.64 155.801C620.089 152.833 603.111 137.937 599.769 133.616C598.428 131.882 597.449 129.706 596.65 127.671C595.68 125.203 594.069 120.611 595.391 118.19C595.759 117.516 596.162 117.57 596.833 117.353C598.476 117.782 633.271 141.432 638.534 144.703C671.166 164.986 707.526 185.309 741.656 202.995C743.341 196.791 746.117 189.331 746.607 182.967C746.856 179.726 745.431 173.706 747.404 171.058C750.603 170.113 754.592 170.841 757.934 170.814C767.212 170.738 770.635 160.076 774.981 153.433C777.036 150.291 779.53 147.65 782.144 144.97Z"/>
  <path fill="#F8F8F7" d="M619.95 160.45C620.947 160.516 621.763 160.767 622.71 161.076C623.616 162.2 623.717 162.393 623.916 163.82C623.148 164.659 623.034 164.516 621.974 164.738C620.513 164.464 618.986 164.372 617.823 163.371C618.115 161.953 618.957 161.456 619.95 160.45Z"/>
  <path fill="#F8F8F7" d="M802.857 963.614C806.267 962.395 810.793 960.095 814.424 960.178L815.19 960.757C815.181 962.433 814.529 963.571 813.354 964.714C812.24 965.798 810.044 966.6 808.528 966.806C809.085 965.093 811.769 964.928 812.973 963.522C812.79 963.565 812.09 963.739 811.92 963.724C811.168 963.66 810.988 963.143 810.57 962.619C808.215 962.129 806.195 963.863 803.793 963.704C803.48 963.684 803.169 963.644 802.857 963.614Z"/>
  <path d="M783.764 127.003C784.554 130.721 784.102 134.669 785.553 138.202L786.635 140.043L786.299 140.933C784.963 141.23 784.245 141.234 783.01 140.543C781.435 139.661 780.306 137.868 780.036 136.106C779.49 132.539 781.684 129.619 783.764 127.003Z" style="fill: rgb(40, 75, 99);"/>
  <path fill="#F8F8F7" d="M699.902 972.271C696.767 971.92 692.303 972.224 689.442 970.957C687.989 970.314 687.703 969.622 687.204 968.242C687.467 966.748 687.382 966.737 688.556 965.8C691.654 965.107 695.643 966.261 698.837 966.661C698.431 968.342 697.772 969.793 698.341 971.458L699.902 972.271Z"/>
  <path d="M802.78 122.543C803.444 122.493 804.109 122.446 804.776 122.446C808.552 122.444 810.978 125.364 813.426 127.837C807.664 129.93 802.11 132.047 796.758 135.065C795.312 135.866 793.421 137.365 791.826 137.73C790.813 137.962 790.623 137.715 789.847 137.163C789.769 136.502 789.8 136.004 790.022 135.371C792.155 129.285 797.286 125.36 802.78 122.543Z" style="fill: rgb(0, 128, 0);"/>
  <path d="M813.243 930.822C828.038 934.046 842.713 938.586 857.955 939.025C861.008 939.113 864.191 939.15 867.232 938.821C870.956 938.419 876.723 935.533 880.234 936.82C880.862 938.271 880.484 939.15 880.236 940.689C878.892 941.554 877.66 942.202 876.115 942.644C860.922 946.996 842.598 942.788 827.61 939.286C823.776 938.391 818.369 937.615 815.039 935.462C813.874 934.709 813.565 932.159 813.243 930.822Z" style="fill: rgb(255, 255, 255);"/>
  <path d="M780.251 278.453C780.721 278.78 780.453 278.521 780.692 279.482C776.08 297.572 760.248 319.456 750.024 335.319C744.388 344.063 739.052 352.975 733.503 361.77L733.126 361.613C733.075 361.333 732.983 361.056 732.975 360.771C732.757 352.117 757.461 315.226 763.092 306.032C768.648 296.96 773.555 286.693 780.251 278.453Z" style="fill: rgb(60, 110, 113);"/>
  <path d="M802.857 963.614C803.169 963.644 803.48 963.684 803.793 963.704C806.195 963.863 808.215 962.129 810.57 962.619C810.988 963.143 811.168 963.66 811.92 963.724C812.09 963.739 812.79 963.565 812.973 963.522C811.769 964.928 809.085 965.093 808.528 966.806C783.989 975.858 724.974 976.95 699.902 972.271L698.341 971.458C697.772 969.793 698.431 968.342 698.837 966.661C725.806 969.884 753.992 970.9 780.999 967.479C788.36 966.547 795.561 964.91 802.857 963.614Z" style="fill: rgb(255, 255, 255);"/>
  <path d="M842.328 257.43C842.909 257.319 843.21 257.526 843.76 257.715C845.306 260.003 845.999 262.681 846.852 265.285C819.518 275.195 793.197 288.484 772.562 309.345L768.731 313.273C771.629 306.268 777.146 296.363 782.52 290.963C795.128 278.292 825.776 265.393 842.328 257.43Z" style="fill: rgb(60, 110, 113);"/>
  <path fill="#F8F8F7" d="M710.434 425.315C715.66 426.243 720.763 428.525 725.896 429.974Q717.764 451.879 711.161 474.293C711.004 474.346 710.855 474.439 710.69 474.453C708.11 474.672 701.316 471.872 699.185 470.241C698.121 469.428 697.302 468.359 697.233 466.971C697.05 463.265 705.903 434.017 707.917 429.24C708.537 427.77 709.431 426.543 710.434 425.315Z"/>
  <path d="M872.787 869.906C874.724 871.8 874.823 882.43 875.091 885.494C862.764 895.709 844.286 902.708 828.117 901.217L827.223 900.787C825.933 898.976 825.664 888.93 825.337 886.091C843.217 885.967 858.401 880.305 872.787 869.906Z" fill="#F8F8F7"/>
  <path d="M821.941 900.416C823.793 902.042 823.798 913.192 824.059 916.127C814.895 922.54 801.071 929.324 790.151 931.445C781.384 933.148 772.626 932.697 765.007 927.616L760.896 924.373C760.004 921.236 759.215 918.064 758.388 914.91C760.236 915.811 761.94 916.222 763.976 916.483C784.263 919.089 805.839 912.783 821.941 900.416Z" fill="#F8F8F7"/>
  <path d="M773.795 313.515C773.804 315.622 762.246 334.611 760.374 338.906C748.007 367.276 738.541 396.885 726.997 425.598C725.404 425.014 723.748 424.584 722.117 424.113L721.081 423.378C720.901 422.87 720.807 422.714 720.811 422.102C720.843 417.993 724.165 409.569 725.24 404.973C727.92 393.519 730.339 377.809 734.896 367.179C737.577 360.925 743.011 355.025 746.929 349.476C755.509 337.326 762.748 323.648 773.795 313.515Z" style="fill: rgb(60, 110, 113);"/>
  <path fill="#F8F8F7" d="M750.469 531.293C752.304 532.459 753.785 535.759 754.974 537.618C762.839 549.912 771.764 559.433 786.284 563.387C779.352 569.875 772.575 576.499 765.494 582.83L755.659 591.909C745.484 580.874 739.555 569.955 736.986 555.157L750.469 531.293Z"/>
  <path d="M871.043 893.935C873.964 896.384 879.295 926.751 880.202 932.059C862.477 937.734 844.466 934.76 826.825 930.302C822.239 929 817.512 928.257 812.826 927.412C818.206 924.877 823.583 922.468 828.298 918.783C828.116 914.198 827.581 909.584 827.2 905.009Q828.635 905.141 830.074 905.213Q831.513 905.284 832.954 905.295Q834.395 905.305 835.835 905.254Q837.274 905.204 838.711 905.092Q840.148 904.98 841.578 904.807Q843.008 904.635 844.43 904.401Q845.852 904.168 847.263 903.875Q848.673 903.582 850.07 903.229Q851.467 902.876 852.848 902.464Q854.229 902.052 855.591 901.583Q856.953 901.113 858.294 900.585Q859.635 900.058 860.952 899.474Q862.269 898.89 863.561 898.251Q864.852 897.612 866.115 896.919Q867.378 896.225 868.611 895.479Q869.843 894.733 871.043 893.935Z" style="fill: rgb(255, 255, 255);"/>
  <path d="M759.35 927.667C761.808 930.291 764.079 932.114 767.393 933.629C781.727 940.184 796.065 934.383 809.763 929.379C812.107 937.689 812.746 946.966 813.902 955.518C794.669 964.012 769.939 964.656 749.162 965.288C728.901 965.419 707.548 964.932 687.604 961.061C687.583 958.235 687.053 955.049 688.393 952.457C689.479 950.356 691.699 949.36 693.761 948.434C701.29 945.052 709.644 943.134 717.534 940.721Q738.492 934.354 759.35 927.667Z" style="fill: rgb(255, 255, 255);"/>
  <path fill="#F8F8F7" d="M598.971 123.764C603.634 125.308 628.023 143.664 634.973 147.97C658.879 162.785 683.671 176.613 708.385 190.025C719.143 195.864 729.844 202.44 740.998 207.439L740.889 208.108C739.822 214.976 739.16 225.247 743.596 230.97C749.952 239.169 765.681 239.519 775.12 240.609C776.557 250.016 780.198 259.574 782.952 268.671C778.434 274.149 774.403 280.058 770.255 285.819C768.436 284.556 766.747 283.047 765.033 281.643C736.998 258.613 708.837 235.193 681.944 210.849C677.462 206.791 666.473 197.823 663.241 193.621C662.158 192.214 661.73 190.382 660.704 188.94C658.753 186.198 650.786 186.893 647.535 186.306C643.344 185.55 618.67 175.01 616.71 171.512C616.162 170.534 616.179 169.694 616.476 168.672C620.214 166.745 629.878 171.245 634.366 171.6L634.841 169.787C632.744 167.58 630.434 166.455 627.746 165.126C627.83 163.194 628.119 161.036 627.603 159.153C624.067 146.236 604.632 137.482 598.971 123.764Z"/>
  <path fill="#F8F8F7" d="M751.109 175.134C772.688 177.797 771.506 163.186 782.914 150.691C788.684 144.371 796.216 140.522 803.601 136.44C801.521 141.242 799.607 145.988 799.267 151.271C798.69 160.247 806.767 187.577 812.815 194.261C816.21 198.013 821.632 199.143 824.778 202.963C825.884 204.307 826.427 206.012 826.062 207.749C825.624 209.839 824.011 211.484 822.203 212.502C819.986 213.75 818.058 213.91 815.664 213.166C814.544 212.818 813.54 212.553 812.382 212.371C810.643 213.182 808.485 214.053 807.127 215.457C806.254 216.361 806.11 216.899 806.225 218.104L807.349 218.713C808.575 218.668 809.298 218.528 810.419 218.005C810.535 217.951 811.438 217.516 811.584 217.465C813.319 216.857 814.224 217.653 815.83 218.339C815.369 219.426 814.628 219.822 813.698 220.487C812.638 221.758 812.076 222.586 812.036 224.332C811.929 229.049 814.647 232.858 817.701 236.186C823.548 242.556 831.729 245.77 840.247 246.183C841.004 248.655 841.483 251.21 842.027 253.736C821.268 262.249 801.704 272.522 782.631 284.318C783.638 279.04 783.962 274.988 787.85 270.933C783.932 260.183 779.607 248.223 778.833 236.769C770.163 235.005 753.584 236.178 747.465 229.169C739.808 220.399 747.318 199.844 749.392 189.692C750.383 184.844 750.885 180.073 751.109 175.134Z"/>
  <path d="M775.796 165.656C776.885 166.019 777.85 166.426 778.581 167.367C781.015 170.503 781.901 176.883 781.464 180.731L780.27 180.084C777.455 176.153 775.747 170.479 775.796 165.656Z"/>
  <path d="M785.509 154.669C786.476 154.563 787.427 154.401 788.359 154.798C791.139 155.983 793.625 160.464 794.408 163.219C794.746 164.411 794.928 165.054 794.299 166.172C792.738 166.035 792.56 165.579 791.448 164.531C788.217 161.83 780.633 160.504 778.956 157.243C779.028 157.111 779.082 156.967 779.172 156.846C780.478 155.091 783.49 154.957 785.509 154.669Z"/>
  <path d="M758.211 195.137C758.9 195.296 759.525 195.444 760.187 195.7C761.742 196.303 776.113 202.544 776.505 202.901C776.722 203.098 776.747 203.434 776.867 203.701C776.028 206.817 772.717 209.161 770.359 211.2C769.203 211.965 767.979 212.797 766.723 213.397C764.455 214.479 761.027 215.659 758.535 214.611C756.739 213.856 755.627 212.607 754.986 210.791C753.146 205.579 755.856 199.728 758.211 195.137Z"/>
  <path fill="#F8F8F7" d="M759.188 199.682C762.95 201.875 767.271 203.417 771.244 205.227L767.575 208.378C765.653 209.468 763.021 210.887 760.744 210.594C759.563 210.441 758.69 209.848 758.112 208.8C756.659 206.164 758.352 202.29 759.188 199.682Z"/>
  <path d="M783.764 127.003C789.176 119.435 796.534 111.274 806.195 109.568C810.269 108.849 814.114 109.567 817.439 112.081C819.673 113.771 826.766 124.667 827.603 124.914C828.075 125.053 829.275 124.928 829.785 124.848C835.432 123.961 842.539 118.064 848.152 120.624C851.828 124.814 848.48 134.219 852.351 137.744C853.584 137.778 853.504 137.782 854.425 136.955C854.916 135.183 854.827 133.264 854.864 131.433C856.726 134.175 857.557 135.691 860.999 136.394C859.984 137.494 859.468 137.811 859.206 139.311C860.029 140.038 860.095 139.939 861.151 139.878C865.728 139.611 872.738 136.674 876.807 139.92C881.688 143.814 882.81 150.58 883.152 156.452C883.311 159.189 883.328 161.944 883.366 164.684C890.953 164.383 895.805 162.959 902.344 159.259C900.473 169.258 899.205 171.546 890.831 177.275C888.734 178.711 886.438 179.978 884.783 181.932C884.21 185.82 889.897 193.981 891.554 197.747C892.991 201.015 894.16 204.417 895.338 207.785C892.445 209.465 889.672 210.823 886.503 211.91Q885.965 213.098 885.369 214.257Q884.773 215.417 884.12 216.546Q883.468 217.675 882.76 218.77Q882.053 219.865 881.292 220.924Q880.532 221.983 879.72 223.003Q878.908 224.024 878.046 225.002Q877.185 225.981 876.276 226.916Q875.368 227.851 874.414 228.74Q873.46 229.63 872.464 230.47Q871.467 231.311 870.43 232.102Q869.394 232.893 868.319 233.631Q867.245 234.37 866.135 235.055Q865.025 235.739 863.883 236.368Q862.741 236.997 861.569 237.569Q860.398 238.141 859.199 238.654Q858 239.167 856.778 239.621C847.694 242.962 837.425 243.392 828.579 239.081C821.722 235.74 816.761 230.015 814.405 222.763Q814.031 221.631 813.698 220.487C814.628 219.822 815.369 219.426 815.83 218.339C820.407 217.74 824.49 216.567 827.985 213.362C829.69 211.798 831.084 209.639 831.15 207.265C831.378 199.062 820.693 197.144 816.466 192.187C808.792 183.187 802.703 163.194 803.604 151.379C804.434 140.497 810.261 135.271 817.973 128.757Q817.225 127.485 816.42 126.248C813.181 121.32 809.052 119.433 803.499 118.293C800.821 119.03 798.11 119.884 795.749 121.378C789.507 125.328 786.967 131.27 785.553 138.202C784.102 134.669 784.554 130.721 783.764 127.003Z" style="fill: rgb(40, 75, 99);"/>
  <path d="M818.151 188.001C820.667 188.049 840.848 195.815 842.652 197.397C843.664 198.285 843.481 198.814 843.574 200.088C843.499 200.109 843.424 200.131 843.349 200.151C837.968 201.561 829.056 197.122 824.415 194.419C821.663 192.817 818.991 191.236 818.151 188.001Z"/>
  <path d="M859.421 200.433C859.734 200.681 860.178 201.004 860.406 201.325C861.148 202.373 861.034 202.85 860.791 203.995C855.488 209.582 842.294 211.246 834.953 211.703C833.885 211.144 833.73 210.307 833.382 209.257C834.085 207.502 836.049 207.504 837.759 207.214C846.723 205.695 851.14 204.146 859.421 200.433Z"/>
  <path d="M840.644 272.41L841.605 272.67C843.757 276.734 844.996 281.682 846.426 286.051C849.577 295.677 852.513 305.384 855.539 315.051C863.161 339.401 870.214 364.685 873.575 390.025C877.955 423.038 876.197 455.055 873.99 488.128Q871.505 522.034 869.625 555.98Q868.422 556.332 867.214 556.663C848.374 561.817 827.374 552.74 811.277 543.512C827.7 524.252 843.209 505.23 855.561 483.023C858.099 478.46 861.179 473.458 862.152 468.27C863.347 461.894 862.031 454.252 861.412 447.834C858.561 418.238 853.017 388.935 847.663 359.707C847.169 357.01 846.802 348.343 845.232 346.573C844.353 345.582 844.013 345.445 842.788 345.397C841.951 346.39 841.759 347.284 841.863 348.572C842.703 358.92 845.083 369.43 846.828 379.665Q851.884 408.334 855.833 437.177C856.99 446.095 858.565 455.84 858.239 464.838C857.97 472.274 852.441 480.076 848.644 486.327C833.536 511.201 810.884 540.193 789.598 559.998C787.262 559.46 784.872 558.701 782.646 557.815C770.937 553.153 759.202 540.068 754.641 528.405C754.004 526.777 754.248 526.313 754.935 524.733Q762.661 511.38 770.679 498.2C777.015 487.805 787.104 474.052 789.808 462.276C795.098 463.844 800.44 465.473 805.596 467.443C810.217 469.209 817.412 473.846 821.928 474.158C823.015 473.452 823.016 473.457 823.414 472.224C823.232 471.726 823.145 471.383 822.784 470.945C821.583 469.484 818.676 468.497 816.979 467.703C807.487 463.264 797.913 459.36 787.413 458.157C785.56 428.626 786.55 398.705 786.25 369.117L786.012 349.107C785.995 346.345 786.405 343.37 786.106 340.647C785.973 339.437 785.635 338.675 784.838 337.737C783.614 337.29 783.714 337.058 782.432 337.578C782.154 338.151 782.075 338.243 781.927 338.961C781.398 341.522 781.75 344.998 781.711 347.669Q781.603 360.956 781.742 374.243L782.078 424.564C782.173 434.797 781.867 445.443 783.05 455.603C783.432 458.887 783.894 460.925 786.045 463.545C783.069 468.54 780.434 473.74 777.508 478.765C768.419 494.377 758.798 509.727 749.445 525.183C744.52 533.321 739.953 541.642 734.879 549.698C723.215 548.758 710.839 550.016 699.402 547.263C707.086 500.201 718.611 462.353 734.67 417.8C739.564 404.22 744.811 390.731 749.885 377.214C760.088 350.034 770.672 316.047 794.16 297.283C807.914 286.294 824.835 279.841 840.644 272.41Z" style="fill: rgb(60, 110, 113);"/>
  <path d="M792.107 468.776C792.72 468.856 792.938 468.869 793.505 468.992C797.363 469.826 811.275 475.096 813.079 478.467C813.466 479.19 813.034 480.02 812.861 480.772C812.595 480.756 812.329 480.749 812.064 480.723C808.631 480.383 793.699 473.869 791.802 471.191C791.283 470.459 791.874 469.569 792.107 468.776Z"/>
  <path d="M815.172 308.628C824.41 307.687 833.277 309.92 841.094 315.071C842.488 315.99 842.969 316.49 843.325 318.123L842.681 319.1C838.723 319.837 830.189 313.99 825.563 312.945C822.289 312.205 819.098 312.536 815.809 312.895C812.695 313.631 809.572 314.401 806.54 315.429C803.182 316.567 792.261 322.191 789.531 321.716C788.715 320.692 788.746 320.739 788.822 319.429C792.602 313.961 808.643 309.891 815.172 308.628Z"/>
  <path d="M807.989 547.282C812.329 548.168 817.197 551.898 821.333 553.758C832.484 558.774 843.528 561.16 855.586 562.514C855.207 572.044 853.722 581.657 852.609 591.129Q850.595 608.942 848.941 626.792C846.691 650.605 846.139 674.884 842.586 698.517C840.545 712.094 837.668 725.614 834.819 739.04C833.733 744.157 831.189 749.989 831.26 755.185C832.108 756.155 832.287 756.253 833.513 756.657L834.592 756.074C838.43 750.129 843.314 719.586 845.261 710.554C856.041 742.96 860.356 777.659 865.236 811.351C867.777 828.895 870.924 846.395 873.089 863.985C861.277 876.977 841.647 881.059 825.023 883.072C822.664 870.668 821.936 857.793 820.522 845.246Q815.939 805.15 812.125 764.974L809.134 735.602C808.519 729.576 807.357 723.067 807.884 717.027C808.666 708.077 813.416 696.916 815.358 687.735C820.652 662.703 822.641 636.921 829.753 612.308C831.061 607.781 832.597 603.294 834.803 599.117C835.864 597.107 837.924 594.546 838.581 592.478C838.995 591.177 838.77 590.937 838.132 589.859L837.011 589.64C824.017 596.828 816.821 656.136 814.23 671.516Q812.711 680.369 810.555 689.089C805.893 708.139 799.566 726.587 793.226 745.121C790.518 752.685 787.694 760.271 784.654 767.709C783.02 771.704 780.753 775.914 779.595 780.054C779.067 781.94 778.71 783.707 779.701 785.462L780.651 785.297C787.688 778.275 800.78 737.113 804.285 725.67C807.533 757.745 809.815 789.927 813.41 821.982L818.675 868.353C819.69 876.93 821.257 885.553 821.706 894.177C818.793 897.439 815.501 899.951 811.778 902.226C797.018 911.246 774.825 916.587 757.772 912.393C754.549 902.539 751.771 892.457 748.692 882.546Q735.011 839.86 723.971 796.416Q714.183 755.652 708.238 714.153C703.364 681.437 700.258 648.234 701.579 615.121C702.407 594.398 705.407 573.352 709.808 553.088C717.241 553.551 724.697 553.509 732.141 553.554C732.654 558.266 733.825 563.108 735.346 567.592C741.652 586.182 757.096 601.973 772.472 613.521C775.775 616.002 779.127 618.7 782.876 620.476C784.546 621.268 786.099 621.871 787.873 621.206C787.869 619.704 787.159 618.913 786.08 617.898C783.363 615.344 779.801 613.618 776.718 611.528C769.805 606.842 763.495 601.332 758.209 594.863C770.086 584.574 781.758 574.209 792.903 563.121C798.072 557.979 802.864 552.473 807.989 547.282Z" style="fill: rgb(217, 217, 217);"/>
  <path d="M338.085 73.6621C338.313 73.7203 338.542 73.7746 338.769 73.8367C355.375 78.375 373.446 102.39 381.821 116.584C381.365 118.901 380.745 121.199 380.192 123.495C406.362 134.151 476.124 152.489 490.281 175.675C492.676 179.597 493.205 183.879 492.112 188.323C486.435 211.393 447.931 230.568 428.602 241.753C428.468 244.21 428.304 246.844 427.255 249.113C422.058 260.354 382.462 273.878 370.657 278.338C381.924 318.059 384.44 359.068 390.747 399.695L382.874 405.618C388.032 416.282 392.96 427.048 396.512 438.369C407.203 472.445 411.546 508.582 415.162 544.008C421.102 602.214 423.009 660.574 425.564 718.994Q427.942 772.846 433.111 826.502C434.556 842.927 434.572 878.474 440.689 891.943C445.3 890.585 451.304 888.435 456.05 890.047C457.664 890.596 459.435 891.793 459.966 893.498C460.671 895.762 459.102 898.422 458.209 900.449C461.333 906.83 502.566 910.11 510.819 926.196C512.159 928.808 512.863 932.037 511.873 934.882C510.8 937.967 508.01 939.997 505.167 941.345C484.317 951.229 436.184 942.507 413.857 937.607C407.492 936.209 400.606 934.973 394.501 932.683C394.486 921.759 396.208 911.504 398.223 900.816C395.732 898.407 394.176 896.244 393.044 892.922C390.97 886.835 389.941 880.066 388.591 873.774Q385.195 857.267 380.947 840.959C372.742 810.297 361.88 780.447 355.647 749.26C354.135 741.695 353.145 733.774 353.049 726.054C352.967 719.57 353.56 713.124 352.679 706.666C351.706 699.541 349.736 692.491 348.009 685.52Q343.733 668.199 339.14 650.959C335.841 638.17 333.503 624.598 329.058 612.179C324.184 627.283 320.451 642.8 316.371 658.135Q309.844 682.301 302.49 706.229C299.252 717.708 295.479 729.095 291.967 740.498C279.28 781.682 265.542 822.479 252.186 863.441C247.74 877.077 246.638 892.902 240.602 905.687C237.734 907.803 234.514 908.862 231.197 910.058C243.178 922.499 259.398 930.36 274.129 938.925C280.074 942.382 286.568 945.988 291.551 950.755C296.561 955.549 297.281 961.133 297.476 967.705C285.272 974.634 272.306 976.173 258.445 975.38C251.162 974.964 243.789 974.004 236.734 972.115C225.265 969.045 199.486 958.222 189.502 951.712C186.599 949.819 184.353 947.732 182.052 945.149C181.769 931.369 185.606 918.704 192.725 907.038C191.293 905.923 189.921 904.71 188.526 903.548C187.863 882.796 192.419 861.978 195.058 841.438C199.068 810.23 201.937 778.467 208.877 747.744C212.285 732.654 220.29 717.151 222.132 702.391C223.131 694.385 222.905 686.156 223.004 678.104Q223.233 663.1 223.736 648.102L225.915 584.892C226.575 566.509 227.167 548.154 229.31 529.868C232.124 505.852 237.351 482.066 243.469 458.696C218.694 442.619 192.804 428.151 168.75 410.991C157.887 403.241 139.15 389.403 137.224 375.462C135 359.364 148.996 344.011 158.181 332.331C156.523 329.25 154.337 325.945 154.551 322.32C155.334 309.062 203.078 262.507 214.298 252.833Q225.116 243.588 237.165 236.018Q244.61 231.311 252.644 227.7C258.987 224.883 267.642 222.966 272.945 218.444L272.932 217.749C269.063 214.19 261.842 214.437 256.982 212.286C253.317 210.665 250.43 208.074 247.425 205.491C246.013 206.92 244.543 208.471 242.898 209.628C239.045 212.338 232.593 214.559 227.875 213.571C226.261 213.233 224.903 212.52 223.978 211.12C224.501 207.041 232.49 206.358 234.424 202.445C234.87 196.432 227.406 191.146 224.094 186.547C221.117 182.413 219.38 177.928 220.268 172.783C222.619 159.161 239.436 147.384 250.057 139.869C248.877 132.024 248.58 123.117 250.586 115.366C253.543 103.935 261.533 94.8715 271.652 89.0681C292.032 77.3792 313.608 80.0038 335.327 85.8801C335.683 81.5288 336.403 77.7066 338.085 73.6621Z"/>
  <path fill="#F8F8F7" d="M450.18 893.097C452.12 893.251 453.837 893.326 455.247 894.774C454.904 896.238 454.409 896.446 453.313 897.431C451.535 896.89 448.625 896.217 447.659 894.538C448.409 893.382 448.927 893.487 450.18 893.097Z"/>
  <path d="M196.79 907.082C199.705 907.751 204.878 908.618 206.974 910.741L206.403 911.618Q205.267 911.917 204.118 912.161C202.239 912.546 199.417 912.801 197.847 911.428C196.528 910.274 196.693 908.639 196.79 907.082Z" style="fill: rgb(40, 75, 99);"/>
  <path d="M340.281 346.631C340.956 346.731 341.88 346.811 342.489 347.114C343.693 347.714 344.562 348.966 345.018 350.207C346.059 353.042 345.235 355.834 344.097 358.474L343.195 358.897C342.29 358.791 342.289 358.998 341.81 358.387C339.715 355.718 339.964 349.854 340.281 346.631Z" style="fill: rgb(60, 110, 113);"/>
  <path fill="#F8F8F7" d="M338.73 78.1215C343.574 79.7423 349.295 83.0559 351.725 87.6689C352.697 89.5139 352.499 90.747 351.936 92.6835C348.21 92.6147 343.351 89.079 340.055 87.3398C338.748 84.0313 338.425 81.6877 338.73 78.1215Z"/>
  <path fill="#F8F8F7" d="M357.393 92.478C360.532 94.305 363.297 96.9165 365.739 99.579C372.085 106.496 376.952 113.571 376.52 123.3C373.622 121.221 370.522 111.845 368.279 108.379C366.736 105.993 364.419 103.973 362.446 101.929C359.586 98.9676 357.32 96.8181 357.393 92.478Z"/>
  <path d="M329.529 226.228C331.01 226.452 332.218 226.73 333.62 227.255C335.939 230.301 336.576 236.374 337.36 240.096C344.449 273.73 344.093 307.502 343.908 341.676C341.335 339.54 340.565 319.218 340.282 315.063C338.96 295.668 339.773 274.165 336.863 255.195C335.343 245.283 332.453 235.79 329.529 226.228Z" style="fill: rgb(60, 110, 113);"/>
  <path d="M285.054 233.291C290.194 236.227 297.161 250.663 306.007 256.15C310.734 259.082 318.631 261.695 324.18 260.15C328.492 258.949 330.765 255.446 332.8 251.777C333.363 254.901 333.599 257.894 333.701 261.066Q333.217 262.027 332.668 262.953C330.658 266.277 327.213 268.945 323.37 269.698C317.187 270.91 310.388 267.91 305.333 264.499C294.996 257.523 287.437 245.448 285.054 233.291Z" style="fill: rgb(60, 110, 113);"/>
  <path d="M191.892 891.958C208.897 896.994 223.747 894.869 240.866 892.313C240.174 895.497 239.349 898.661 238.58 901.827C238.446 902.197 237.916 902.885 237.693 903.225C235.665 904.345 233.713 904.766 231.433 905.058C223.699 906.05 198.259 906.838 192.94 901.438C190.85 899.316 191.747 894.724 191.892 891.958Z" style="fill: rgb(40, 75, 99);"/>
  <path d="M431.772 878.591L433.135 878.601C434.995 881.04 435.283 887.105 435.768 890.125C423.969 894.686 412.067 896.05 399.525 895.931L398.304 895.523C396.002 893.282 395.715 886.239 395.239 883.002C407.514 883.211 419.835 881.321 431.772 878.591Z" style="fill: rgb(40, 75, 99);"/>
  <path d="M276.379 222.495L277.174 222.626C280.126 226.525 281.4 233.621 283.141 238.294C284.979 243.224 286.982 248.038 289.461 252.687C299.661 271.819 335.308 323.542 337.74 340.897C337.871 341.836 337.913 342.656 337.318 343.42L336.561 342.437C328.607 328.434 321.514 313.911 313.522 299.915C304.264 283.703 273.889 239.586 272.502 224.582C273.335 223.414 275.085 223.008 276.379 222.495Z" style="fill: rgb(60, 110, 113);"/>
  <path fill="#F8F8F7" d="M399.099 923.237C418.029 929.625 458.392 937.532 478.159 935.621C488.18 934.652 496.968 931.481 506.683 929.453C507.934 929.909 508 929.903 508.718 931.013C508.857 932.482 508.693 933.008 507.948 934.275C507.583 934.485 507.22 934.698 506.848 934.893C484.297 946.696 454.112 940.674 430.191 936.284C419.564 934.334 408.808 932.455 398.446 929.346C398.552 927.308 398.86 925.264 399.099 923.237Z"/>
  <path fill="#F8F8F7" d="M186.886 938.107C209.513 951.9 238.07 965.832 265.108 964.632C274.61 964.21 283.352 961.733 292.544 959.682C293.506 960.471 293.869 961.002 294.041 962.273C294.225 963.63 294.123 964.365 293.343 965.464C286.306 968.723 277.912 970.121 270.231 970.695C246.987 972.431 225.715 964.232 204.957 954.833C198.451 951.887 191.172 948.904 185.723 944.241L186.886 938.107Z"/>
  <path fill="#F8F8F7" d="M303.53 267.754C306.676 269.092 309.784 270.581 313.072 271.54C321.732 274.065 327.713 271.721 335.286 267.623L337.743 324.75L337.897 329.992C332.872 321.267 328.34 312.213 323.396 303.427C316.737 291.595 309.6 279.895 303.53 267.754Z"/>
  <path fill="#F8F8F7" d="M359.766 358.568C360.277 358.513 360.579 358.722 361.041 358.921C364.067 366.403 364.891 382.972 366.223 391.704C354.351 396.251 342.525 400.596 330.137 403.526C326.301 398.557 324.495 375.541 323.301 368.151C335.331 364.347 347.5 361.488 359.766 358.568Z"/>
  <path d="M372.033 148.126C377.455 150.549 383.055 155.355 387.861 158.858Q406.086 172.228 423.96 186.064C417.986 187.818 412.7 190.439 407.19 193.274C394.414 199.273 382.163 203.389 367.983 204.335C368.738 197.264 370.312 190.304 371.109 183.239C372.431 171.514 372.428 159.9 372.033 148.126Z" style="fill: rgb(0, 128, 0);"/>
  <path fill="#F8F8F7" d="M437.304 894.16C438.858 894.905 440.568 895.193 442.121 895.91C443.337 896.472 443.664 897.125 444.102 898.318C443.84 900.075 443.02 901.173 442.011 902.606C440.473 904.791 439.576 906.705 438.662 909.19C442.399 906.544 445.661 903.38 448.749 900.016C451.881 901.239 454.919 902.621 457.969 904.032C453.741 907.05 450.271 910.696 447.239 914.894C452.965 912.951 457.876 910.162 463.068 907.098L468.722 908.354C461.736 912.16 455.426 915.758 450.958 922.53C459.448 920.428 465.647 914.213 473.842 912.056C481.793 914.294 489.324 917.148 496.932 920.346C499.891 921.81 502.557 923.354 505.248 925.268C480.053 935.482 453.269 930.663 427.491 925.779C418.092 923.998 408.356 922.393 399.282 919.301C399.809 912.948 401.477 906.714 403.103 900.57C414.744 899.546 426.261 898.235 437.304 894.16Z"/>
  <path fill="#F8F8F7" d="M226.515 910.266L226.868 910.269C228.991 911.289 230.916 914.107 232.491 915.873C229.551 917.094 223.865 919.121 222.19 921.927L222.805 922.371C225.611 922.551 228.198 921.675 230.883 920.953C229.697 922.15 228.844 923.2 228.013 924.668L228.306 925.45C231.612 925.96 234.053 921.695 237.203 922.039C238.425 922.172 238.961 922.524 239.653 923.484C237.314 927.256 228.873 927.035 226.906 931.926C226.587 932.719 226.873 932.952 227.153 933.69C228.115 933.968 228.821 933.981 229.725 933.491C235.169 930.536 237.741 927.899 244.163 926.167L244.866 925.983L249.989 928.64C244.724 930.355 238.665 931.971 234.059 935.168C232.91 935.966 232.298 936.389 232.041 937.777L232.738 938.781C233.812 939.008 234.224 939.101 235.289 938.673C237.121 937.935 238.741 936.44 240.501 935.5C244.755 933.228 249.531 932.367 254.212 931.46L260.287 935.545C255.527 936.298 250.19 936.573 245.743 938.473C242.683 939.78 237.5 942.186 236.246 945.351L236.781 945.827C241.473 945.956 244.799 943.295 249.009 941.587C252.945 939.99 257.013 939.195 261.15 938.295C261.742 938.174 262.114 938.077 262.74 938.045C267.508 937.794 287.489 952.814 291.417 956.596Q284.819 958.631 277.997 959.697C253.261 963.329 230.912 955.1 208.687 945.379C201.418 942.199 193.828 939.192 187.417 934.448C188.965 927.065 190.218 919.447 193.061 912.434C195.686 914.692 198.333 916.891 202.033 916.56C205.962 916.208 208.14 913.28 210.371 910.411Q218.444 910.454 226.515 910.266Z"/>
  <path d="M237.384 332.833C246.397 340.687 255.471 373.513 257.721 385.919C261.008 404.033 256.139 413.459 246.125 428L227.832 409.005Q209.796 390.822 192.348 372.075C196.124 365.506 201.037 359.47 205.929 353.703C210.737 355.784 215.493 357.689 220.473 359.335C227.022 351.183 231.75 341.616 237.384 332.833Z" style="fill: rgb(0, 128, 0);"/>
  <path fill="#F8F8F7" d="M378.485 127.303C400.024 134.181 478.083 159.649 487.449 178.925C489.072 182.264 488.739 186.14 487.523 189.551C480.837 208.309 450.011 225.27 432.556 233.821L428.544 235.39C428.103 215.729 426.078 208.749 413.638 193.539C430.339 187.361 449.788 198.421 459.032 193.117C459.897 192.621 459.585 192.894 459.909 191.78C459.472 191.256 459.062 190.893 458.423 190.626C450.945 187.513 441.156 189.244 432.714 186.113C420.46 181.568 409.845 171.317 399.571 163.405C390.645 156.531 381.606 149.828 372.793 142.803C374.429 137.624 376.053 132.163 378.485 127.303Z"/>
  <path fill="#F8F8F7" d="M169.627 323.769C175.021 325.148 181.49 335.396 186.029 339.277C191.133 343.64 197.015 347.174 202.686 350.744C198.118 356.975 193.838 363.139 189.999 369.84C187.178 368.091 184.357 366.366 181.372 364.905C178.85 363.671 175.014 361.625 172.279 362.564L172.184 363.336C177.48 369.301 187.906 373.54 194.947 380.144C202.327 387.066 209.053 394.635 215.965 402.015Q231.097 418.223 246.411 434.26C251.402 427.703 256.217 420.621 263.516 416.464C267.513 414.188 277.357 409.453 281.894 410.953C282.86 411.272 282.931 411.283 283.353 412.233C281.47 414.672 265.261 420.57 260.677 423.071C268.314 423.15 275.917 421.732 283.562 421.837C286.256 421.874 290.724 421.764 292.677 423.768L292.66 424.728C289.716 427.248 272.951 426.533 268.707 426.538C268.443 426.653 268.169 426.749 267.914 426.885C266.761 427.499 266.663 427.644 266.364 428.835C270.081 432.748 285.372 428.645 290.839 431.239L290.79 431.866C285.731 435.462 276.93 433.063 271.06 434.93C269.965 435.278 270.346 434.983 269.816 435.976L270.536 436.767C276.624 438.985 285.619 437.379 292.058 436.861C283.892 440.802 276.234 441.624 267.364 442.88C261.321 448.19 253.703 452.253 246.606 455.933C208.29 427.091 165.477 417.182 140.155 372.5C146.797 354.107 158.588 339.566 169.627 323.769Z"/>
  <path fill="#F8F8F7" d="M346.661 108.85C349.241 109.35 352.174 109.717 354.548 110.868C359.987 113.504 362.904 119.259 364.744 124.748C371.193 143.987 370.518 189.258 361.384 207.51C356.303 217.661 346.648 224.8 334.819 222.205C331.614 221.502 323.73 217.073 321.036 217.973C318.182 222.822 329.541 240.815 329.454 248.555C329.428 250.868 328.672 253.015 326.97 254.617C324.762 256.694 321.946 257.661 318.932 257.468C308.969 256.831 300.33 247.027 294.346 240.003C290.22 235.018 286.355 229.957 282.639 224.661Q285.091 222.833 287.261 220.677C296.695 211.315 296.4 195.906 296.452 183.601C290.191 183.514 284.384 181.3 279.976 176.752C276.661 173.334 274.373 168.598 274.567 163.764C274.728 159.759 276.813 155.633 279.813 152.988C281.272 151.703 282.989 151.015 284.945 151.231C291.001 151.899 294.139 158.968 297.428 163.155C299.384 165.644 302.114 167.29 305.288 167.57C318.096 168.696 328.262 151.832 335.661 143.865C338.356 140.964 341.874 138.529 344.897 135.951L341.515 132.191C343.449 124.571 345.853 116.683 346.661 108.85Z"/>
  <path d="M358.932 132.69C360.897 133.366 363.279 134.318 364.19 136.346C364.924 137.982 364.328 139.449 363.736 140.988Q362.08 140.655 360.504 140.047C358.862 139.405 358.27 138.636 357.565 137.064C357.545 135.316 358.149 134.225 358.932 132.69Z"/>
  <path d="M336.089 153.192C337.655 154.173 338.534 155.487 339.12 157.218C340.545 161.427 339.099 165.259 337.15 168.961C335.979 168.301 335.019 167.525 334.465 166.264C332.747 162.361 334.8 157.017 336.089 153.192Z"/>
  <path d="M282.412 157.145C285.056 157.493 287.012 158.363 289.024 160.143C292.555 163.267 294.312 167.783 294.569 172.418C293.662 172.303 293.708 172.359 292.885 172.073C287.903 170.343 284.304 161.657 282.412 157.145Z"/>
  <path d="M354.721 148.266C355.021 148.444 355.316 148.592 355.558 148.856C358.019 151.549 356.811 157.777 358.154 161.235C359.233 164.013 363.858 167.639 363.571 170.468L363.498 171.184C361.655 173.884 358.382 174.505 355.433 175.464C354.027 175.339 353.415 175.416 352.243 174.588L352.611 173.576C354.642 171.836 356.914 170.86 359.317 169.748C355.675 162.372 353.248 156.667 354.721 148.266Z"/>
  <path d="M329.681 185.019C334.522 186.142 339.361 187.424 344.341 187.677C348.504 187.889 356.231 185.972 359.421 188.282C359.573 188.769 359.729 189.158 359.72 189.691C359.676 192.531 356.183 196.119 354.401 198.208C354.09 198.461 353.78 198.717 353.466 198.967C349.565 202.068 344.702 204.061 339.643 203.346C336.212 202.861 333.128 201.077 331.185 198.181C328.4 194.03 328.852 189.652 329.681 185.019Z"/>
  <path fill="#F8F8F7" d="M331.643 188.841C339.255 190.708 346.889 191.422 354.706 191.482C353.5 193.124 352.201 194.71 350.947 196.316C348.754 197.861 346.6 198.929 343.946 199.441C341.211 199.97 338.388 199.691 336.068 198.048C332.809 195.74 332.151 192.537 331.643 188.841Z"/>
  <path d="M253.892 141.388C253.475 135.383 253.261 129.245 253.865 123.248C254.931 112.678 258.907 103.693 267.305 96.9605C279.649 87.0644 299.037 83.0262 314.541 84.7203C328.041 86.1956 349.349 93.5666 358.072 104.557C365.292 110.946 370.082 119.489 373.96 128.177C373.243 131.248 372.347 134.154 371.282 137.122C369.908 127.003 367.544 116.581 359.026 109.926C357.744 108.924 356.354 108.061 354.961 107.225C351.279 106.596 347.353 104.886 343.646 103.964C341.67 113.46 339.649 123.007 336.317 132.139C330.324 148.567 319.95 157.079 304.517 164.297C301.643 161.439 299.106 158.416 296.8 155.086C319.494 138.741 324.593 129.741 333.917 103.459C319.673 121.664 316.582 140.735 294.001 152.004C292.588 150.662 290.997 149.456 289.204 148.675C286.011 147.285 282.514 147.062 279.3 148.512C275.698 150.137 273.14 153.542 271.819 157.189Q271.636 157.695 271.479 158.209Q271.321 158.724 271.19 159.245Q271.058 159.767 270.953 160.295Q270.847 160.822 270.768 161.354Q270.689 161.886 270.637 162.422Q270.585 162.957 270.559 163.495Q270.533 164.032 270.535 164.57Q270.536 165.108 270.564 165.645Q270.592 166.182 270.647 166.718Q270.701 167.253 270.783 167.785Q270.864 168.316 270.972 168.843Q271.079 169.37 271.213 169.891Q271.347 170.413 271.507 170.926Q271.666 171.44 271.852 171.945Q272.037 172.45 272.247 172.946Q272.457 173.441 272.691 173.925C276.579 181.862 283.682 184.906 291.486 187.744C291.762 191.955 292.425 199.515 290.266 203.308C289.591 204.493 289.376 204.582 288.154 204.885C285.877 203.727 283.836 199.204 282.292 196.942C282.179 199.387 282.098 201.866 281.81 204.297C281.486 207.034 280.701 210.359 278.481 212.141C271.034 212.642 267.227 186.548 261.245 183.562C260.473 183.177 260.376 183.413 259.645 183.68C259.41 184.111 259.254 184.322 259.18 184.856C258.378 190.67 269.044 206.985 272.322 212.402C266.485 211.745 260.301 210.042 255.61 206.378C246.02 198.886 246.958 187.081 245.355 176.358C245.102 174.664 244.89 171.753 243.485 170.725C243.109 171.172 243.022 171.229 242.736 171.839C238.877 180.066 242.719 190.486 245.928 198.166C242.308 203.09 239.264 207.16 234.133 210.655C245.674 191.618 223.239 190.419 224.338 175.302C225.213 163.265 244.986 148.974 253.892 141.388Z" style="fill: rgb(60, 110, 113);"/>
  <path fill="#F8F8F7" d="M409.336 196.471C411.402 196.711 413.118 198.632 414.436 200.115C425.545 212.608 424.675 233.31 423.756 248.894C417.922 253.318 410.741 256.734 404.001 259.538C407.148 250.571 409.698 241.225 409.666 231.644C409.649 226.477 408.417 213.799 404.253 210.434C403.203 209.585 402.308 209.649 401.047 209.803L400.561 210.553C401.253 214.035 403.921 217.118 405.153 220.507C409.827 233.361 403.88 250.347 398.611 262.152C390.045 267.481 378.976 271.169 369.278 273.969C368.34 271.412 367.72 268.904 367.142 266.249C369.184 263.389 371.217 260.223 372.094 256.777C372.445 255.402 372.499 254.763 371.809 253.531C369.267 253.598 367.806 260.289 361.625 262.601L360.961 262.843C364.573 276.011 369.289 288.794 372.206 302.167C375.553 317.517 377.143 333.195 379.248 348.745C381.465 365.117 384.085 381.428 386.228 397.814C357.646 417.926 333.589 424.497 299.086 424.502C298.588 423.88 298.635 423.916 298.002 423.249C293.807 418.822 287.339 419.409 281.737 419.231C283.643 417.722 287.192 415.413 287.912 412.959C288.16 412.113 288.15 411.303 287.79 410.511C287.015 408.807 285.587 407.641 283.808 407.089C277.08 405.003 267.68 410.49 261.773 413.475C264.513 388.669 259.794 370.764 249.854 348.151C246.862 341.344 243.852 334.485 240.245 327.977C246.753 317.958 254.147 308.826 258.491 297.538C246.325 304.709 226.432 340.992 217.814 354.787C198.474 347.635 183.696 331.931 170.283 316.865C167.59 319.493 165.264 322.442 162.886 325.351L161.7 326.561C160.053 326.395 159.299 325.124 158.137 323.986C161.259 315.735 166.902 309.45 172.456 302.744C189.119 316.342 195.386 332.712 217.72 341.587C211.856 334.979 203.74 330.781 197.192 324.875C188.915 317.411 181.944 308.604 173.543 301.252C178.393 294.366 184.302 288.079 190.126 282.01Q194.294 277.597 198.661 273.381Q203.027 269.164 207.583 265.152Q212.138 261.14 216.873 257.342Q221.608 253.544 226.512 249.967Q231.416 246.39 236.48 243.042Q241.543 239.694 246.755 236.582Q251.966 233.47 257.316 230.601Q262.665 227.732 268.14 225.111C274.255 242.88 284.974 258.479 294.326 274.618Q309.485 300.859 323.694 327.625C331.1 341.481 335.134 343.745 338.097 359.984C331.509 361.195 325.507 363.179 319.261 365.524C322.086 379.633 322.719 393.697 326.572 407.674C341.835 406.656 356.074 400.392 369.703 393.889C367.488 380.097 366.113 366.15 364.305 352.298C359.566 353.947 354.697 355.23 349.87 356.597C348.68 347.176 347.649 337.804 347.589 328.296C347.509 315.583 348.518 302.912 348.023 290.188C347.197 268.926 342.756 248.15 337.825 227.518C352.353 225.311 356.545 220.29 365.318 209.449C381.118 207.303 394.861 202.995 409.336 196.471Z"/>
  <path d="M184.295 297.348C185.577 297.805 186.614 298.415 187.695 299.24C193.881 303.96 199.425 309.602 205.327 314.673C210.876 319.44 217.868 323.595 222.308 329.452C219.712 329.415 217.993 329.023 215.663 327.851C206.243 323.115 187.643 307.577 184.295 297.348Z"/>
  <path d="M379.784 408.506C385.493 414.965 388.258 425.425 390.916 433.542C400.475 462.745 404.701 493.49 408.475 523.887Q416.294 586.351 419.133 649.238C420.416 677.597 420.46 706.032 421.986 734.385C423.356 759.822 425.759 785.247 427.762 810.642C429.475 832.359 430.541 854.191 434.056 875.714C421.058 878.157 408.346 880.425 395.161 881.635Q386.352 847.468 376.626 813.551C370.141 790.51 363.356 767.439 359.141 743.849C357.894 736.869 356.428 729.23 356.466 722.141C356.488 717.964 357.801 714.096 359.02 710.152C352.516 698.425 349.528 677.172 346.636 663.94C342.401 644.567 337.987 624.455 331.243 605.797C334.201 594.614 336.276 582.819 340.106 571.926C342.61 598.268 350.44 626.5 355.571 652.654C357.628 663.138 365.583 713.973 369.359 720.206C369.792 720.92 370.045 720.768 370.794 720.918C371.516 720.054 371.403 720.438 371.542 719.4C372.195 714.499 367.311 699.34 366.149 693.586C360.935 667.76 356.578 641.763 351.237 615.957C348.107 600.831 342.266 584.89 341.952 569.407C341.743 559.137 345.121 546.518 348.576 536.854C353.032 524.39 362.486 517.975 370.899 508.422C376.481 502.085 380.434 495.5 383.893 487.82C378.299 493.266 373.475 499.558 368.226 505.342C361.682 512.553 352.305 519.696 347.826 528.358C342.875 537.932 341.363 550.37 338.781 560.797Q333.314 582.076 327.55 603.277C309.914 666.566 292.042 729.649 271.462 792.057C260.752 824.067 248.952 856.29 241.408 889.214C225.187 891.464 208.07 893.581 192.231 888.104C192.799 873.043 196.911 854.396 199.105 839.084C203.657 807.323 206.796 775.446 213.951 744.103C216.275 733.92 218.763 723.564 222.497 713.793L226.449 710.905C226.614 700.168 225.957 689.441 226.161 678.699Q227.283 639.16 229.134 599.649C230.139 572.404 230.991 544.949 234.899 517.939C237.817 497.775 242.651 477.953 247.821 458.267C254.491 455.475 260.816 452.114 267.122 448.6C257.163 475.011 253.02 503.253 249.485 531.114Q244.424 570.464 241.65 610.042C240.467 629.266 240.231 648.529 239.293 667.763C238.559 682.842 235.842 697.603 236.059 712.765Q235.096 714.334 234.21 715.948C229.322 724.871 226.431 735.51 223.881 745.346C214.881 780.054 211.538 815.56 207.222 851.054C206.285 858.766 202.453 880.005 204.293 886.308L204.934 886.503C208.27 881.797 210.14 856.701 210.886 849.463C214.194 817.362 221.136 738 239.755 715.273C238.108 698.798 241.61 683.468 242.408 667.124C243.351 647.828 243.665 628.491 244.87 609.209Q247.58 570.476 252.495 531.961C256.236 502.681 260.294 472.855 272.408 445.665C279.663 444.295 286.868 443.734 293.834 441.087C296.198 437.435 297.364 433.504 298.477 429.339C325.21 429.506 357.255 423.501 379.784 408.506Z" style="fill: rgb(40, 75, 99);"/>
  <path d="M287.581 456.282C288.151 456.76 288.515 457.195 288.925 457.832C289.864 459.291 289.823 461.192 289.469 462.829C287.294 472.886 271.899 487.512 263.798 493.061C262.973 492.885 263.329 493.095 262.774 492.363C264.768 487.078 273.269 480.347 277.042 475.673C281.813 469.762 284.952 463.368 287.581 456.282Z"/>
  <path d="M368.458 722.766C369.334 723.777 369.333 724.132 369.514 725.473C370.18 730.409 370.357 735.486 370.886 740.457Q372.816 760.404 376.047 780.182Q380.059 803.93 385.719 827.34C388.598 839.003 394.234 855.289 394.609 867.04C394.654 868.457 394.901 869.386 393.901 870.429C392.618 868.032 391.777 865.196 391.012 862.594C387.092 849.265 384.648 835.418 381.709 821.842C378.185 805.56 361.349 735.854 368.458 722.766Z"/>
  <path d="M 363.54 152.698 C 364.51 153.306 365.055 154.12 365.418 155.193 C 366.301 157.801 365.405 160.175 364.197 162.469 C 363.472 162.06 362.877 161.579 362.534 160.798 C 361.469 158.379 362.741 155.068 363.54 152.698 Z" style=""/>
</svg>