<?xml version="1.0" encoding="utf-8" ?>
<svg xmlns="http://www.w3.org/2000/svg" xmlns:xlink="http://www.w3.org/1999/xlink" width="1024" height="1024">
	<path fill="#F6F6F5" d="M0 0L1024 0L1024 1024L943.103 1024L935.341 1024L925.284 1024L917.984 1024L900.129 1024L892.762 1024L716.915 1024L708.287 1024L587.588 1024L573.409 1024L388.742 1024L372.888 1024L323.953 1024L306.941 1024L0 1024L0 796.344L0 787.801L0 0Z"/>
	<path fill="#554544" d="M528.528 508.151C530.515 509.217 531.727 513.146 532.742 515.257C538.384 516.555 551.29 518.327 554.403 523.92C555.087 525.15 554.828 525.593 554.311 526.734C548.894 526.012 537.826 522.574 532.939 520.127C530.619 518.965 528.378 517.054 527.621 514.489C526.906 512.07 527.424 510.334 528.528 508.151Z"/>
	<path fill="#554544" d="M560.447 614.162C561.476 613.998 562.26 614.03 563.296 614.068C564.436 614.771 565.094 615.255 565.918 616.349C565.854 617.096 566.012 617.324 565.39 617.856C560.671 621.895 542.022 622.029 535.49 621.972C534.125 621.809 532.456 621.775 531.247 621.074C530.463 620.62 530.731 620.872 530.449 619.915C532.712 617.723 555.789 615.019 560.447 614.162Z"/>
	<path fill="#554544" d="M537.714 527.196C542.246 528.264 552.784 531.889 556.12 534.93C556.275 536.145 556.443 536.246 555.893 537.408L554.442 537.295C553.269 541.976 555.294 547.695 553.415 554.305C553.063 554.912 552.693 555.466 552.226 555.993C551.111 557.248 549.875 558.359 548.098 558.386C546.896 558.405 545.786 557.523 545.04 556.65C539.228 549.845 536.951 535.868 537.714 527.196Z"/>
	<path fill="#554544" d="M658.239 531.098C658.798 531.117 659.348 531.148 659.904 531.214C663.651 531.66 666.313 534.031 668.509 536.959C670.694 539.873 673.056 544.452 672.348 548.221C672.063 549.734 671.365 550.842 670.124 551.744C667.481 551.055 666.172 539.431 662.584 536.465C661.416 535.5 660.01 535.02 658.487 535.205C653.399 535.822 649.03 541.466 645.918 545.11L646.792 545.624C648.959 546.878 650.951 547.993 652.653 549.885C656.981 554.696 659.018 561.338 658.439 567.764C658.1 571.528 656.667 575.219 653.582 577.562C649.566 580.613 644.602 580.169 639.916 579.512C639.346 579.082 638.718 578.651 638.273 578.079C637.429 576.996 636.779 575.574 636.904 574.194C638.776 572.814 645.448 576.288 647.994 576.505C649.717 576.651 651.881 576.478 653.129 575.131C654.068 574.117 654.351 572.687 654.382 571.351C654.582 562.741 650.197 555.718 644.45 549.766C643.547 551.462 642.655 553.226 642.062 555.058C640.877 558.713 640.531 565.826 637.681 568.363L636.99 568.136C636.462 567.467 635.94 566.842 635.679 566.015C634.073 560.913 637.434 551.213 639.875 546.561C643.825 539.032 650.12 533.65 658.239 531.098Z"/>
	<path fill="#554544" d="M487.883 567.033C488.709 569.41 489.629 571.514 491.087 573.586C493.966 577.679 503.763 586.274 503.078 591.298C502.107 591.789 501.944 591.824 500.844 591.476C494.402 589.439 484.414 577.796 481.598 571.733C480.559 569.495 479.89 566.859 480.919 564.491C482.245 561.441 486.109 559.854 489.039 558.838C495.863 556.471 504.949 554.889 508.469 547.797C512.382 539.913 510.048 529.108 507.18 521.266C503.374 510.862 496.303 505.372 489.266 497.336C476.555 482.822 471.071 466.636 479.343 448.434C482.887 440.635 489.296 433.614 495.315 427.629C519.15 403.929 550.094 386.355 581.526 374.884C617.325 361.821 655.417 359.028 690.77 375.439C721.472 389.691 744.901 418.156 756.317 449.708C762.57 466.99 765.25 484.93 765.431 503.241C765.631 523.577 760.018 545.418 769.05 564.61C774.292 575.75 782.96 582.252 789.417 591.916C793.39 590.964 802.232 587.83 805.729 589.733C806.478 591.199 806.485 592.01 805.944 593.579C803.021 602.068 795.736 608.997 787.68 612.585C785.382 613.608 783.028 614.4 780.628 615.144C778.242 621.889 773.796 625.311 767.723 628.544C775.807 639.916 781.566 651.754 779.057 666.065C778.647 668.404 777.923 670.763 777.182 673.016C810.628 699.925 843.838 763.515 859.389 803.396C864.273 815.921 868.109 828.887 871.73 841.826C872.9 826.252 877.021 811.157 878.815 795.704C867.849 792.454 858.841 787.974 853.227 777.544C847.944 767.729 847.827 755.124 851.098 744.625Q851.381 743.721 851.707 742.831Q852.034 741.942 852.404 741.069Q852.775 740.197 853.187 739.344Q853.6 738.491 854.054 737.659Q854.508 736.828 855.003 736.019Q855.498 735.211 856.031 734.428Q856.565 733.645 857.137 732.89Q857.709 732.134 858.317 731.407Q858.926 730.681 859.569 729.985Q860.212 729.289 860.889 728.626Q861.566 727.963 862.274 727.334Q862.983 726.705 863.722 726.111Q864.461 725.518 865.228 724.962Q865.995 724.405 866.789 723.887Q867.582 723.37 868.4 722.891Q869.218 722.413 870.059 721.976C887.508 713.06 908.526 716.397 926.306 722.375C954.72 731.928 982.072 752.71 995.531 779.868C1003.9 796.764 1008.21 819.573 1002.01 837.854C999.975 843.861 996.382 849.49 990.434 852.222C984.566 854.916 977.079 854.533 971.144 852.151Q969.804 851.607 968.493 850.998C964.389 874.566 961.907 898.409 958.478 922.083L943.103 1024L935.341 1024L925.284 1024L917.984 1024L900.129 1024L892.762 1024L716.915 1024L708.287 1024L587.588 1024L573.409 1024L388.742 1024L372.888 1024L323.953 1024L306.941 1024L0 1024L0 796.344L0 787.801C19.5354 783.356 38.7543 775.627 57.6887 769.115C70.6817 764.647 89.5823 759.56 101.087 752.769C91.8233 745.334 52.3884 718.924 48.1054 711.739C46.2286 708.591 45.9396 701.971 45.5391 698.327L27.0006 517.188C24.2785 489 19.0487 458.477 19.4836 430.423C49.6223 419.514 74.3425 431.291 101.439 444.009C154.779 469.044 208.407 493.372 261.268 519.435L290.669 533.938C300.287 538.684 310.202 543.216 318.764 549.755C325.041 570.425 324.138 592.657 325.757 614.041Q330.534 670.159 334.587 726.334L337.403 763.85C337.875 770.187 338.023 776.774 338.969 783.043C358.13 790.911 377.497 798.048 396.776 805.592Q479.625 838.205 563.231 868.826C563.69 839.331 566.534 813.652 572.6 784.675C575.441 771.102 580.157 757.549 581.887 743.807C572.235 725.54 573.864 708.754 579.813 689.543C583.658 677.124 588.974 666.341 595.682 655.247C583.47 660.842 563.891 671.987 550.339 666.689C532.198 659.597 511.357 619.943 504.193 602.526C503.091 599.847 501.68 596.271 503.281 593.476C503.607 592.906 503.688 592.884 504.113 592.51L504.893 592.691C506.127 595.051 506.676 597.847 507.57 600.359C508.532 603.063 509.904 605.624 511.278 608.137C517.452 619.432 542.409 655.569 553.935 659.155C562.075 661.687 588.414 651.171 595.902 646.863C603.132 642.703 610.167 637.15 615.243 630.479C617.607 627.372 620.182 622.205 623.336 620.033C624.11 620.798 624.277 620.932 624.2 622.117C623.808 628.095 617.443 636.221 613.864 640.76C621.851 652.455 627.769 664.51 631.12 678.341C642.176 669.744 650.979 659.071 660.286 648.706C664.857 643.616 669.391 638.177 674.88 634.047C666.797 626.92 660.272 619.389 655.24 609.791C652.955 605.434 651.033 600.866 648.581 596.603C641.924 596.104 636.198 594.422 631.603 589.251C631.154 588.746 630.829 588.219 630.482 587.643L630.702 586.593C634.676 585.28 642.766 589.357 647.234 589.925C647.522 589.961 647.81 590.007 648.098 590.039C654.145 590.719 662.306 586.302 666.845 582.512C674.835 575.841 681.1 564.441 682.035 554.03C682.713 546.486 680.778 537.79 675.695 532.023C671.456 527.212 664.866 524.254 658.475 523.97C652.398 523.7 645.175 525.718 640.698 529.942C636.562 533.845 633.99 539.149 630.246 543.4C624.202 538.382 616.864 540.279 609.724 538.383C588.702 532.799 578.265 524.086 563.086 509.621C556.859 503.687 550.938 497.995 545.616 491.17C540.684 492.222 531.572 495.44 527.038 494.493L526.401 493.833C526.678 492.077 528.803 490.515 530.15 489.504C533.217 487.203 536.938 486.158 540.542 485.013C530.834 473.784 522.815 448.938 522.381 434.316C507.7 458.529 503.367 479.34 510.172 507.386C513.389 520.645 522.12 538.548 513.855 551.627C508.585 559.966 496.589 563.526 487.883 567.033Z"/>
	<path fill="#F6F6F5" d="M898.978 1010.33C904.686 1015.76 911.285 1019.91 917.984 1024L900.129 1024C899.293 1019.53 899.055 1014.87 898.978 1010.33Z"/>
	<path fill="#F6F6F5" d="M528.603 409.004L526.846 412.386C521.745 413.897 517.542 418.391 513.557 421.76C503.756 430.046 494.405 436.825 488.084 448.467C485.543 453.147 482.89 459.622 482.954 465.007C483.004 469.296 487.047 478.372 485.325 481.882C481.12 474.748 479.52 466.209 481.591 458.129C486.715 438.143 511.357 419.198 528.603 409.004Z"/>
	<path fill="#C5C4C3" d="M121.613 673.489C130.708 675.931 157.474 689.601 165.156 695.236C164.428 696.435 162.898 696.761 161.628 697.325C161.352 697.395 161.082 697.503 160.799 697.537C155.669 698.15 123.495 679.675 117.706 676.029L121.613 673.489Z"/>
	<path fill="#F6F6F5" d="M341.449 819.332Q354.224 824.824 366.942 830.448C364.298 832.192 361.341 833.575 358.531 835.041C353.641 837.732 348.791 840.549 343.671 842.784C342.419 835.083 341.885 827.121 341.449 819.332Z"/>
	<path fill="#F6F6F5" d="M758.364 631.678C759.086 631.493 759.993 631.508 760.744 631.438C762.022 631.927 762.867 632.499 763.815 633.502C769.752 639.785 771.928 652.069 771.686 660.431C771.392 670.556 766.977 677.147 759.835 683.921L758.707 684.383C756.416 683.582 756.935 679.335 757.097 677.296C758.39 660.999 756.442 647.033 747.491 633.167L758.364 631.678Z"/>
	<path fill="#F6F6F5" d="M372.509 833.995C380.138 834.245 398.966 843.46 406.312 847.466C401.243 851.524 392.31 857.667 385.629 857.579C373.238 854.731 361.848 850.622 350.589 844.658C357.746 840.702 364.941 837.104 372.509 833.995Z"/>
	<path fill="#F6F6F5" d="M411.108 849.959C417.876 850.044 445.157 863.685 452.636 867.121L435.145 877.06C421.105 871.767 407.314 865.825 393.288 860.48C399.126 856.811 405.142 853.416 411.108 849.959Z"/>
	<path fill="#F6F6F5" d="M387.806 864.974C394.594 865.392 424.228 876.43 432.027 879.376C425.038 883.542 417.82 887.403 410.73 891.404L407.595 893.12C395.042 886.069 381.98 880.205 368.778 874.504C374.748 870.798 381.464 867.983 387.806 864.974Z"/>
	<path fill="#C5C4C3" d="M498.614 889.419L499.334 889.811C500.06 892.291 499.948 894.859 499.987 897.423C484.493 907.909 468.268 917.658 452 926.891C440.204 933.586 428.509 940.422 415.68 944.981C414.05 943.117 414.083 935.974 413.862 933.314C442.484 925.449 473.504 905.361 498.614 889.419Z"/>
	<path fill="#F6F6F5" d="M599.952 926.042L600.377 926.588C602.114 939.317 586.47 1005.75 581.125 1019.7L580.66 1019.43C579.139 1011.35 582.152 994.417 582.55 985.132C583.28 968.119 583.152 951.01 583.472 933.981C588.82 930.97 594.202 928.206 599.952 926.042Z"/>
	<path fill="#C5C4C3" d="M889.77 783.571C894.187 784.236 898.515 784.978 902.866 785.999C899.896 795.344 896.561 804.6 894.156 814.114C889.263 833.472 886.467 853.424 883.271 873.119Q882.671 877.458 882.169 881.809C880.309 873.79 877.294 865.344 876.898 857.112C876.288 844.452 884.36 793.524 889.77 783.571Z"/>
	<path fill="#F6F6F5" d="M609.757 650.826C612.126 651.681 613.865 655.869 615.085 658.018C610.038 666.459 605.028 674.84 602.009 684.269C600.023 690.47 598.458 696.845 597.074 703.204C595.419 710.81 591.825 735.459 588.553 740.223C583.78 732.956 582.184 723.062 582.583 714.517C583.662 691.41 592.494 666.725 609.757 650.826Z"/>
	<path fill="#C5C4C3" d="M65.1123 888.263C69.2187 890.314 74.0351 898.718 77.3336 902.455C87.4249 913.887 102.995 922.082 117.302 926.84C153.398 938.846 198.846 929.294 232.073 911.808C239.946 907.665 246.319 900.847 254.19 897.052C254.389 896.956 254.591 896.868 254.792 896.776C254.08 898.395 253.254 899.902 252.379 901.437C238.99 918.416 217.566 926.691 197.283 932.258C165.076 941.098 128.524 942.403 98.7387 925.27C85.1323 917.443 69.3862 904.058 65.1123 888.263Z"/>
	<path fill="#F6F6F5" d="M532.667 458.164C532.286 457.511 531.94 456.888 531.625 456.199C526.237 444.38 524.964 427.492 529.514 415.228C534.683 401.299 548.845 395.359 561.455 389.625C599.424 372.361 640.715 363.119 681.206 378.495C709.736 389.329 732.418 414.599 744.818 442.009C744.584 441.882 744.345 441.766 744.117 441.629C742.326 440.555 732.094 424.984 729.646 422.009C721.272 411.833 711.393 401.018 700.409 393.702C673.209 375.584 635.834 374.869 604.647 380.628C584.916 384.272 547.08 393.07 535.39 410.123C528.239 420.555 529.047 433.627 531.162 445.535C531.871 449.522 533.106 454.106 532.667 458.164Z"/>
	<path fill="#F6F6F5" d="M633.886 686.593C633.992 686.679 634.108 686.755 634.206 686.851C642.599 695.108 641.425 741.316 641.229 754.416C636.587 756.998 631.983 759.609 627.147 761.815C615.792 740.841 619.275 718.354 620.995 695.606C625.483 692.839 629.666 689.745 633.886 686.593Z"/>
	<path fill="#C5C4C3" d="M485.325 481.882C487.047 478.372 483.004 469.296 482.954 465.007C482.89 459.622 485.543 453.147 488.084 448.467C494.405 436.825 503.756 430.046 513.557 421.76C517.542 418.391 521.745 413.897 526.846 412.386C524.86 417.394 523.619 422.135 522.82 427.456C507.346 445.421 499.82 466.917 501.661 490.646C502.034 495.45 502.86 500.183 503.822 504.9C496.988 497.622 490.156 490.708 485.325 481.882Z"/>
	<path fill="#C5C4C3" d="M587.255 752.265C592.224 755.71 596.251 760.901 600.49 765.195C588.236 801.414 583.947 836.389 581.195 874.379L580.892 875.035C578.409 875.652 571.578 871.856 568.956 870.681C570.708 856.238 571.254 841.644 573.276 827.232C576.802 802.104 582.258 777.14 587.255 752.265Z"/>
	<path fill="#F6F6F5" d="M740.591 633.937C742.64 634.117 744.392 635.66 745.741 637.117C755.641 647.816 753.797 674.148 753.563 688.087C746.155 692.193 738.882 699.864 730.554 701.791C729.785 700.888 730.013 700.019 729.974 698.865C733.073 675.414 725.67 661.336 712.265 643.247C722.308 641.543 731.336 638.019 740.591 633.937Z"/>
	<path fill="#F6F6F5" d="M591.672 745.284C597.813 720.58 601.084 695.7 611.079 672.033C612.09 669.64 613.28 665.435 615.654 664.095C616.41 663.669 616.799 663.965 617.586 664.145C621.065 667.356 622.517 673.304 623.902 677.737C623.373 678.97 622.471 679.094 621.309 679.678C619.074 680.38 617.354 681.874 616.247 683.934C614.6 686.999 614.054 690.558 613.438 693.946C616.136 689.145 618.691 683.19 623.951 680.798C624.964 682.018 625.489 682.856 626.026 684.346C625.743 690.364 615.708 690.891 612.923 695.117L613.144 696.088C614.521 697.323 616.383 697.39 618.142 697.668C615.654 710.975 613.346 726.814 615.745 740.188C616.596 744.932 623.253 759.944 622.666 762.983C621.075 764.242 618.412 764.585 616.431 764.346C606.607 763.158 597.612 752.435 591.672 745.284Z"/>
	<path fill="#F6F6F5" d="M653.592 667.015C653.88 667.306 654.167 667.6 654.439 667.908C671.989 687.708 668.777 713.48 667.441 737.971Q658.068 743.06 649.287 749.112L645.534 751.871C645.55 734.386 645.843 697.378 636.642 683.179C642.612 678.211 648.078 672.474 653.592 667.015Z"/>
	<path fill="#C5C4C3" d="M954.011 838.022C957.201 841.546 960.242 845.33 963.588 848.694C962.83 854.758 961.243 860.774 960.034 866.77C958.65 873.635 957.588 880.574 956.5 887.491L935.341 1024L925.284 1024C931.935 985.406 937.321 946.646 943.186 907.928C946.714 884.632 951.059 861.394 954.011 838.022Z"/>
	<path fill="#F6F6F5" d="M679.717 637.27C689.558 641.079 698.695 643.238 709.275 643.484C725.638 665.001 727.326 677.892 726.055 704.447C722.517 706.128 719.069 708.122 715.604 709.958C710.909 712.436 706.233 714.937 701.416 717.173C702.276 705.237 703.517 693.419 700.929 681.582C697.536 666.068 688.768 651.866 675.279 643.239C676.642 641.177 678.219 639.236 679.717 637.27Z"/>
	<path fill="#C5C4C3" d="M926.453 800.98C930.612 804.414 933.702 808.645 936.669 813.103C933.84 827.167 930.277 841.045 927.401 855.08C922.527 878.875 918.549 902.886 914.049 926.754C909.667 949.992 904.546 973.038 900.668 996.38C900.056 998.984 899.829 1001.84 899.425 1004.49C898.422 992.947 896.227 981.588 897.099 969.931C897.778 960.846 900.287 951.922 901.592 942.907C903.026 933.003 903.834 923.023 905.446 913.139C909.509 888.229 914.805 863.434 919.342 838.597C921.012 829.457 923.106 808.336 926.453 800.98Z"/>
	<path fill="#F6F6F5" d="M673.017 645.888C678.464 648.965 683.227 654.15 686.909 659.127C700.277 677.194 699.76 699.399 696.543 720.627C690.175 723.539 684.202 727.552 678.238 731.203L672.342 734.579C672.623 727.798 673.014 720.983 672.835 714.195C672.365 696.338 669.775 677 656.186 664.097Q664.33 654.741 673.017 645.888Z"/>
	<path fill="#C5C4C3" d="M221.389 834.612C229.091 838.368 236.298 843.686 243.55 848.262Q259.849 858.397 276.283 868.31C283.599 872.744 291.133 877.727 299.305 880.394C302.944 881.581 305.889 881.897 309.704 881.383C323.692 892.031 340.498 899.551 356.156 907.388C374.071 916.355 392.408 926.056 411.393 932.508C411.267 936.421 412.613 940.732 411.896 944.493C376.516 930.281 342.736 911.724 308.85 894.322C288.065 883.648 233.181 857.818 219.6 842.329C220.109 839.747 220.786 837.174 221.389 834.612Z"/>
	<path fill="#F6F6F5" d="M908.447 789.173C912.812 791.015 916.873 793.907 920.832 796.493C915.041 822.862 911.195 849.95 906.644 876.571C902.887 898.546 898.305 920.331 895.009 942.389C894.921 943.328 894.729 943.942 894.328 944.795L893.595 944.152C891.692 938.623 891.518 932.029 890.584 926.224C888.964 916.157 885.851 906.284 886.094 895.979C886.398 883.098 890.105 869.626 892.625 857.012C896.834 835.942 901.417 808.899 908.447 789.173Z"/>
	<path fill="#F6F6F5" d="M941.52 820.427C944.624 823.191 947.217 827.328 949.737 830.651C945.331 846.772 943.726 868.207 940.973 885.119L919.883 1017.35L916.757 1015.28C912.987 1012.5 909.378 1009.73 905.887 1006.6C908.516 995.025 909.569 982.956 911.841 971.281C917.918 940.044 924.536 908.838 930.114 877.509C933.351 859.332 934.854 837.541 941.52 820.427Z"/>
	<path fill="#F6F6F5" d="M644.236 760.438L644.856 760.73C643.797 764.905 639.724 769.42 637.66 773.336C634.48 779.369 631.816 785.822 629.344 792.173Q626.097 800.559 623.273 809.096Q620.448 817.634 618.052 826.301Q615.656 834.969 613.694 843.745Q611.733 852.521 610.211 861.384C608.807 869.502 608.01 877.686 606.778 885.826Q599.523 883.193 592.374 880.287C590.718 879.612 589.093 878.833 587.46 878.104C589.059 859.597 592.105 841.412 595.118 823.102C598.128 804.815 601.08 786.413 605.772 768.471C607.708 769.431 609.789 770.388 611.893 770.911C623.671 773.839 634.743 766.322 644.236 760.438Z"/>
	<path fill="#F6F6F5" d="M344.477 846.516C349.54 847.982 354.793 851.393 359.611 853.628C366.475 856.811 373.613 859.503 380.592 862.438C367.558 868.49 354.622 874.947 344.297 885.164C351.773 883.092 358.022 880.604 364.521 876.322C377.691 882.894 391.386 888.423 404.386 895.348C396.619 899.475 390.469 904.296 384.682 910.903C400.905 904.334 415.291 895.453 430.166 886.354C439.389 880.712 448.714 875.229 457.414 868.791C461.622 870.304 465.741 872.129 469.874 873.841C477.368 877.471 485.316 880.388 492.893 883.902C475.906 895.504 454.416 906.828 435.873 915.871C428.717 919.361 421.235 922.166 414.214 925.924C380.739 912.982 348.579 895.823 316.465 879.856C322.938 875.755 329.963 871.964 335.808 866.984C342.699 861.113 343.781 855.063 344.477 846.516Z"/>
	<path fill="#C5C4C3" d="M323.953 1024C344.526 1012.3 366.688 1004.34 388.24 994.734Q443.192 970.187 497.732 944.736C524.606 932.25 550.4 917.522 577.222 904.915C586.208 900.691 595.356 896.049 604.76 892.865L601.402 916.343C582.262 926.778 561.668 934.879 541.934 944.127L426.648 998.553Q411.936 1005.56 397.004 1012.08C388.956 1015.69 380.389 1019.32 372.888 1024L323.953 1024Z"/>
	<path fill="#C5C4C3" d="M887.799 723.623Q889.533 723.478 891.27 723.388C918.522 722.02 945.439 737.093 964.988 754.94C982.795 771.197 995.42 792.084 996.426 816.601C996.739 824.222 996.54 835.592 990.874 841.4C987.244 845.122 982.864 845.292 978.021 845.464C984.943 837.809 988.203 829.575 988.547 819.245C989.243 798.356 977.977 777.538 963.958 762.735C949.364 747.326 931.683 737.942 911.426 732.269C905.974 730.743 900.415 729.173 894.71 729.134C893.385 729.124 891.899 729.07 890.913 730.022L891.249 730.804C894.285 733.357 897.335 733.753 901.115 734.442Q909.424 736.34 917.406 739.328C942.723 749 966.204 768.588 977.35 793.631C985.208 811.285 982.492 827.046 975.804 844.578C962.259 839.021 954.202 822.214 945.84 810.958Q942.455 806.324 938.6 802.072Q934.745 797.821 930.463 794C921.777 786.373 906.126 775.754 893.923 776.877C886.92 777.521 882.595 782.331 878.449 787.45Q876.266 786.699 874.19 785.688Q872.115 784.676 870.178 783.419C863.216 778.881 858.242 772.206 856.531 763.999C854.86 755.981 855.725 745.259 860.438 738.421C866.466 729.676 877.815 725.53 887.799 723.623Z"/>
	<path fill="#C5C4C3" d="M388.742 1024C398.158 1018.25 409.298 1014.4 419.435 1010.05Q436.732 1002.5 453.764 994.363L534.872 956.122C548.804 949.531 562.698 942.057 577.034 936.417C576.972 965.621 573.601 994.763 573.409 1024L388.742 1024Z"/>
	<path fill="#C5C4C3" d="M54.2083 431.709C56.8435 431.468 59.9149 432.85 62.3268 433.812C68.844 436.413 75.1321 439.638 81.4855 442.612L116.136 458.871L230.879 513.682C256.451 526.137 281.779 539.536 308.005 550.561C303.663 551.911 299.232 552.883 294.975 554.524C293.033 555.272 288.98 556.793 288.129 558.693L288.753 559.422C297.283 561.745 307.261 557.415 315.468 555.03C315.418 564.602 315.229 574.181 315.655 583.747C316.651 606.061 319.186 628.373 320.803 650.657L329.98 776.077C332.149 802.931 335.441 829.934 335.544 856.892L328.108 862.817C322.575 866.824 316.723 870.348 310.923 873.95C311.14 852.062 309.049 830.615 307.059 808.851L300.37 735.5L292.828 649.257C290.208 619.068 287.794 589.171 281.983 559.38C268.467 549.339 253.639 542.548 238.735 534.953Q211.392 520.745 183.624 507.388L31.2443 433.155Q42.7211 432.349 54.2083 431.709Z"/>
	<path fill="#C5C4C3" d="M116.101 680.293C121.646 683.123 127.012 686.475 132.442 689.532L155.871 702.425Q153.633 739.953 152.643 777.534L150.143 848.269Q149.762 863.859 149.103 879.44C148.707 888.14 147.696 897.392 148.7 906.044C148.926 907.997 149.362 911.714 150.983 912.988L151.795 912.566C153.277 909.802 154.051 906.768 154.454 903.668C155.551 895.224 155.551 886.569 155.82 878.063L157.007 843.972Q159.643 773.373 159.575 702.724C162.783 701.793 165.893 700.741 169.019 699.564C169.16 756.499 164.946 813.317 164.85 870.249C164.838 877.894 163.971 898.673 165.428 904.546C165.755 905.863 166.281 907.005 167.472 907.677C167.737 907.475 168.05 907.323 168.269 907.071C171.26 903.616 171.204 891.35 171.343 886.779L172.364 850.515C200.275 859.266 229.186 872.615 251.889 891.286C229.536 911.091 197.643 921.36 168.398 925.606Q167.102 925.806 165.801 925.974Q164.501 926.141 163.196 926.276Q161.892 926.412 160.584 926.515Q159.277 926.617 157.968 926.688Q156.658 926.758 155.347 926.796Q154.036 926.834 152.725 926.839Q151.414 926.844 150.103 926.817Q148.791 926.789 147.481 926.73Q146.171 926.67 144.863 926.577Q143.555 926.485 142.25 926.36Q140.944 926.235 139.642 926.078Q138.34 925.921 137.043 925.731Q135.745 925.542 134.453 925.32Q133.16 925.098 131.873 924.844Q130.587 924.591 129.307 924.305Q128.027 924.02 126.755 923.702Q125.482 923.385 124.218 923.036Q122.954 922.687 121.699 922.307Q120.444 921.927 119.198 921.516Q117.953 921.105 116.718 920.663Q115.484 920.221 114.26 919.748Q113.037 919.276 111.826 918.773Q110.615 918.271 109.416 917.738Q108.218 917.205 107.033 916.643Q105.848 916.081 104.678 915.489Q103.507 914.898 102.352 914.277Q101.197 913.657 100.057 913.008Q98.9174 912.359 97.7942 911.682Q96.6711 911.005 95.5651 910.301Q94.4591 909.596 93.3709 908.864Q92.2828 908.132 91.2131 907.374Q90.1435 906.615 89.093 905.83C73.5435 894.194 62.5184 877.586 59.7685 858.24C72.0337 852.286 86.0441 850.878 99.5086 850.43C99.4628 856.189 97.2561 877.843 100.687 881.952C101.364 882.763 101.013 882.504 102.183 882.617C104.36 880.499 104.852 875.168 105.246 872.207C106.16 865.324 106.294 858.231 106.687 851.294Q107.691 834.917 108.527 818.53L113.219 728.538C113.978 712.524 113.744 696.164 116.101 680.293Z"/>
	<path fill="#C5C4C3" d="M24.8849 435.635C32.3158 437.872 39.7639 443.511 46.525 447.421Q57.1493 453.536 68.111 459.024L207.165 527.332Q224.347 535.811 241.309 544.721C253.715 551.169 266.212 558.02 279.551 562.335C278.626 572.042 279.947 582.231 280.811 591.917Q282.452 610.539 284.301 629.141L294.208 734.235L301.659 822.037C303.118 839.886 303.888 857.875 306.835 875.557C285.485 867.06 266.364 854.352 247.114 842.011L200.247 812.055C191.293 806.315 182.448 800.165 173.052 795.174L173.622 774.852C183.646 783.364 265.059 836.474 273.469 837.633C274.758 837.811 275.97 837.495 276.917 836.56C278.651 834.848 278.714 831.152 278.826 828.818C279.462 815.506 277.689 801.731 276.435 788.483L271.362 734.448C270.415 727.53 270.055 720.415 269.426 713.454L265.456 669.409C263.636 649.922 261.914 630.398 259.765 610.945C258.439 598.943 256.694 586.991 255.412 574.984C242.693 571.368 223.71 558.849 211.192 552.378C176.403 534.394 141.315 517.03 106.667 498.751Q92.6702 491.454 78.8596 483.81C67.1686 477.303 55.5609 470.478 43.0328 465.68C43.1329 472.87 44.031 480.121 44.6899 487.28L47.6822 520.22Q52.2538 572.04 58.1306 623.728C61.0546 648.998 64.5364 674.145 66.8584 699.488C76.4626 712.03 93.9674 719.816 105.67 730.701C105.511 736.275 105.159 741.783 104.656 747.337C89.1215 732.655 69.8299 722.998 54.3908 708.2C52.1673 680.278 48.3678 652.634 45.3645 624.798L32.3044 497.912C30.1034 477.181 26.1298 456.437 24.8849 435.635Z"/>
	<path fill="#C5C4C3" d="M532.667 458.164C533.106 454.106 531.871 449.522 531.162 445.535C529.047 433.627 528.239 420.555 535.39 410.123C547.08 393.07 584.916 384.272 604.647 380.628C635.834 374.869 673.209 375.584 700.409 393.702C711.393 401.018 721.272 411.833 729.646 422.009C732.094 424.984 742.326 440.555 744.117 441.629C744.345 441.766 744.584 441.882 744.818 442.009C752.207 452.818 757.86 479.916 758.737 492.904C760.812 523.604 751.316 559.055 773.107 584.91C776.988 589.515 781.724 593.942 787.875 595.006C791.872 595.696 796.332 595.108 800.355 594.849C792.585 602.774 784.486 608.051 773.808 611.221C760.542 605.526 753.164 593.88 747.947 580.855C741.998 566.005 741.088 550.926 743.929 535.272C745.382 527.264 747.025 519.773 746.929 511.59C737.57 537.612 734.291 562.344 746.455 588.224C753.108 602.379 761.646 610.478 775.921 616.588C758.662 625.557 738.825 627.754 720.165 621.932C709.643 618.648 701.022 613.096 693.856 604.748C690.726 601.1 687.745 597.213 684.147 594.012C692.604 612.287 699.181 620.507 718.63 627.769C723.506 629.589 728.512 631.071 733.501 632.548C717.381 637.976 702.372 639.314 686.743 631.493C671.71 623.97 662.673 610.491 655.509 595.779C668.84 590.71 677.971 583.717 683.874 570.424C688.442 560.136 689.818 549.301 685.682 538.627C682.753 531.066 677.428 524.382 669.862 521.081C663.479 518.295 655.021 518.156 648.382 520.14C622.955 497.341 603.953 462.661 596.316 429.447C594.277 420.578 594.229 410.351 592.326 402.538C592.082 401.536 592.089 401.41 591.232 400.777C584.679 418.074 596.88 449.485 604.39 466.146Q606.522 470.973 608.946 475.661Q611.369 480.348 614.074 484.879Q616.778 489.41 619.755 493.768Q622.731 498.125 625.968 502.293C628.057 504.953 643.707 521.224 643.904 521.69L643.273 522.233C626.768 520.914 606.809 500.938 596.468 488.786C584.876 475.166 574.218 460.064 565.451 444.471C559.788 434.397 555.247 423.553 548.472 414.15C555.646 442.554 582.415 481.788 603.344 502.429Q608.309 507.344 613.821 511.637Q619.332 515.93 625.313 519.541C629.265 521.889 633.388 524.01 637.732 525.536C635.189 528.708 632.677 531.871 630.344 535.202C623.938 534.075 617.439 533.022 611.191 531.191C587.423 524.228 569.586 508.306 552.789 490.928C556.177 491.583 560.62 493.366 563.968 493.061C564.067 492.418 564.266 492.117 563.885 491.522C560.994 487.008 551.743 487.508 547.557 484.993C543.72 482.689 534.108 463.07 532.667 458.164Z"/>
	<path fill="#F6F6F5" d="M49.3779 473.755C58.4396 477.125 67.541 483.601 75.6789 488.743C82.7788 493.229 89.9081 497.443 97.284 501.458Q144.647 526.889 192.681 551.031C211.778 560.673 230.573 570.998 250.419 579.065C250.478 594.519 252.332 609.934 253.914 625.287L259.225 678.909C264 729.847 267.14 781.241 274.779 831.838C262.524 825.233 250.905 817.858 239.395 810.032C217.368 796.847 195.457 782.991 173.957 768.961C173.792 744.411 176.162 720.256 174.355 695.683C159.808 681.428 138.223 675.478 120.252 667C116.949 668.977 113.39 670.575 109.93 672.262C107.336 688.879 107.973 705.696 106.608 722.41C96.4432 713.912 85.4794 706.115 74.555 698.623C74.3176 687.074 72.4335 675.699 70.9883 664.263L65.2127 616.696L49.3779 473.755Z"/>
	<path fill="#554544" d="M112.202 547.742C112.343 547.827 112.497 547.894 112.626 547.998C117.109 551.61 118.64 575.731 119.706 582.076C133.464 588.638 146.484 596.772 159.634 604.453C159.325 590.278 158.017 576.151 160.355 562.076C165.417 576.303 165.369 592.913 166.026 607.871C183.263 618.508 203.913 627.202 218.398 641.576C199.397 636.71 183.414 624.351 166.349 615.243C168.067 630.442 169.248 645.709 168.732 661.018C168.664 661.908 168.525 662.776 168.396 663.659L167.776 663.302C163.078 650.567 161.506 625.118 159.33 610.846C146.828 602.566 133.395 595.599 120.264 588.375C122.73 605.59 126.418 624.333 124.498 641.689C118.551 630.23 115.531 598.359 114.366 584.65C100.781 576.153 86.4345 567.95 74.587 557.095C88.325 562.849 101.203 570.54 113.762 578.495C112.168 568.479 110.27 557.815 112.202 547.742Z"/>
	<path fill="#C5C4C3" d="M0 796.344C20.6863 789.378 41.5308 782.874 62.1569 775.718C75.893 770.953 89.4661 765.153 103.497 761.321C103.546 789.18 100.96 816.641 99.8371 844.423C89.0399 845.302 62.3623 846.053 55.1413 854.669C52.4027 857.937 52.6084 862.562 53.0772 866.552C55.6814 888.715 65.9508 908.732 83.7075 922.559C109.804 942.879 141.721 948.309 173.965 944.156C199.189 940.907 240.314 930.147 256.256 909.683C259.374 905.681 261.243 901.45 262.026 896.413C261.194 893.648 260.329 891.394 258.547 889.061C251.121 879.337 231.578 869.129 220.611 863.252C205.637 855.227 189.325 847.155 172.486 844.226C172.346 830.379 171.799 816.278 172.75 802.458C187.117 810.251 204.631 822.797 218.113 832.506C215.633 835.625 213.105 839.103 213.515 843.326C213.847 846.734 215.589 849.22 218.246 851.245C235.518 864.403 257.815 874.296 277.041 884.656Q318.489 907.46 360.848 928.523C373.035 934.542 385.212 940.858 397.801 946.003C403.066 948.155 409.281 951.168 415.05 950.487C432.067 948.481 492.675 912.78 504.449 898.897C504.488 892.893 504.306 886.954 503.959 880.96C473.355 866.859 442.087 854.435 411.205 840.992L372.6 824.042C362.259 819.502 351.874 814.782 341.114 811.307C340.487 804.732 339.452 797.906 339.452 791.312C356.364 797.455 372.977 804.427 389.692 811.077Q437.218 830.254 485.136 848.429L557.003 875.263C569.79 880.049 583.24 884.257 595.446 890.39L461.34 952.912C443.419 961.238 425.643 969.861 407.649 978.035Q380.158 990.734 352.404 1002.85C337.235 1009.46 321.165 1015.51 306.941 1024L0 1024L0 796.344Z"/>
	<path fill="#554544" d="M296.955 927.672C305.998 926.832 316.126 929.588 323.713 934.527C330.655 939.047 335.836 945.477 337.414 953.782C338.859 961.385 336.235 968.648 331.891 974.802C320.579 990.829 300.851 999.232 282.116 1002.46C271.398 1003.15 259.23 1002.94 250.058 996.526C245.593 993.404 242.703 988.905 241.775 983.527C240.02 973.365 245.203 962.151 250.959 954.072C262.159 938.353 278.274 930.722 296.955 927.672Z"/>
	<path fill="#C5C4C3" d="M297.317 935.197Q299.104 935.088 300.894 935.071C313.307 935.02 323.062 941.967 331.569 950.304C324.873 950.752 318.882 952.347 312.721 954.951C310.344 956.07 308.18 957.63 305.987 959.069C299.648 949.019 293.207 943.619 282.44 938.658C287.362 937.084 292.157 935.707 297.317 935.197Z"/>
	<path fill="#C5C4C3" d="M329.065 955.478C329.542 955.568 330.363 955.694 330.785 955.908C331.447 956.245 332.08 956.906 332.319 957.609C333.004 959.62 332.093 961.793 331.191 963.589C323.143 979.604 303.289 988.097 287.263 993.358C286.085 993.604 285.717 993.9 284.578 993.417C284.558 992.753 284.513 992.665 284.731 991.925C286.642 985.421 306.778 966.579 313.022 962.704C318.039 959.591 323.581 957.592 329.065 955.478Z"/>
	<path fill="#C5C4C3" d="M275.425 941.885C276.268 942.004 277.034 942.192 277.845 942.449C289.63 946.171 294.956 954.293 300.312 964.868C291.221 974.77 283.029 984.62 275.239 995.563Q270.548 995.568 265.926 994.765C260.584 993.793 254.902 991.797 251.82 987.017C249.137 982.855 248.95 977.74 250.018 973.023C253.136 959.257 264.126 949.301 275.425 941.885Z"/>
	<path fill="#C5C4C3" d="M587.588 1024C597.238 997.404 603.081 968.725 607.654 940.841C616.764 885.299 617.756 836.125 641.16 783.219C645.595 773.194 650.691 762.354 658.396 754.443C664.489 748.187 672.227 743.455 679.614 738.874Q696.378 728.659 713.793 719.598C734.597 708.731 760.449 698.172 774.759 678.754C787.013 690.372 796.864 706.121 805.91 720.261C818.532 739.991 830.622 760.432 840.045 781.914C856.329 819.037 866.578 857.771 875.21 897.259C877.747 908.863 880.583 920.489 882.575 932.2C884.583 943.996 885.966 955.929 887.519 967.794C889.93 986.216 892.27 1004.58 892.742 1023.18L892.762 1024L716.915 1024L708.287 1024L587.588 1024Z"/>
	<path fill="#554544" d="M694.85 745.645C701.681 745.091 709.672 746.73 715.936 749.491C729.073 755.283 736.056 767.007 741.107 779.896C745.152 790.216 752.208 814.849 747.534 825.471L746.949 825.437C744.47 820.668 742.338 801.057 740.177 793.38Q739.455 790.9 738.698 788.43C734.73 775.541 728.483 761.714 715.905 755.196C705.509 749.81 691.969 749.64 681.223 754.142C674.768 756.846 668.903 760.47 662.179 762.609C671.484 752.66 681.531 747.96 694.85 745.645Z"/>
	<path fill="#554544" d="M746.432 850.884C749.073 864.233 748.412 876.66 747.458 890.105C744.578 930.671 735.414 970.33 722.234 1008.73C720.501 1013.78 718.955 1019.08 716.915 1024L708.287 1024Q713.556 1009.87 718.135 995.51Q722.713 981.146 726.59 966.577Q730.467 952.007 733.634 937.267Q736.8 922.527 739.249 907.651C740.754 898.334 741.706 888.999 742.491 879.597C743.283 870.113 743.415 859.99 746.432 850.884Z"/>
</svg>
