<?xml version="1.0" encoding="utf-8" ?>
<svg xmlns="http://www.w3.org/2000/svg" xmlns:xlink="http://www.w3.org/1999/xlink" width="1039" height="1039">
	<path fill="#EEEEEC" transform="matrix(-1.01465 1.24259e-16 1.24259e-16 1.01465 1039 0)" d="M0 0L1024 0L1024 1024L943.379 1024L936.893 1024L561.825 1024L388.368 1024L372.618 1024L323.915 1024L307.495 1024L0 1024L0 796.282L0 788.689L0 0Z"/>
	<path fill="#564746" transform="matrix(-1.01465 1.24259e-16 1.24259e-16 1.01465 1039 0)" d="M521.538 319.606C529.634 315.767 537.207 310.929 545.533 307.567C568.379 298.339 596.218 297.613 619.445 305.869C624.658 307.722 629.848 310.165 634.642 312.925C638.529 315.163 650.468 323.971 653.518 324.61C653.036 325.694 652.585 326.757 651.982 327.78C641.801 322.065 631.95 315.434 620.962 311.323C597.217 302.44 570.822 304.438 547.392 313.268C538.743 316.528 530.363 320.79 521.968 324.66C521.988 322.906 522.087 321.289 521.538 319.606Z"/>
	<path fill="#564746" transform="matrix(-1.01465 1.24259e-16 1.24259e-16 1.01465 1039 0)" d="M840.895 719.917C877.811 712.687 922.474 714.311 954.404 735.694C977.87 751.41 998.245 774.813 1003.62 803.234C1006.05 816.082 1006.16 834.255 998.411 845.503Q998.134 845.911 997.838 846.305Q997.541 846.699 997.225 847.077Q996.908 847.455 996.573 847.817Q996.238 848.178 995.885 848.523Q995.533 848.867 995.163 849.193Q994.793 849.519 994.407 849.826Q994.022 850.133 993.621 850.42Q993.22 850.708 992.805 850.974Q992.39 851.241 991.963 851.486Q991.535 851.731 991.095 851.954Q990.656 852.177 990.205 852.378Q989.755 852.579 989.295 852.757Q988.835 852.935 988.367 853.089Q987.899 853.243 987.424 853.374Q986.948 853.505 986.467 853.611Q985.985 853.717 985.499 853.799C979.473 854.87 973.779 853.239 968.303 850.879C966.315 859.689 965.496 868.843 964.37 877.8Q961.749 899.761 958.554 921.647L948.035 992.046C946.482 1002.6 944.115 1013.37 943.379 1024L936.893 1024C937.933 992.602 944.937 961.609 949.847 930.683C954.188 903.345 956.99 875.221 963.667 848.365C960.355 845.412 957.338 841.987 954.247 838.797Q941.599 921.871 927.493 1004.71C925.043 1002.04 923.821 988.077 923.125 983.949C921.757 973.311 918.374 961.998 915.085 951.799C913.787 946.669 911.417 941.933 910.509 936.656L904.567 916.194C902.268 912.903 901.371 907.036 900.655 903.104C899.322 897.585 897.521 892.145 896.086 886.642C894.645 881.118 893.635 874.734 891.468 869.496C889.709 864.847 888.432 859.903 887.134 855.108C885.097 848.876 883.169 842.759 881.8 836.34C879.523 831.808 878.325 825.875 877.229 820.944C873.94 810.925 870.239 801.139 867.222 791.011C864.523 786.948 863.005 781.745 861.95 777.03C860.557 771.748 858.277 766.582 856.474 761.42C853.878 753.988 851.649 746.061 848.337 738.924C847.343 737.637 846.933 735.821 846.426 734.28C845.844 731.39 844.803 728.847 843.664 726.142C842.363 724.208 841.683 722.092 840.895 719.917Z"/>
	<path fill="#EEEEEC" transform="matrix(-1.01465 1.24259e-16 1.24259e-16 1.01465 1039 0)" d="M868.696 780.464Q877.039 780.861 885.319 781.958C884.11 788.915 879.789 816.152 877.229 820.944C873.94 810.925 870.239 801.139 867.222 791.011C867.789 787.505 868.407 784.007 868.696 780.464Z"/>
	<path fill="#EEEEEC" transform="matrix(-1.01465 1.24259e-16 1.24259e-16 1.01465 1039 0)" d="M890.443 782.829C894.407 783.891 898.39 784.904 902.283 786.208C898.248 801.168 895.145 816.242 892.084 831.423C890.514 839.211 889.458 847.534 887.134 855.108C885.097 848.876 883.169 842.759 881.8 836.34C885.103 818.619 888.291 800.727 890.443 782.829Z"/>
	<path fill="#EEEEEC" transform="matrix(-1.01465 1.24259e-16 1.24259e-16 1.01465 1039 0)" d="M926.297 801.108C930.023 804.714 933.5 808.417 936.627 812.56C933.337 829.012 929.421 845.321 926.048 861.754C923.976 871.854 913.179 932.383 910.509 936.656L904.567 916.194C907.947 909.72 910.356 886.795 911.94 877.921C916.503 852.355 920.836 826.484 926.297 801.108Z"/>
	<path fill="#EEEEEC" transform="matrix(-1.01465 1.24259e-16 1.24259e-16 1.01465 1039 0)" d="M908.102 789.018C912.402 791.273 916.605 793.595 920.552 796.436C916.726 818.938 911.658 841.161 907.47 863.587C905.033 876.636 903.731 890.231 900.655 903.104C899.322 897.585 897.521 892.145 896.086 886.642C894.645 881.118 893.635 874.734 891.468 869.496C894.546 863.621 895.672 850.271 896.936 843.211C900.137 825.32 902.704 806.341 908.102 789.018Z"/>
	<path fill="#EEEEEC" transform="matrix(-1.01465 1.24259e-16 1.24259e-16 1.01465 1039 0)" d="M843.664 726.142C851.126 724.478 858.937 723.743 866.557 723.21C895.03 721.217 922.746 725.257 947.207 740.923C969.558 755.236 989.075 777.286 994.792 803.755C996.998 813.969 998.239 830.373 992.419 839.634Q992.095 840.156 991.72 840.643Q991.345 841.13 990.922 841.576Q990.499 842.022 990.033 842.423Q989.567 842.823 989.063 843.174Q988.558 843.525 988.02 843.823Q987.483 844.121 986.917 844.362Q986.352 844.604 985.765 844.786Q985.178 844.968 984.576 845.09C982.215 845.572 979.81 845.54 977.416 845.468C985.099 838.44 988.018 830.834 988.479 820.594C989.419 799.746 979.466 779.47 965.53 764.452C947.801 745.345 920.965 730.468 894.538 729.51C886.724 729.227 851.093 730.903 846.426 734.28C845.844 731.39 844.803 728.847 843.664 726.142Z"/>
	<path fill="#EEEEEC" transform="matrix(-1.01465 1.24259e-16 1.24259e-16 1.01465 1039 0)" d="M940.914 819.493C943.833 823.018 946.612 826.582 949.271 830.308C947.817 844.623 945.062 858.979 942.744 873.185L929.833 949.571C928.542 956.986 926.206 978.036 923.592 983.795L923.125 983.949C921.757 973.311 918.374 961.998 915.085 951.799Q923.993 908.799 932.224 865.664C935.121 850.283 937.107 834.693 940.914 819.493Z"/>
	<path fill="#EEEEEC" transform="matrix(-1.01465 1.24259e-16 1.24259e-16 1.01465 1039 0)" d="M848.337 738.924C855.865 736.594 863.551 733.906 871.395 732.918C889.095 730.689 914.017 736.589 929.521 744.78C952.097 756.706 973.193 777.457 980.692 802.414C985.18 817.346 981.531 830.944 976.118 845.046C964.967 838.66 957.919 828.31 950.711 818.014C936.345 797.493 919.789 781.631 894.826 775.577C886.44 773.544 875.942 771.993 867.49 774.489C865.468 775.086 863.72 775.899 861.95 777.03C860.557 771.748 858.277 766.582 856.474 761.42C853.878 753.988 851.649 746.061 848.337 738.924Z"/>
	<path fill="#2D201D" transform="matrix(-1.01465 1.24259e-16 1.24259e-16 1.01465 1039 0)" d="M521.968 324.66C530.363 320.79 538.743 316.528 547.392 313.268C570.822 304.438 597.217 302.44 620.962 311.323C631.95 315.434 641.801 322.065 651.982 327.78C652.585 326.757 653.036 325.694 653.518 324.61C682.666 336.409 696.539 346.203 709.212 376.101C721.582 405.284 723.695 437.398 723.46 468.732L724.016 469.301C726.56 471.879 739.586 481.419 739.34 484.467C739.107 487.35 735.283 489.951 733.112 491.544C724.7 497.713 714.554 503.324 704.516 506.28C698.238 518.99 690.674 533.779 691.64 548.242C697.784 555.95 707.199 562.206 714.851 568.454Q734.311 584.297 754.058 599.782C771.271 613.417 789.325 626.734 802.348 644.679C805.818 644.28 810.266 643.256 813.291 645.541C815.196 646.98 816.012 649.106 816.188 651.427C816.564 656.392 814.445 661.505 815.405 666.41C816.812 673.607 822.476 681.591 825.948 688.128C830.177 696.092 838.187 711.787 840.895 719.917C841.683 722.092 842.363 724.208 843.664 726.142C844.803 728.847 845.844 731.39 846.426 734.28C846.933 735.821 847.343 737.637 848.337 738.924C851.649 746.061 853.878 753.988 856.474 761.42C858.277 766.582 860.557 771.748 861.95 777.03C863.005 781.745 864.523 786.948 867.222 791.011C870.239 801.139 873.94 810.925 877.229 820.944C878.325 825.875 879.523 831.808 881.8 836.34C883.169 842.759 885.097 848.876 887.134 855.108C888.432 859.903 889.709 864.847 891.468 869.496C893.635 874.734 894.645 881.118 896.086 886.642C897.521 892.145 899.322 897.585 900.655 903.104C901.371 907.036 902.268 912.903 904.567 916.194L910.509 936.656C911.417 941.933 913.787 946.669 915.085 951.799C918.374 961.998 921.757 973.311 923.125 983.949C923.821 988.077 925.043 1002.04 927.493 1004.71Q941.599 921.871 954.247 838.797C957.338 841.987 960.355 845.412 963.667 848.365C956.99 875.221 954.188 903.345 949.847 930.683C944.937 961.609 937.933 992.602 936.893 1024L561.825 1024C561.959 1022.43 561.739 1021.37 562.819 1020.19C566.544 1014.04 566.786 978.115 567.121 968.761C567.289 964.06 566.979 958.883 568.016 954.316C567.918 951.955 567.259 948.084 568.347 945.956C569.123 944.439 570.929 943.992 572.418 943.437C584.275 938.39 596.102 932.97 608.163 928.438C609.083 926.298 610.853 924.339 612.69 922.944C611.17 914.871 613.513 905.899 612.448 897.589C611.781 892.377 609.037 889.301 604.99 886.179C604.346 885.683 604.442 884.893 604.298 884.114C603.906 885.252 604.206 884.73 603.372 885.665C601.151 885.73 599.407 884.631 597.501 883.629C588.186 878.319 552.569 866.753 548.387 862.528C546.962 863.165 546.115 863.078 544.562 862.783C542.063 862.309 539.08 861.066 537.557 858.962C527.976 855.535 518.791 851.029 509.259 847.443C499.511 843.776 489.676 840.329 479.882 836.786C474.506 834.841 467.723 833.067 462.972 829.909C462.044 830.995 461.58 831.617 460.186 832.1C458.198 831.557 457.076 829.553 455.85 827.943C466.133 792.377 475.002 756.381 485.496 720.883C491.406 700.89 498.649 681.408 504.89 661.54C509.197 647.829 511.193 630.043 518.9 617.997C524.461 609.304 534.951 604.332 543.532 599.174C538.412 596.379 533.669 593.419 529.109 589.753C515.635 578.921 484.907 547.846 481.894 531.088C481.049 526.391 481.492 521.512 481.754 516.783C482.445 504.293 482.373 491.39 475.497 480.349C462.549 473.428 449.695 466.448 443.23 452.506C435.187 435.16 439.255 413.469 445.708 396.321C457.04 366.205 492.232 332.851 521.538 319.606C522.087 321.289 521.988 322.906 521.968 324.66Z"/>
	<path fill="#EEEEEC" transform="matrix(-1.01465 1.24259e-16 1.24259e-16 1.01465 1039 0)" d="M804.593 648.831C806.339 649.14 808.256 649.248 809.602 650.497C810.562 652.396 810.104 654.633 809.961 656.698C807.683 654.768 806.117 651.4 804.593 648.831Z"/>
	<path fill="#B2ACA8" transform="matrix(-1.01465 1.24259e-16 1.24259e-16 1.01465 1039 0)" d="M627.266 450.949C634.897 451.339 642.503 451.787 650.144 451.986C647.876 454.368 645.858 456.985 643.788 459.538C642.25 461.679 640.996 464.037 639.674 466.317C636.045 460.793 632.269 455.326 627.266 450.949Z"/>
	<path fill="#EEEEEC" transform="matrix(-1.01465 1.24259e-16 1.24259e-16 1.01465 1039 0)" d="M631.256 652.374C633.568 655.054 634.906 661.913 636.08 665.415L639.672 667.904C639.259 676.082 637.074 683.939 635.172 691.869L634.73 692.738C633.286 691.476 629.043 664.917 628.299 660.525C629.524 657.873 630.381 655.154 631.256 652.374Z"/>
	<path fill="#EEEEEC" transform="matrix(-1.01465 1.24259e-16 1.24259e-16 1.01465 1039 0)" d="M595.332 652.801C595.506 652.969 595.713 653.108 595.854 653.304C597.647 655.804 597.95 661.755 597.765 664.639C597.448 669.585 595.958 674.666 594.935 679.512C593.261 687.436 591.682 695.449 590.692 703.49C590.484 704.283 590.668 703.937 590.16 704.538C590.081 704.395 589.985 704.26 589.922 704.109C588.839 701.521 589.228 667.075 589.428 662.679C589.47 661.762 589.58 658.698 590.172 657.999C591.869 655.995 593.243 657.597 595.072 653.413C595.161 653.21 595.245 653.005 595.332 652.801Z"/>
	<path fill="#EEEEEC" transform="matrix(-1.01465 1.24259e-16 1.24259e-16 1.01465 1039 0)" d="M596.308 584.409L597.027 584.423C597.047 585.797 595.251 587.709 594.414 588.881C597.852 596.242 601.969 602.968 606.935 609.398C600.61 618.135 597.592 628.484 594.546 638.7C593.447 642.344 592.659 646.13 591.747 649.828C591.398 640.069 590.135 630.345 589.654 620.587C589.11 609.569 589.621 598.567 590.275 587.567L596.308 584.409Z"/>
	<path fill="#EEEEEC" transform="matrix(-1.01465 1.24259e-16 1.24259e-16 1.01465 1039 0)" d="M686.658 498.714C690.838 501.472 695.97 502.577 700.742 503.925C690.907 515.562 687.485 529.916 685.838 544.702C680.753 541.482 676.251 538.357 672.321 533.775C673.96 531.016 675.312 528.705 675.221 525.377L674.567 524.765C673.411 525.11 672.742 526.01 671.943 526.861C669.267 530.467 667.278 534.5 666.795 539.011L659.691 543.62C655.485 539.392 653.173 534.919 651.058 529.402C655.035 528.382 659.089 527.419 662.877 525.815C675.173 520.607 681.774 510.706 686.658 498.714Z"/>
	<path fill="#B2ACA8" transform="matrix(-1.01465 1.24259e-16 1.24259e-16 1.01465 1039 0)" d="M609.006 616.879C611.78 617.125 614.517 617.688 617.256 618.182C621.032 627.129 624.644 636.095 628.653 644.946C626.541 649.545 625.683 656.17 621.601 659.434Q612.624 659.78 603.666 659.112C599.754 642.024 601.527 632.741 609.006 616.879Z"/>
	<path fill="#EEEEEC" transform="matrix(-1.01465 1.24259e-16 1.24259e-16 1.01465 1039 0)" d="M668.862 550.856L669.391 551.421C670.372 556.409 668.204 563.062 667.356 568.097C663.856 588.888 659.45 609.311 652.209 629.158C648.976 638.019 645.017 646.637 641.274 655.292C639.009 649.809 636.404 644.499 633.815 639.165C628.788 628.231 623.066 617.704 617.31 607.144C639.354 592.593 651.414 569.41 668.862 550.856Z"/>
	<path fill="#EEEEEC" transform="matrix(-1.01465 1.24259e-16 1.24259e-16 1.01465 1039 0)" d="M583.77 590.404L584.287 590.473C585.016 591.635 583.077 609.876 583.026 613.379C582.72 634.191 583.614 654.99 583.17 675.806C579.927 677.954 577 680.819 574.061 683.375Q564.452 677.08 554.752 670.926C549.075 667.715 543.943 663.829 538.793 659.855C547.809 640.362 555.697 616.359 566.43 597.914C572.257 595.505 578.076 593.117 583.77 590.404Z"/>
	<path fill="#EEEEEC" transform="matrix(-1.01465 1.24259e-16 1.24259e-16 1.01465 1039 0)" d="M582.256 681.854C583.595 687.657 582.132 698.174 582.061 704.5Q581.938 719.883 582.881 735.237C584.804 762.76 590.248 789.404 594.337 816.584C588.9 808.951 584.243 800.805 579.426 792.774C564.718 766.738 553.779 744.157 544.123 715.823Q546.866 714.156 549.531 712.366Q552.195 710.576 554.776 708.667Q557.356 706.758 559.848 704.734Q562.339 702.709 564.736 700.574Q567.133 698.439 569.43 696.197Q571.728 693.956 573.921 691.612Q576.115 689.268 578.199 686.828Q580.284 684.387 582.256 681.854Z"/>
	<path fill="#B2ACA8" transform="matrix(-1.01465 1.24259e-16 1.24259e-16 1.01465 1039 0)" d="M622.606 665.553L623.367 665.521C623.57 665.762 623.814 665.974 623.977 666.244C625.199 668.264 625.674 676.439 626.217 679.208C627.285 684.66 631.641 700.058 631.47 704.714C631.151 713.421 623.588 735.165 620.922 744.344Q610.913 780.099 600.476 815.731C597.971 811.592 597.066 796.428 596.395 790.802Q594.341 773.684 592.955 756.498C592.15 747.453 591.01 738.191 591.72 729.112C593.365 708.103 600.079 687.296 603.722 666.518C610.28 668.501 616.245 667.454 622.606 665.553Z"/>
	<path fill="#EEEEEC" transform="matrix(-1.01465 1.24259e-16 1.24259e-16 1.01465 1039 0)" d="M647.162 682.127C651.004 684.219 659.346 694.337 663.445 698.085C675.031 708.681 688.698 717.666 699.523 728.965C701.34 730.862 703.244 733.102 702.991 735.909C702.761 738.464 701.282 740.236 699.552 742.015C693.047 748.709 684.759 754.158 677.505 760.05C662.537 772.208 647.596 784.665 633.153 797.446C622.553 806.473 613.023 815.981 601.222 823.584C605.301 812.676 609.653 801.804 613.422 790.789C619.657 772.566 625.028 753.887 630.565 735.435C635.381 719.384 640.475 696.71 647.162 682.127Z"/>
	<path fill="#EEEEEC" transform="matrix(-1.01465 1.24259e-16 1.24259e-16 1.01465 1039 0)" d="M676.757 548.371C688.251 555.331 699.287 564.05 709.328 572.943C709.971 580.927 711.553 588.905 712.944 596.784Q716.235 615.292 720.095 633.689C721.984 642.359 724.56 651.191 725.426 660.021C725.702 662.836 725.855 665.728 724.354 668.254C723.044 670.457 720.733 671.712 718.472 672.741C713.022 675.223 706.618 676.281 700.811 677.706Q691.127 680.031 681.595 682.915C675.457 684.785 669.421 686.937 663.37 689.066C658.446 685.564 653.803 681.658 648.859 678.154C646.845 680.264 645.326 682.816 643.712 685.236C647.315 666.916 654.199 650.117 660.009 632.449C668.84 605.597 675.306 576.65 676.757 548.371Z"/>
	<path fill="#EEEEEC" transform="matrix(-1.01465 1.24259e-16 1.24259e-16 1.01465 1039 0)" d="M462.972 829.909C471.051 802.691 478.052 775.108 485.868 747.804Q497.3 708.916 509.382 670.226C513.685 655.958 517.188 634.229 524.913 621.872C529.553 614.451 538.86 610.11 546.043 605.593C548.716 603.913 551.347 601.898 554.14 600.443C554.877 600.06 555.661 599.786 556.441 599.505C556.992 599.306 557.535 599.105 558.092 598.92C555.631 606.72 551.291 613.477 547.871 620.847Q543.523 630.033 539.867 639.516Q536.212 648.998 533.269 658.726C543.435 669.977 556.589 679.485 569.334 687.636C558.723 695.075 547.678 704.501 539.079 714.246C541.807 744.485 560.723 779.006 578.429 803.365C583.953 810.965 591.301 817.736 596.075 825.774C594.886 828.441 593.717 830.872 592.064 833.295C592.014 849.933 595.457 867.101 597.501 883.629C588.186 878.319 552.569 866.753 548.387 862.528C546.962 863.165 546.115 863.078 544.562 862.783C542.063 862.309 539.08 861.066 537.557 858.962C527.976 855.535 518.791 851.029 509.259 847.443C499.511 843.776 489.676 840.329 479.882 836.786C474.506 834.841 467.723 833.067 462.972 829.909Z"/>
	<path fill="#2D201D" transform="matrix(-1.01465 1.24259e-16 1.24259e-16 1.01465 1039 0)" d="M517.576 652.811C518.739 655.286 518.922 658.308 519.251 660.999C520.171 668.516 525.033 721.326 522.9 724.053C516.833 708.869 513.121 668.346 517.576 652.811Z"/>
	<path fill="#2D201D" transform="matrix(-1.01465 1.24259e-16 1.24259e-16 1.01465 1039 0)" d="M537.557 858.962C534.438 841.088 517.551 749.189 523.206 737.519C523.253 737.422 523.338 737.348 523.403 737.262C527.17 745.056 528.471 760.282 529.961 769.196Q535.005 797.799 540.556 826.309C542.799 838.192 544.124 851.218 548.387 862.528C546.962 863.165 546.115 863.078 544.562 862.783C542.063 862.309 539.08 861.066 537.557 858.962Z"/>
	<path fill="#EEEEEC" transform="matrix(-1.01465 1.24259e-16 1.24259e-16 1.01465 1039 0)" d="M521.968 324.66C530.363 320.79 538.743 316.528 547.392 313.268C570.822 304.438 597.217 302.44 620.962 311.323C631.95 315.434 641.801 322.065 651.982 327.78C660.669 333.413 670.518 337.05 678.508 343.772C713.578 373.274 712.457 422.958 716.169 464.402C697.271 443.457 690.063 429.913 677.129 405.084C681.335 438.712 704.749 463.128 728.717 484.821C721.941 490.761 712.726 495.053 704.873 499.478C699.114 498.197 693.227 497.702 687.482 496.248C689.147 489.116 689.063 481.751 688.943 474.476C695.979 479.826 703.067 483.395 711.58 485.78C706.357 481.043 699.759 477.839 694.473 473.094C683.051 462.842 680.876 454.149 665.803 446.909C661.19 438.436 654.334 430.647 648.968 422.571C636.68 404.078 625.397 384.773 611.78 367.203C605.52 359.125 598.526 351.715 591.566 344.246C586.369 338.668 580.353 331.102 572.837 328.689C563.638 325.734 556.195 328.521 548.122 332.797C554.14 331.81 560.573 330.451 566.687 331.27C592.214 334.689 629.499 403.995 642.502 424.817C646.745 431.611 651.45 437.986 656.303 444.352C645.725 444.732 635.199 444.225 624.785 442.216C594.217 436.318 568.096 421.23 546.21 399.342C542.377 395.508 538.005 391.66 534.798 387.307C531.581 382.939 532.056 376.949 529.628 373.76C529.074 373.033 529.343 373.278 528.321 373.093L527.664 374.099C525.498 391.671 539.32 417.882 548.11 432.553C523.87 419.369 513.04 399.937 507.618 373.361C506.873 369.712 506.302 362.569 503.84 359.711L503.238 359.995C501.23 364.185 501.902 371.274 502.348 375.834C482.968 394.594 475.102 420.768 473.639 446.99C473.455 450.291 472.59 456.881 474.907 459.46C478.403 459.002 484.784 448.688 488.933 445.896C493.529 442.804 500.117 444.971 504.946 443.103C506.044 442.678 506.156 442.468 506.642 441.473C506.45 441.007 506.349 440.681 506.004 440.27C504.648 438.652 501.997 438.143 500.006 437.999C491.893 437.408 485.61 440.186 479.499 445.319C483.764 420.215 487.148 403.858 503.12 382.896C505.614 395.866 510.771 408.672 519.462 418.736C525.897 426.188 552.491 444.635 561.751 444.657C563.046 444.66 563.547 444.299 564.482 443.472C564.706 442.624 564.916 442.401 564.602 441.536C562.918 436.895 556.799 433.231 553.738 429.304C546.137 419.552 538.098 404.024 534.748 392.257C538.806 397.415 542.446 402.992 546.767 407.928C553.579 415.71 561.947 421.794 570.146 428.004C567.511 428.991 563.236 430.268 561.713 432.785C561.328 433.421 561.538 433.727 561.653 434.404C566.747 435.102 572.584 432.806 577.522 433.996C583.794 435.508 590.127 439.831 596.041 442.468C603.395 445.748 611.077 447.592 618.906 449.298C624.159 458.174 631.392 463.492 635.772 473.377C636.89 475.902 638.434 481.198 641.003 482.29C644.15 480.663 645.666 466.476 651.247 460.946C654.414 457.808 658.54 456.296 662.978 456.429C666.736 456.541 669.721 458.075 672.262 460.82C678.112 467.137 680.365 476.257 679.873 484.683C679.03 499.115 670.827 514.157 656.28 518.604C652.137 519.87 642.181 519.594 639.451 522.376C638.859 522.979 639.065 523.354 639.07 524.134C640.502 526.42 642.651 527.587 645.063 528.662Q645.249 531.221 645.632 533.758C646.955 542.245 652.176 546.557 658.707 551.307C651.435 560.422 643.939 569.367 636.74 578.538C631.393 585.35 626.383 592.771 620.268 598.902C617.47 601.708 614.663 603.689 611.248 605.689C608.047 601.544 604.829 597.366 602.243 592.805C603.775 591.536 605.107 590.073 606.478 588.636C606.553 586.161 606.298 582.803 607.34 580.534C609.111 576.676 626.774 563.964 631.622 557.945C633.462 555.659 635.406 553.435 635.102 550.372C633.194 549.198 628.67 553.305 627.068 554.602C623.262 557.682 619.521 560.923 615.496 563.713C601.571 573.366 575.194 588.225 558.816 591.171C549.644 592.821 543.395 590.869 536.004 585.457C521.412 574.772 491.288 542.56 489.61 524.5C488.453 512.043 491.413 502.521 487.183 489.77C481.885 473.803 470.202 459.965 468.133 442.984Q467.562 438.386 467.57 433.754Q467.579 429.121 468.166 424.525C468.701 420.257 470.965 413.046 470.361 409.234L469.621 409.028C468.452 410.013 467.863 411.353 467.262 412.73C458.618 432.52 463.525 450.08 470.783 469.137C464.011 464.775 457.476 460.487 452.988 453.607C445.281 441.789 446.022 426.974 448.942 413.738Q449.761 409.842 450.871 406.018Q451.98 402.195 453.373 398.465Q454.766 394.736 456.434 391.121Q458.103 387.506 460.038 384.027C473.635 360.068 499.056 339.291 521.968 324.66Z"/>
	<path fill="#2D201D" transform="matrix(-1.01465 1.24259e-16 1.24259e-16 1.01465 1039 0)" d="M510.008 510.916C510.56 511.096 511.112 511.28 511.646 511.508C513.57 512.328 516.031 514.15 516.658 516.264C517.263 518.306 516.734 519.522 515.74 521.246C513.956 520.388 512.161 519.508 510.505 518.418C509.026 517.443 508.452 516.582 508.101 514.811C508.41 513.142 508.993 512.262 510.008 510.916Z"/>
	<path fill="#2D201D" transform="matrix(-1.01465 1.24259e-16 1.24259e-16 1.01465 1039 0)" d="M662.57 469.501C663.893 469.382 665.216 469.27 666.542 469.431C668.401 469.656 669.475 470.336 670.651 471.819C670.627 472.627 670.829 472.883 670.174 473.468C668.334 475.11 665.699 474.435 663.46 474.204C658.748 478.823 656.959 483.834 655.55 490.083C656.297 489.593 657.044 489.128 657.842 488.722C659.42 487.92 662.841 486.672 664.584 487.204C663.401 488.533 661.283 488.898 659.613 489.403C657.747 490.679 656.735 491.863 655.88 493.95C654.939 496.247 653.848 499.695 651.491 500.871L650.663 500.439C649.054 495.829 650.376 490.124 651.678 485.536C653.557 478.91 656.323 472.969 662.57 469.501Z"/>
	<path fill="#2D201D" transform="matrix(-1.01465 1.24259e-16 1.24259e-16 1.01465 1039 0)" d="M497.556 474.997C498.291 474.993 499.022 474.977 499.752 475.078C503.121 475.546 506.167 478.205 508.01 480.935C509.916 483.758 511.028 487.383 510.233 490.772C509.567 493.607 507.918 495.125 505.547 496.627C504.9 496.595 504.985 496.614 504.216 496.488C500.41 495.862 497.145 493.246 495.061 490.079C493.188 487.235 492.164 483.706 493.052 480.339C493.758 477.659 495.282 476.41 497.556 474.997Z"/>
	<path fill="#2D201D" transform="matrix(-1.01465 1.24259e-16 1.24259e-16 1.01465 1039 0)" d="M568.171 464.53C573.338 465.274 577.676 466.759 581.076 471.023C582.911 473.325 584.087 476.251 583.616 479.223C583.05 482.799 580.741 484.689 577.912 486.635C576.876 486.568 575.816 486.502 574.798 486.294C570.89 485.494 567.129 482.464 564.911 479.24C563.212 476.772 562.162 473.708 562.853 470.709C563.566 467.617 565.603 466.124 568.171 464.53Z"/>
	<path fill="#2D201D" transform="matrix(-1.01465 1.24259e-16 1.24259e-16 1.01465 1039 0)" d="M585.105 515.966C585.84 516.034 586.551 516.141 587.195 516.547C589.225 517.828 589.991 520.771 590.228 522.987C591.347 533.421 586.73 545.106 580.222 553.098C575.105 559.382 567.9 564.246 559.664 564.976C549.833 565.848 540.817 560.875 533.518 554.78C528.602 550.159 524.155 544.462 520.749 538.648C519.481 536.486 517.594 533.385 518.243 530.837C520.491 529.436 527.382 530.875 530.231 530.851C532.217 530.834 534.297 530.376 536.242 530.006C552.815 526.85 569.145 521.334 585.105 515.966Z"/>
	<path fill="#EEEEEC" transform="matrix(-1.01465 1.24259e-16 1.24259e-16 1.01465 1039 0)" d="M583.563 520.965C583.701 521.041 583.854 521.094 583.977 521.193C585.008 522.022 585.21 522.554 585.344 523.857C586.218 532.384 580.563 544.834 575.128 551.256C570.791 556.379 564.649 560.557 557.783 560.926C550.145 561.336 543.371 557.112 537.896 552.216C533.048 547.273 529.461 541.84 525.761 536.037C545.72 533.134 565.058 529.276 583.563 520.965Z"/>
	<path fill="#EEEEEC" transform="matrix(-1.01465 1.24259e-16 1.24259e-16 1.01465 1039 0)" d="M715.439 577.9L760.01 615.985C771.193 625.484 783.909 634.837 793.095 646.353C802.718 658.418 809.049 673.344 815.902 687.121C823.334 702.064 830.831 717.049 837.243 732.464C845.635 752.637 852.515 773.55 859.438 794.263C880.489 857.243 896.997 921.402 914.517 985.407C915.987 990.779 919.288 1007 924.692 1009.18C925.944 1008.6 926.746 1007.84 927.18 1006.48C927.365 1005.9 927.477 1005.32 927.493 1004.71Q941.599 921.871 954.247 838.797C957.338 841.987 960.355 845.412 963.667 848.365C956.99 875.221 954.188 903.345 949.847 930.683C944.937 961.609 937.933 992.602 936.893 1024L561.825 1024C561.959 1022.43 561.739 1021.37 562.819 1020.19C566.544 1014.04 566.786 978.115 567.121 968.761C567.289 964.06 566.979 958.883 568.016 954.316C567.918 951.955 567.259 948.084 568.347 945.956C569.123 944.439 570.929 943.992 572.418 943.437C584.275 938.39 596.102 932.97 608.163 928.438C609.083 926.298 610.853 924.339 612.69 922.944C611.17 914.871 613.513 905.899 612.448 897.589C611.781 892.377 609.037 889.301 604.99 886.179C604.346 885.683 604.442 884.893 604.298 884.114C602.239 867.512 599.303 851.182 596.273 834.74L596.956 834.152C604.47 827.751 613.613 823.138 621.491 817.104C642.21 801.234 661.539 783.362 681.368 766.395C689.215 759.68 698.312 754.019 705.45 746.556C708.029 743.859 710.971 740.472 711.252 736.59C711.58 732.042 708.06 727.48 705.14 724.307C694.826 713.098 681.179 704.124 668.703 695.549C668.84 695.466 668.976 695.381 669.115 695.301C682.191 687.741 708.651 686.005 722.758 679.244C726.469 677.465 730.809 674.503 732.065 670.363C733.238 666.499 733.139 662.222 732.676 658.252C731.25 646.022 727.642 633.716 724.964 621.7C721.719 607.141 719.005 592.373 715.439 577.9Z"/>
	<path fill="#2D201D" transform="matrix(-1.01465 1.24259e-16 1.24259e-16 1.01465 1039 0)" d="M783.429 638.42C783.435 638.472 783.447 638.523 783.449 638.575C783.527 640.638 782.064 642.533 780.981 644.203C774.371 654.398 766.317 663.657 759.363 673.629C755.261 679.511 752.11 686.608 747.455 691.969C746.997 690.603 746.876 689.59 747.129 688.168C749.424 675.286 772.543 646.064 783.429 638.42Z"/>
	<path fill="#2D201D" transform="matrix(-1.01465 1.24259e-16 1.24259e-16 1.01465 1039 0)" d="M568.016 954.316C567.918 951.955 567.259 948.084 568.347 945.956C569.123 944.439 570.929 943.992 572.418 943.437C575.379 955.925 587.649 1001.04 586.618 1010.93L586.06 1011.56C583.615 1010.51 581.902 1005.76 580.959 1003.35C578.823 997.904 577.652 991.81 576.128 986.155C573.283 975.597 570.284 965.016 568.016 954.316Z"/>
	<path fill="#2D201D" transform="matrix(-1.01465 1.24259e-16 1.24259e-16 1.01465 1039 0)" d="M608.163 928.438C609.083 926.298 610.853 924.339 612.69 922.944C616.143 941.707 621.157 960.254 625.586 978.817C627.468 986.704 630.107 995.071 630.941 1003.14C631.137 1005.04 631.279 1007.25 630.234 1008.94C629.787 1009.67 629.298 1009.64 628.54 1009.91C626.826 1009.5 625.96 1009.03 625.042 1007.48C620.187 999.267 611.051 941.355 608.163 928.438Z"/>
	<path fill="#2D201D" transform="matrix(-1.01465 1.24259e-16 1.24259e-16 1.01465 1039 0)" d="M627.11 838.538C628.971 838.427 630.686 838.451 632.482 839.017C636.851 840.392 640.204 843.404 642.3 847.446C644.865 852.39 645.544 858.924 643.628 864.197C641.833 869.136 638.515 871.716 633.952 873.878C632.074 873.839 630.282 873.753 628.471 873.203C623.947 871.828 620.328 868.4 618.312 864.171C615.943 859.204 615.454 852.711 617.499 847.555C619.359 842.864 622.558 840.371 627.11 838.538Z"/>
	<path fill="#B2ACA8" transform="matrix(-1.01465 1.24259e-16 1.24259e-16 1.01465 1039 0)" d="M626.972 842.469C630.314 842.391 632.994 843.154 635.427 845.564C638.1 848.211 639.08 852.299 638.902 855.959C638.644 861.246 636.396 864.675 632.619 868.097C632.154 868.065 631.689 868.016 631.227 867.95C627.592 867.428 624.992 865.889 622.91 862.817C620.669 859.512 619.935 855.096 620.739 851.208C621.573 847.173 623.611 844.691 626.972 842.469Z"/>
	<path fill="#2D201D" transform="matrix(-1.01465 1.24259e-16 1.24259e-16 1.01465 1039 0)" d="M637.653 918.556C639.904 918.631 642.053 918.95 644.149 919.813C649.022 921.82 652.731 926.106 654.647 930.948C656.514 935.665 656.746 941.354 654.583 946.021C652.651 950.19 649.537 952.436 645.313 953.964C643.036 953.936 640.894 953.785 638.713 953.071C634.255 951.612 630.852 947.993 628.914 943.809C626.572 938.75 626.116 932.488 628.257 927.28C630.185 922.59 633.161 920.428 637.653 918.556Z"/>
	<path fill="#B2ACA8" transform="matrix(-1.01465 1.24259e-16 1.24259e-16 1.01465 1039 0)" d="M638.183 922.415C638.392 922.434 638.601 922.443 638.808 922.472C642.287 922.961 645.49 924.995 647.574 927.803C649.858 930.879 650.938 934.935 650.368 938.733C649.702 943.166 647.204 946.091 643.692 948.664Q642.764 948.58 641.845 948.431Q641.201 948.321 640.571 948.146Q639.941 947.971 639.333 947.732Q638.724 947.494 638.143 947.194Q637.563 946.894 637.016 946.536Q636.469 946.178 635.961 945.766Q635.454 945.354 634.991 944.892Q634.529 944.43 634.116 943.923Q633.703 943.416 633.345 942.87C631.108 939.5 630.479 935.127 631.441 931.22C632.467 927.056 634.638 924.648 638.183 922.415Z"/>
	<path fill="#2D201D" transform="matrix(-1.01465 1.24259e-16 1.24259e-16 1.01465 1039 0)" d="M822.643 719.385C825.869 723.887 826.868 732.644 827.882 738.139C831.561 758.073 833.506 778.311 835.651 798.453Q840.209 839.04 843.217 879.772C844.465 896.798 847.245 915.01 845.531 932.029C844.017 947.064 826.191 1000.66 818.259 1012.17C817.01 1013.14 816.372 1013.58 814.766 1013.87C813.792 1013.55 813.47 1013.56 812.738 1012.78C811.754 1011.74 811.415 1010.68 811.453 1009.25C811.655 1001.6 819.134 984.063 822.047 975.887C827.441 960.748 835.004 943.419 837.032 927.502C837.975 920.098 836.838 912.236 836.26 904.82Q835.245 892.018 834.374 879.205L826.327 770.932C825.062 753.788 822.465 736.594 822.643 719.385Z"/>
	<path fill="#2D201D" transform="matrix(-1.01465 1.24259e-16 1.24259e-16 1.01465 1039 0)" d="M744.842 698.317C746.961 700.564 744.47 710.865 743.999 713.863C741.137 732.091 740.285 750.721 738.988 769.117C734.941 826.498 734.654 884.242 735.064 941.741C738.452 934.782 750.275 913.952 755.446 909.307C756.213 908.617 756.017 908.573 757.102 908.632C757.138 909.263 757.163 909.819 757.05 910.446C755.485 919.177 748.499 930.817 744.533 939.025Q740.932 946.65 737.75 954.459C730.501 972.008 724.777 990.257 717.283 1007.68C716.314 1009.93 715.148 1012.49 713.078 1013.94C712.019 1014.69 711.125 1014.84 709.854 1014.64C709.046 1014.17 708.471 1013.83 708.003 1012.98C705.314 1008.07 713.253 989.877 715.354 984.114C719.019 974.498 725.514 962.568 726.947 952.562C728.184 943.919 727.052 934.746 727.026 926.023Q726.996 897.939 727.262 869.857Q727.594 851.784 728.369 833.724C728.787 825.598 730.036 816.883 729.18 808.8C728.384 801.293 724.636 794.277 722.741 787.002C717.408 766.528 711.341 725.642 718.888 706.21C721.309 715.627 720.022 724.947 720.645 734.524Q721.068 741.579 721.918 748.596Q722.769 755.612 724.045 762.564Q725.321 769.515 727.017 776.376Q728.714 783.238 730.824 789.983C731.077 771.419 734.75 712.371 744.842 698.317Z"/>
	<path fill="#564746" transform="matrix(-1.01465 1.24259e-16 1.24259e-16 1.01465 1039 0)" d="M19.5274 430.024C24.8165 427.946 30.3878 426.88 36.0253 426.276C54.5367 424.295 68.0411 429.479 84.5921 436.708Q169.383 474.308 252.569 515.337C267.584 522.614 308.734 540.479 319.027 550.077C324.409 573.738 324.652 597.856 326.484 621.96C328.743 651.683 331.583 681.348 333.644 711.089L337.076 759.156C337.674 767.205 337.977 775.402 338.974 783.403L455.85 827.943C457.076 829.553 458.198 831.557 460.186 832.1C461.58 831.617 462.044 830.995 462.972 829.909C467.723 833.067 474.506 834.841 479.882 836.786C489.676 840.329 499.511 843.776 509.259 847.443C518.791 851.029 527.976 855.535 537.557 858.962C539.08 861.066 542.063 862.309 544.562 862.783C546.115 863.078 546.962 863.165 548.387 862.528C552.569 866.753 588.186 878.319 597.501 883.629C599.407 884.631 601.151 885.73 603.372 885.665C604.206 884.73 603.906 885.252 604.298 884.114C604.442 884.893 604.346 885.683 604.99 886.179C609.037 889.301 611.781 892.377 612.448 897.589C613.513 905.899 611.17 914.871 612.69 922.944C610.853 924.339 609.083 926.298 608.163 928.438C596.102 932.97 584.275 938.39 572.418 943.437C570.929 943.992 569.123 944.439 568.347 945.956C567.259 948.084 567.918 951.955 568.016 954.316C566.979 958.883 567.289 964.06 567.121 968.761C566.786 978.115 566.544 1014.04 562.819 1020.19C561.739 1021.37 561.959 1022.43 561.825 1024L388.368 1024L372.618 1024L323.915 1024L307.495 1024L0 1024L0 796.282L0 788.689Q32.9856 777.602 65.7947 766.003C77.5835 761.923 90.9063 758.562 101.996 752.928C92.2928 745.469 52.6571 719.657 48.2557 712.039C46.5426 709.074 46.0187 703.868 45.5689 700.508C43.4177 684.44 42.345 668.155 40.7129 652.019L30.2019 549.151L23.2888 480.853C21.5662 463.923 19.1124 447.076 19.5274 430.024Z"/>
	<path fill="#EEEEEC" transform="matrix(-1.01465 1.24259e-16 1.24259e-16 1.01465 1039 0)" d="M121.474 673.429C132.239 677.767 142.439 683.268 152.759 688.547C156.901 690.666 161.578 692.453 165.296 695.25C164.365 696.375 162.497 696.764 161.114 697.277L160.689 697.479C155.531 697.723 123.38 680.043 117.84 675.998L117.915 675.47L121.474 673.429Z"/>
	<path fill="#EEEEEC" transform="matrix(-1.01465 1.24259e-16 1.24259e-16 1.01465 1039 0)" d="M341.466 819.2Q354.103 824.701 366.417 830.892C363.722 832.423 360.933 833.824 358.196 835.282C353.473 837.882 348.663 840.561 343.62 842.481C342.103 834.961 341.992 826.862 341.466 819.2Z"/>
	<path fill="#EEEEEC" transform="matrix(-1.01465 1.24259e-16 1.24259e-16 1.01465 1039 0)" d="M373.049 833.899C384.338 836.299 396.115 842.748 406.694 847.44C403.132 850.136 389.795 858.359 385.858 858.185C373.801 854.161 361.691 850.087 350.188 844.64Q361.543 839.109 373.049 833.899Z"/>
	<path fill="#EEEEEC" transform="matrix(-1.01465 1.24259e-16 1.24259e-16 1.01465 1039 0)" d="M410.827 849.895C414.144 849.976 446.798 864.404 453.34 867.027C447.253 870.248 441.236 873.615 435.191 876.914C431.476 876.775 400.386 863.318 393.437 860.799C399.087 856.975 405.112 853.648 410.827 849.895Z"/>
	<path fill="#EEEEEC" transform="matrix(-1.01465 1.24259e-16 1.24259e-16 1.01465 1039 0)" d="M387.36 864.394C393.375 865.827 399.255 868.284 405.136 870.227C414.139 873.201 423.271 875.901 432.127 879.292Q422.336 885.021 412.385 890.467L407.356 893.098Q388.633 882.781 368.886 874.593C375.09 871.349 381.567 868.335 387.36 864.394Z"/>
	<path fill="#EEEEEC" transform="matrix(-1.01465 1.24259e-16 1.24259e-16 1.01465 1039 0)" d="M513.793 887.453C514.85 888.039 515.606 888.872 516.115 889.962C516.584 890.966 516.854 892.404 516.338 893.439C515.501 895.115 513.382 896.075 511.814 896.981C495.234 906.561 477.399 914.498 460.31 923.156C445.991 930.411 431.686 939.031 416.757 944.838L415.92 944.646C413.832 942.077 414.323 936.239 414.222 933.082C431.814 928.515 447.607 919.124 463.784 911.149Q488.615 898.935 513.793 887.453Z"/>
	<path fill="#EEEEEC" transform="matrix(-1.01465 1.24259e-16 1.24259e-16 1.01465 1039 0)" d="M64.6307 887.307C68.8264 890.704 71.7034 896.542 75.2678 900.67C85.8721 912.948 102.873 922.162 118.09 927.22C154.412 939.292 198.996 929.412 232.228 911.678C240.178 907.436 246.837 900.742 254.834 896.873L255.479 896.567C254.553 898.209 253.56 899.817 252.592 901.434C241.306 916.755 223.509 923.965 205.939 929.613C172.684 940.304 133.909 943.565 101.996 927.028C85.7938 918.631 70.2827 905.221 64.6307 887.307Z"/>
	<path fill="#EEEEEC" transform="matrix(-1.01465 1.24259e-16 1.24259e-16 1.01465 1039 0)" d="M221.787 834.835C249.399 850.796 274.924 870.053 304.538 882.417L309.04 881.349C327.356 893.501 346.96 902.842 366.672 912.438C381.318 919.569 395.793 927.056 411.251 932.315C411.095 936.65 411.845 940.648 412.698 944.874C390.108 936.244 226.456 855.762 220.61 843.231C219.398 840.634 220.926 837.351 221.787 834.835Z"/>
	<path fill="#EEEEEC" transform="matrix(-1.01465 1.24259e-16 1.24259e-16 1.01465 1039 0)" d="M344.64 847.158C347.859 847.937 377.312 860.554 380.643 862.467C367.984 868.197 354.834 874.684 344.885 884.539C352.275 883.16 358.319 880.524 364.875 876.874C378.189 883.355 391.695 889.202 405.236 895.172C397.241 899.225 390.113 903.995 384.39 910.97C405.727 902.827 424.499 889.355 444.243 878.096C449.458 875.122 454.639 872.002 460.129 869.557Q468.689 872.232 477.12 875.286Q489.953 879.711 502.663 884.48C485.908 893.096 468.556 900.446 451.429 908.269C438.823 914.027 426.471 920.328 413.88 926.124C403.395 920.794 392.317 916.535 381.644 911.574C359.776 901.407 337.955 890.735 316.403 879.91C323.067 876.078 330.505 872.006 336.29 866.935C342.436 861.548 344.109 854.937 344.64 847.158Z"/>
	<path fill="#EEEEEC" transform="matrix(-1.01465 1.24259e-16 1.24259e-16 1.01465 1039 0)" d="M605.547 897.446C605.498 904.852 605.321 912.281 605.433 919.685C582.733 930.577 559.285 940.004 536.179 950.005Q485.413 971.873 435.109 994.783Q416.169 1003.2 397.363 1011.91C389.034 1015.75 380.581 1019.44 372.618 1024L323.915 1024C332.493 1019.1 341.763 1015.23 350.753 1011.17C369.275 1002.79 388.001 994.904 406.504 986.472L605.547 897.446Z"/>
	<path fill="#B2ACA8" transform="matrix(-1.01465 1.24259e-16 1.24259e-16 1.01465 1039 0)" d="M388.368 1024C394.632 1020.08 402.398 1017.5 409.197 1014.58L444.571 999.194L503.454 973.585C521.997 965.367 540.358 956.83 559.101 949.056C559.033 959.874 557.089 1013.73 562.819 1020.19C561.739 1021.37 561.959 1022.43 561.825 1024L388.368 1024Z"/>
	<path fill="#EEEEEC" transform="matrix(-1.01465 1.24259e-16 1.24259e-16 1.01465 1039 0)" d="M55.5929 431.795C63.1484 433.051 71.6377 438.019 78.6231 441.245Q100.124 451.225 121.471 461.528L307.853 550.631C302.655 552.413 296.375 552.985 291.498 555.338C290.266 555.932 289.403 556.727 288.995 558.064C288.713 558.986 288.796 558.677 289.347 559.615C294.989 562.314 309.379 556.846 315.077 554.964C314.733 584.27 318.041 613.233 320.11 642.418L330.805 789.577C332.489 812.012 335.52 834.213 335.569 856.746C333.003 859.203 329.975 861.304 327.16 863.477Q319.373 869.061 311.048 873.804C310.981 847.374 308.268 821.141 305.819 794.859L298.5 712.953L290.723 626.218C288.684 604.29 287.578 581.057 281.669 559.755C268.746 547.918 250.256 540.571 234.63 532.917L195.6 513.586C141.13 486.49 86.6214 458.799 31.3119 433.459Q43.4603 432.743 55.5929 431.795Z"/>
	<path fill="#EEEEEC" transform="matrix(-1.01465 1.24259e-16 1.24259e-16 1.01465 1039 0)" d="M115.895 680.497C122.173 683.347 128.177 687.198 134.189 690.584C141.461 694.68 148.877 698.51 156.164 702.58C154.463 713.418 154.689 725.114 154.264 736.08L152.047 796.067L149.246 881.599C149.043 890.182 147.235 900.191 148.806 908.55C149.135 910.304 149.529 912.444 151.098 913.503L152.038 913.032C153.764 910.149 154.432 907.069 154.805 903.769C155.84 894.61 155.669 885.191 155.872 875.981Q156.295 858.918 157.002 841.864Q158.631 798.185 159.197 754.479C159.501 737.417 160.076 720.381 159.836 703.313L169.001 699.469C169.137 747.556 166.405 795.675 165.503 843.75C165.157 862.236 164.103 881.212 165.142 899.652C165.292 902.324 165.44 905.972 167.062 908.151L167.969 908.078C172.231 903.171 171.061 892.781 171.329 886.624Q172.005 868.398 172.316 850.162C200.193 859.751 228.748 872.87 252.21 890.906C234.368 909.262 197.526 920.895 172.213 925.041C143.068 929.816 115.184 924.467 91.0506 906.954C74.0159 894.591 63.2063 879.562 59.9408 858.579C72.2975 852.596 86.1141 851.511 99.5819 850.462C99.2953 859.611 97.955 869.497 99.0418 878.584C99.2679 880.474 99.8281 881.692 101.354 882.905L102.356 882.715C104.326 880.299 104.686 876.283 105.093 873.263C107.07 858.569 107.265 843.123 108.109 828.296L113.188 732.557C114.026 715.218 114.036 697.767 115.895 680.497Z"/>
	<path fill="#EEEEEC" transform="matrix(-1.01465 1.24259e-16 1.24259e-16 1.01465 1039 0)" d="M24.2468 435.76C32.6264 438.478 39.9264 443.803 47.5699 448.074Q61.072 455.465 74.9172 462.192L196.632 522.177C223.867 535.821 250.93 550.694 279.022 562.431C278.704 577.739 281.154 593.402 282.338 608.676C283.796 627.485 285.876 646.22 287.677 664.996L294.247 736.308L301.579 820.854C303.039 839.226 303.567 857.403 306.931 875.572C285.123 867.378 265.704 854.169 246.296 841.562L203.215 813.904C193.368 807.595 183.601 801.058 173.486 795.187C173.439 788.564 173.375 781.92 173.962 775.318C188.497 787.088 205.026 796.105 220.716 806.199C231.721 813.28 262.825 835.261 272.602 837.66C274.385 838.098 275.785 837.906 277.366 836.933C279.154 834.465 279.191 829.983 279.225 826.967C279.36 814.859 277.745 802.464 276.678 790.397C275.095 772.503 273.633 754.555 271.617 736.706C270.435 714.843 267.569 692.814 265.4 671.016C262.21 638.962 259.333 607.054 255.37 575.076C238.51 568.609 222.809 558.462 206.658 550.335C159.889 526.799 113.785 502.074 67.2573 478.101C61.241 475.001 51.7759 467.57 45.2306 466.741C44.0719 466.594 43.9126 466.699 43.0242 467.351C42.5133 470.411 45.2253 491.226 45.6106 496.166C50.9122 564.148 59.3552 631.944 66.9625 699.698C78.2476 711.935 93.1172 719.89 105.829 730.469Q105.49 738.875 104.895 747.266C89.2564 733.111 70.7441 722.361 54.4968 708.861C53.1176 698.255 52.3867 687.539 51.1791 676.908Q43.3016 608.524 36.7059 540.004C33.0724 505.187 29.5207 470.373 24.2468 435.76Z"/>
	<path fill="#EEEEEC" transform="matrix(-1.01465 1.24259e-16 1.24259e-16 1.01465 1039 0)" d="M49.1881 473.574C54.4003 475.741 59.461 479.474 64.2656 482.443Q76.8116 490.327 89.7862 497.484Q141.963 525.681 194.939 552.342C213.217 561.54 231.422 571.68 250.507 579.067C250.596 598.442 253.182 617.897 255.091 637.16L261.354 704.991L266.721 762.835C268.673 785.934 270.302 809.053 274.936 831.806C262.355 825.113 250.588 817.4 238.658 809.628C224.438 799.835 209.439 790.848 194.757 781.764C187.773 777.443 180.609 773.294 173.901 768.553C173.762 744.407 175.927 720.513 174.901 696.326C165.105 684.953 134.172 672.925 120.018 666.973Q114.847 669.648 109.739 672.441C106.761 688.812 107.37 706.068 106.608 722.666C96.1955 714.328 85.353 706.477 74.5877 698.601C72.4431 675.314 69.3351 652.18 66.5559 628.966L59.7211 567.438Q57.3276 546.628 55.2754 525.781C53.5962 508.305 52.1227 490.899 49.1881 473.574Z"/>
	<path fill="#564746" transform="matrix(-1.01465 1.24259e-16 1.24259e-16 1.01465 1039 0)" d="M112.256 547.393C117.443 553.315 118.273 573.553 119.262 581.949C133.288 588.311 146.404 596.684 159.671 604.452C159.489 593.168 156.573 574.449 160.143 564.128L160.706 563.879C164.777 571.123 165.734 598.95 166.058 608.224C180.42 616.794 208.236 630.48 218.758 641.94C201.888 637.586 181.871 623.964 166.354 615.276C167.938 631.345 169.127 647.467 168.922 663.625L168.826 665.75C165.359 660.885 161.311 620.994 159.398 611.064C147.016 603.047 133.526 594.918 120.274 588.41C121.709 606.651 125.415 623.986 124.99 642.45C118.489 629.771 116.443 600.254 113.828 584.894C100.57 575.263 86.509 567.589 73.9452 556.925C88.2366 562.825 100.766 570.193 113.702 578.568C112.2 568.89 109.852 556.968 112.256 547.393Z"/>
	<path fill="#EEEEEC" transform="matrix(-1.01465 1.24259e-16 1.24259e-16 1.01465 1039 0)" d="M0 796.282Q41.44 783.122 82.3624 768.431C89.3791 765.938 96.5997 763.822 103.543 761.157C103.512 774.647 102.768 788.15 102.197 801.627C101.6 815.74 101.213 829.949 99.5501 843.985C89.6967 845 60.7729 846.853 54.7281 854.726C51.6945 858.677 52.6121 865.131 53.3957 869.726C57.4661 893.6 68.4063 912.379 88.2675 926.451C115.63 945.838 149.511 948.55 181.678 942.918C206.002 938.659 244.031 927.924 258.466 907.08C260.828 903.67 262.611 899.535 261.807 895.313C260.187 886.81 248.323 879.772 241.549 875.472C222.505 863.386 194.901 848.178 172.472 844.065C172.479 830.421 171.908 816.442 172.852 802.845C187.021 810.692 204.359 822.851 217.67 832.376C213.984 837.235 213.223 840.986 213.543 847.012C216.287 850.478 219.497 852.818 223.183 855.196C234.662 862.604 247.237 868.498 259.233 875.028C285.112 889.114 310.935 903.489 337.158 916.93C349.393 923.201 361.93 928.956 374.312 934.933C384.604 939.901 401.354 949.603 412.346 950.867C422.446 952.028 492.499 913.577 507.443 905.954C512.14 903.558 517.318 901.998 521.921 899.54C524.577 894.128 525.086 890.831 524.066 884.885C521.734 882.279 519.531 880.971 516.38 879.553C505.843 874.814 494.246 871.668 483.264 868.029C465.13 862.022 446.944 855.805 429.222 848.662C399.697 836.761 371.126 822.315 341.364 811.025C340.482 804.511 339.454 797.992 339.377 791.406C358.872 798.489 377.838 807.252 397.227 814.676C416.128 821.914 435.272 828.498 454.238 835.553Q485.777 847.58 517.194 859.922Q544.338 870.545 571.36 881.473C580.396 885.105 591.003 888.303 599.32 893.358Q556.045 913.073 512.411 931.981L399.413 981.993Q368.211 995.518 337.238 1009.56C327.409 1014.03 316.518 1018.1 307.495 1024L0 1024L0 796.282Z"/>
	<path fill="#564746" transform="matrix(-1.01465 1.24259e-16 1.24259e-16 1.01465 1039 0)" d="M296.805 927.671C305.313 926.573 315.555 929.794 322.77 934.16C329.612 938.3 335.722 944.765 337.543 952.748C339.219 960.096 337.01 967.305 332.989 973.461C322.321 989.794 301.849 998.604 283.448 1002.42C272.272 1003.55 258.939 1002.91 249.423 996.196C245.008 993.079 242.183 988.636 241.456 983.264C240.013 972.612 245.628 961.152 251.857 952.889C263.058 938.028 278.584 930.23 296.805 927.671Z"/>
	<path fill="#EEEEEC" transform="matrix(-1.01465 1.24259e-16 1.24259e-16 1.01465 1039 0)" d="M295.845 935.184C297.427 934.886 299.203 934.921 300.812 934.898C312.692 934.727 323.364 941.921 331.568 949.842C325.844 950.643 320.425 951.579 314.942 953.459C311.771 954.958 309.039 956.868 306.189 958.899C300.467 948.638 293.314 943.701 283.017 938.428C287.208 936.775 291.384 935.767 295.845 935.184Z"/>
	<path fill="#EEEEEC" transform="matrix(-1.01465 1.24259e-16 1.24259e-16 1.01465 1039 0)" d="M330.095 955.568C330.353 955.596 330.621 955.577 330.869 955.653C331.955 955.987 332.537 956.875 333.056 957.799C333.059 959.254 332.64 960.334 332.033 961.629C323.747 979.302 303.564 988.084 286.254 994.014L284.747 994.001L284.375 993.243C284.603 992.559 284.819 991.955 285.183 991.328C287.24 987.787 290.442 984.576 293.123 981.498C303.578 969.498 314.159 959.376 330.095 955.568Z"/>
	<path fill="#EEEEEC" transform="matrix(-1.01465 1.24259e-16 1.24259e-16 1.01465 1039 0)" d="M275.343 941.898C275.618 941.926 275.897 941.931 276.169 941.982C287.465 944.084 295.431 954.698 300.733 963.911C292.038 973.457 281.53 984.109 275.811 995.76C272.587 995.672 269.355 995.483 266.179 994.899C260.634 993.881 254.772 991.841 251.556 986.886C249.051 983.029 248.911 978.322 249.859 973.944C252.866 960.054 263.827 949.305 275.343 941.898Z"/>
</svg>
